<svg xmlns="http://www.w3.org/2000/svg" xmlns:xlink="http://www.w3.org/1999/xlink"
    viewBox="0 0 312.05 331.62">
    <defs>
        <style>
            .cls-1{fill:none;}.cls-2{isolation:isolate;}.cls-3{fill:#a23b1a;}.cls-4,.cls-8{fill:#dc723d;}.cls-5{fill:#e7e3c8;}.cls-13,.cls-20,.cls-31,.cls-5,.cls-8{mix-blend-mode:screen;}.cls-17,.cls-19,.cls-6,.cls-7{fill:#cd9685;}.cls-11,.cls-14,.cls-17,.cls-18,.cls-19,.cls-21,.cls-25,.cls-30,.cls-6,.cls-7{mix-blend-mode:multiply;}.cls-7{opacity:0.75;}.cls-30,.cls-9{fill:#9f6234;}.cls-10,.cls-11{fill:#fbe6da;}.cls-12,.cls-13{fill:#f7a149;}.cls-14{fill:#e9d6cc;}.cls-15{fill:#70c059;opacity:0.35;}.cls-16{fill:#fff5de;}.cls-17{opacity:0.15;}.cls-18{fill:#cd9572;opacity:0.74;}.cls-19{opacity:0.56;}.cls-20{fill:#f17f4e;}.cls-21{fill:#ebebec;}.cls-22{fill:#fff;}.cls-23{clip-path:url(#clip-path);}.cls-24{fill:#5b2400;}.cls-25{fill:#c7c8ca;}.cls-26{clip-path:url(#clip-path-2);}.cls-27{fill:#f3a097;}.cls-28{fill:#ee6851;}.cls-29{fill:#593410;}.cls-31{fill:#df7938;}.cls-32{fill:#a3a5a8;}</style>
        <clipPath id="clip-path" transform="translate(-4.83 -5.13)">
            <path class="cls-1"
                d="M124.65,89c-.06.11-.39.14-.5.16l-.58.1a8,8,0,0,1-2,0,16.86,16.86,0,0,1-3.3-.7,15.34,15.34,0,0,1-5.4-3,11.6,11.6,0,0,1-3.5-5.13,18.47,18.47,0,0,1-.65-7.54,13.16,13.16,0,0,1,1.67-5.89,11,11,0,0,1,1.12-1,4.65,4.65,0,0,1,3.78-1.21,5.78,5.78,0,0,1,3,2.29,23.5,23.5,0,0,1,2.2,3.4,34.91,34.91,0,0,1,3.2,9.5,64.61,64.61,0,0,1,1,9Z" />
        </clipPath>
        <clipPath id="clip-path-2" transform="translate(-4.83 -5.13)">
            <path class="cls-1"
                d="M164.59,89a63.11,63.11,0,0,1,1-9,34.91,34.91,0,0,1,3.2-9.5,23.5,23.5,0,0,1,2.2-3.4,5.78,5.78,0,0,1,3-2.29A4.65,4.65,0,0,1,177.75,66a10.07,10.07,0,0,1,1.12,1A13.16,13.16,0,0,1,180.54,73a18.47,18.47,0,0,1-.65,7.54,11.5,11.5,0,0,1-3.49,5.13,15.38,15.38,0,0,1-5.41,3,16.86,16.86,0,0,1-3.3.7,8,8,0,0,1-2,0l-.58-.1c-.1,0-.43,0-.49-.16A0,0,0,0,1,164.59,89Z" />
        </clipPath>
    </defs>
    <g class="cls-2">
        <g id="Layer_1" data-name="Layer 1">
            <path class="cls-3"
                d="M300.51,58.25a58.3,58.3,0,0,0-10.68-11.77,59.41,59.41,0,0,0-13.49-8.2,78.07,78.07,0,0,0-30.26-6.6,91.6,91.6,0,0,0-56,17.5,80.75,80.75,0,0,0-20.36,22.05,83,83,0,0,0-10.78,27.34A113.88,113.88,0,0,0,157,129.23c.77,10.93,3.79,21.53,7.7,31.72,4,10.43,8.91,20.48,13.4,30.7A127.27,127.27,0,0,1,188,224a96.8,96.8,0,0,1,.2,12.39,73.36,73.36,0,0,1-2.09,15c-1.35,5.28-3.64,10.18-5.83,15.15a48.1,48.1,0,0,1-4.12,8.13c-1.52,2.2-3.56,4-4.93,6.32-.07.12-.14.33,0,.43a12.88,12.88,0,0,0,6.62,1.57,44.92,44.92,0,0,0,7.05-.49,56.33,56.33,0,0,0,16.65-5.12,66.17,66.17,0,0,0,25.38-21.37c6.24-8.83,10.3-19,12.94-29.46a112.87,112.87,0,0,0,2.95-37.12A161.65,161.65,0,0,0,240,170.67a190.13,190.13,0,0,0-4.61-18.54l-.06-.19c11.55,12.3,31.23,13.45,46.75,8.19a49.24,49.24,0,0,0,23.09-16.24,54.94,54.94,0,0,0,11.1-26.63C319,96.74,312.2,75.07,300.51,58.25Z"
                transform="translate(-4.83 -5.13)" />
            <path class="cls-4"
                d="M313.27,126.65a52.11,52.11,0,0,1-15.16,23.55,50.71,50.71,0,0,1-26.65,11.58c-9.75,1.29-20.34.08-28.83-5.18a31.26,31.26,0,0,1-7.81-7,15.68,15.68,0,0,1-2.62-3.76,40.94,40.94,0,0,1-4.35-29.66,38.42,38.42,0,0,1,12.42-20.58A29.42,29.42,0,0,1,266,89.1a22.62,22.62,0,0,1,2.17.65c.25,0,.51.11.75.18A17.74,17.74,0,0,1,274,92.69a16.41,16.41,0,0,1,2.94,2.63l-.16-.26a16.94,16.94,0,0,1,2.59,3.35,20.26,20.26,0,0,1,2.07,13.35,17.71,17.71,0,0,1-6.11,10.91,15.62,15.62,0,0,1-11.94,3.21c-3.87-.54-8.27-2.55-9.37-6.65a10.88,10.88,0,0,1-.24-1.29c0,.13-.08.26-.11.39a4.92,4.92,0,0,0,.05,1.43,7.53,7.53,0,0,0,2.45,4,13.36,13.36,0,0,0,5.12,2.53,16.68,16.68,0,0,0,13-2A18.1,18.1,0,0,0,282,113.54a21.78,21.78,0,0,0-.82-13.74,17.36,17.36,0,0,0-5.43-6.92,31.27,31.27,0,0,0-3.42-2.28c-.37-.21-.75-.42-1.13-.61l-.05,0-.23-.12C265.67,87.16,259,87,253.35,88.18c-8.79,1.88-16.23,7.89-21.11,15.31-8.46,12.88-8.81,31.13-.32,44.09.54.83,1.11,1.61,1.71,2.37.73,2.31,1.35,4.67,2,7,.81,3,1.56,6.09,2.26,9.15a184.39,184.39,0,0,1,3.27,18.22A114.52,114.52,0,0,1,240,221.19c-2.14,10.52-5.61,20.93-11.17,30.16A65.32,65.32,0,0,1,206.05,274,59.32,59.32,0,0,1,190,280.66a54,54,0,0,1-7.56,1.26,27.33,27.33,0,0,1-7.45-.06,9.18,9.18,0,0,1-2.92-1,64.7,64.7,0,0,1,4.25-5.26,34.56,34.56,0,0,0,3.86-7c1.17-2.55,2.24-5.14,3.39-7.69a56.23,56.23,0,0,0,2.85-7.65,69.54,69.54,0,0,0,2.52-14.51c0,1.09-.05,2.18-.12,3.27,0,.19.29.11.3,0a87,87,0,0,0-.21-15.4c-.07-.89-.14-1.77-.22-2.65a52.14,52.14,0,0,0-2.31-11.58c-.27-1.09-.56-2.18-.88-3.27-3-10.44-7.64-20.26-12.1-30.13s-8.84-19.76-11.85-30.16a100.12,100.12,0,0,1-3.23-15.42,106.59,106.59,0,0,1-.61-16.08,100.57,100.57,0,0,1,4.82-28.9A79.16,79.16,0,0,1,176.63,63C189.33,47.63,207.5,37.72,227,34.08c19.69-3.69,41.49-1.17,58.33,10.29,8.7,5.91,14.93,14.38,19.84,23.56a90.7,90.7,0,0,1,9.7,28.52C316.41,106.43,316.36,117,313.27,126.65Z"
                transform="translate(-4.83 -5.13)" />
            <path class="cls-5"
                d="M314.83,96.45a90.7,90.7,0,0,0-9.7-28.52c-4.91-9.18-11.14-17.65-19.84-23.56-16.84-11.46-38.64-14-58.33-10.29a91.46,91.46,0,0,0-12.45,3.25h.57a60.49,60.49,0,0,1,20.08,3.52.3.3,0,0,1,0,.57,33.2,33.2,0,0,0-8.67,3.42c4.33-.49,8.89-.31,12.8,1.73.25.14.1.47-.11.54-2,.66-4.09,1.3-6.16,1.88a23.15,23.15,0,0,1,2.76.36c5.06,1,10.14,3.47,13.15,7.78.11.16.08.46-.17.48-2.37.22-4.76.15-7.13.25,5.47,1.62,11,4.71,14,9.63.13.21-.08.42-.29.43a39.2,39.2,0,0,0-13.95,2.71,22.61,22.61,0,0,1,3.84.38,29,29,0,0,1,15.4,8.56.3.3,0,0,1-.25.49A26.53,26.53,0,0,0,250,81.12a33.88,33.88,0,0,0-14.91,10,46,46,0,0,0-8.66,14.15c.75-.87,1.52-1.73,2.32-2.55a33.15,33.15,0,0,1,11-7.72,31.57,31.57,0,0,1,13.59-6.82c5.62-1.19,12.32-1,17.54,1.66l.23.12.05,0c.38.19.76.4,1.13.61a31.27,31.27,0,0,1,3.42,2.28,17.36,17.36,0,0,1,5.43,6.92,21.78,21.78,0,0,1,.82,13.74,18.1,18.1,0,0,1-7.68,10.79,16.68,16.68,0,0,1-13,2,13.36,13.36,0,0,1-5.12-2.53,7.53,7.53,0,0,1-2.45-4,4.92,4.92,0,0,1-.05-1.43c0-.13.07-.26.11-.39a10.88,10.88,0,0,0,.24,1.29c1.1,4.1,5.5,6.11,9.37,6.65a15.62,15.62,0,0,0,11.94-3.21,17.71,17.71,0,0,0,6.11-10.91,20.26,20.26,0,0,0-2.07-13.35,16.94,16.94,0,0,0-2.59-3.35l.16.26A16.41,16.41,0,0,0,274,92.69a17.74,17.74,0,0,0-5.07-2.76c-.24-.07-.5-.13-.75-.18A22.62,22.62,0,0,0,266,89.1a29.27,29.27,0,0,0-23.89,5.07,24.52,24.52,0,0,1,2.43-.57.3.3,0,0,1,.25.51,61.89,61.89,0,0,0-6.35,8.31,17.18,17.18,0,0,1,14.5-.37c.21.09.3.46,0,.55a42.4,42.4,0,0,0-9.29,4.11A15.69,15.69,0,0,1,253,110a.3.3,0,0,1-.27.52,11.41,11.41,0,0,0-7.65,1,50.53,50.53,0,0,0-6.19,3.93c4.49,1.34,9.57,4.08,10.26,9.15a.3.3,0,0,1-.31.36c-2-.13-4,0-6-.26,2.8,2.07,5.46,4.81,6.22,8.25a.3.3,0,0,1-.39.34,59,59,0,0,1-8.84-3.19,22.67,22.67,0,0,1,1.78,2.38,37.63,37.63,0,0,1,2.61,4.63,26.65,26.65,0,0,1,1.64,4.42,9.74,9.74,0,0,1,.36,3.72,3.25,3.25,0,0,1-1.48,2.45A5.27,5.27,0,0,1,241,148a10.39,10.39,0,0,1-4.9-2.3,22.1,22.1,0,0,1-4-4.91,41,41,0,0,1-2.4-4.42,40,40,0,0,1-2.42-4.09,38.18,38.18,0,0,0,4.86,13.62,15.68,15.68,0,0,0,2.62,3.76,31.26,31.26,0,0,0,7.81,7c8.49,5.26,19.08,6.47,28.83,5.18a50.71,50.71,0,0,0,26.65-11.58,52.11,52.11,0,0,0,15.16-23.55C316.36,117,316.41,106.43,314.83,96.45Z"
                transform="translate(-4.83 -5.13)" />
            <path class="cls-6"
                d="M264.58,87.84a20.65,20.65,0,0,1,2.48.54l-.35-.27A12.66,12.66,0,0,0,264.58,87.84Z"
                transform="translate(-4.83 -5.13)" />
            <path class="cls-7"
                d="M237.87,166.12c-.7-3.06-1.45-6.12-2.26-9.15-.63-2.35-1.25-4.71-2-7-.6-.76-1.17-1.54-1.71-2.37-8.49-13-8.14-31.21.32-44.09,4.88-7.42,12.32-13.43,21.11-15.31a32.62,32.62,0,0,1,7.84-.68h.09a16.48,16.48,0,0,1,4.38-.13A36.56,36.56,0,0,0,250,81a47.66,47.66,0,0,0-17.33.7c-11.24,2.49-22.16,9-27.8,19.29-3.31,6.07-4.56,13.24-4.6,20.09a82.58,82.58,0,0,0,3.41,22c2,7.14,4.38,14.12,6.47,21.22a140.11,140.11,0,0,1,4.76,22.67,90.29,90.29,0,0,1,.66,12.3,91.53,91.53,0,0,1-.76,9.36,52,52,0,0,1-1.66,8.67c-.73,2.4-1.78,4.91-3.75,6.56a.3.3,0,0,1-.49-.16c-1.5-5.07-1.41-10.76-4.31-15.31.63,6.79,2.24,13.71.59,20.45-.07.31-.5.21-.57,0-1-3.26-1.41-6.72-2.72-9.86a31.85,31.85,0,0,1-.51,15c-.11.35-.56.18-.58-.12-.05-1-.12-2.08-.22-3.12a72.87,72.87,0,0,0-6.18-22.45A148.94,148.94,0,0,0,183.06,188c-4.22-6.51-8.67-12.87-12.82-19.43-1.51-2.4-3-4.82-4.4-7.29,2.31,6,4.92,11.8,7.55,17.61,4.46,9.87,9.12,19.69,12.1,30.13.32,1.09.61,2.18.88,3.27a52.14,52.14,0,0,1,2.31,11.58c.08.88.15,1.76.22,2.65a87,87,0,0,1,.21,15.4c0,.15-.31.23-.3,0,.07-1.09.1-2.18.12-3.27a69.54,69.54,0,0,1-2.52,14.51,56.23,56.23,0,0,1-2.85,7.65c-1.15,2.55-2.22,5.14-3.39,7.69a34.56,34.56,0,0,1-3.86,7,64.7,64.7,0,0,0-4.25,5.26,9.18,9.18,0,0,0,2.92,1,27.33,27.33,0,0,0,7.45.06,54,54,0,0,0,7.56-1.26A59.32,59.32,0,0,0,206.05,274a65.32,65.32,0,0,0,22.78-22.64c5.56-9.23,9-19.64,11.17-30.16a114.52,114.52,0,0,0,1.14-36.85A184.39,184.39,0,0,0,237.87,166.12Z"
                transform="translate(-4.83 -5.13)" />
            <path class="cls-7"
                d="M262.87,87.1c-7.27-2.38-15.54-1.65-22.85.19-6.78,1.7-12.79,6.18-17,11.65a44.47,44.47,0,0,0-8.24,18.61,56.77,56.77,0,0,0,.14,21.23c2.67,15,8.78,29.08,13.2,43.6,4.24,13.93,6.92,28.8,2.59,43.05-2.26,7.42-6.11,14.7-11.78,20.06-5.86,5.54-13.25,9.34-20.82,11.95a.3.3,0,0,1-.43-.29,89.94,89.94,0,0,0-.18-15.74c-.92-8.52-3.39-16.94-8.15-24.13-.76-1.14-1.57-2.23-2.43-3.29a57.05,57.05,0,0,1,1.79,9.92c.08.88.15,1.76.22,2.65a87,87,0,0,1,.21,15.4c0,.15-.31.23-.3,0,.07-1.09.1-2.18.12-3.27a69.54,69.54,0,0,1-2.52,14.51,56.23,56.23,0,0,1-2.85,7.65c-1.15,2.55-2.22,5.14-3.39,7.69a34.56,34.56,0,0,1-3.86,7,64.7,64.7,0,0,0-4.25,5.26,9.18,9.18,0,0,0,2.92,1,27.33,27.33,0,0,0,7.45.06,54,54,0,0,0,7.56-1.26A59.32,59.32,0,0,0,206.05,274a65.32,65.32,0,0,0,22.78-22.64c5.56-9.23,9-19.64,11.17-30.16a114.52,114.52,0,0,0,1.14-36.85,184.39,184.39,0,0,0-3.27-18.22c-.7-3.06-1.45-6.12-2.26-9.15-.63-2.35-1.25-4.71-2-7-.6-.76-1.17-1.54-1.71-2.37-8.49-13-8.14-31.21.32-44.09,4.88-7.42,12.32-13.43,21.11-15.31a32.62,32.62,0,0,1,7.84-.68h.09a18.38,18.38,0,0,1,2.11-.21Z"
                transform="translate(-4.83 -5.13)" />
            <path class="cls-7"
                d="M258.52,118.42a11.66,11.66,0,0,0,2.4-1.12c2.43-1.51,4.7-4.38,4.26-7.41-.53-3.63-4.64-4.62-7.74-4.71a9.59,9.59,0,0,0-8.2,3.6,13.27,13.27,0,0,0-2.27,8.55,17.39,17.39,0,0,0,3,9,16,16,0,0,0,9.64,6.19,17.82,17.82,0,0,0,12.13-1.72,23.37,23.37,0,0,0,9.09-8.72,22.5,22.5,0,0,0,3.26-12.43,19.67,19.67,0,0,0-2.43-8.63,21.92,21.92,0,0,1,.35,12.48,18.1,18.1,0,0,1-7.68,10.79,16.68,16.68,0,0,1-13,2,13.36,13.36,0,0,1-5.12-2.53,7.53,7.53,0,0,1-2.45-4,4.92,4.92,0,0,1-.05-1.43c0-.13.07-.26.11-.39a10.88,10.88,0,0,0,.24,1.29c1.1,4.1,5.5,6.11,9.37,6.65a15.62,15.62,0,0,0,11.94-3.21,17.71,17.71,0,0,0,6.11-10.91,20.26,20.26,0,0,0-2.07-13.35,15.25,15.25,0,0,0-1-1.48l-.48-.43a13.14,13.14,0,0,1,1.46,5.41,19,19,0,0,1-1.65,8.55,21.27,21.27,0,0,1-5,7.12,13,13,0,0,1-6.88,3.56,9.76,9.76,0,0,1-7.46-2.19A.3.3,0,0,1,258.52,118.42Z"
                transform="translate(-4.83 -5.13)" />
            <path class="cls-7"
                d="M314.83,96.45a90.7,90.7,0,0,0-9.7-28.52c-4.91-9.18-11.14-17.65-19.84-23.56-16.84-11.46-38.64-14-58.33-10.29a86.74,86.74,0,0,0-46,24.08c1.17-.95,2.36-1.87,3.58-2.74a87.23,87.23,0,0,1,46.66-16,82.5,82.5,0,0,1,27,3.48,63.81,63.81,0,0,1,19.19,9.79,66.17,66.17,0,0,1,14.95,15.52,62.08,62.08,0,0,1,8.93,19.39,57.93,57.93,0,0,1,1.49,21.18,63.53,63.53,0,0,1-5.14,19.07,47.82,47.82,0,0,1-10.91,15.58,35.21,35.21,0,0,1-16.59,8.69,33.85,33.85,0,0,1-19.24-1.33A28.26,28.26,0,0,1,238,140.27a33.52,33.52,0,0,1-5.4-15.85,36.36,36.36,0,0,1,2.88-17.35,30.71,30.71,0,0,1,4.43-7.43,31.52,31.52,0,0,1,5.45-4.93,41.23,41.23,0,0,1,11.78-6.24,30.29,30.29,0,0,0-16.84,7.17,38.42,38.42,0,0,0-12.42,20.58,40.94,40.94,0,0,0,4.35,29.66,15.68,15.68,0,0,0,2.62,3.76,31.26,31.26,0,0,0,7.81,7c8.49,5.26,19.08,6.47,28.83,5.18a50.71,50.71,0,0,0,26.65-11.58,52.11,52.11,0,0,0,15.16-23.55C316.36,117,316.41,106.43,314.83,96.45Z"
                transform="translate(-4.83 -5.13)" />
            <path class="cls-6"
                d="M269.87,89.36a8.59,8.59,0,0,0-1.64-.8h0l.38.31C269,89,269.45,89.18,269.87,89.36Z"
                transform="translate(-4.83 -5.13)" />
            <path class="cls-8"
                d="M184.7,206.18c-2.58-12.19-7.07-23.86-11.4-35.51s-8.6-23.19-10.92-35.32a84,84,0,0,1,14.68-66.08,88,88,0,0,1,24.42-22.6,90.12,90.12,0,0,1,31.87-12.19,97.94,97.94,0,0,1,21.17-1.32,89.92,89.92,0,0,0-27.56.92C207.5,37.72,189.33,47.63,176.63,63a79.16,79.16,0,0,0-14.11,25.42,100.57,100.57,0,0,0-4.82,28.9,106.59,106.59,0,0,0,.61,16.08,100.12,100.12,0,0,0,3.23,15.42c3,10.4,7.4,20.32,11.85,30.16,4.15,9.19,8.47,18.34,11.46,28Z"
                transform="translate(-4.83 -5.13)" />
            <path class="cls-8"
                d="M195.51,93.28a38.28,38.28,0,0,0-4.34,8,40.37,40.37,0,0,0-2.48,10.61c-.7,7.16.39,14.36,2.14,21.29,1.42,5.58,3.27,11,5.15,16.47-.46-2.51-.84-5-1.15-7.57-.42-3.39-.71-6.79-.85-10.2s-.15-6.93,0-10.39a96.08,96.08,0,0,1,1-10.3,75.39,75.39,0,0,1,2.24-9.87,57.26,57.26,0,0,1,3.62-9.2,45.74,45.74,0,0,1,5.12-8.1,40.67,40.67,0,0,1,4.62-4.93c-.78.48-1.54,1-2.3,1.5A49.93,49.93,0,0,0,195.51,93.28Z"
                transform="translate(-4.83 -5.13)" />
            <path class="cls-9"
                d="M34.57,200.94a4.36,4.36,0,0,0-.46-1s0,0,0-.06A5.81,5.81,0,0,0,31.89,198a24.71,24.71,0,0,0-3.47-1.87c-2.42-1-4.94-1.81-7.26-3.07a13.31,13.31,0,0,1-2.33-1.59,12.4,12.4,0,0,0-1.92-1.4,2.08,2.08,0,0,0-1.9-.21,1.94,1.94,0,0,0-.92,2,4.75,4.75,0,0,0,1.68,2.54,18.58,18.58,0,0,0,1.78,1.4c-.67-.32-1.31-.69-2-1.05-.9-.5-1.78-1-2.69-1.5a16.93,16.93,0,0,0-2.38-1.17c-1.09-.37-2.47,0-2.61,1.29a4.09,4.09,0,0,0,1.52,3.23,11.29,11.29,0,0,0,3.25,2.22c-1.1-.19-2.19-.43-3.27-.7-.57-.14-1.13-.29-1.7-.45a3.42,3.42,0,0,0-1.23-.17,1.93,1.93,0,0,0-1.61,1.64,2.82,2.82,0,0,0,.66,2.31c1.32,1.68,3.51,2.11,5.52,2.32,2.46.25,4.93.5,7.39.81l-.07,0c-1.49.29-3,.52-4.5.68a15.69,15.69,0,0,1-2.17.1c-.68,0-1.35-.09-2-.11a4.77,4.77,0,0,0-3.3.78c-1.36,1.21-.06,3.14,1,4a5,5,0,0,0,2.95,1,14.48,14.48,0,0,0,4-.47c1.36-.36,2.55-1.43,4-1.49a21.75,21.75,0,0,1,2.41.2c.52,0,1.05,0,1.58,0,1.73,0,4.12.4,4.36,2.45.19,1.55-.44,3.54.77,4.81a2.38,2.38,0,0,0,2.52.49A3.92,3.92,0,0,0,32,215a5.16,5.16,0,0,0,.33-2.4c0-.94-.17-1.87-.23-2.81a10.07,10.07,0,0,1,.16-3.24,3.09,3.09,0,0,1,1.36-1.92.18.18,0,0,0,.21,0,2.29,2.29,0,0,0,.88-1.74A4.64,4.64,0,0,0,34.57,200.94Z"
                transform="translate(-4.83 -5.13)" />
            <path class="cls-10"
                d="M31.49,208.08c-.09,1.86.35,3.69.27,5.53a3.64,3.64,0,0,1-1.14,2.54,1.78,1.78,0,0,1-2.57,0,3.48,3.48,0,0,1-.6-2.34,12.16,12.16,0,0,0-.09-2.49c-.43-1.73-2.13-2.27-3.76-2.34a.17.17,0,0,0-.15-.09c-.67-.07-1.34-.06-2-.09s-1.37-.12-2.05-.19a5,5,0,0,0-1.77.09,9.68,9.68,0,0,0-1.6.67,9.56,9.56,0,0,1-1.61.7,14.52,14.52,0,0,1-1.84.34,7.35,7.35,0,0,1-3.84-.18,4.22,4.22,0,0,1-1.81-1.56,2,2,0,0,1-.34-2c.57-.9,2.19-.77,3.08-.71a24.75,24.75,0,0,0,3.85,0,33.39,33.39,0,0,0,4.55-.72c1.51-.35,3-.69,4.54-1.06.11,0,.16-.19,0-.19a14.57,14.57,0,0,0-3.2.43c-2.2-.33-4.4-.8-6.61-1-2-.2-4.28-.22-5.94-1.53a3.4,3.4,0,0,1-1.38-2,2.06,2.06,0,0,1,.22-1.29A1,1,0,0,1,6.81,198a22.1,22.1,0,0,1,2.87.67c1.19.29,2.39.53,3.6.71,2.48.39,4.94,1.05,7.45.56.09,0,.13-.16,0-.15a21.22,21.22,0,0,1-5.93-.53,9,9,0,0,1-2.3-1,16.4,16.4,0,0,1-2-1.37,4.89,4.89,0,0,1-2-3,1.25,1.25,0,0,1,.41-1.28c.63-.38,1.42,0,2,.28,1.53.76,3,1.6,4.51,2.41a21.94,21.94,0,0,0,2.55,1.2,8.69,8.69,0,0,0,1.32.39c.5.11,1,.16,1.5.32.08,0,.24-.09.12-.15a14.57,14.57,0,0,0-2.06-.67,23,23,0,0,1-2.24-1.95,6.8,6.8,0,0,1-1.72-2,1.94,1.94,0,0,1-.21-1.29,1.18,1.18,0,0,1,.63-.89c.59-.2,1.34.31,1.8.62s1.11.87,1.65,1.31A12.91,12.91,0,0,0,21,193.62a63,63,0,0,0,6.52,2.71,29.15,29.15,0,0,1,3.7,1.76l.94.52h0s-.07,0,0,.06a2.32,2.32,0,0,1,1.27,1,5.17,5.17,0,0,1,.73,1.42,4.48,4.48,0,0,1,.14,1.75,3.76,3.76,0,0,1-.21.88,4,4,0,0,1-.33.57C32.16,204.86,31.57,206.51,31.49,208.08Z"
                transform="translate(-4.83 -5.13)" />
            <path class="cls-11"
                d="M24.49,208.8a5.89,5.89,0,0,0-2.62-1.3,12.27,12.27,0,0,0-5.36,0c-1.25.26-2.51.69-3.78,1a10.19,10.19,0,0,1-4.59.21,2.32,2.32,0,0,1-1.44-1,2,2,0,0,1-.24-.7,2.23,2.23,0,0,0,.46,1.7,4.22,4.22,0,0,0,1.81,1.56,7.35,7.35,0,0,0,3.84.18,14.52,14.52,0,0,0,1.84-.34,9.56,9.56,0,0,0,1.61-.7,9.68,9.68,0,0,1,1.6-.67,5,5,0,0,1,1.77-.09c.68.07,1.36.17,2.05.19s1.34,0,2,.09a.17.17,0,0,1,.15.09,6.8,6.8,0,0,1,1.19.15A2.2,2.2,0,0,0,24.49,208.8Z"
                transform="translate(-4.83 -5.13)" />
            <path class="cls-11"
                d="M12.8,203.43c2.21.22,4.41.69,6.61,1a19.66,19.66,0,0,1,2.17-.37,5.06,5.06,0,0,0-1.32-.46,20.07,20.07,0,0,0-3-.4,24.39,24.39,0,0,1-3.61-.45,26,26,0,0,1-3.31-1.05,8.42,8.42,0,0,1-3.14-1.8,1.46,1.46,0,0,1-.48-1.12A1.22,1.22,0,0,1,7.1,198l-.29,0a1,1,0,0,0-1.11.57,2.06,2.06,0,0,0-.22,1.29,3.4,3.4,0,0,0,1.38,2C8.52,203.21,10.79,203.23,12.8,203.43Z"
                transform="translate(-4.83 -5.13)" />
            <path class="cls-11"
                d="M16.58,194.43a23,23,0,0,0,2.24,1.95l.21.06a16,16,0,0,1-2.64-3.78,6.62,6.62,0,0,1-.66-2.46,1,1,0,0,0-.45,0,1.18,1.18,0,0,0-.63.89,1.94,1.94,0,0,0,.21,1.29A6.8,6.8,0,0,0,16.58,194.43Z"
                transform="translate(-4.83 -5.13)" />
            <path class="cls-11"
                d="M10.48,196.86a16.4,16.4,0,0,0,2,1.37,9,9,0,0,0,2.3,1,25.82,25.82,0,0,0,4.94.58h0a13.83,13.83,0,0,0-1.59-.79c-.88-.37-1.8-.67-2.66-1.08a13.11,13.11,0,0,1-2.36-1.54c-1.07-.84-2.61-2.28-2.65-3.74a1.77,1.77,0,0,0-1.61-.09,1.25,1.25,0,0,0-.41,1.28A4.89,4.89,0,0,0,10.48,196.86Z"
                transform="translate(-4.83 -5.13)" />
            <path class="cls-11"
                d="M34.26,202.86a4.48,4.48,0,0,0-.14-1.75,5.17,5.17,0,0,0-.73-1.42,2.32,2.32,0,0,0-1.27-1s0-.06,0-.06h0l-.94-.52a29.15,29.15,0,0,0-3.7-1.76c-1.14-.45-2.3-.87-3.45-1.32q.41.6.84,1.17c2,2.66,4.41,5.18,5.37,8.44a18.28,18.28,0,0,1,.36,6.43,32,32,0,0,1-1,5.59,2,2,0,0,0,.94-.49,3.64,3.64,0,0,0,1.14-2.54c.08-1.84-.36-3.67-.27-5.53.08-1.57.67-3.22,2.23-3.77a4,4,0,0,0,.33-.57A3.76,3.76,0,0,0,34.26,202.86Z"
                transform="translate(-4.83 -5.13)" />
            <path class="cls-3"
                d="M122.48,135.31a38.65,38.65,0,0,0-.18-9.85,7,7,0,0,0-1.54-3.73,2.66,2.66,0,0,0-3.19-.25,5.81,5.81,0,0,0-1,.64,20.13,20.13,0,0,0-7.17,4.77c-2.83,2.76-5.44,5.79-8,8.81-2.8,3.33-5.48,6.75-8.14,10.19-2.52,3.28-5,6.6-7.59,9.79a136,136,0,0,1-15.81,16.38,124.08,124.08,0,0,1-18.36,13.28c-6.76,4-14.13,7.91-22,8.75a28.57,28.57,0,0,1-2.92.16c-.2,0-.52.28-.31.46A6.21,6.21,0,0,0,28.52,196c-.3,0-.6,0-.9,0s-.52.28-.31.45a13.15,13.15,0,0,0,3,1.52c-.48.39-1.08.61-1.55,1-.18.16-.16.47.13.44a10.44,10.44,0,0,1,2.3-.07,17.22,17.22,0,0,0-1.32,5.27c0,.22.33.2.45.13,1-.51,1.78-1.34,2.75-1.89-.42,1.46-1.27,2.88-.81,4.42a.3.3,0,0,0,.46.13,29.81,29.81,0,0,0,2.34-1.86,12.2,12.2,0,0,1,3.09-1.53,55.1,55.1,0,0,1,6.9-1.8,114.52,114.52,0,0,1,14.5-2.3c5-.46,10-.73,14.93-1.26a90.05,90.05,0,0,0,14-2.29,50.4,50.4,0,0,0,13-5.78c.26-.16.25-.42.11-.53a68.92,68.92,0,0,0,5.84-8.24,103.61,103.61,0,0,0,5-9.7,117.55,117.55,0,0,0,7.06-20.57q1.29-5.31,2.14-10.71C122.05,139,122.33,137.18,122.48,135.31Z"
                transform="translate(-4.83 -5.13)" />
            <path class="cls-12"
                d="M121.28,139.3q-.77,5.26-1.94,10.45a118.27,118.27,0,0,1-6.52,20.19,102.44,102.44,0,0,1-4.67,9.53c-.87,1.56-1.76,3.12-2.74,4.61s-2.11,3-3.24,4.42c-.53.68-1.07,1.35-1.59,2a49.59,49.59,0,0,1-11,4.89,77.09,77.09,0,0,1-13.91,2.47c-5,.54-9.94.86-14.91,1.29a117.82,117.82,0,0,0-14.48,2.14,66.21,66.21,0,0,0-7.76,1.95,17,17,0,0,0-3.33,1.53c-.88.53-1.56,1.33-2.39,1.93-.27-1.49.72-2.94,1-4.37.06-.28-.28-.28-.45-.21a18.5,18.5,0,0,0-2.84,1.9,19.06,19.06,0,0,1,1.32-4.85c.05-.15,0-.29-.16-.31a7.17,7.17,0,0,0-1.85-.05A5.05,5.05,0,0,0,31,198a.21.21,0,0,0,0-.35c-.83-.44-1.76-.69-2.56-1.16a8.76,8.76,0,0,0,1.32-.25c.21-.06.43-.43.1-.49a6.08,6.08,0,0,1-2.49-1c7.67-.07,15-3.65,21.57-7.29a123.75,123.75,0,0,0,18.7-12.73A134.58,134.58,0,0,0,83.75,159c5.44-6.29,10.24-13.12,15.46-19.59,2.67-3.31,5.43-6.52,8.31-9.64,2.39-2.6,4.89-5.23,8.11-6.81a12.68,12.68,0,0,1,2.52-.92c.23-.06.24-.38,0-.32l-.73.19a2.24,2.24,0,0,1,2.57,0,5.74,5.74,0,0,1,1.55,3.32,35.73,35.73,0,0,1,.29,9.69C121.69,136.37,121.5,137.83,121.28,139.3Z"
                transform="translate(-4.83 -5.13)" />
            <path class="cls-13"
                d="M37.51,194.05a58.19,58.19,0,0,0,12.06-5.33c9.44-5.28,18.48-11.45,26.13-19.16,8.06-8.13,14.89-17.35,22.41-26a97.92,97.92,0,0,1,11.61-11.52,59.06,59.06,0,0,1,11.67-7.41,5,5,0,0,0-1.43-2.78,2.24,2.24,0,0,0-2.57,0l.73-.19c.27-.06.26.26,0,.32a12.68,12.68,0,0,0-2.52.92c-3.22,1.58-5.72,4.21-8.11,6.81-2.88,3.12-5.64,6.33-8.31,9.64-5.22,6.47-10,13.3-15.46,19.59a134.58,134.58,0,0,1-16.13,15.81,123.75,123.75,0,0,1-18.7,12.73c-6.46,3.59-13.66,7.1-21.2,7.28A20.36,20.36,0,0,0,37.51,194.05Z"
                transform="translate(-4.83 -5.13)" />
            <path class="cls-7"
                d="M121.51,125.2a5.74,5.74,0,0,0-1.55-3.32,2.24,2.24,0,0,0-2.57,0l.73-.19c.27-.06.26.26,0,.32a12.68,12.68,0,0,0-2.52.92c-3.22,1.58-5.72,4.21-8.11,6.81-1.68,1.82-3.32,3.69-4.93,5.57a16.47,16.47,0,0,1,4-1.13c.17,0,.4.11.32.32-1.18,2.87-2.5,5.68-3.69,8.54a50.85,50.85,0,0,0-2.57,7.58,31.23,31.23,0,0,0-.83,8.45c.19,5.82,1.19,11.72-.45,17.42a.26.26,0,0,1-.5,0,34.48,34.48,0,0,0-2.21-7.95c.17,2.87.18,5.85-1.19,8.45a.27.27,0,0,1-.49-.13,26.71,26.71,0,0,0-.7-5.71c-.59,3.67-3,6.71-5.76,9a45,45,0,0,1-10.26,6.09A102.45,102.45,0,0,1,65.71,191c-5.13,1.57-10.34,2.89-15.46,4.52a65.25,65.25,0,0,0-14.5,6.28.27.27,0,0,1-.36-.36,13.9,13.9,0,0,1,3.06-4.3,13.78,13.78,0,0,0-4.59,3.54c-.21.24-.52-.07-.41-.32l1.71-4a8.59,8.59,0,0,1-2.08.21,12.35,12.35,0,0,1-3.2-.44.55.55,0,0,1-.14.09,8.76,8.76,0,0,1-1.32.25c.8.47,1.73.72,2.56,1.16a.21.21,0,0,1,0,.35,5.05,5.05,0,0,1-1.16.84,7.17,7.17,0,0,1,1.85.05c.17,0,.21.16.16.31a19.06,19.06,0,0,0-1.32,4.85,18.5,18.5,0,0,1,2.84-1.9c.17-.07.51-.07.45.21-.28,1.43-1.27,2.88-1,4.37.83-.6,1.51-1.4,2.39-1.93a17,17,0,0,1,3.33-1.53,66.21,66.21,0,0,1,7.76-1.95,117.82,117.82,0,0,1,14.48-2.14c5-.43,10-.75,14.91-1.29a77.09,77.09,0,0,0,13.91-2.47,49.59,49.59,0,0,0,11-4.89c.52-.69,1.06-1.36,1.59-2,1.13-1.44,2.24-2.89,3.24-4.42s1.87-3.05,2.74-4.61a102.44,102.44,0,0,0,4.67-9.53,118.27,118.27,0,0,0,6.52-20.19q1.18-5.19,1.94-10.45c.22-1.47.41-2.93.52-4.41A35.73,35.73,0,0,0,121.51,125.2Z"
                transform="translate(-4.83 -5.13)" />
            <path class="cls-9"
                d="M265.72,171.09a2.37,2.37,0,0,0,1.16,1.57.2.2,0,0,0,.2-.06,3.05,3.05,0,0,1,1.67,1.66,10.2,10.2,0,0,1,.71,3.17c.09.94.13,1.87.24,2.81a5.3,5.3,0,0,0,.72,2.32,4,4,0,0,0,2.38,1.74,2.37,2.37,0,0,0,2.4-.91c1-1.46,0-3.31-.06-4.87-.1-2.06,2.2-2.82,3.9-3.15.52-.07,1-.18,1.55-.3a23.6,23.6,0,0,1,2.34-.6c1.42-.17,2.77.68,4.17.81a14.57,14.57,0,0,0,4-.21,5,5,0,0,0,2.75-1.44c.93-1,1.89-3.16.34-4.12a4.74,4.74,0,0,0-3.38-.22c-.66.13-1.32.31-2,.45a17.28,17.28,0,0,1-2.15.26c-1.52.1-3,.13-4.55.08h-.07c2.37-.71,4.76-1.38,7.15-2,1.94-.54,4-1.34,5.05-3.21a2.82,2.82,0,0,0,.26-2.38,1.93,1.93,0,0,0-1.86-1.36,3.85,3.85,0,0,0-1.19.38l-1.59.73c-1,.44-2.06.87-3.12,1.24a11.23,11.23,0,0,0,2.84-2.74,4.09,4.09,0,0,0,.95-3.44c-.35-1.26-1.77-1.38-2.79-.83a16.86,16.86,0,0,0-2.14,1.55c-.82.62-1.6,1.29-2.4,1.93-.58.47-1.15.94-1.76,1.36A19.91,19.91,0,0,0,283,159.6a4.85,4.85,0,0,0,1.23-2.79A2,2,0,0,0,283,155a2,2,0,0,0-1.83.53,11.6,11.6,0,0,0-1.66,1.7,14,14,0,0,1-2,2c-2.07,1.64-4.43,2.82-6.63,4.25a23.55,23.55,0,0,0-3.11,2.42,5.93,5.93,0,0,0-1.9,2.21.09.09,0,0,0,0,.06,4.11,4.11,0,0,0-.28,1A4.64,4.64,0,0,0,265.72,171.09Z"
                transform="translate(-4.83 -5.13)" />
            <path class="cls-10"
                d="M266.94,172.31a2.81,2.81,0,0,1-.78-1.34,4.5,4.5,0,0,1-.16-1.75,5.1,5.1,0,0,1,.49-1.52,2.31,2.31,0,0,1,1.08-1.22c.05,0,0-.06,0-.06h0c.28-.23.57-.45.83-.67a28.9,28.9,0,0,1,3.36-2.35,65.91,65.91,0,0,0,6-3.77,13.23,13.23,0,0,0,2-1.82c.46-.53.9-1.08,1.41-1.57s1.06-1,1.67-.91a1.2,1.2,0,0,1,.78.77,2,2,0,0,1,0,1.31,7,7,0,0,1-1.36,2.28,24.17,24.17,0,0,1-1.89,2.29,15.26,15.26,0,0,0-1.92,1c-.1.07.07.17.15.13.46-.24,1-.38,1.42-.57a8.49,8.49,0,0,0,1.25-.61,21.55,21.55,0,0,0,2.3-1.61c1.35-1.05,2.67-2.12,4-3.13.52-.39,1.25-.88,1.93-.61a1.25,1.25,0,0,1,.62,1.19,4.88,4.88,0,0,1-1.49,3.28,15.62,15.62,0,0,1-1.76,1.69,9.27,9.27,0,0,1-2.1,1.4,21.14,21.14,0,0,1-5.76,1.52c-.11,0-.05.14,0,.14,2.56.06,4.87-1,7.25-1.8,1.16-.38,2.3-.82,3.42-1.3a23.22,23.22,0,0,1,2.73-1.15,1,1,0,0,1,1.19.38,2,2,0,0,1,.43,1.23,3.41,3.41,0,0,1-1,2.25c-1.42,1.57-3.65,2-5.6,2.5-2.14.59-4.23,1.42-6.34,2.11a15.12,15.12,0,0,0-3.23.12c-.14,0-.07.17,0,.18,1.55.12,3.11.2,4.66.29a35.31,35.31,0,0,0,4.6,0,24.51,24.51,0,0,0,3.79-.69c.87-.21,2.44-.61,3.15.18a1.93,1.93,0,0,1,0,2,4.23,4.23,0,0,1-1.53,1.84,7.26,7.26,0,0,1-3.75.82,13,13,0,0,1-1.87,0,9.25,9.25,0,0,1-1.71-.41,9,9,0,0,0-1.69-.39,4.73,4.73,0,0,0-1.75.21c-.67.18-1.32.39-2,.53s-1.33.24-2,.42q-.12,0-.12.12c-1.6.34-3.19,1.15-3.32,2.93a12.22,12.22,0,0,0,.33,2.48,3.48,3.48,0,0,1-.2,2.4,1.78,1.78,0,0,1-2.53.45,3.66,3.66,0,0,1-1.55-2.31c-.39-1.8-.26-3.68-.66-5.49C269.43,174.12,268.57,172.59,266.94,172.31Z"
                transform="translate(-4.83 -5.13)" />
            <path class="cls-11"
                d="M276.79,175.18a6,6,0,0,1,2.36-1.71,12.3,12.3,0,0,1,5.29-.92c1.28,0,2.58.26,3.88.31a10.21,10.21,0,0,0,4.56-.57,2.27,2.27,0,0,0,1.26-1.23,2,2,0,0,0,.12-.73,2.3,2.3,0,0,1-.17,1.76,4.23,4.23,0,0,1-1.53,1.84,7.26,7.26,0,0,1-3.75.82,13,13,0,0,1-1.87,0,9.25,9.25,0,0,1-1.71-.41,9,9,0,0,0-1.69-.39,4.73,4.73,0,0,0-1.75.21c-.67.18-1.32.39-2,.53s-1.33.24-2,.42q-.12,0-.12.12a6.7,6.7,0,0,0-1.16.34Z"
                transform="translate(-4.83 -5.13)" />
            <path class="cls-11"
                d="M287.41,167.93c-2.14.59-4.23,1.42-6.34,2.11a20.18,20.18,0,0,0-2.2,0,5.21,5.21,0,0,1,1.22-.67,20.88,20.88,0,0,1,2.88-.9,23.74,23.74,0,0,0,3.49-1.05,25.55,25.55,0,0,0,3.08-1.58,8.69,8.69,0,0,0,2.8-2.31,1.47,1.47,0,0,0,.28-1.18,1.23,1.23,0,0,0-.49-.69l.28-.09a1,1,0,0,1,1.19.38,2,2,0,0,1,.43,1.23,3.41,3.41,0,0,1-1,2.25C291.59,167,289.36,167.4,287.41,167.93Z"
                transform="translate(-4.83 -5.13)" />
            <path class="cls-11"
                d="M282.18,159.7a24.17,24.17,0,0,1-1.89,2.29l-.19.09a15.68,15.68,0,0,0,2-4.16,6.44,6.44,0,0,0,.24-2.54.87.87,0,0,1,.45,0,1.2,1.2,0,0,1,.78.77,2,2,0,0,1,0,1.31A7,7,0,0,1,282.18,159.7Z"
                transform="translate(-4.83 -5.13)" />
            <path class="cls-11"
                d="M288.59,161.07a15.62,15.62,0,0,1-1.76,1.69,9.27,9.27,0,0,1-2.1,1.4,26.26,26.26,0,0,1-4.77,1.4h0a12.5,12.5,0,0,1,1.44-1c.8-.52,1.65-1,2.43-1.52a12.93,12.93,0,0,0,2.07-1.91c.92-1,2.19-2.69,2-4.13a1.75,1.75,0,0,1,1.57-.36,1.25,1.25,0,0,1,.62,1.19A4.88,4.88,0,0,1,288.59,161.07Z"
                transform="translate(-4.83 -5.13)" />
            <path class="cls-11"
                d="M266.16,171a4.5,4.5,0,0,1-.16-1.75,5.1,5.1,0,0,1,.49-1.52,2.31,2.31,0,0,1,1.08-1.22c.05,0,0-.06,0-.06h0c.28-.23.57-.45.83-.67a28.9,28.9,0,0,1,3.36-2.35c1.05-.64,2.12-1.25,3.17-1.89-.19.44-.4.87-.62,1.3-1.52,3-3.48,5.84-3.87,9.22a18,18,0,0,0,.72,6.4,31.43,31.43,0,0,0,1.88,5.35,1.92,1.92,0,0,1-1-.33,3.66,3.66,0,0,1-1.55-2.31c-.39-1.8-.26-3.68-.66-5.49-.34-1.54-1.2-3.07-2.83-3.35a2.81,2.81,0,0,1-.78-1.34Z"
                transform="translate(-4.83 -5.13)" />
            <path class="cls-3"
                d="M169.5,124.56c1.17,3.45,2.47,6.86,3.92,10.2a116.48,116.48,0,0,0,10.41,19.09,101.62,101.62,0,0,0,6.6,8.71,67.88,67.88,0,0,0,7.14,7.15c-.13.13-.09.39.2.51a50.69,50.69,0,0,0,13.82,3.51,89,89,0,0,0,14.23-.11c5-.31,10-.88,14.93-1.26a114.16,114.16,0,0,1,14.68-.17,52.89,52.89,0,0,1,7.11.62,12.32,12.32,0,0,1,3.3,1c.89.45,1.68,1.07,2.62,1.44a.3.3,0,0,0,.43-.21c.19-1.6-.88-2.85-1.53-4.22,1,.38,2,1.06,3,1.41.13,0,.46,0,.42-.21a16.75,16.75,0,0,0-2.19-5,10.27,10.27,0,0,1,2.28-.32c.3,0,.26-.33.06-.45-.53-.33-1.16-.45-1.7-.75a13.53,13.53,0,0,0,2.69-2c.18-.21-.2-.43-.38-.4a6.76,6.76,0,0,1-.89.11,6.09,6.09,0,0,0,2-1.63c.17-.22-.19-.44-.38-.41a28.3,28.3,0,0,1-2.9.34c-8,.5-15.88-2.13-23.21-4.93a122.64,122.64,0,0,1-20.34-10,135.65,135.65,0,0,1-18.32-13.49c-3.12-2.71-6.1-5.57-9.14-8.37-3.19-3-6.41-5.87-9.72-8.68-3-2.56-6.1-5.1-9.36-7.35a20.17,20.17,0,0,0-7.86-3.5,7.24,7.24,0,0,0-1.07-.47,2.67,2.67,0,0,0-3.1.78,7,7,0,0,0-.89,3.94,38.28,38.28,0,0,0,1.47,9.74C168.32,121,168.91,122.79,169.5,124.56Z"
                transform="translate(-4.83 -5.13)" />
            <path class="cls-12"
                d="M168.45,118.66a35.8,35.8,0,0,1-1.33-9.59,5.62,5.62,0,0,1,1-3.54,2.25,2.25,0,0,1,2.53-.45q-.37,0-.75-.06c-.27,0-.21.29,0,.31a13.3,13.3,0,0,1,2.65.49c3.43,1,6.34,3.19,9.13,5.35q5,3.89,9.81,8.11c6.24,5.5,12.11,11.42,18.54,16.72a134,134,0,0,0,18.55,12.87,124,124,0,0,0,20.57,9.41c7.08,2.49,14.91,4.78,22.49,3.56a6,6,0,0,1-2.29,1.39c-.32.12,0,.44.18.46a7.52,7.52,0,0,0,1.34,0c-.71.6-1.59,1-2.33,1.57a.23.23,0,0,0,0,.36,5.51,5.51,0,0,0,1.29.63,7.53,7.53,0,0,0-1.82.36c-.17.05-.18.2-.11.33a19.09,19.09,0,0,1,2.12,4.56,18.11,18.11,0,0,0-3.12-1.39c-.18,0-.51,0-.41.28.52,1.36,1.73,2.62,1.72,4.14-.91-.45-1.72-1.12-2.67-1.51a17.37,17.37,0,0,0-3.55-.94,66.19,66.19,0,0,0-8-.62,115.39,115.39,0,0,0-14.64.32c-5,.41-9.93.93-14.91,1.24a78.45,78.45,0,0,1-14.13-.1,49.85,49.85,0,0,1-11.63-3c-.62-.59-1.27-1.16-1.91-1.74-1.35-1.23-2.69-2.48-3.94-3.82s-2.35-2.68-3.47-4.08a104.87,104.87,0,0,1-6.2-8.61,117.11,117.11,0,0,1-9.81-18.81q-2-4.91-3.68-10C169.24,121.51,168.81,120.1,168.45,118.66Z"
                transform="translate(-4.83 -5.13)" />
            <path class="cls-13"
                d="M261.48,162.84a57.62,57.62,0,0,1-12.78-3.24c-10.2-3.62-20.15-8.18-29-14.5-9.31-6.66-17.6-14.6-26.46-21.83a97.26,97.26,0,0,0-13.37-9.42,59.35,59.35,0,0,0-12.75-5.34,5.05,5.05,0,0,1,.94-3,2.25,2.25,0,0,1,2.53-.45q-.37,0-.75-.06c-.27,0-.21.29,0,.31a13.3,13.3,0,0,1,2.65.49c3.43,1,6.34,3.19,9.13,5.35q5,3.89,9.81,8.11c6.24,5.5,12.11,11.42,18.54,16.72a134,134,0,0,0,18.55,12.87,124,124,0,0,0,20.57,9.41c7,2.45,14.66,4.71,22.12,3.62A20.49,20.49,0,0,1,261.48,162.84Z"
                transform="translate(-4.83 -5.13)" />
            <path class="cls-7"
                d="M167.12,109.07a5.62,5.62,0,0,1,1-3.54,2.25,2.25,0,0,1,2.53-.45q-.37,0-.75-.06c-.27,0-.21.29,0,.31a13.3,13.3,0,0,1,2.65.49c3.43,1,6.34,3.19,9.13,5.35q3,2.28,5.8,4.67a16.55,16.55,0,0,0-4.15-.45c-.17,0-.39.19-.27.38,1.65,2.62,3.42,5.17,5.07,7.79a52.12,52.12,0,0,1,3.82,7.05,31.4,31.4,0,0,1,2.23,8.18c.79,5.77.79,11.75,3.36,17.11a.27.27,0,0,0,.5-.09,33.68,33.68,0,0,1,.85-8.21c.31,2.86.8,5.8,2.58,8.13a.26.26,0,0,0,.46-.21,27,27,0,0,1-.26-5.75c1.2,3.52,4,6.12,7.2,7.95A45.14,45.14,0,0,0,220,162a103.52,103.52,0,0,0,13.19,2.59c5.32.69,10.68,1.12,16,1.86a65.24,65.24,0,0,1,15.35,3.75c.27.11.43-.21.3-.41a13.86,13.86,0,0,0-3.75-3.73,13.92,13.92,0,0,1,5.12,2.72c.26.21.5-.15.36-.38l-2.37-3.65a9.24,9.24,0,0,0,2.1-.14,13,13,0,0,0,3.08-1,.3.3,0,0,0,.15.05,7.52,7.52,0,0,0,1.34,0c-.71.6-1.59,1-2.33,1.57a.23.23,0,0,0,0,.36,5.51,5.51,0,0,0,1.29.63,7.53,7.53,0,0,0-1.82.36c-.17.05-.18.2-.11.33a19.09,19.09,0,0,1,2.12,4.56,18.11,18.11,0,0,0-3.12-1.39c-.18,0-.51,0-.41.28.52,1.36,1.73,2.62,1.72,4.14-.91-.45-1.72-1.12-2.67-1.51a17.37,17.37,0,0,0-3.55-.94,66.19,66.19,0,0,0-8-.62,115.39,115.39,0,0,0-14.64.32c-5,.41-9.93.93-14.91,1.24a78.45,78.45,0,0,1-14.13-.1,49.85,49.85,0,0,1-11.63-3c-.62-.59-1.27-1.16-1.91-1.74-1.35-1.23-2.69-2.48-3.94-3.82s-2.35-2.68-3.47-4.08a104.87,104.87,0,0,1-6.2-8.61,117.11,117.11,0,0,1-9.81-18.81q-2-4.91-3.68-10c-.46-1.41-.89-2.82-1.25-4.26A35.8,35.8,0,0,1,167.12,109.07Z"
                transform="translate(-4.83 -5.13)" />
            <path class="cls-9"
                d="M301,255.47a3.93,3.93,0,0,0-3.52-.6,6.54,6.54,0,0,0-8.34-6.22,6.25,6.25,0,0,0-3.27-3c-3-1.16-6.47,0-8.86,1.86a23.48,23.48,0,0,0-6.77,9.47,17.44,17.44,0,0,0-1.45,6.27,14.77,14.77,0,0,0,.36,3.69,7.29,7.29,0,0,0,.51,1.58,5.46,5.46,0,0,1,.58,1.31.14.14,0,0,0,.08.1c-.56,2.87-1.07,5.75-1.66,8.62s-1.29,5.92-2,8.87-1.39,5.66-2.26,8.45a55.75,55.75,0,0,1-2.83,7.62c-.21.42-.42.84-.65,1.25a2.19,2.19,0,0,1-.48-.25,5.51,5.51,0,0,1-1-1c-.67-.78-1.21-1.67-1.89-2.44l-.33-.36s0,0,0,0c-.41-1.09-1.53-.66-2.23-.1a27.2,27.2,0,0,0-2.05,2.11,28.68,28.68,0,0,0-4,4.49c-.14.21-.83,1.3-.72,1.8a.13.13,0,0,0,0,.19,23.61,23.61,0,0,0,2.26,2.1c.75.63,1.47,1.29,2.22,1.91a5.59,5.59,0,0,1,1.76,1.86,5.75,5.75,0,0,1,0,3,10.61,10.61,0,0,0-.18,3.13,7.61,7.61,0,0,0,.76,2.35,7.14,7.14,0,0,0,3.36,3.13c3.3,1.55,7.6,1.31,10.33-1.26,1.28-1.22,1.75-3,2.27-4.61.68-2.16,1.51-4.27,2.27-6.4a86.11,86.11,0,0,1,4.91-11.74,32.71,32.71,0,0,1,7.56-9.93c1.58-1.32,3.29-2.44,4.95-3.66a29.49,29.49,0,0,0,4.35-3.93,44.55,44.55,0,0,0,3.61-4.6,22.36,22.36,0,0,0,2.68-4.61,6,6,0,0,0,0-5,5,5,0,0,0-.79-1.14c.27-.32.52-.66.75-1a15.7,15.7,0,0,0,1.27-2,12.81,12.81,0,0,0,1.5-4.41A7.55,7.55,0,0,0,301,255.47Z"
                transform="translate(-4.83 -5.13)" />
            <path class="cls-10"
                d="M292.88,249.35a6.49,6.49,0,0,1,3.12,3,9.93,9.93,0,0,1,.93,4.06,17.82,17.82,0,0,1-.54,5,27.82,27.82,0,0,1-2,5.27.64.64,0,0,0,0,.07c-.53-.12-1.07-.23-1.6-.33a29.91,29.91,0,0,0-6.25-.62,14.08,14.08,0,0,0,2.28-4.27,27,27,0,0,0,1.44-6.09,12.21,12.21,0,0,0-.88-6.47A7.7,7.7,0,0,1,292.88,249.35Z"
                transform="translate(-4.83 -5.13)" />
            <path class="cls-10"
                d="M300.7,271.59a3.9,3.9,0,0,0-2.23-2.64,15.26,15.26,0,0,0-3-1.08l-.18-.05c-.86-.25-1.74-.46-2.62-.64a25.83,25.83,0,0,0-4.52-.74c-.89,0-1.8,0-2.7,0h0c-.55,0-1.11,0-1.67.06l-1.3.06c-.06-.07,0-.23.15-.26a18.35,18.35,0,0,1,3.28-.45,15.39,15.39,0,0,0,2.39-5c.32-1.07.56-2.16.78-3.25a20.33,20.33,0,0,0,.44-3.47,9.67,9.67,0,0,0-1.6-5.82,5.7,5.7,0,0,0-3.61-2.26c-3-.55-6,1-8.07,3a23.89,23.89,0,0,0-5.91,9.75,15.71,15.71,0,0,0-.78,5.4,17.26,17.26,0,0,0,.45,3.28c.16.66.54,1.32.64,2,.07,0,.12,0,.11.12a89,89,0,0,1-1.68,10.14c-.63,3-1.33,6-2,8.94s-1.43,5.77-2.33,8.6a43.21,43.21,0,0,1-3.2,7.78.35.35,0,0,1-.16.32h0a19.22,19.22,0,0,1-4.25,5.27c-.13.11-.29,0-.17-.16a23.48,23.48,0,0,0,3.67-5.05,2.83,2.83,0,0,1-.71-.39c-1.32-1-2-2.57-2.92-3.87a.3.3,0,0,1-.39-.08c-.2-.32-.41-.44-.75-.25a4.57,4.57,0,0,0-1.13,1c-.49.51-.94,1-1.44,1.53s-1.22,1.21-1.81,1.83a23.92,23.92,0,0,0-2,2.31,4.94,4.94,0,0,0-.57,1,2.85,2.85,0,0,0-.14.5,25.8,25.8,0,0,0,2.26,2c.72.6,1.4,1.23,2.12,1.81a9.43,9.43,0,0,1,1.68,1.6c1.11,1.51.28,3.63.22,5.33a6.72,6.72,0,0,0,1.75,4.63,8,8,0,0,0,4.17,2.26,8.6,8.6,0,0,0,5.35-.4,6.25,6.25,0,0,0,2.22-1.54,6.57,6.57,0,0,0,1.22-2.27c.3-.83.53-1.68.82-2.51.37-1.05.75-2.11,1.13-3.16.72-2,1.42-4,2.17-6a62.88,62.88,0,0,1,5.18-10.9,38.83,38.83,0,0,1,3.44-4.83,27.09,27.09,0,0,1,4.37-4c1.6-1.21,3.31-2.28,4.85-3.57a31.08,31.08,0,0,0,4-4,51.53,51.53,0,0,0,3.16-4.33,12.39,12.39,0,0,0,2.19-4.78A4.88,4.88,0,0,0,300.7,271.59Z"
                transform="translate(-4.83 -5.13)" />
            <path class="cls-10"
                d="M303.42,262.16a11.15,11.15,0,0,1-1.27,4.14,16.74,16.74,0,0,1-1.27,2.12c-.22.32-.47.62-.71.92a9.31,9.31,0,0,0-2.3-1.48,16.87,16.87,0,0,0-3.06-1l0,0a20.1,20.1,0,0,0,2.82-10.1,12.26,12.26,0,0,0-.11-1.59c2.29-.19,4.16,1.59,5.14,3.53A6.7,6.7,0,0,1,303.42,262.16Z"
                transform="translate(-4.83 -5.13)" />
            <path class="cls-11"
                d="M254.28,314.59c.23-.41.49-.8.73-1.15.74-1.07,1.58-2.05,2.4-3.06a20.43,20.43,0,0,0,2.32-3.5,11.79,11.79,0,0,0,.91-2.28l-.15-.09a5.51,5.51,0,0,1-1-1c-.67-.78-1.21-1.67-1.89-2.44l-.33-.36s0,0,0,0c-.41-1.09-1.53-.66-2.23-.1a27.2,27.2,0,0,0-2.05,2.11,28.68,28.68,0,0,0-4,4.49c-.14.21-.83,1.3-.72,1.8a.13.13,0,0,0,0,.19,23.61,23.61,0,0,0,2.26,2.1c.75.63,1.47,1.29,2.22,1.91A8.06,8.06,0,0,1,254.28,314.59Z"
                transform="translate(-4.83 -5.13)" />
            <path class="cls-14"
                d="M301.06,256.46c-1.56-.38-2.63.84-3.21,2.13-.12.24-.49.11-.49-.14,0-2.21-.25-4.67-2.25-6a2.55,2.55,0,0,0-2.73-.16,5.34,5.34,0,0,0-2.07,2.34c-.13.25-.47.11-.49-.13a4.38,4.38,0,0,0-2.77-4,5.76,5.76,0,0,0-4.29.34,8.51,8.51,0,0,0-3.87,4A15.28,15.28,0,0,0,278.6,267a.26.26,0,0,1-.18.32,8.88,8.88,0,0,0-5.26,5.23l.83-.31c1.68-.55,4.07-1,5.33.62s.8,4,.22,5.75a32.3,32.3,0,0,1-2.92,6c-1.38,2.37-2.66,4.8-4,7.22-1.55,2.88-3.06,5.77-4.56,8.68-.71,1.37-1.42,2.75-2,4.18a36.75,36.75,0,0,0-1.49,4.48,74.8,74.8,0,0,1-2.34,8.31c-.81,2-1.95,4.4-4.08,5.34a3.51,3.51,0,0,1-3.46-.23,9.64,9.64,0,0,0,.4.93,7.14,7.14,0,0,0,3.36,3.13c3.3,1.55,7.6,1.31,10.33-1.26,1.28-1.22,1.75-3,2.27-4.61.68-2.16,1.51-4.27,2.27-6.4a86.11,86.11,0,0,1,4.91-11.74,32.71,32.71,0,0,1,7.56-9.93c1.58-1.32,3.29-2.44,4.95-3.66a29.49,29.49,0,0,0,4.35-3.93,44.55,44.55,0,0,0,3.61-4.6,22.36,22.36,0,0,0,2.68-4.61,6,6,0,0,0,0-5,5,5,0,0,0-.79-1.14c.27-.32.52-.66.75-1a15.7,15.7,0,0,0,1.27-2,12.81,12.81,0,0,0,1.5-4.41,7.52,7.52,0,0,0-.95-4.51A4.38,4.38,0,0,0,301.06,256.46Z"
                transform="translate(-4.83 -5.13)" />
            <path class="cls-11"
                d="M297.29,256.82a7.64,7.64,0,0,0-.6-2.49A9.16,9.16,0,0,1,297.29,256.82Z"
                transform="translate(-4.83 -5.13)" />
            <path class="cls-11"
                d="M303.19,257.86l-.3-.31a8.92,8.92,0,0,1,.12,2.11c-.15,2.95-2,7.91-5.89,6.77A1.53,1.53,0,0,1,296,264.8a23.07,23.07,0,0,1,.57-3c.4-2.38.59-5.1-.36-7.39a31.54,31.54,0,0,1-.62,4.64,6.81,6.81,0,0,1-2.31,4,5.26,5.26,0,0,1-2.34,1c-.62.11-1.69.28-2.19-.26s-.14-1.09,0-1.55a19.77,19.77,0,0,0,.92-2.72,16.55,16.55,0,0,0,.43-4.77.3.3,0,0,1-.28-.26,6.4,6.4,0,0,0-.17-1c-.29.9-.58,1.81-.91,2.7a16.1,16.1,0,0,1-1.59,3.29,10.77,10.77,0,0,1-2.59,2.67c-1.67,1.24-3.85,2.3-4.55,4.38.43-.07.86-.14,1.3-.18a17,17,0,0,1,7.61,1.09,9.7,9.7,0,0,1,5.58,4.89c2.22,5.25-3.14,10-6.83,12.81-4.4,3.39-8.78,6.95-11.88,11.63a30.85,30.85,0,0,0-3.75,8,50.91,50.91,0,0,0-1.76,9.65c-.38,3.64-.66,7.35-1.39,10.93a10.6,10.6,0,0,0,2.19-4.52c.68-2.16,1.51-4.27,2.27-6.4a86.11,86.11,0,0,1,4.91-11.74,32.71,32.71,0,0,1,7.56-9.93c1.58-1.32,3.29-2.44,4.95-3.66a29.49,29.49,0,0,0,4.35-3.93,44.55,44.55,0,0,0,3.61-4.6,22.36,22.36,0,0,0,2.68-4.61,6,6,0,0,0,0-5,5,5,0,0,0-.79-1.14c.27-.32.52-.66.75-1a15.7,15.7,0,0,0,1.27-2,12.81,12.81,0,0,0,1.5-4.41A7.52,7.52,0,0,0,303.19,257.86Z"
                transform="translate(-4.83 -5.13)" />
            <path class="cls-15"
                d="M194.41,152.81a86.76,86.76,0,0,0-5.31-14.55c-2.17-4.86-4.53-9.64-6.61-14.55a68.73,68.73,0,0,1-4.65-14.53c-.11-.61-.19-1.23-.27-1.84,0-.13-.24,0-.23.1A59.88,59.88,0,0,0,181.13,122c1.89,4.91,4.13,9.66,6.28,14.46a111.55,111.55,0,0,1,5.6,14.41,39,39,0,0,1,1.67,14.48,30.31,30.31,0,0,1-5.55,14.44l-1.28,1.8c-.23.33.28.44.48.22a28.66,28.66,0,0,0,4.64-7.26,29.1,29.1,0,0,0,2.25-7.22A35.68,35.68,0,0,0,194.41,152.81Z"
                transform="translate(-4.83 -5.13)" />
            <path class="cls-3"
                d="M261.27,301.49a.2.2,0,0,0-.15-.1c-1-1.82-1.94-3.62-2.86-5.46-1.06-2.12-2.07-4.26-3.07-6.41-2-4.35-3.95-8.74-6-13.08s-4.13-8.54-6.45-12.68-4.75-8.44-7.4-12.5a48.54,48.54,0,0,0-4.72-6.32q-1.26-1.38-2.61-2.67c-.47-.44-1-.86-1.44-1.27a9.89,9.89,0,0,0-.81-.64,2,2,0,0,0-.36-.17.18.18,0,0,0-.18-.16c0-.56,0-1.12,0-1.68a70.56,70.56,0,0,0-3.83-19.72,83.59,83.59,0,0,0-3.74-9.15c-1.55-3.24-3.34-6.36-5.1-9.5q-2.91-5.21-5.84-10.4c-1.89-3.39-3.85-6.75-5.59-10.22A79.4,79.4,0,0,1,196.78,169a24.9,24.9,0,0,1-.72-2.66c0-.05,0-.09,0-.14a31.45,31.45,0,0,0-.26-13,38.27,38.27,0,0,0-1.9-6.2c-.91-2.26-2-4.43-3.15-6.59-2.51-4.9-5.17-9.71-7.49-14.7a69.54,69.54,0,0,1-5.19-14.93c0-1,.15-1.93.11-2.9a5,5,0,0,0-1.19-3.18,12.93,12.93,0,0,0-5.26-3.49,30.06,30.06,0,0,0-6.48-1.58A58.22,58.22,0,0,0,157.6,99a70.52,70.52,0,0,0-17.41,2c-2.63.62-5.24,1.36-7.81,2.22a35.25,35.25,0,0,0-6.1,2.59,15.23,15.23,0,0,0-5,4.21,11.59,11.59,0,0,0-1.38,2.63,12,12,0,0,0-.84,3.21,4.41,4.41,0,0,0,0,.89c-.26,1.14-.53,2.27-.86,3.39a50.5,50.5,0,0,1-3.7,8.43c-2.75,5.36-6,10.51-8.19,16.13-2.11,5.34-3.34,11.16-2.54,16.91a25.19,25.19,0,0,0,5.09,11.84,68.12,68.12,0,0,1-3.31,6.41c-2.44,4.26-5,8.43-7.55,12.66a131.65,131.65,0,0,0-6.89,13,61.91,61.91,0,0,0-3.84,11.35,53.09,53.09,0,0,0-.41,23.79c0,.06,0,.13,0,.19a8.16,8.16,0,0,1-.71.83,14.55,14.55,0,0,0-1,1.45c-.64,1-1.32,2-1.91,3-1.19,2.09-2.22,4.29-3.27,6.46a52.32,52.32,0,0,0-4.82,13.61,31.91,31.91,0,0,0-.42,4.14l0,.69a26.8,26.8,0,0,0,.73,9.27c1.57,6,5.32,11,9.92,15S95.61,302.64,101,305.8c2.78,1.62,5.58,3.17,7.67,5.68a20.14,20.14,0,0,1,3.83,8.12c.2.8.38,1.6.56,2.4,0,.18.19.18.34.11a2.28,2.28,0,0,0,1.24-1,5.66,5.66,0,0,0,.47-.73,10.13,10.13,0,0,1-.23,1.32c0,.1,0,.21.14.2a5.23,5.23,0,0,0,2.26-1.06c.45-.29.9-.55,1.31-.87s.54-.44.8-.67c-.23.57-.57,1.1-.76,1.69a.19.19,0,0,0,.19.27c1.28.08,2.38-1.19,3-2.27a5.3,5.3,0,0,0,3.53,2.66c.22,0,.6-.17.51-.44a12.27,12.27,0,0,1-.6-2.13c.24.22.45.47.69.66a5.5,5.5,0,0,0,1.6.77,11,11,0,0,0,2.11.59c.62.07,1.48-.16,1.36-1a3.75,3.75,0,0,0-.62-1.25,7,7,0,0,1-.6-1.76,10.76,10.76,0,0,1-.31-1.77c.26-4.11.55-8.21,2.17-12.07a19.68,19.68,0,0,1,4.91-6.83,38,38,0,0,1,7.32-5.34,27,27,0,0,1,4.81-2.09,22.52,22.52,0,0,1,2.45-.62c.52-.1,1-.16,1.56-.24,2.74,0,5.49-.2,8.21-.45a96,96,0,0,0,15.17-2.5s0,0,.07,0a25,25,0,0,1,7.33,0,80,80,0,0,1,8.31,1.24c2.77.56,5.52,1.26,8.25,2s5.23,1.46,7.82,2.3a124.9,124.9,0,0,1,14.61,5.77,146.29,146.29,0,0,1,13.8,7.41c4.47,2.72,8.78,5.68,13,8.76.52.38,1.06.74,1.59,1.1.22.15.57-.12.54-.35a12.7,12.7,0,0,0,.31-1.61c.05.33.08.66.12,1s.37.1.47,0a7.27,7.27,0,0,0,1.83-4.55,5.39,5.39,0,0,0,.75.76c.16.13.42,0,.5-.16a2.94,2.94,0,0,0,.1-1.85,8.87,8.87,0,0,0,1,.19,3.87,3.87,0,0,0,1.79-.08.9.9,0,0,0,.63-1.15,3.83,3.83,0,0,0-.5-.82c-.06-.07-.12-.16-.18-.24a4.34,4.34,0,0,0,2.85-.34,1.57,1.57,0,0,0,.87-1.43A4.28,4.28,0,0,0,261.27,301.49Z"
                transform="translate(-4.83 -5.13)" />
            <path class="cls-12"
                d="M260.6,304.24a4.46,4.46,0,0,1-2.75,0,.46.46,0,0,0-.54.38,2.14,2.14,0,0,0,.58,1.24,2.1,2.1,0,0,1,.36.63c.05.17,0,.17-.16.21a3.54,3.54,0,0,1-1.45,0,3.12,3.12,0,0,1-1.17-.31.41.41,0,0,0-.57.32c-.08.51.16,1.1.13,1.62a9.34,9.34,0,0,1-.81-1c-.17-.22-.55,0-.57.25a8.06,8.06,0,0,1-1.26,4.58,3.69,3.69,0,0,0-.53-2c-.17-.24-.58,0-.59.26,0,.88-.13,1.75-.23,2.63-1.89-1.62-3.92-3.07-6-4.5s-4.34-3-6.57-4.35a143.57,143.57,0,0,0-14-7.7,130.54,130.54,0,0,0-14.61-6c-2.55-.86-5.14-1.61-7.73-2.34-2.78-.78-5.58-1.51-8.4-2.12a69.7,69.7,0,0,0-8.49-1.33,32.23,32.23,0,0,0-7-.13,84.41,84.41,0,0,0,13.53-5,58.65,58.65,0,0,0,13.39-8.48c.48-.41.94-.85,1.39-1.29.3-.29-.14-.48-.39-.26a62.66,62.66,0,0,1-12.95,8.53,85.15,85.15,0,0,1-15.16,5.77,91.86,91.86,0,0,1-15.18,2.83,100.26,100.26,0,0,1-16,.52,58.84,58.84,0,0,1-8.05-1,41.7,41.7,0,0,1-7.41-2.26c-.57-.24-1.13-.51-1.7-.77-.07,0-.21.11-.12.16a24.89,24.89,0,0,0,7,3,47.25,47.25,0,0,0,7.91,1.45q2.48.24,5,.3l-.16,0a23.82,23.82,0,0,0-4.43,1.63,36.34,36.34,0,0,0-7.94,5.28,22.32,22.32,0,0,0-5.62,6.87,24.85,24.85,0,0,0-2.3,8c-.14,1-.24,2.09-.31,3.14,0,.74.05,1.47.12,2.21a13,13,0,0,0,.42,2.31c.15.58.31,1.17.41,1.76.21.33.59.86.56,1.09h0a2.09,2.09,0,0,0-.25,0,3.53,3.53,0,0,1-.65-.11c-.43-.11-.84-.25-1.25-.38a6.5,6.5,0,0,1-1.69-.73,6.77,6.77,0,0,0-1.36-1,.42.42,0,0,0-.49.35,6,6,0,0,0,.41,2.3,8.11,8.11,0,0,1-3-2.31c0-.19-.24-.22-.38-.08-.67.7-1.3,2.07-2.36,2.25a9.38,9.38,0,0,0,.83-2.15c0-.29-.36-.19-.47-.07a14,14,0,0,1-2.39,1.95,5.23,5.23,0,0,1-1.91,1.07,3.93,3.93,0,0,0,.3-2.27c-.06-.28-.47-.1-.57.06a9.17,9.17,0,0,1-1.46,2.35,23.57,23.57,0,0,0-2.85-8.72,18.17,18.17,0,0,0-6.68-6.35c-5.39-3.16-10.88-6.21-15.82-10.05-4.79-3.74-9-8.35-11.22-14.1a25.86,25.86,0,0,1-1.62-7.58,28.19,28.19,0,0,1-.19-3,26.94,26.94,0,0,1,1.16-7.88c.75-2.6,1.75-5.11,2.71-7.63a49.75,49.75,0,0,1,5.41-10.94c.4-.71.82-1.41,1.26-2.09s.82-1.16,1.26-1.71a38.29,38.29,0,0,0,4.1,10.08,46.86,46.86,0,0,0,8,9.76,69.91,69.91,0,0,0,22,14.32c1,.4,2,.76,3.05,1.07.15,0,.36-.2.17-.28a84.49,84.49,0,0,1-11.81-5.61A68.27,68.27,0,0,1,102,263.06a55.56,55.56,0,0,1-8.61-9.64,36.94,36.94,0,0,1-3.16-5.62,34.31,34.31,0,0,1-2.07-5.16,22.73,22.73,0,0,1-.6-2.33c-.17-.79-.24-1.58-.34-2.38,0-.05,0-.09,0-.14a52.72,52.72,0,0,1,.43-18.91A61.6,61.6,0,0,1,91,207.43a106.09,106.09,0,0,1,6.43-12.67c2.43-4.24,5-8.4,7.46-12.62a73.8,73.8,0,0,0,4.3-8.28c.35.43.71.86,1.09,1.28a43.07,43.07,0,0,0,10.26,8c.7.27,1.42.51,2.13.73a49,49,0,0,1-10.62-7.9,27.55,27.55,0,0,1-2.08-2.37h0a10,10,0,0,1-1.45-2,25.82,25.82,0,0,1-3.58-8.35c-1.28-5.65-.36-11.48,1.51-16.89,2-5.64,5-10.77,7.76-16a79.08,79.08,0,0,0,3.9-8.28,65.36,65.36,0,0,0,2.08-8.41c0-.23.11-.45.17-.68a13.67,13.67,0,0,1,.84-1.72,13,13,0,0,1,4.42-4.31,29.15,29.15,0,0,1,5.84-2.69c2.33-.83,4.71-1.52,7.11-2.14a72.57,72.57,0,0,1,16.77-2.38,59,59,0,0,1,8.08.43,37.37,37.37,0,0,1,6.19,1.19,15.21,15.21,0,0,1,5.61,2.81,5.85,5.85,0,0,1,2,2.7,14,14,0,0,1,.23,3.17,6.07,6.07,0,0,0,.25,1.59.12.12,0,0,0,.17.1c0,.22.06.45.1.67.22,1.32.55,2.63.9,3.92a60.54,60.54,0,0,0,2.71,7.66c2.1,5,4.67,9.73,7.17,14.51,2.2,4.22,4.47,8.43,5.74,13A33.48,33.48,0,0,1,195.65,164a21.73,21.73,0,0,1-1,4.65l0,.05a19.63,19.63,0,0,1-3.17,6.06c-.62.88-1.29,1.75-2,2.6a.35.35,0,0,0,.3-.09,19.7,19.7,0,0,0,5.92-9.63,38,38,0,0,0,1.38,4.4c.64,1.75,1.32,3.48,2.08,5.18,1.53,3.43,3.38,6.7,5.2,10,1.9,3.43,3.82,6.83,5.73,10.25,3.48,6.19,7,12.31,9.54,19a73,73,0,0,1,4.56,19.48,52.83,52.83,0,0,1-1.84,19.62c-.24.79-.48,1.58-.75,2.36-.13.39.46.29.57,0a46.19,46.19,0,0,0,3-17.11c.18.16.34.36.51.52.42.41.87.79,1.29,1.2.83.82,1.66,1.65,2.45,2.51a45.11,45.11,0,0,1,4.24,5.49c2.68,4,5.07,8.14,7.41,12.32s4.56,8.38,6.61,12.7,4,8.66,6,13c1.13,2.42,2.28,4.83,3.48,7.21s2.35,4.62,3.7,6.82C261.21,303.22,261.47,303.89,260.6,304.24Z"
                transform="translate(-4.83 -5.13)" />
            <path class="cls-16"
                d="M246,305.07a80.8,80.8,0,0,0-8-12.88c-2.68-3.61-5.49-7.24-8.51-10.59-3.5-3.88-11.77-9.7-9.09-15.8a21.25,21.25,0,0,1-5.36,2.7c-.28.09-.4-.24-.26-.43,2.17-2.8,4.52-5.87,5.25-9.4a24.85,24.85,0,0,1-9.45,7.55.27.27,0,0,1-.36-.36,45.24,45.24,0,0,0,5.1-21.72,74.89,74.89,0,0,0-2.74-19.68,56,56,0,0,0-7.11-16.82c-3.25-5.44-6.86-10.68-9.72-16.34-2.44-4.83-4.35-10.09-4.32-15.55a16.3,16.3,0,0,1-1.57,1.54.35.35,0,0,1-.3.09c.4-.51.8-1,1.18-1.54a18.61,18.61,0,0,1-2.77,1.55.27.27,0,0,1-.39-.3,36.93,36.93,0,0,0-.67-20c-3.65-10.88-9.54-20.91-12.72-31.95-2.19-7.61-2.83-15.46-3-23.34-.5-.18-1-.35-1.52-.5a37.37,37.37,0,0,0-6.19-1.19,59,59,0,0,0-8.08-.43,72.57,72.57,0,0,0-16.77,2.38c-2.4.62-4.78,1.31-7.11,2.14a29.15,29.15,0,0,0-5.84,2.69,13,13,0,0,0-4.42,4.31c-.07.12-.13.24-.19.37s0,.38,0,.58c.38,8.82-2.26,17.47-5.82,25.45-3.46,7.78-8.33,15.44-7.5,24.32a17,17,0,0,0,2,6.77c.88,1.62,1.94,3.14,2.8,4.78A13,13,0,0,1,114,177.8a54.33,54.33,0,0,0,8.67,6.06c-.71-.22-1.43-.46-2.13-.73a51.91,51.91,0,0,1-6.46-4.42,10.69,10.69,0,0,1-.4,3.36c-1,3.49-2.87,6.68-4.54,9.86-1.89,3.61-3.62,7.32-5.4,11-3.79,7.78-7.45,15.71-9.59,24.13a54.49,54.49,0,0,0-1.76,12.83c0,4.17.26,8.84,1.84,12.75.66,1.6,1.52,3.12,2.13,4.74a61.32,61.32,0,0,0,5.58,5.7,68.27,68.27,0,0,0,10.69,7.84,84.49,84.49,0,0,0,11.81,5.61c.19.08,0,.32-.17.28-1-.31-2.05-.67-3.05-1.07a69.91,69.91,0,0,1-22-14.32c-.8-.76-1.58-1.56-2.34-2.37a12.69,12.69,0,0,1-.15,3.73c-.59,3.94-1.81,7.75-1.17,11.77s2.87,7.83,5.21,11.14,5,6.31,7.61,9.4a64.41,64.41,0,0,1,6.93,9.43,37,37,0,0,1,4,10.45c.24,1.14.43,2.29.58,3.45.16,0,.34,0,.31.16a3.14,3.14,0,0,1-.19.73c0,.35.07.71.1,1.07a16.51,16.51,0,0,0,1.62-1.9c.14-.14.4-.11.38.08a8.11,8.11,0,0,0,3,2.31,6,6,0,0,1-.41-2.3.42.42,0,0,1,.49-.35,6.77,6.77,0,0,1,1.36,1,6.5,6.5,0,0,0,1.69.73c.41.13.82.27,1.25.38a3.53,3.53,0,0,0,.65.11,2.09,2.09,0,0,1,.25,0h0c0-.23-.35-.76-.56-1.09-.1-.59-.26-1.18-.41-1.76a13,13,0,0,1-.42-2.31c-.07-.74-.11-1.47-.12-2.21.07-1.05.17-2.1.31-3.14a24.85,24.85,0,0,1,2.3-8,22.32,22.32,0,0,1,5.62-6.87,36.34,36.34,0,0,1,7.94-5.28,23.82,23.82,0,0,1,4.43-1.63l.16,0q-2.47-.06-5-.3a47.25,47.25,0,0,1-7.91-1.45,24.89,24.89,0,0,1-7-3c-.09,0,.05-.2.12-.16.57.26,1.13.53,1.7.77a41.7,41.7,0,0,0,7.41,2.26,58.84,58.84,0,0,0,8.05,1,100.26,100.26,0,0,0,16-.52,91.86,91.86,0,0,0,15.18-2.83,85.15,85.15,0,0,0,15.16-5.77,62.66,62.66,0,0,0,12.95-8.53c.25-.22.69,0,.39.26-.45.44-.91.88-1.39,1.29a58.65,58.65,0,0,1-13.39,8.48,84.41,84.41,0,0,1-13.53,5,32.23,32.23,0,0,1,7,.13,69.7,69.7,0,0,1,8.49,1.33c2.82.61,5.62,1.34,8.4,2.12,2.59.73,5.18,1.48,7.73,2.34a130.54,130.54,0,0,1,14.61,6,143.57,143.57,0,0,1,14,7.7c2.23,1.39,4.43,2.84,6.57,4.35,1.11.78,2.22,1.57,3.3,2.38A48.75,48.75,0,0,0,246,305.07Z"
                transform="translate(-4.83 -5.13)" />
            <path class="cls-13"
                d="M111.62,132.54a2.29,2.29,0,0,0-1.05-.07C110.92,132.48,111.27,132.5,111.62,132.54Z"
                transform="translate(-4.83 -5.13)" />
            <path class="cls-7"
                d="M108.53,171.57a10,10,0,0,0,1.45,2h0a27.55,27.55,0,0,0,2.08,2.37,45.77,45.77,0,0,0,8.87,6.85c-.75-.86-1.47-1.76-2.15-2.69a42.57,42.57,0,0,1-6.91-15.3,36.92,36.92,0,0,1-.24-16.37c.06-.27.42-.22.5,0,.45,1.21.82,2.44,1.38,3.59-.44-2.37-.85-4.93.29-7.1a.27.27,0,0,1,.48.07,48.57,48.57,0,0,0,2.16,5.64,17.58,17.58,0,0,1-.18-5,19.8,19.8,0,0,1,1.65-5.84,47,47,0,0,1,6.25-9.55c2.79-3.54,5.54-7.09,8-10.88a77.53,77.53,0,0,0,6.41-11.9c.82-2,1.57-4,2.38-6-.79.18-1.58.36-2.36.56-2.4.62-4.78,1.31-7.11,2.14a29.15,29.15,0,0,0-5.84,2.69,13,13,0,0,0-4.42,4.31,13.67,13.67,0,0,0-.84,1.72c-.06.23-.12.45-.17.68a65.36,65.36,0,0,1-2.08,8.41,79.08,79.08,0,0,1-3.9,8.28c-2.74,5.27-5.81,10.4-7.76,16-1.87,5.41-2.79,11.24-1.51,16.89A25.82,25.82,0,0,0,108.53,171.57Z"
                transform="translate(-4.83 -5.13)" />
            <path class="cls-7"
                d="M110.3,175.14c-.38-.42-.74-.85-1.09-1.28-.53,1.25-1.12,2.47-1.74,3.68,2.39-.17,4.93,1,7,2.19,3.11,1.77,5.95,4,9.09,5.75-.68-.64-1.33-1.3-2-2l-1-.36A43.07,43.07,0,0,1,110.3,175.14Z"
                transform="translate(-4.83 -5.13)" />
            <path class="cls-7"
                d="M159.26,106.48a75.15,75.15,0,0,0,8.45,21.45,103,103,0,0,1,5,9.46,29.79,29.79,0,0,1,2.46,9.44,15,15,0,0,0,1.48-7.14.27.27,0,0,1,.49-.13c1.47,2.38,1.31,5.33,2.35,7.87.6-1.69.39-3.61.39-5.37a.27.27,0,0,1,.49-.13,39.87,39.87,0,0,1,4.69,9,38.7,38.7,0,0,1,2,16.54A56.54,56.54,0,0,1,183,183.65a12.32,12.32,0,0,0,3.86-2.19c.67-.53,1.31-1.1,1.94-1.68a10.67,10.67,0,0,0,1.52-1.56c.61-.89,1.12-1.85,1.73-2.74.48-.69,1.09-1.6,2-1.83,1.52-.4,3.12.65,4.26,1.53l.16.14c-.44-1.08-.86-2.17-1.26-3.26a38,38,0,0,1-1.38-4.4,19.7,19.7,0,0,1-5.92,9.63.35.35,0,0,1-.3.09c.67-.85,1.34-1.72,2-2.6a19.63,19.63,0,0,0,3.17-6.06l0-.05a21.73,21.73,0,0,0,1-4.65,33.48,33.48,0,0,0-1.14-12.55c-1.27-4.61-3.54-8.82-5.74-13-2.5-4.78-5.07-9.54-7.17-14.51a60.54,60.54,0,0,1-2.71-7.66c-.35-1.29-.68-2.6-.9-3.92,0-.22-.07-.45-.1-.67a.12.12,0,0,1-.17-.1,6.07,6.07,0,0,1-.25-1.59,14,14,0,0,0-.23-3.17,5.85,5.85,0,0,0-2-2.7,15.21,15.21,0,0,0-5.61-2.81,37.37,37.37,0,0,0-6.19-1.19c-1.69-.21-3.39-.33-5.09-.39A48.17,48.17,0,0,0,159.26,106.48Z"
                transform="translate(-4.83 -5.13)" />
            <path class="cls-7"
                d="M259.17,303.31a27.28,27.28,0,0,1-3-1.05c-1.45-.6-2.86-1.28-4.26-2,.15,1.71.39,3.43.4,5.15a.27.27,0,0,1-.45.19,19.28,19.28,0,0,0-2.68-2.74,20.59,20.59,0,0,1,2,5.93c0,.19-.18.45-.39.3-.77-.58-1.53-1.18-2.29-1.77-6.25-4.94-12.13-10.34-19-14.4-3.38-2-6.93-3.71-10.48-5.39-1.78-.84-3.56-1.67-5.32-2.53a31.36,31.36,0,0,1-4-2.12,4.11,4.11,0,0,1-2-2.93,4.88,4.88,0,0,1,.94-3.05,24,24,0,0,1,5.55-5.41,37.3,37.3,0,0,0,11.16-13.79,29.5,29.5,0,0,0,2.32-14.59l-.6-.6c-.42-.41-.87-.79-1.29-1.2-.17-.16-.33-.36-.51-.52a46.19,46.19,0,0,1-3,17.11c-.11.28-.7.38-.57,0,.27-.78.51-1.57.75-2.36a52.83,52.83,0,0,0,1.84-19.62,73,73,0,0,0-4.56-19.48c-.29-.79-.61-1.57-.93-2.35a51.25,51.25,0,0,1-2.61,10.73A54.87,54.87,0,0,1,186,257.38a78.91,78.91,0,0,1-21.24,6.2,84.18,84.18,0,0,1-20.06.64,69.49,69.49,0,0,1-19.55-4.55,50,50,0,0,1-16.46-10.5,45.64,45.64,0,0,1-11.38-19,50.11,50.11,0,0,1-1-24.48c1.13-5.82,3.28-11.42,4.74-17.16-1.22,2.06-2.45,4.11-3.64,6.19A106.09,106.09,0,0,0,91,207.43a61.6,61.6,0,0,0-3.43,11.45,52.72,52.72,0,0,0-.43,18.91c0,.05,0,.09,0,.14.1.8.17,1.59.34,2.38a22.73,22.73,0,0,0,.6,2.33,34.31,34.31,0,0,0,2.07,5.16,36.94,36.94,0,0,0,3.16,5.62,55.56,55.56,0,0,0,8.61,9.64,68.27,68.27,0,0,0,10.69,7.84,84.49,84.49,0,0,0,11.81,5.61c.19.08,0,.32-.17.28-1-.31-2.05-.67-3.05-1.07a69.91,69.91,0,0,1-22-14.32,46.86,46.86,0,0,1-8-9.76,38.29,38.29,0,0,1-4.1-10.08c-.44.55-.87,1.11-1.26,1.71-.25.38-.49.77-.72,1.16a47.89,47.89,0,0,0,1.72,5.11,68.87,68.87,0,0,0,4.46,9.58,56.25,56.25,0,0,0,14.25,16.31,97.72,97.72,0,0,0,18.26,10.78c1.11.52,2.25,1,3.38,1.46a16.62,16.62,0,0,1,3,1.51,4.58,4.58,0,0,1,1.81,2.13,4.2,4.2,0,0,1-.31,3.09,20.24,20.24,0,0,1-1.29,2.21c-.47.77-.93,1.54-1.36,2.32a26.31,26.31,0,0,0-2.21,5.08,25.41,25.41,0,0,0-.67,2.6c-.16.91-.27,1.82-.38,2.74a21.77,21.77,0,0,1-1,5,.26.26,0,0,1-.43.12c-2.47-2-4.43-4.53-7.26-6,.79,2.11,1.93,4.23,1.82,6.52a.27.27,0,0,1-.49.14c-1.64-2.73-3.35-5.66-6-7.47,1,1.77,2.34,3.38,2.5,5.47,0,.28-.35.32-.49.13a39.13,39.13,0,0,0-6.06-6.67,32.84,32.84,0,0,0-6.66-4.46c-2.34-1.16-4.8-2.08-7.23-3-2-.76-4-1.54-5.84-2.45,4.87,3.75,10.26,6.75,15.55,9.85a18.17,18.17,0,0,1,6.68,6.35,23.57,23.57,0,0,1,2.85,8.72,9.17,9.17,0,0,0,1.46-2.35c.1-.16.51-.34.57-.06a3.93,3.93,0,0,1-.3,2.27,5.23,5.23,0,0,0,1.91-1.07,14,14,0,0,0,2.39-1.95c.11-.12.51-.22.47.07a9.38,9.38,0,0,1-.83,2.15c1.06-.18,1.69-1.55,2.36-2.25.14-.14.4-.11.38.08a8.11,8.11,0,0,0,3,2.31,6,6,0,0,1-.41-2.3.42.42,0,0,1,.49-.35,6.77,6.77,0,0,1,1.36,1,6.5,6.5,0,0,0,1.69.73c.41.13.82.27,1.25.38a3.53,3.53,0,0,0,.65.11,2.09,2.09,0,0,1,.25,0h0c0-.23-.35-.76-.56-1.09-.1-.59-.26-1.18-.41-1.76a13,13,0,0,1-.42-2.31c-.07-.74-.11-1.47-.12-2.21.07-1.05.17-2.1.31-3.14a24.85,24.85,0,0,1,2.3-8,22.32,22.32,0,0,1,5.62-6.87,36.34,36.34,0,0,1,7.94-5.28,23.82,23.82,0,0,1,4.43-1.63l.16,0q-2.47-.06-5-.3a47.25,47.25,0,0,1-7.91-1.45,24.89,24.89,0,0,1-7-3c-.09,0,.05-.2.12-.16.57.26,1.13.53,1.7.77a41.7,41.7,0,0,0,7.41,2.26,58.84,58.84,0,0,0,8.05,1,100.26,100.26,0,0,0,16-.52,91.86,91.86,0,0,0,15.18-2.83,85.15,85.15,0,0,0,15.16-5.77,62.66,62.66,0,0,0,12.95-8.53c.25-.22.69,0,.39.26-.45.44-.91.88-1.39,1.29a58.65,58.65,0,0,1-13.39,8.48,84.41,84.41,0,0,1-13.53,5,32.23,32.23,0,0,1,7,.13,69.7,69.7,0,0,1,8.49,1.33c2.82.61,5.62,1.34,8.4,2.12,2.59.73,5.18,1.48,7.73,2.34a130.54,130.54,0,0,1,14.61,6,143.57,143.57,0,0,1,14,7.7c2.23,1.39,4.43,2.84,6.57,4.35s4.07,2.88,6,4.5c.1-.88.19-1.75.23-2.63,0-.23.42-.5.59-.26a3.69,3.69,0,0,1,.53,2,8.06,8.06,0,0,0,1.26-4.58c0-.23.4-.47.57-.25a9.34,9.34,0,0,0,.81,1c0-.52-.21-1.11-.13-1.62a.41.41,0,0,1,.57-.32,3.12,3.12,0,0,0,1.17.31,3.54,3.54,0,0,0,1.45,0c.17,0,.21,0,.16-.21a2.1,2.1,0,0,0-.36-.63,2.14,2.14,0,0,1-.58-1.24.46.46,0,0,1,.54-.38,4.46,4.46,0,0,0,2.75,0,.81.81,0,0,0,.57-.56A9.79,9.79,0,0,1,259.17,303.31Z"
                transform="translate(-4.83 -5.13)" />
            <path class="cls-17"
                d="M187.39,284.73a17.27,17.27,0,0,1,4.47-3.44c3.15-1.87,6.55-3.24,9.77-5,6.07-3.28,12.21-6.91,16.79-12.19a26.21,26.21,0,0,0,4.21-7,41.32,41.32,0,0,0,2.49-8.44,48.2,48.2,0,0,0,.84-7.13,1.9,1.9,0,0,1-.21-.19c-.17-.16-.33-.36-.51-.52a46.19,46.19,0,0,1-3,17.11c-.11.28-.7.38-.57,0,.27-.78.51-1.57.75-2.36a51.36,51.36,0,0,0,2-17c-.07.28-.15.55-.23.82a35,35,0,0,1-3.22,8,40.82,40.82,0,0,1-6,7.77c-4.54,4.76-10.36,8.48-16.18,11.46a92.85,92.85,0,0,1-18.58,7,99.45,99.45,0,0,1-19.6,3.34,89.75,89.75,0,0,1-21.21-1.3,96.49,96.49,0,0,1-20.31-6,71.93,71.93,0,0,1-16.69-9.54,66.07,66.07,0,0,1-12.85-13.67q.3.66.63,1.32a36.94,36.94,0,0,0,3.16,5.62,55.56,55.56,0,0,0,8.61,9.64,68.27,68.27,0,0,0,10.69,7.84,84.49,84.49,0,0,0,11.81,5.61c.19.08,0,.32-.17.28-1-.31-2.05-.67-3.05-1.07a69.91,69.91,0,0,1-22-14.32,46.86,46.86,0,0,1-8-9.76,37.58,37.58,0,0,1-3.45-7.81c-.37-.56-.73-1.13-1.09-1.7l-.14.19a44,44,0,0,0,6,12.4,69.21,69.21,0,0,0,12,13.22,96.77,96.77,0,0,0,13.86,10c3,1.81,6.23,3.31,9.41,4.83,1.61.77,3.21,1.54,4.8,2.37a41.38,41.38,0,0,1,4.38,2.52,15.28,15.28,0,0,1,4.3,4.29,32,32,0,0,1,3.78-2.15,23.82,23.82,0,0,1,4.43-1.63l.16,0q-2.47-.06-5-.3a47.25,47.25,0,0,1-7.91-1.45,24.89,24.89,0,0,1-7-3c-.09,0,.05-.2.12-.16.57.26,1.13.53,1.7.77a41.7,41.7,0,0,0,7.41,2.26,58.84,58.84,0,0,0,8.05,1,100.26,100.26,0,0,0,16-.52,91.86,91.86,0,0,0,15.18-2.83,85.15,85.15,0,0,0,15.16-5.77,62.66,62.66,0,0,0,12.95-8.53c.25-.22.69,0,.39.26-.45.44-.91.88-1.39,1.29a58.65,58.65,0,0,1-13.39,8.48,84.41,84.41,0,0,1-13.53,5,32.23,32.23,0,0,1,7,.13c.62.05,1.25.12,1.87.2A2.43,2.43,0,0,1,187.39,284.73Z"
                transform="translate(-4.83 -5.13)" />
            <path class="cls-13"
                d="M106.42,307.85a105.44,105.44,0,0,0-13.2-9.9,51.22,51.22,0,0,1-4.65-3.35,26.4,26.4,0,0,1-6.41-8.1c-3.24-6.31-4-13.66-3-20.62a37.59,37.59,0,0,1,3-10.67,102.65,102.65,0,0,1,6-10.3c-.38-1.1-.72-2.22-1-3.35-.44.55-.87,1.11-1.26,1.71s-.86,1.38-1.26,2.09a49.75,49.75,0,0,0-5.41,10.94c-1,2.52-2,5-2.71,7.63a26.94,26.94,0,0,0-1.16,7.88,28.19,28.19,0,0,0,.19,3,25.86,25.86,0,0,0,1.62,7.58c2.17,5.75,6.43,10.36,11.22,14.1,4.94,3.84,10.43,6.89,15.82,10.05a21,21,0,0,1,4.13,3.12C107.68,309.06,107.06,308.45,106.42,307.85Z"
                transform="translate(-4.83 -5.13)" />
            <path class="cls-13"
                d="M111.38,176.25q-.55-.54-1.08-1.11c-.38-.42-.74-.85-1.09-1.28a73.8,73.8,0,0,1-4.3,8.28c-2.45,4.22-5,8.38-7.46,12.62A106.09,106.09,0,0,0,91,207.43a61.6,61.6,0,0,0-3.43,11.45,52.72,52.72,0,0,0-.43,18.91c0,.05,0,.09,0,.14s0,.23,0,.34a60.55,60.55,0,0,1,.35-11.18,67.84,67.84,0,0,1,3.15-13.55,90.46,90.46,0,0,1,5.54-12.79,138,138,0,0,1,7.29-12.21c2.64-4,5.43-7.85,8.29-11.68C111.68,176.66,111.53,176.46,111.38,176.25Z"
                transform="translate(-4.83 -5.13)" />
            <path class="cls-13"
                d="M108.53,171.57a8.06,8.06,0,0,0,.83,1.26c-.31-.63-.59-1.27-.85-1.92a40.83,40.83,0,0,1-2.63-10.72A32.88,32.88,0,0,1,106,153a39.63,39.63,0,0,1,1.5-7.32,61.86,61.86,0,0,1,2.31-6.31c.77-1.8,1.6-3.59,2.39-5.39a86.2,86.2,0,0,0-5.77,12.31c-1.87,5.41-2.79,11.24-1.51,16.89A25.82,25.82,0,0,0,108.53,171.57Z"
                transform="translate(-4.83 -5.13)" />
            <path class="cls-13"
                d="M178,117.66a74.37,74.37,0,0,0,2.59,8.54,72,72,0,0,0,3.94,8.62c1.48,2.8,3.05,5.55,4.53,8.36a53,53,0,0,1,3.61,8.07,32.58,32.58,0,0,1,1.16,15.86,32.09,32.09,0,0,1-2.48,7.84l.13-.17a19.63,19.63,0,0,0,3.17-6.06l0-.05a21.73,21.73,0,0,0,1-4.65,33.48,33.48,0,0,0-1.14-12.55c-1.27-4.61-3.54-8.82-5.74-13-2.5-4.78-5.07-9.54-7.17-14.51a60.54,60.54,0,0,1-2.71-7.66c-.35-1.29-.68-2.6-.9-3.92,0-.22-.07-.45-.1-.67a.12.12,0,0,1-.17-.1,6.07,6.07,0,0,1-.25-1.59,14,14,0,0,0-.23-3.17,5.21,5.21,0,0,0-1.49-2.24A109.49,109.49,0,0,0,178,117.66Z"
                transform="translate(-4.83 -5.13)" />
            <path class="cls-13"
                d="M193,173.9a2.89,2.89,0,0,1,1-.78,1.11,1.11,0,0,1,1.13.44,9.08,9.08,0,0,1,1.26,2.31c.66,1.55,1.27,3.12,2,4.65,1.46,3.22,3.11,6.36,4.85,9.44s3.56,6.14,5.39,9.18,3.43,5.84,5.1,8.79a121.07,121.07,0,0,1,8.64,17.69l.51,1.45a76.79,76.79,0,0,0-3.19-10.62c-2.51-6.67-6.06-12.79-9.54-19-1.91-3.42-3.83-6.82-5.73-10.25-1.82-3.28-3.67-6.55-5.2-10-.76-1.7-1.44-3.43-2.08-5.18a38,38,0,0,1-1.38-4.4,20.87,20.87,0,0,1-3.15,6.59C192.72,174.14,192.84,174,193,173.9Z"
                transform="translate(-4.83 -5.13)" />
            <path class="cls-13"
                d="M225.5,243a24.83,24.83,0,0,1,4.2,4.31,61.46,61.46,0,0,1,4.07,5.92c.57.93,1.13,1.87,1.69,2.81.69,1.18,1.45,2.31,2.15,3.48,1.5,2.55,2.89,5.15,4.22,7.79,2.46,4.87,4.82,9.78,7.16,14.71s4.58,9.6,7.21,14.22a82.42,82.42,0,0,0,4.87,7.65c.26-.36.06-.86-.15-1.34-1.35-2.2-2.53-4.52-3.7-6.82s-2.35-4.79-3.48-7.21c-2-4.32-4-8.68-6-13s-4.27-8.54-6.61-12.7-4.73-8.34-7.41-12.32a45.11,45.11,0,0,0-4.24-5.49c-.79-.86-1.62-1.69-2.45-2.51-.42-.41-.87-.79-1.29-1.2l-.26-.26C225.51,241.72,225.51,242.36,225.5,243Z"
                transform="translate(-4.83 -5.13)" />
            <path class="cls-9"
                d="M132,322.09a3.23,3.23,0,0,0-.29-.59c-.25-1.19-1.78-2-2.78-2.4a13.52,13.52,0,0,0-5.65-1.05,46.31,46.31,0,0,0-5.75.6,41.73,41.73,0,0,1-6.32.48,13.31,13.31,0,0,1-3.27-.33,4.13,4.13,0,0,1-1.31-.61.71.71,0,0,1-.14-.1,9.41,9.41,0,0,0-.95-1.14,7.33,7.33,0,0,0-3.73-2.42A8.6,8.6,0,0,0,95.23,316c-.53-1.37-2.12-2.25-3.35-2.87A10.06,10.06,0,0,0,87,311.77a8.51,8.51,0,0,0-5,1.93l-.05,0c-4.28-3.63-10.89-.15-12.72,4.52a12,12,0,0,0-.68,4.53,17.57,17.57,0,0,0,.79,5,14.42,14.42,0,0,0,2.26,4.52,10.18,10.18,0,0,0,3.53,2.85,11.53,11.53,0,0,0,10.48.09l0,0a12.59,12.59,0,0,0,4.13,1.11,9.07,9.07,0,0,0,4.79-.47,3.47,3.47,0,0,0,.46-.27l.3.19c2.51,1.54,6.07,1,8.53-.38s4-3.56,6.19-5.16c2.56-1.89,5.66-2.33,8.77-2.36s6.41.27,9.52-.52a5.75,5.75,0,0,0,3.37-1.77A3.88,3.88,0,0,0,132,322.09Z"
                transform="translate(-4.83 -5.13)" />
            <path class="cls-10"
                d="M76.4,335a9.93,9.93,0,0,1-3.53-2.33,12,12,0,0,1-2.41-3.92,16.4,16.4,0,0,1-.92-9.31,8.68,8.68,0,0,1,4.39-5.61,7.82,7.82,0,0,1,7.8.11,9.38,9.38,0,0,0-2.57,4.2,15.42,15.42,0,0,0,.15,9.73A12.87,12.87,0,0,0,85.06,335,10.7,10.7,0,0,1,76.4,335Z"
                transform="translate(-4.83 -5.13)" />
            <path class="cls-10"
                d="M93.13,335.82a11,11,0,0,1-2.36.08,13.06,13.06,0,0,1-4.14-.85,12,12,0,0,1-6.28-6.29,15.1,15.1,0,0,1-1-9.07,10.89,10.89,0,0,1,1.81-4.41,7.66,7.66,0,0,1,4.36-2.81,7.54,7.54,0,0,1,2.88-.08,11.37,11.37,0,0,1,2.46.85c1.43.63,3.25,1.54,4,3.05-.13.1-.26.22-.39.33a10.82,10.82,0,0,0-3,6.06,17.71,17.71,0,0,0,.06,6.92,10.69,10.69,0,0,0,3.12,5.72A3.81,3.81,0,0,1,93.13,335.82Z"
                transform="translate(-4.83 -5.13)" />
            <path class="cls-10"
                d="M131.5,324.51c-.21,1.26-1.42,1.77-2.51,2.11-2.87.88-5.93.68-8.89.66s-5.88.12-8.53,1.41c-2.29,1.11-4,3.07-5.85,4.71a11.09,11.09,0,0,1-3.11,2,9.13,9.13,0,0,1-4.48.61,5.53,5.53,0,0,1-3.37-1.62,9.77,9.77,0,0,1-1.88-3,14.78,14.78,0,0,1-1-6.58,13.29,13.29,0,0,1,1.64-6.27A7.51,7.51,0,0,1,99.17,315a6.61,6.61,0,0,1,4.09.75,9,9,0,0,1,1.76,1.43,6.14,6.14,0,0,1,.43.45.07.07,0,0,0,0,.1l.12.08a5,5,0,0,1,.82,1.24,12.13,12.13,0,0,1,.6,2.14c.06.23.48,0,.43-.17a12,12,0,0,0-.55-2.12l.25.13a7.4,7.4,0,0,0,2.55.53,32.2,32.2,0,0,0,5.89-.17c3.85-.43,7.83-1.46,11.65-.29a7.51,7.51,0,0,1,3.27,1.76.18.18,0,0,0,0,.19A4.12,4.12,0,0,1,131.5,324.51Z"
                transform="translate(-4.83 -5.13)" />
            <path class="cls-11"
                d="M132,322.09a3.23,3.23,0,0,0-.29-.59c-.25-1.19-1.78-2-2.78-2.4a13.52,13.52,0,0,0-5.65-1.05l-1.31.06a13.2,13.2,0,0,1,1.57,1.22,3.37,3.37,0,0,1,1.35,2.14c0,1-1.08,1.59-1.93,1.87a20.61,20.61,0,0,1-4.69.7c-1.53.11-3,.34-4.57.47a13.48,13.48,0,0,1-2.91,0,3.49,3.49,0,0,1-2-.77c-1.09-.94-1.44-2.5-1.79-3.83-.17-.63-.33-1.31-.56-1.95a8.54,8.54,0,0,0-.86-1,12,12,0,0,0-1.45-1.33c.81,2.27,2,4.57,1.54,7a4.41,4.41,0,0,1-2,2.89,6.66,6.66,0,0,1-3.45.81c-2.12,0-4.57-.66-5.81-2.52a6.24,6.24,0,0,1-.2-5.75,8.58,8.58,0,0,1,1.35-2.27l-.27.17a3,3,0,0,0-.5-.84,8.68,8.68,0,0,0-1.86,1.14A11.7,11.7,0,0,0,89.94,320a13.54,13.54,0,0,1-2,3.51A4.7,4.7,0,0,1,84.62,325a5.5,5.5,0,0,1-3.28-.9A4,4,0,0,1,79.86,322a8.81,8.81,0,0,1,.66-5.86,12.34,12.34,0,0,1,1.36-2.45l-.3-.23a10.41,10.41,0,0,0-.86.9,12.54,12.54,0,0,0-2.44,4.44,16.36,16.36,0,0,0-.55,2.4,7.84,7.84,0,0,0,0,1.53,7,7,0,0,1,0,1.59,1.63,1.63,0,0,1-.68,1,4.64,4.64,0,0,1-2.9.8,6.09,6.09,0,0,1-2.93-.7,4.4,4.4,0,0,1-1.84-2.49,8.47,8.47,0,0,1-.31-3.64c0-.22.06-.44.1-.66a12.37,12.37,0,0,0-.56,4.19,17.57,17.57,0,0,0,.79,5,14.42,14.42,0,0,0,2.26,4.52,10.18,10.18,0,0,0,3.53,2.85,11.53,11.53,0,0,0,10.48.09l0,0a12.59,12.59,0,0,0,4.13,1.11,9.07,9.07,0,0,0,4.79-.47,3.47,3.47,0,0,0,.46-.27l.3.19c2.51,1.54,6.07,1,8.53-.38s4-3.56,6.19-5.16c2.56-1.89,5.66-2.33,8.77-2.36s6.41.27,9.52-.52a5.75,5.75,0,0,0,3.37-1.77A3.88,3.88,0,0,0,132,322.09Z"
                transform="translate(-4.83 -5.13)" />
            <path class="cls-11"
                d="M132,322.09a3.23,3.23,0,0,0-.29-.59,2.32,2.32,0,0,0-.79-1.23,5,5,0,0,1-1,2c-1.36,1.59-3.6,2.2-5.59,2.51-4.46.7-9.1.21-13.46,1.55a13.07,13.07,0,0,0-3.18,1.45c-.87.56-1.67,1.2-2.49,1.82a11,11,0,0,1-5.08,2.55,7.13,7.13,0,0,1-5.35-1.55,8,8,0,0,1-2.46-4,10.85,10.85,0,0,1,0-5.71,15.17,15.17,0,0,0-.93,1.9,14.94,14.94,0,0,0-1.12,5.36,6.13,6.13,0,0,1-.51,3.09c-.64,1-2,1.21-3.09,1.22a6.55,6.55,0,0,1-5.51-2.72,12,12,0,0,1-1.85-6.14,23.45,23.45,0,0,1,.18-4.81,14.12,14.12,0,0,0-1.12,3.86A9.79,9.79,0,0,0,78.6,327c.35,1,.75,2,1.07,3a5,5,0,0,1,.35,2.67,1.79,1.79,0,0,1-1.89,1.12,7.49,7.49,0,0,1-2.95-.89,14.43,14.43,0,0,1-2.28-1.33,11.19,11.19,0,0,1-2.85-3.2,14.23,14.23,0,0,1-1.12-2.2,15.33,15.33,0,0,0,.42,1.65,14.42,14.42,0,0,0,2.26,4.52,10.18,10.18,0,0,0,3.53,2.85,11.53,11.53,0,0,0,10.48.09l0,0a12.59,12.59,0,0,0,4.13,1.11,9.07,9.07,0,0,0,4.79-.47,3.47,3.47,0,0,0,.46-.27l.3.19c2.51,1.54,6.07,1,8.53-.38s4-3.56,6.19-5.16c2.56-1.89,5.66-2.33,8.77-2.36s6.41.27,9.52-.52a5.75,5.75,0,0,0,3.37-1.77A3.88,3.88,0,0,0,132,322.09Z"
                transform="translate(-4.83 -5.13)" />
            <path class="cls-3"
                d="M209.86,88.68a17,17,0,0,0-7.42-5,22.9,22.9,0,0,0-8.92-1.36l-.71,0c-.16-.85-.34-1.69-.52-2.53-.35-1.67-.75-3.34-1.23-5a39.75,39.75,0,0,0-7.17-14.23,6.54,6.54,0,0,0,1.6-.53A7.8,7.8,0,0,0,187.9,58a13.38,13.38,0,0,0,1.72-2.63,22.34,22.34,0,0,0,2-10.89A37.93,37.93,0,0,0,189,32.08a65.23,65.23,0,0,0-6.18-12c-2.4-3.72-5.35-7.14-7-11.25-.1-.25-.62-.45-.65-.06a9.54,9.54,0,0,0,.45,3,11.92,11.92,0,0,1-.88-4.6c-.18-.57-.33-1.14-.48-1.72a.22.22,0,0,0-.19.09c-.89,1.15-.6,2.54-.54,3.87A14.35,14.35,0,0,1,173,7.63a15.08,15.08,0,0,0-.94-2.5c0,.59.08,1.19.09,1.77v.6a57.56,57.56,0,0,1,.89,8,105,105,0,0,1,.26,10.79,61.23,61.23,0,0,1-1,9.84,28.65,28.65,0,0,1-3.07,8.22A14.28,14.28,0,0,1,165,49.48c-.8-.21-1.61-.4-2.41-.59-1.46-.33-2.93-.63-4.4-.9a87,87,0,0,0-8.67-1.09,68.84,68.84,0,0,0-17.9.91c-1.47.28-2.94.58-4.42.85-.53.1-1,.21-1.57.35A15.39,15.39,0,0,1,122,44.3a28.35,28.35,0,0,1-3.07-8.22,61.24,61.24,0,0,1-1-9.84,105,105,0,0,1,.26-10.79,59.14,59.14,0,0,1,.89-7.95c0-.2,0-.4,0-.6,0-.58.07-1.18.09-1.77a13.49,13.49,0,0,0-.94,2.5,16.19,16.19,0,0,1-.48,1.85c.05-1.33.34-2.72-.55-3.87a.21.21,0,0,0-.19-.09c-.14.58-.29,1.15-.47,1.72a12.11,12.11,0,0,1-.88,4.6,9.82,9.82,0,0,0,.45-3c0-.39-.55-.19-.66.06-1.67,4.11-4.61,7.53-7,11.25a65.9,65.9,0,0,0-6.19,12,38.18,38.18,0,0,0-2.65,12.41,22.33,22.33,0,0,0,2,10.89A13.84,13.84,0,0,0,103.32,58a7.73,7.73,0,0,0,2.42,2.09,6.61,6.61,0,0,0,1.59.53,39.91,39.91,0,0,0-7.17,14.23c-.48,1.64-.88,3.31-1.23,5-.17.84-.35,1.68-.51,2.53l-.71,0a23,23,0,0,0-8.93,1.36,17,17,0,0,0-7.41,5,12.61,12.61,0,0,0-2.72,8.13,15.22,15.22,0,0,0,2.62,8.28,21.5,21.5,0,0,0,3.19,3.56A46.1,46.1,0,0,0,88.37,112a78,78,0,0,0,18.15,9.83,74,74,0,0,0,16.77,4.47l.7.67a43.59,43.59,0,0,0,4.39,3.63,27.13,27.13,0,0,0,11,4.47,32,32,0,0,0,6.19.39,32.15,32.15,0,0,0,6.2-.39,27.13,27.13,0,0,0,11-4.47,42.39,42.39,0,0,0,4.38-3.63c.24-.22.48-.44.71-.67a74.27,74.27,0,0,0,16.77-4.47A78,78,0,0,0,202.86,112a47.72,47.72,0,0,0,3.91-3.33,22,22,0,0,0,3.19-3.56,15.21,15.21,0,0,0,2.61-8.28A12.66,12.66,0,0,0,209.86,88.68Z"
                transform="translate(-4.83 -5.13)" />
            <path class="cls-12"
                d="M207.24,107.15a49,49,0,0,1-7.77,6.34,71.22,71.22,0,0,1-8.7,4.88,88.49,88.49,0,0,1-9.69,4.06,75.29,75.29,0,0,1-10.79,2.79l-1.58.27a11.42,11.42,0,0,0,.92-1.16,38.74,38.74,0,0,1-3.84,3.15,39.08,39.08,0,0,1-4.1,3.11,28.33,28.33,0,0,1-5.18,2.63,33,33,0,0,1-21.8,0,28.57,28.57,0,0,1-5.17-2.63,38.07,38.07,0,0,1-4.1-3.11,40,40,0,0,1-3.85-3.15,10.27,10.27,0,0,0,.93,1.16c-.53-.08-1-.18-1.58-.27a75.76,75.76,0,0,1-10.8-2.79,88.33,88.33,0,0,1-9.68-4.06,70.48,70.48,0,0,1-8.7-4.88A49.53,49.53,0,0,1,84,107.15a15.67,15.67,0,0,1-4.26-7.5,12.28,12.28,0,0,1,6.87-14.41,23.43,23.43,0,0,1,10.88-2.42,6.9,6.9,0,0,1,2.75.16,26.82,26.82,0,0,1,4.59.9,18.3,18.3,0,0,1,2.28.84c.07,0,.2-.07.12-.12a20.91,20.91,0,0,0-8.13-2.18c.15-.66.29-1.31.45-2,.35-1.43.71-2.87,1.11-4.29a54,54,0,0,1,3.12-8.52A32.85,32.85,0,0,1,114.22,55,26,26,0,0,1,122.57,51c.15,0,.21-.28,0-.23a29.07,29.07,0,0,0-14.12,8.57c-.26.28-.52.58-.77.87a7.42,7.42,0,0,1-1.21-.39,9.28,9.28,0,0,1-3.85-4.09,20.94,20.94,0,0,1-2.33-10.64,36.66,36.66,0,0,1,2.3-12.15,66.35,66.35,0,0,1,5.88-11.81c2.18-3.55,5-6.78,6.84-10.51a21.87,21.87,0,0,0-.53,2.63c0,.29.41.23.54.07,1.46-1.76,1.68-3.95,1.81-6.12a6.46,6.46,0,0,1,.08,1.08c0,.74,0,1.47,0,2.2,0,.22.36.06.43,0a3.75,3.75,0,0,0,.4-.77c-.25,1.56-.41,3.13-.53,4.69a106.61,106.61,0,0,0-.4,11,67.17,67.17,0,0,0,.87,10.1,28.05,28.05,0,0,0,1.22,4.77A30.63,30.63,0,0,0,121,44.06a15.3,15.3,0,0,0,4,5.14,10.45,10.45,0,0,0-1.1.43c1.27-.17,2.52-.44,3.79-.64,1-.18,2-.34,3-.54a67.46,67.46,0,0,1,8.85-1.08,78.92,78.92,0,0,1,17.5,1c1.58.27,3.15.57,4.72.91l1.58.35c1.09.07,2.17.19,3.26.31-.3-.1-.6-.2-.9-.28a14.63,14.63,0,0,0,4.58-5.61A32.15,32.15,0,0,0,172,40.22a28.05,28.05,0,0,0,1.22-4.77,68.51,68.51,0,0,0,.87-10.1,109.48,109.48,0,0,0-.4-11c-.13-1.56-.28-3.13-.53-4.69a3.32,3.32,0,0,0,.4.77c.06.1.4.26.43,0,.07-.73.05-1.46.05-2.2a4.87,4.87,0,0,1,.08-1.08c.12,2.17.35,4.36,1.8,6.12.13.16.56.22.54-.07a20,20,0,0,0-.52-2.63c1.83,3.73,4.66,7,6.83,10.51a65.73,65.73,0,0,1,5.89,11.81,36.91,36.91,0,0,1,2.3,12.15,21,21,0,0,1-2.34,10.64,9.28,9.28,0,0,1-3.85,4.09,7.12,7.12,0,0,1-1.21.39c-.25-.29-.5-.59-.77-.87a29,29,0,0,0-14.11-8.57c-.19-.05-.13.19,0,.23A26,26,0,0,1,177,55a32.83,32.83,0,0,1,10.45,12.63,52.07,52.07,0,0,1,3.12,8.52c.4,1.42.77,2.86,1.12,4.29l.45,2A20.91,20.91,0,0,0,184,84.6c-.08.05,0,.16.12.12a18.16,18.16,0,0,1,2.27-.84A27.2,27.2,0,0,1,191,83a7,7,0,0,1,2.76-.16,23.46,23.46,0,0,1,10.88,2.42,12.31,12.31,0,0,1,6.87,14.41A15.69,15.69,0,0,1,207.24,107.15Z"
                transform="translate(-4.83 -5.13)" />
            <path class="cls-12"
                d="M207.24,107.15a49,49,0,0,1-7.77,6.34,71.22,71.22,0,0,1-8.7,4.88,88.49,88.49,0,0,1-9.69,4.06,75.29,75.29,0,0,1-10.79,2.79l-1.58.27a11.42,11.42,0,0,0,.92-1.16,38.74,38.74,0,0,1-3.84,3.15,39.08,39.08,0,0,1-4.1,3.11,28.33,28.33,0,0,1-5.18,2.63,33,33,0,0,1-21.8,0,28.57,28.57,0,0,1-5.17-2.63,38.07,38.07,0,0,1-4.1-3.11,40,40,0,0,1-3.85-3.15,10.27,10.27,0,0,0,.93,1.16c-.53-.08-1-.18-1.58-.27a75.76,75.76,0,0,1-10.8-2.79,88.33,88.33,0,0,1-9.68-4.06,70.48,70.48,0,0,1-8.7-4.88A49.53,49.53,0,0,1,84,107.15a15.67,15.67,0,0,1-4.26-7.5,12.28,12.28,0,0,1,6.87-14.41,23.43,23.43,0,0,1,10.88-2.42,6.9,6.9,0,0,1,2.75.16,26.82,26.82,0,0,1,4.59.9,18.3,18.3,0,0,1,2.28.84c.07,0,.2-.07.12-.12a20.91,20.91,0,0,0-8.13-2.18c.15-.66.29-1.31.45-2,.35-1.43.71-2.87,1.11-4.29a54,54,0,0,1,3.12-8.52A32.85,32.85,0,0,1,114.22,55,26,26,0,0,1,122.57,51c.15,0,.21-.28,0-.23a29.07,29.07,0,0,0-14.12,8.57c-.26.28-.52.58-.77.87a7.42,7.42,0,0,1-1.21-.39,9.28,9.28,0,0,1-3.85-4.09,20.94,20.94,0,0,1-2.33-10.64,36.66,36.66,0,0,1,2.3-12.15,66.35,66.35,0,0,1,5.88-11.81c2.18-3.55,5-6.78,6.84-10.51a21.87,21.87,0,0,0-.53,2.63c0,.29.41.23.54.07,1.46-1.76,1.68-3.95,1.81-6.12a6.46,6.46,0,0,1,.08,1.08c0,.74,0,1.47,0,2.2,0,.22.36.06.43,0a3.75,3.75,0,0,0,.4-.77c-.25,1.56-.41,3.13-.53,4.69a106.61,106.61,0,0,0-.4,11,67.17,67.17,0,0,0,.87,10.1,28.05,28.05,0,0,0,1.22,4.77A30.63,30.63,0,0,0,121,44.06a15.3,15.3,0,0,0,4,5.14,10.45,10.45,0,0,0-1.1.43c1.27-.17,2.52-.44,3.79-.64,1-.18,2-.34,3-.54a67.46,67.46,0,0,1,8.85-1.08,78.92,78.92,0,0,1,17.5,1c1.58.27,3.15.57,4.72.91l1.58.35c1.09.07,2.17.19,3.26.31-.3-.1-.6-.2-.9-.28a14.63,14.63,0,0,0,4.58-5.61A32.15,32.15,0,0,0,172,40.22a28.05,28.05,0,0,0,1.22-4.77,68.51,68.51,0,0,0,.87-10.1,109.48,109.48,0,0,0-.4-11c-.13-1.56-.28-3.13-.53-4.69a3.32,3.32,0,0,0,.4.77c.06.1.4.26.43,0,.07-.73.05-1.46.05-2.2a4.87,4.87,0,0,1,.08-1.08c.12,2.17.35,4.36,1.8,6.12.13.16.56.22.54-.07a20,20,0,0,0-.52-2.63c1.83,3.73,4.66,7,6.83,10.51a65.73,65.73,0,0,1,5.89,11.81,36.91,36.91,0,0,1,2.3,12.15,21,21,0,0,1-2.34,10.64,9.28,9.28,0,0,1-3.85,4.09,7.12,7.12,0,0,1-1.21.39c-.25-.29-.5-.59-.77-.87a29,29,0,0,0-14.11-8.57c-.19-.05-.13.19,0,.23A26,26,0,0,1,177,55a32.83,32.83,0,0,1,10.45,12.63,52.07,52.07,0,0,1,3.12,8.52c.4,1.42.77,2.86,1.12,4.29l.45,2A20.91,20.91,0,0,0,184,84.6c-.08.05,0,.16.12.12a18.16,18.16,0,0,1,2.27-.84A27.2,27.2,0,0,1,191,83a7,7,0,0,1,2.76-.16,23.46,23.46,0,0,1,10.88,2.42,12.31,12.31,0,0,1,6.87,14.41A15.69,15.69,0,0,1,207.24,107.15Z"
                transform="translate(-4.83 -5.13)" />
            <path class="cls-13"
                d="M163.86,63.21a11.51,11.51,0,0,0,0,4.18,10.66,10.66,0,0,0,1-7.3A11,11,0,0,0,163.86,63.21Z"
                transform="translate(-4.83 -5.13)" />
            <path class="cls-13"
                d="M121.22,60.92A18.41,18.41,0,0,1,122.75,64c.38.88.72,1.82,1.19,2.67a4.32,4.32,0,0,0-.6-4A6.29,6.29,0,0,0,121.22,60.92Z"
                transform="translate(-4.83 -5.13)" />
            <path class="cls-18"
                d="M180.6,66.71c-.25-.26-.53-.5-.8-.74a10.47,10.47,0,0,1-1.66-1.53c-.11-.13-.1-.39.11-.43a4.42,4.42,0,0,1,2.75.68,5.6,5.6,0,0,1,1,.64l.25.24a9,9,0,0,0-5.69-6.35,5.15,5.15,0,0,0-3.75.43,12.17,12.17,0,0,0-3.12,2.65,24,24,0,0,0-4.3,7.25,34.08,34.08,0,0,0-2.05,8.06c-.17,1.28-.23,2.56-.32,3.83a40.42,40.42,0,0,0-.13,4.4,12.75,12.75,0,0,0,.24,2.14,3.64,3.64,0,0,0,.71,1.8,2.23,2.23,0,0,0,1.66.48c.66,0,1.34-.05,2-.12a19,19,0,0,0,8-2.81,15.69,15.69,0,0,0,5.81-5.91,15.88,15.88,0,0,0,1.5-8.9,12.85,12.85,0,0,0-1.49-4.71A5.89,5.89,0,0,0,180.6,66.71Z"
                transform="translate(-4.83 -5.13)" />
            <path class="cls-18"
                d="M125.29,89.21a40.87,40.87,0,0,0-.06-5.42,67.72,67.72,0,0,0-.3-6.83,33.72,33.72,0,0,0-3.34-11.67c-1.4-2.79-3.53-5.69-6.87-6.05a5.32,5.32,0,0,0-3.75,1,8.39,8.39,0,0,0-2.48,3.15A14.7,14.7,0,0,0,107,68.81a12.61,12.61,0,0,1,4.19-5.28c.24-.17.54.22.32.41a12.35,12.35,0,0,0-3.74,7.42,26.15,26.15,0,0,0-.16,7.85A13.08,13.08,0,0,0,108.71,83a11.23,11.23,0,0,0,2.37,3.23,15.4,15.4,0,0,0,7,3.9,12.43,12.43,0,0,0,3.65.33,7.8,7.8,0,0,0,3.52-.84C125.24,89.51,125.27,89.36,125.29,89.21Z"
                transform="translate(-4.83 -5.13)" />
            <path class="cls-13"
                d="M88.25,86.89a16.18,16.18,0,0,0-1.86,1.56,20,20,0,0,1,6.46-2.57,21.11,21.11,0,0,1,9.87.07,8.42,8.42,0,0,0-4.28-2C94.86,83.41,91.12,84.83,88.25,86.89Z"
                transform="translate(-4.83 -5.13)" />
            <path class="cls-13"
                d="M178.1,88.89c.8-.23,1.6-.48,2.39-.74a104.19,104.19,0,0,1,11-3.36c-.59,0-1.18,0-1.76,0C185.69,85.07,181.24,86.18,178.1,88.89Z"
                transform="translate(-4.83 -5.13)" />
            <path class="cls-18"
                d="M210.75,91.23a13.1,13.1,0,0,0-6.11-6,23.46,23.46,0,0,0-10.88-2.42A7,7,0,0,0,191,83a27.2,27.2,0,0,0-4.59.9,18.16,18.16,0,0,0-2.27.84s-.08,0-.11,0a23.11,23.11,0,0,0-2.88,1.5A31.35,31.35,0,0,1,185.41,85a45.52,45.52,0,0,1,9-.77c2.27,0,5.2.08,6.89,1.82a.26.26,0,0,1-.18.45c-3.64,0-7.36-.41-10.94.48-3.19.78-6,2.63-8.89,4a18.3,18.3,0,0,1-7.93,1.78A38.57,38.57,0,0,1,165,91.5a83.92,83.92,0,0,0-8.58-1.83,82.35,82.35,0,0,0-9.68-.61,68.94,68.94,0,0,0-18.94,2.31c-4.53,1.14-9.56,2.89-11.82,7.33a.27.27,0,0,1-.36.1c-3.14-1.44-6-3.33-9.1-4.94a30.27,30.27,0,0,0-7.15-2.8A27.58,27.58,0,0,0,93,90.35c-4.11,0-8.87,1.1-10.94,5.05a.26.26,0,0,1-.47-.06,15.5,15.5,0,0,1,.66-6.82,11,11,0,0,0-1.79,2.71,13.17,13.17,0,0,0-.75,8.42,15.67,15.67,0,0,0,4.26,7.5,49.53,49.53,0,0,0,7.78,6.34,70.48,70.48,0,0,0,8.7,4.88,88.33,88.33,0,0,0,9.68,4.06,75.76,75.76,0,0,0,10.8,2.79c.53.09,1,.19,1.58.27a10.27,10.27,0,0,1-.93-1.16,40,40,0,0,0,3.85,3.15,38.07,38.07,0,0,0,4.1,3.11,28.57,28.57,0,0,0,5.17,2.63,33,33,0,0,0,21.8,0,28.33,28.33,0,0,0,5.18-2.63,39.08,39.08,0,0,0,4.1-3.11,38.74,38.74,0,0,0,3.84-3.15,11.42,11.42,0,0,1-.92,1.16l1.58-.27a75.29,75.29,0,0,0,10.79-2.79,88.49,88.49,0,0,0,9.69-4.06,71.22,71.22,0,0,0,8.7-4.88,49,49,0,0,0,7.77-6.34,15.69,15.69,0,0,0,4.27-7.5A13.11,13.11,0,0,0,210.75,91.23Z"
                transform="translate(-4.83 -5.13)" />
            <path class="cls-19"
                d="M105.78,83.8a9.65,9.65,0,0,0-5.55-2.19.28.28,0,0,1-.27-.27,8.73,8.73,0,0,1,.46-2.91c.32-1.05.74-2.07,1.14-3.09s.73-2,1.11-3a37.33,37.33,0,0,1,2.9-5.88,32.23,32.23,0,0,1,9-9.62c7.39-5.13,16.51-7.27,25.36-8,9.35-.77,19-.8,27.85,2.55a29,29,0,0,1,10.7,6.75,36.87,36.87,0,0,1,7,10.46,39.58,39.58,0,0,1,2.13,5.87c.27,1,.48,1.94.67,2.93a12.68,12.68,0,0,1,.32,2.75c-.07,1.76-1.29,2.78-2.7,3.58a22.78,22.78,0,0,1,6.19-1.31l-.45-2c-.35-1.43-.72-2.87-1.12-4.29a52.07,52.07,0,0,0-3.12-8.52A32.83,32.83,0,0,0,177,55,26,26,0,0,0,168.65,51c-.14,0-.2-.28,0-.23a29,29,0,0,1,14.11,8.57c.27.28.52.58.77.87a7.12,7.12,0,0,0,1.21-.39,9.28,9.28,0,0,0,3.85-4.09,21,21,0,0,0,2.34-10.64,36.91,36.91,0,0,0-2.3-12.15,65.73,65.73,0,0,0-5.89-11.81c-2.17-3.55-5-6.78-6.83-10.51a20,20,0,0,1,.52,2.63c0,.29-.41.23-.54.07-1.45-1.76-1.68-3.95-1.8-6.12A4.87,4.87,0,0,0,174,8.25c0,.74,0,1.47-.05,2.2,0,.22-.37.06-.43,0a3.32,3.32,0,0,1-.4-.77c.25,1.56.4,3.13.53,4.69a109.48,109.48,0,0,1,.4,11,68.51,68.51,0,0,1-.87,10.1A28.05,28.05,0,0,1,172,40.22a32.15,32.15,0,0,1-1.72,3.84,14.63,14.63,0,0,1-4.58,5.61c.3.08.6.18.9.28-1.09-.12-2.17-.24-3.26-.31l-1.58-.35c-1.57-.34-3.14-.64-4.72-.91a78.92,78.92,0,0,0-17.5-1,67.46,67.46,0,0,0-8.85,1.08c-1,.2-2,.36-3,.54-1.27.2-2.52.47-3.79.64a10.45,10.45,0,0,1,1.1-.43,15.3,15.3,0,0,1-4-5.14,30.63,30.63,0,0,1-1.72-3.84,28.05,28.05,0,0,1-1.22-4.77,67.17,67.17,0,0,1-.87-10.1,106.61,106.61,0,0,1,.4-11c.12-1.56.28-3.13.53-4.69a3.75,3.75,0,0,1-.4.77c-.07.1-.41.26-.43,0-.07-.73,0-1.46,0-2.2a6.46,6.46,0,0,0-.08-1.08c-.13,2.17-.35,4.36-1.81,6.12-.13.16-.56.22-.54-.07a20.08,20.08,0,0,1,.53-2.63c-1.84,3.73-4.66,7-6.84,10.51a66.35,66.35,0,0,0-5.88,11.81,36.66,36.66,0,0,0-2.3,12.15,20.94,20.94,0,0,0,2.33,10.64,9.28,9.28,0,0,0,3.85,4.09,7.42,7.42,0,0,0,1.21.39c.25-.29.51-.59.77-.87a29.07,29.07,0,0,1,14.12-8.57c.19-.05.13.19,0,.23A26,26,0,0,0,114.22,55a32.85,32.85,0,0,0-10.46,12.63,54,54,0,0,0-3.12,8.52c-.4,1.42-.76,2.86-1.11,4.29-.16.65-.3,1.3-.45,2a21.77,21.77,0,0,1,7,1.63Z"
                transform="translate(-4.83 -5.13)" />
            <path class="cls-20"
                d="M117.18,25.35a106.61,106.61,0,0,1,.4-11q.06-.84.15-1.68c-.3,1.63-.61,3.26-.9,4.9-1.28,7.34-2.17,15.2.51,22.36,1.24,3.32,3.39,7.62,6.88,8.67A16.81,16.81,0,0,1,121,44.06a30.63,30.63,0,0,1-1.72-3.84,28.05,28.05,0,0,1-1.22-4.77A67.17,67.17,0,0,1,117.18,25.35Z"
                transform="translate(-4.83 -5.13)" />
            <path class="cls-20"
                d="M169.25,47c5-4.94,6.74-12.35,6.62-19.18a42.83,42.83,0,0,0-.57-6.09c-.31-1.94-.73-3.87-1.06-5.81s-.66-4.07-1-6.09a1.42,1.42,0,0,1-.08-.18c.25,1.56.4,3.13.53,4.69a109.48,109.48,0,0,1,.4,11,68.51,68.51,0,0,1-.87,10.1A28.05,28.05,0,0,1,172,40.22a32.15,32.15,0,0,1-1.72,3.84,15.73,15.73,0,0,1-3.83,5A10,10,0,0,0,169.25,47Z"
                transform="translate(-4.83 -5.13)" />
            <path class="cls-18"
                d="M100.22,83a12.6,12.6,0,0,0-1.37-.22c.34.12.68.24,1,.38A31.12,31.12,0,0,1,105,85.52c1.25.79,2.39,1.72,3.58,2.59a11.35,11.35,0,0,0-2.17-3.67c-.53-.21-1.07-.4-1.62-.56A26.82,26.82,0,0,0,100.22,83Z"
                transform="translate(-4.83 -5.13)" />
            <path class="cls-18"
                d="M106.49,59.79a7.42,7.42,0,0,0,1.21.39c.25-.29.51-.59.77-.87a30.33,30.33,0,0,1,5.06-4.41,16.26,16.26,0,0,1-4.81-6.58,27.73,27.73,0,0,1-1.44-4.47,20.27,20.27,0,0,1-.39-2.69c-.08-.94-.12-1.9-.12-2.85a32.08,32.08,0,0,1,2.09-11c.31-.81.59-1.64.92-2.45s.68-1.64,1-2.46c.73-1.69,1.5-3.36,2.21-5.06a41.39,41.39,0,0,0,2.3-6.7c-1.84,3.73-4.67,7-6.84,10.5a66.35,66.35,0,0,0-5.88,11.81,36.66,36.66,0,0,0-2.3,12.15,20.94,20.94,0,0,0,2.33,10.64A9.28,9.28,0,0,0,106.49,59.79Z"
                transform="translate(-4.83 -5.13)" />
            <path class="cls-18"
                d="M175.88,13.29a5.94,5.94,0,0,1-.66-1,34.1,34.1,0,0,0,1.3,5c1.43,4.09,3.5,7.92,5.12,11.94a32.78,32.78,0,0,1,2.62,13,21.27,21.27,0,0,1-1.2,6.65,26.4,26.4,0,0,1-1.85,4,23.34,23.34,0,0,1-2,3.1,28.8,28.8,0,0,1,3.58,3.32c.27.28.52.58.77.87a7.12,7.12,0,0,0,1.21-.39,9.28,9.28,0,0,0,3.85-4.09,21,21,0,0,0,2.34-10.64,36.91,36.91,0,0,0-2.3-12.15,65.73,65.73,0,0,0-5.89-11.81c-2.17-3.55-5-6.78-6.83-10.51a20,20,0,0,1,.52,2.63C176.44,13.51,176,13.45,175.88,13.29Z"
                transform="translate(-4.83 -5.13)" />
            <path class="cls-16"
                d="M211.67,98.8a11.82,11.82,0,0,0-1.57-4.73,10.66,10.66,0,0,0-5.52-4.27,20.28,20.28,0,0,0-14.35.47c-4.75,1.8-8.93,4.77-13.15,7.53-2.1,1.36-4.22,2.7-6.45,3.85a39.59,39.59,0,0,1-7.37,2.82,72.89,72.89,0,0,1-19.09,2.63,67.07,67.07,0,0,1-18.86-2.37,104,104,0,0,1-17-6.77c-5-2.44-9.88-5.49-15.61-5.71-5.15-.19-11.19,2.54-12.16,8.11a9.62,9.62,0,0,0-.14,1.5A16.4,16.4,0,0,0,84,107.15a49.53,49.53,0,0,0,7.78,6.34,70.48,70.48,0,0,0,8.7,4.88,88.33,88.33,0,0,0,9.68,4.06,75.76,75.76,0,0,0,10.8,2.79c.53.09,1,.19,1.58.27a10.27,10.27,0,0,1-.93-1.16,40,40,0,0,0,3.85,3.15,38.07,38.07,0,0,0,4.1,3.11,28.57,28.57,0,0,0,5.17,2.63,33,33,0,0,0,21.8,0,28.33,28.33,0,0,0,5.18-2.63,39.08,39.08,0,0,0,4.1-3.11,38.74,38.74,0,0,0,3.84-3.15,11.42,11.42,0,0,1-.92,1.16l1.58-.27a75.29,75.29,0,0,0,10.79-2.79,88.49,88.49,0,0,0,9.69-4.06,71.22,71.22,0,0,0,8.7-4.88,49,49,0,0,0,7.77-6.34,15.69,15.69,0,0,0,4.27-7.5C211.57,99.37,211.62,99.09,211.67,98.8Z"
                transform="translate(-4.83 -5.13)" />
            <path class="cls-21"
                d="M155.36,128.31c4-2.75,6-7.32,9.09-10.91a9.2,9.2,0,0,1,2.74-2.42c1.12-.55,2.37-.77,3.49-1.34a8,8,0,0,0,3.87-4.21,8.1,8.1,0,0,1-4.28,1.65,20.78,20.78,0,0,1-4.73,0,92.29,92.29,0,0,0-14.39-.75,44.47,44.47,0,0,0-13.84,2.76c-2.1.81-4.14,1.76-6.17,2.71-1,.49-2.09,1-3.14,1.46a22,22,0,0,1-2.06.88,5.5,5.5,0,0,1-3.44.27,1.78,1.78,0,0,1-1.2-1.5,2.26,2.26,0,0,0,.78,2.19,4.57,4.57,0,0,0,3,1,17,17,0,0,1,2.94.11,5,5,0,0,1,2.6,1.59c2.9,3.14,5.2,7.22,9.35,8.88a14.78,14.78,0,0,0,7.66.64A18.33,18.33,0,0,0,155.36,128.31Z"
                transform="translate(-4.83 -5.13)" />
            <path class="cls-21"
                d="M210.43,94.67a10.53,10.53,0,0,1-.61,4.77,14.77,14.77,0,0,1-2.08,3.87A22.29,22.29,0,0,1,204.1,107a66,66,0,0,1-9.7,6.51,82.53,82.53,0,0,1-11.14,5.13c-3.42,1.35-7,3.32-10.82,2.84a.27.27,0,0,1-.23-.39c.62-1.24,1.28-2.46,1.94-3.67-1.24.85-2.51,1.68-3.75,2.53-2.41,1.65-4.58,3.57-6.86,5.38a32.82,32.82,0,0,1-6.25,4.06,29.56,29.56,0,0,1-6.91,2.31,28.37,28.37,0,0,1-14-1c-8.14-2.6-14.52-8.35-20.81-13.89a41.32,41.32,0,0,0,2.44,4.28c.12.21-.08.41-.3.38a56.76,56.76,0,0,1-11.23-3.07A86.42,86.42,0,0,1,90.5,111a42.68,42.68,0,0,1-9.33-7.59A17,17,0,0,0,84,107.15a49.53,49.53,0,0,0,7.78,6.34,70.48,70.48,0,0,0,8.7,4.88,88.33,88.33,0,0,0,9.68,4.06,75.76,75.76,0,0,0,10.8,2.79c.53.09,1,.19,1.58.27a10.27,10.27,0,0,1-.93-1.16,40,40,0,0,0,3.85,3.15,38.07,38.07,0,0,0,4.1,3.11,28.57,28.57,0,0,0,5.17,2.63,33,33,0,0,0,21.8,0,28.33,28.33,0,0,0,5.18-2.63,39.08,39.08,0,0,0,4.1-3.11,38.74,38.74,0,0,0,3.84-3.15,11.42,11.42,0,0,1-.92,1.16l1.58-.27a75.29,75.29,0,0,0,10.79-2.79,88.49,88.49,0,0,0,9.69-4.06,71.22,71.22,0,0,0,8.7-4.88,49,49,0,0,0,7.77-6.34,15.69,15.69,0,0,0,4.27-7.5c.06-.28.11-.56.16-.85A12,12,0,0,0,210.43,94.67Z"
                transform="translate(-4.83 -5.13)" />
            <path class="cls-3"
                d="M124.43,80.59a35.61,35.61,0,0,0-3.28-10.22,24,24,0,0,0-2.33-3.65,6.45,6.45,0,0,0-3.06-2.4c-2.76-.79-5.43,1.75-6.85,3.85a19.37,19.37,0,0,0-.78,2.45,14.35,14.35,0,0,1,.73-1.47c.09-.17.2-.34.31-.51a14.84,14.84,0,0,0-.84,3.45,20.12,20.12,0,0,0,.3,7.92c1.19,4.5,5,7.64,9.3,9a16.62,16.62,0,0,0,4,.77h.53c.08,0,1.94,0,2.78-.08h0A57.81,57.81,0,0,0,124.43,80.59Z"
                transform="translate(-4.83 -5.13)" />
            <path class="cls-22"
                d="M124.65,89c-.06.11-.39.14-.5.16l-.58.1a8,8,0,0,1-2,0,16.86,16.86,0,0,1-3.3-.7,15.34,15.34,0,0,1-5.4-3,11.6,11.6,0,0,1-3.5-5.13,18.47,18.47,0,0,1-.65-7.54,13.16,13.16,0,0,1,1.67-5.89,11,11,0,0,1,1.12-1,4.65,4.65,0,0,1,3.78-1.21,5.78,5.78,0,0,1,3,2.29,23.5,23.5,0,0,1,2.2,3.4,34.91,34.91,0,0,1,3.2,9.5,64.61,64.61,0,0,1,1,9Z"
                transform="translate(-4.83 -5.13)" />
            <path class="cls-3"
                d="M124.27,76.16c-.25-1.24-.55-2.49-.87-3.72a30.86,30.86,0,0,0-2.64-6.88c-1.67-3.08-5.05-6.88-9-5.22a7.07,7.07,0,0,0-3.8,4.72c0,.17.2.13.23,0a6.8,6.8,0,0,1,3.42-4.23,5,5,0,0,1,5.08.77,12.89,12.89,0,0,1,3.51,4.25,29.75,29.75,0,0,1,2.47,6.31c.36,1.27.63,2.56,1,3.84a33.54,33.54,0,0,1,1,4c0,.08.15,0,.14,0A31.35,31.35,0,0,0,124.27,76.16Z"
                transform="translate(-4.83 -5.13)" />
            <g class="cls-23">
                <path class="cls-24"
                    d="M128.32,76.93c1.39,7.07-1.55,13.62-6.58,14.61s-10.23-3.94-11.63-11,1.54-13.62,6.57-14.61S126.92,69.85,128.32,76.93Z"
                    transform="translate(-4.83 -5.13)" />
                <path class="cls-22"
                    d="M117.07,71.89c.26,1.34-.3,2.57-1.24,2.76s-1.94-.74-2.2-2.08.29-2.57,1.24-2.75S116.8,70.56,117.07,71.89Z"
                    transform="translate(-4.83 -5.13)" />
            </g>
            <path class="cls-25"
                d="M123.66,80a34.91,34.91,0,0,0-3.2-9.5,23.5,23.5,0,0,0-2.2-3.4,5.78,5.78,0,0,0-3-2.29A4.65,4.65,0,0,0,111.5,66a11,11,0,0,0-1.12,1A10.17,10.17,0,0,0,109,70.74a9.69,9.69,0,0,1,.82-1.29,5.42,5.42,0,0,1,3.4-2.31,3.75,3.75,0,0,1,3.19,1.51,15.83,15.83,0,0,1,2.21,3.6,32.51,32.51,0,0,1,1.79,5,48.61,48.61,0,0,1,1.24,5.44,51.74,51.74,0,0,1,.69,6.7,7,7,0,0,0,1.21-.07l.58-.1c.11,0,.44,0,.5-.16l0,0A64.61,64.61,0,0,0,123.66,80Z"
                transform="translate(-4.83 -5.13)" />
            <path class="cls-3"
                d="M164,89.71h0c.84.07,2.7.11,2.78.08h.53a16.62,16.62,0,0,0,4-.77c4.34-1.37,8.11-4.51,9.3-9a20.12,20.12,0,0,0,.3-7.92,14.81,14.81,0,0,0-.83-3.45l.31.51c.27.48.5,1,.72,1.47a19.37,19.37,0,0,0-.78-2.45c-1.42-2.1-4.09-4.64-6.85-3.85a6.5,6.5,0,0,0-3.06,2.4,24,24,0,0,0-2.33,3.65,35.61,35.61,0,0,0-3.28,10.22A57.81,57.81,0,0,0,164,89.71Z"
                transform="translate(-4.83 -5.13)" />
            <path class="cls-22"
                d="M164.59,89a63.11,63.11,0,0,1,1-9,34.91,34.91,0,0,1,3.2-9.5,23.5,23.5,0,0,1,2.2-3.4,5.78,5.78,0,0,1,3-2.29A4.65,4.65,0,0,1,177.75,66a10.07,10.07,0,0,1,1.12,1A13.16,13.16,0,0,1,180.54,73a18.47,18.47,0,0,1-.65,7.54,11.5,11.5,0,0,1-3.49,5.13,15.38,15.38,0,0,1-5.41,3,16.86,16.86,0,0,1-3.3.7,8,8,0,0,1-2,0l-.58-.1c-.1,0-.43,0-.49-.16A0,0,0,0,1,164.59,89Z"
                transform="translate(-4.83 -5.13)" />
            <path class="cls-3"
                d="M165,76.16c.25-1.24.55-2.49.88-3.72a30.35,30.35,0,0,1,2.63-6.88c1.67-3.08,5-6.88,9-5.22a7,7,0,0,1,3.8,4.72c.05.17-.2.13-.23,0a6.82,6.82,0,0,0-3.41-4.23,5,5,0,0,0-5.09.77A12.89,12.89,0,0,0,169,65.86a30.29,30.29,0,0,0-2.47,6.31c-.35,1.27-.63,2.56-1,3.84a35.54,35.54,0,0,0-1,4c0,.08-.14,0-.14,0A31.35,31.35,0,0,1,165,76.16Z"
                transform="translate(-4.83 -5.13)" />
            <g class="cls-26">
                <ellipse class="cls-24" cx="170.04" cy="78.72" rx="13.06" ry="9.28"
                    transform="translate(55.03 225.16) rotate(-78.83)" />
                <path class="cls-22"
                    d="M172.19,71.89c-.27,1.34.29,2.57,1.24,2.76s1.93-.74,2.19-2.08-.29-2.57-1.24-2.75S172.45,70.56,172.19,71.89Z"
                    transform="translate(-4.83 -5.13)" />
            </g>
            <path class="cls-25"
                d="M165.59,80a34.91,34.91,0,0,1,3.2-9.5,23.5,23.5,0,0,1,2.2-3.4,5.78,5.78,0,0,1,3-2.29A4.65,4.65,0,0,1,177.75,66a10.07,10.07,0,0,1,1.12,1,10,10,0,0,1,1.36,3.67,9.69,9.69,0,0,0-.82-1.29,5.42,5.42,0,0,0-3.4-2.31,3.75,3.75,0,0,0-3.19,1.51,15.45,15.45,0,0,0-2.2,3.6,32.56,32.56,0,0,0-1.8,5,48.61,48.61,0,0,0-1.24,5.44,51.74,51.74,0,0,0-.69,6.7,7,7,0,0,1-1.21-.07l-.58-.1c-.1,0-.43,0-.49-.16a0,0,0,0,1,0,0A63.11,63.11,0,0,1,165.59,80Z"
                transform="translate(-4.83 -5.13)" />
            <path class="cls-3"
                d="M175.23,109.59a1.63,1.63,0,0,1-.58-.81c-.09-.29-.59,0-.52.23.72,2.54-2.78,3.36-4.57,3.71a37.16,37.16,0,0,1-7.81.48c-5.39-.13-10.78-.6-16.16,0a40.35,40.35,0,0,0-7.83,1.62,47.4,47.4,0,0,0-7,2.72c-1.09.54-2.18,1.12-3.31,1.6a7.15,7.15,0,0,1-2.87.81,5,5,0,0,1-2.11-.6,2.13,2.13,0,0,1-1.25-1.39,1.42,1.42,0,0,1,.22-.92l.12.08c.06.07.2,0,.15-.1a.56.56,0,0,0-.21-.22.14.14,0,0,0-.16,0,1.6,1.6,0,0,0-.35,1.76,3,3,0,0,0,1.5,1.31,5.16,5.16,0,0,0,2.11.51,8,8,0,0,0,3-.87c.32-.13.64-.28,1-.43a5.57,5.57,0,0,1,3.36,1.65c1.14,1.17,2,2.58,3.07,3.84,2.16,2.62,4.8,5.1,8.09,6.16a12.51,12.51,0,0,0,9.45-.78,14.35,14.35,0,0,0,3.8-2.91,27.48,27.48,0,0,0,3.11-4.26c2.3-3.63,4.6-7.41,8.6-9.33l1.08-.16A12.31,12.31,0,0,0,173,112a3.2,3.2,0,0,0,1.74-2.1l.09.08C175,110.2,175.48,109.78,175.23,109.59Z"
                transform="translate(-4.83 -5.13)" />
            <path class="cls-27"
                d="M160.06,120.58c-1.91,3-3.63,6.16-6.66,8.17a11.69,11.69,0,0,1-9.3,1.57c-3.43-.85-6.16-3.32-8.43-5.91-1.18-1.35-2.18-2.89-3.48-4.12a5.59,5.59,0,0,0-1.86-1.21,4.29,4.29,0,0,0-1.35-.25l2.06-1a38.13,38.13,0,0,1,3.68-1.54,46.42,46.42,0,0,1,8-2.26c5.74-1,11.57-.57,17.36-.37a53.64,53.64,0,0,0,6.71-.08C163.87,115.11,161.84,117.82,160.06,120.58Z"
                transform="translate(-4.83 -5.13)" />
            <path class="cls-22"
                d="M139,120.85a8.36,8.36,0,0,0,4.94,1.94,16.3,16.3,0,0,0,6.24-1.12,7.91,7.91,0,0,0,2.92-1.68,7.2,7.2,0,0,0,1.55-2.68,21.88,21.88,0,0,0,.95-3.85,61.34,61.34,0,0,0-12.85.54,45.65,45.65,0,0,0-7.18,2A13.56,13.56,0,0,0,139,120.85Z"
                transform="translate(-4.83 -5.13)" />
            <path class="cls-28"
                d="M155.31,125.63a17.58,17.58,0,0,0-10.26-.17,17.28,17.28,0,0,0-4.62,2c-.31.2-.62.42-.91.65a13,13,0,0,0,4.58,2.25,11.69,11.69,0,0,0,9.3-1.57,14,14,0,0,0,3-2.72C156,125.89,155.66,125.75,155.31,125.63Z"
                transform="translate(-4.83 -5.13)" />
            <path class="cls-3"
                d="M172.63,96.87C171.17,93.1,167,91.19,163.4,90c-1.23-.4-2.48-.75-3.73-1l1.66.7c2.27.95,4.9,2.08,5.91,4.52.08.19-.16.42-.36.35a40,40,0,0,0-10-2.21,82.25,82.25,0,0,0-9.15-.37c-3.17,0-6.36.1-9.51.39A50.72,50.72,0,0,0,128.79,94c-1.22.35-2.37.9-3.56,1.36a8.79,8.79,0,0,1-3.45.8.3.3,0,0,1-.28-.37,5.52,5.52,0,0,1,1.31-2.27,11.88,11.88,0,0,1,2.85-2.22,23.19,23.19,0,0,0-3.86,1.93,10.9,10.9,0,0,0-3.62,3.56,7.26,7.26,0,0,0-.79,5.18,12,12,0,0,0,3.53,5.6,29.76,29.76,0,0,0,5.29,4.13,31.72,31.72,0,0,0,15.33,4.32c1.2,0,2.4.06,3.61,0a18.35,18.35,0,0,0,5.42-.76,63,63,0,0,0,7.88-2.2A33.22,33.22,0,0,0,169,106.8C171.67,104.32,174.11,100.67,172.63,96.87Z"
                transform="translate(-4.83 -5.13)" />
            <path class="cls-12"
                d="M170.39,104.35c-2.3,3-5.69,5.13-9,6.82a36.12,36.12,0,0,1-7,2.63c-1.21.33-2.44.6-3.67.89a34.27,34.27,0,0,1-3.49.72,7.76,7.76,0,0,1-3.29-.08.41.41,0,0,0-.45.38,39.52,39.52,0,0,1-13-2.5,29.3,29.3,0,0,1-6.29-3.65,21.56,21.56,0,0,1-4.8-4.64,7.68,7.68,0,0,1-1.63-5.73A7.48,7.48,0,0,1,120.21,95c2.59-2.39,6.21-3.56,9.55-4.44a67.81,67.81,0,0,1,14.44-2.29,54.18,54.18,0,0,1,15.64,1.53,36,36,0,0,1,5.55,1.81,14.69,14.69,0,0,1,4.84,3.14,7,7,0,0,1,2.08,4.86A8.24,8.24,0,0,1,170.39,104.35Z"
                transform="translate(-4.83 -5.13)" />
            <path class="cls-13"
                d="M118.42,102.25a8.11,8.11,0,0,1,2-4.34,17.1,17.1,0,0,1,4.19-3.53,32,32,0,0,1,5.1-2.55,53.92,53.92,0,0,1,13.59-3.32c1.46-.18,2.93-.28,4.4-.34-1.15,0-2.3,0-3.46,0a67.81,67.81,0,0,0-14.44,2.29c-3.34.88-7,2-9.55,4.44a7.48,7.48,0,0,0-2.42,4.24,6.8,6.8,0,0,0,.61,4A5.78,5.78,0,0,1,118.42,102.25Z"
                transform="translate(-4.83 -5.13)" />
            <path class="cls-18"
                d="M170.23,94.7a14.69,14.69,0,0,0-4.84-3.14,33.32,33.32,0,0,0-3.51-1.26,8,8,0,0,1,2.76,4.19,5,5,0,0,1-1.6,4.75,5.74,5.74,0,0,1-4.73.91,41.34,41.34,0,0,1-5.43-1.53,22.76,22.76,0,0,0-7-.81,42.9,42.9,0,0,0-8.61.93c-2.67.59-5.29,1.54-8,1.67-1.63.08-4.1-.21-4.74-2a2.57,2.57,0,0,1,.89-2.72,25.62,25.62,0,0,0-4,2.71c-.23.18-.45-.16-.36-.36a17.22,17.22,0,0,1,1.57-2.56,30.67,30.67,0,0,0-3,2.16.27.27,0,0,1-.44-.26,9.85,9.85,0,0,1,.69-2.09,7.37,7.37,0,0,0-2.11,3.93,7.68,7.68,0,0,0,1.63,5.73,21.56,21.56,0,0,0,4.8,4.64,29.3,29.3,0,0,0,6.29,3.65,39.52,39.52,0,0,0,13,2.5.41.41,0,0,1,.45-.38,7.76,7.76,0,0,0,3.29.08,34.27,34.27,0,0,0,3.49-.72c1.23-.29,2.46-.56,3.67-.89a36.12,36.12,0,0,0,7-2.63c3.31-1.69,6.7-3.85,9-6.82a8.24,8.24,0,0,0,1.92-4.79A7,7,0,0,0,170.23,94.7Z"
                transform="translate(-4.83 -5.13)" />
            <path class="cls-5"
                d="M167.52,102.5a80.25,80.25,0,0,1-21.08,2.91,74.29,74.29,0,0,1-20.82-2.62c-2.68-.76-5.31-1.68-7.91-2.68a8.17,8.17,0,0,0,1.71,4.81,21.56,21.56,0,0,0,4.8,4.64,29.3,29.3,0,0,0,6.29,3.65,39.52,39.52,0,0,0,13,2.5.41.41,0,0,1,.45-.38,7.76,7.76,0,0,0,3.29.08,34.27,34.27,0,0,0,3.49-.72c1.23-.29,2.46-.56,3.67-.89a36.12,36.12,0,0,0,7-2.63c3.31-1.69,6.7-3.85,9-6.82a9.44,9.44,0,0,0,1.73-3.38A47.67,47.67,0,0,1,167.52,102.5Z"
                transform="translate(-4.83 -5.13)" />
            <path class="cls-29"
                d="M160.51,105.71a12.24,12.24,0,0,0-4-1.88,38,38,0,0,0-10.48-1.63,44.55,44.55,0,0,0-10.88.63,24.78,24.78,0,0,0-4.4,1.32,5.22,5.22,0,0,0-2.9,2.35c-1,2.31,1.55,4.68,3.15,6a15.31,15.31,0,0,0,4.06,2.33,10.45,10.45,0,0,0,3.24,1.36,29.15,29.15,0,0,0,5.2.37,25.63,25.63,0,0,0,9.64-1.66,22.88,22.88,0,0,0,5.45-2.92c1.29-1,3-2.4,3-4.17A2.77,2.77,0,0,0,160.51,105.71Z"
                transform="translate(-4.83 -5.13)" />
            <path class="cls-9"
                d="M159,110.93a19.77,19.77,0,0,1-5,3,19.3,19.3,0,0,1-2.55.9,27.31,27.31,0,0,1-5.22,1.06,42,42,0,0,1-5,0A21.19,21.19,0,0,1,133,113a17.6,17.6,0,0,1-2.54-2.1,6.71,6.71,0,0,1-1.91-3c-.62-2.57,3.06-3.48,4.87-4a34.71,34.71,0,0,1,10.45-1.16,45.19,45.19,0,0,1,9.84,1,23.4,23.4,0,0,1,4.62,1.53,4.69,4.69,0,0,1,2.38,1.84C161.5,108.56,160,110.05,159,110.93Z"
                transform="translate(-4.83 -5.13)" />
            <path class="cls-30"
                d="M160.72,107.09a3.44,3.44,0,0,0-1.27-1.27,3.48,3.48,0,0,1-1.44,1.43,14.35,14.35,0,0,1-4,1.46,47.23,47.23,0,0,1-5,.86c-1.52.19-3,.33-4.56.43-.85.06-1.71.16-2.56.15a25.34,25.34,0,0,1-2.61-.26c-1.44-.19-2.87-.43-4.29-.75a21.8,21.8,0,0,1-4.16-1.3,5.08,5.08,0,0,1-2.05-1.44,2,2,0,0,0-.19,1.54,6.71,6.71,0,0,0,1.91,3A17.6,17.6,0,0,0,133,113a21.19,21.19,0,0,0,8.21,2.87,42,42,0,0,0,5,0,27.31,27.31,0,0,0,5.22-1.06,19.3,19.3,0,0,0,2.55-.9,19.77,19.77,0,0,0,5-3C160,110.05,161.5,108.56,160.72,107.09Z"
                transform="translate(-4.83 -5.13)" />
            <path class="cls-31"
                d="M128.67,107a4.51,4.51,0,0,1,2.49-1.73c2.2-.77,14.31-1.44,18-1.07a33,33,0,0,1,8.46,1.72,10.71,10.71,0,0,1,3.27,1.86,1.68,1.68,0,0,0-.2-.65,4.69,4.69,0,0,0-2.38-1.84,23.4,23.4,0,0,0-4.62-1.53,45.19,45.19,0,0,0-9.84-1,34.71,34.71,0,0,0-10.45,1.16c-1.65.5-4.85,1.3-4.94,3.39A2.21,2.21,0,0,1,128.67,107Z"
                transform="translate(-4.83 -5.13)" />
            <path class="cls-32"
                d="M173.17,120.86a33.5,33.5,0,0,0-6.2-9,31.08,31.08,0,0,0-4.66-3.9c-.14-.09-.42.14-.27.25a32.05,32.05,0,0,1,7.74,7.41,45.93,45.93,0,0,1,5.13,9.7c.79,1.93,1.52,3.9,2.26,5.86,0,.05.14,0,.12-.06A107.47,107.47,0,0,0,173.17,120.86Z"
                transform="translate(-4.83 -5.13)" />
            <path class="cls-32"
                d="M178.6,120.51c-2.93-4.75-6.51-9.19-11.27-12.22a20.11,20.11,0,0,0-4.15-2.07c-.16,0-.41.2-.21.28a32.87,32.87,0,0,1,12.82,10.32,39.55,39.55,0,0,1,2.66,3.78C178.5,120.68,178.65,120.59,178.6,120.51Z"
                transform="translate(-4.83 -5.13)" />
            <path class="cls-32"
                d="M181.66,102.34c-4.51,2.26-9.82,2.57-14.77,2.44-1.37,0-2.73-.13-4.1-.16-.12,0-.27.2-.09.22a49.4,49.4,0,0,0,7.5.22,32.69,32.69,0,0,0,7.62-1.11,21.36,21.36,0,0,0,3.89-1.52C181.79,102.39,181.74,102.31,181.66,102.34Z"
                transform="translate(-4.83 -5.13)" />
            <path class="cls-32"
                d="M171,98c-1.64,2.32-4.46,3.42-6.89,4.68-.12.06-.08.25.07.18a29,29,0,0,0,3.83-2A10.29,10.29,0,0,0,171.1,98C171.15,98,171,97.93,171,98Z"
                transform="translate(-4.83 -5.13)" />
            <path class="cls-32"
                d="M117.29,123.45a33.53,33.53,0,0,1,5.86-9.21,31.13,31.13,0,0,1,4.52-4.06c.14-.1.43.12.28.23a32.28,32.28,0,0,0-7.47,7.69,45.67,45.67,0,0,0-4.76,9.88c-.72,2-1.38,4-2,5.94,0,.06-.14,0-.12,0A106.81,106.81,0,0,1,117.29,123.45Z"
                transform="translate(-4.83 -5.13)" />
            <path class="cls-32"
                d="M111.85,123.3c2.75-4.86,6.17-9.43,10.81-12.63a19.92,19.92,0,0,1,4.08-2.22c.15-.06.41.18.21.27a33,33,0,0,0-12.43,10.78,42.9,42.9,0,0,0-2.52,3.88C112,123.46,111.8,123.37,111.85,123.3Z"
                transform="translate(-4.83 -5.13)" />
            <path class="cls-32"
                d="M108.12,105.25c4.59,2.1,9.91,2.2,14.86,1.9,1.36-.09,2.72-.24,4.09-.32.12,0,.27.19.1.22a48.3,48.3,0,0,1-7.5.49,32.78,32.78,0,0,1-7.65-.82,21.26,21.26,0,0,1-4-1.38C108,105.3,108.05,105.22,108.12,105.25Z"
                transform="translate(-4.83 -5.13)" />
            <path class="cls-32"
                d="M118.62,100.5c1.72,2.26,4.58,3.25,7.06,4.42.12.06.08.25-.07.19a27.93,27.93,0,0,1-3.9-1.87,10.12,10.12,0,0,1-3.19-2.7C118.47,100.47,118.58,100.45,118.62,100.5Z"
                transform="translate(-4.83 -5.13)" />
        </g>
    </g>
</svg>