<?xml version="1.0" encoding="utf-8"?>
<!-- Generator: Adobe Illustrator 22.0.0, SVG Export Plug-In . SVG Version: 6.00 Build 0)  -->
<svg version="1.1" xmlns="http://www.w3.org/2000/svg" xmlns:xlink="http://www.w3.org/1999/xlink" x="0px" y="0px"
	 viewBox="0 0 3710 3710" style="enable-background:new 0 0 3710 3710;" xml:space="preserve">
<style type="text/css">
	.st0{fill:#F9CFD1;}
	.st1{fill:url(#SVGID_1_);}
	.st2{opacity:0.43;fill:url(#SVGID_2_);}
	.st3{fill:url(#SVGID_3_);}
	.st4{opacity:0.43;fill:url(#SVGID_4_);}
	.st5{fill:#A8171A;}
	.st6{fill:url(#SVGID_5_);}
	.st7{fill:#FFFFFF;}
	.st8{fill:url(#SVGID_6_);}
	.st9{fill:url(#SVGID_7_);}
	.st10{fill:url(#SVGID_8_);}
	.st11{fill:url(#SVGID_9_);}
	.st12{fill:url(#SVGID_10_);}
	.st13{fill:url(#SVGID_11_);}
	.st14{fill:url(#SVGID_12_);}
	.st15{fill:url(#SVGID_13_);}
	.st16{fill:url(#SVGID_14_);}
	.st17{fill:url(#SVGID_15_);}
	.st18{opacity:0.63;fill:#FFFFFF;}
	.st19{fill:url(#SVGID_16_);}
	.st20{fill:url(#SVGID_17_);}
	.st21{fill:url(#SVGID_18_);}
	.st22{fill:url(#SVGID_19_);}
	.st23{fill:url(#SVGID_20_);}
	.st24{fill:#5E191C;}
	.st25{fill:url(#SVGID_21_);}
	.st26{fill:url(#SVGID_22_);}
	.st27{fill:url(#SVGID_23_);}
	.st28{fill:url(#SVGID_24_);}
	.st29{fill:url(#SVGID_25_);}
	.st30{fill:url(#SVGID_26_);}
	.st31{fill:url(#SVGID_27_);}
	.st32{fill:url(#SVGID_28_);}
	.st33{fill:url(#SVGID_29_);}
	.st34{fill:#351515;}
</style>
<g id="Background">
</g>
<g id="Illustration">
	<g>
		<path class="st0" d="M2885.6,2777.1c-70.7,72.9-134,115.8-182.5,148.1c-472.6,315.5-1012.8,224.6-1179.8,193.5
			c-269.5-50.2-496.9-85.5-692.4-262.1C386.9,2455.4,408.5,1618.5,747.8,1100c40.2-61.5,379.1-563.7,920.4-634.5
			c13.2-1.7,23.1-2.7,31.8-3.6c83.7-8.9,602.7-55.7,1025.9,298.9c60.6,50.7,158.1,142.3,248.5,281.9
			C3304.9,1553.2,3306,2343.8,2885.6,2777.1z"/>
		<g>
			<g>
				<radialGradient id="SVGID_1_" cx="759.0986" cy="2058.6064" r="537.0837" gradientUnits="userSpaceOnUse">
					<stop  offset="0" style="stop-color:#972735"/>
					<stop  offset="1" style="stop-color:#C1272D;stop-opacity:0.5"/>
				</radialGradient>
				<path class="st1" d="M576.2,1360.7c3.3-11,19.3-10.3,21.5,1c21.6,109.4,87.2,394.3,210.2,552.5
					c200.3,257.5,315.4,659.2,159.1,850.2C967,2764.4,215.9,2564.1,576.2,1360.7z"/>
				<radialGradient id="SVGID_2_" cx="756.7324" cy="2075.7073" r="415.8689" gradientUnits="userSpaceOnUse">
					<stop  offset="0" style="stop-color:#972735"/>
					<stop  offset="1" style="stop-color:#C1272D;stop-opacity:0.5"/>
				</radialGradient>
				<path class="st2" d="M585.3,1515c0,3.5,0.3,6.4,0.4,9.6l0.7,9.2l1.5,18.4c1.1,12.3,2.4,24.5,3.7,36.8c2.7,24.5,5.7,49,8.9,73.4
					c6.5,48.9,14.4,97.5,23,146.1c8.5,48.6,18.4,96.9,29.3,145c10.9,48.1,22.6,96,35.8,143.6c26.2,95.1,57.6,188.9,95.5,280.1
					c19.4,45.4,40.1,90.3,63.2,133.9c23.5,43.4,48.8,85.9,77.2,126.3c0.6,0.9,1.8,1.1,2.7,0.5c0.9-0.6,1.1-1.8,0.5-2.6l0,0
					c-26.6-41.3-51-84-73.3-127.8c-22.4-43.7-42.1-88.7-60.7-134.2c-18.6-45.5-35.3-91.7-51-138.2c-15.7-46.6-29.4-93.8-42.9-141
					c-26.5-94.7-48-190.7-66.8-287.2c-9.3-48.3-17.6-96.8-25.1-145.4c-3.8-24.3-7.3-48.6-10.6-73l-4.6-36.6l-2.1-18.3l-0.9-9.2
					c-0.3-3-0.6-6.2-0.7-8.9l0-0.4c0-1.1-0.9-1.9-2-1.8C586.1,1513.2,585.3,1514,585.3,1515z"/>
			</g>
			<g>
				<radialGradient id="SVGID_3_" cx="884.8502" cy="1841.4595" r="517.9705" gradientUnits="userSpaceOnUse">
					<stop  offset="0" style="stop-color:#972735"/>
					<stop  offset="1" style="stop-color:#C1272D;stop-opacity:0.5"/>
				</radialGradient>
				<path class="st3" d="M966.1,1146.9c6-9.2,20.5-4.2,19.4,6.8c-10,106.2-27.6,385.4,42,564c113.4,290.8,109.4,690.5-86,823.1
					C941.5,2540.8,307.4,2152.2,966.1,1146.9z"/>
				<radialGradient id="SVGID_4_" cx="904.3237" cy="1851.8662" r="398.4293" gradientUnits="userSpaceOnUse">
					<stop  offset="0" style="stop-color:#972735"/>
					<stop  offset="1" style="stop-color:#C1272D;stop-opacity:0.5"/>
				</radialGradient>
				<path class="st4" d="M932.3,1290.9c-1,3.2-1.5,6-2.2,8.9l-1.9,8.7l-3.6,17.3c-2.3,11.6-4.5,23.2-6.6,34.8
					c-4.2,23.2-8.1,46.5-11.9,69.8c-7.3,46.6-13.4,93.4-18.8,140.3c-5.4,46.9-9.6,93.9-12.7,141c-3.1,47.1-5.5,94.2-6.4,141.4
					c-1.9,94.4,1.3,189,11.2,282.9c5.4,46.9,12.1,93.7,21.5,140.1c9.7,46.2,21.4,92.1,36.4,136.9c0.3,1,1.4,1.5,2.4,1.2
					c1-0.3,1.5-1.4,1.2-2.3l0,0c-13.1-45.2-23.8-91-32.3-137.2c-8.6-46.2-14.4-92.9-19.1-139.6c-4.6-46.8-7.4-93.7-9-140.7
					c-1.7-47-1.4-94-0.8-141c1.5-94,8-188,17.1-281.6c4.6-46.8,10.2-93.6,16.6-140.2c3.2-23.3,6.5-46.6,10.2-69.9l5.8-34.8l3.1-17.4
					l1.6-8.7c0.6-2.8,1.2-5.9,1.8-8.3l0.1-0.4c0.2-1-0.4-2-1.4-2.3C933.6,1289.4,932.6,1290,932.3,1290.9z"/>
			</g>
		</g>
		<g>
			
				<ellipse transform="matrix(0.7071 -0.7071 0.7071 0.7071 -210.808 1866.1864)" class="st5" cx="2147.3" cy="1187.6" rx="568.6" ry="568.6"/>
			<g>
				<radialGradient id="SVGID_5_" cx="2147.2822" cy="1187.561" r="485.3043" gradientUnits="userSpaceOnUse">
					<stop  offset="0" style="stop-color:#972735"/>
					<stop  offset="1" style="stop-color:#C1272D;stop-opacity:0.5"/>
				</radialGradient>
				<circle class="st6" cx="2147.3" cy="1187.6" r="485.3"/>
				<path class="st7" d="M2147.3,1686.2c-274.9,0-498.6-223.7-498.6-498.6s223.7-498.6,498.6-498.6s498.6,223.7,498.6,498.6
					S2422.2,1686.2,2147.3,1686.2z M2147.3,715.6c-260.3,0-472,211.7-472,472c0,260.3,211.7,472,472,472s472-211.7,472-472
					C2619.3,927.3,2407.5,715.6,2147.3,715.6z"/>
			</g>
			<g>
				<radialGradient id="SVGID_6_" cx="2147.282" cy="1187.5608" r="295.8646" gradientUnits="userSpaceOnUse">
					<stop  offset="0" style="stop-color:#972735"/>
					<stop  offset="1" style="stop-color:#C1272D;stop-opacity:0.5"/>
				</radialGradient>
				<circle class="st8" cx="2147.3" cy="1187.6" r="295.9"/>
				<path class="st7" d="M2147.3,1496.7c-170.5,0-309.2-138.7-309.2-309.2s138.7-309.2,309.2-309.2s309.2,138.7,309.2,309.2
					S2317.8,1496.7,2147.3,1496.7z M2147.3,905c-155.8,0-282.5,126.7-282.5,282.5s126.7,282.5,282.5,282.5s282.5-126.7,282.5-282.5
					S2303.1,905,2147.3,905z"/>
			</g>
			<g>
				<linearGradient id="SVGID_7_" gradientUnits="userSpaceOnUse" x1="2250.7397" y1="965.4593" x2="1854.7513" y2="1815.5615">
					<stop  offset="0" style="stop-color:#E1473D"/>
					<stop  offset="1" style="stop-color:#E9605A"/>
				</linearGradient>
				<circle class="st9" cx="2147.3" cy="1187.6" r="114.6"/>
				<path class="st7" d="M2147.3,1315.5c-70.6,0-127.9-57.4-127.9-127.9c0-70.6,57.4-127.9,127.9-127.9
					c70.6,0,127.9,57.4,127.9,127.9C2275.2,1258.1,2217.8,1315.5,2147.3,1315.5z M2147.3,1086.3c-55.9,0-101.3,45.4-101.3,101.3
					c0,55.9,45.4,101.3,101.3,101.3s101.3-45.4,101.3-101.3C2248.6,1131.7,2203.1,1086.3,2147.3,1086.3z"/>
			</g>
		</g>
		<radialGradient id="SVGID_8_" cx="2645.75" cy="2335.0686" r="697.6441" gradientUnits="userSpaceOnUse">
			<stop  offset="0" style="stop-color:#972735"/>
			<stop  offset="1" style="stop-color:#C1272D;stop-opacity:0.5"/>
		</radialGradient>
		<path class="st10" d="M3144.2,3186.5h-996.9V1524.1c0-22.3,18.1-40.4,40.4-40.4h916.1c22.3,0,40.4,18.1,40.4,40.4V3186.5z"/>
		<g>
			<linearGradient id="SVGID_9_" gradientUnits="userSpaceOnUse" x1="2679.2571" y1="829.9656" x2="2645.9929" y2="1318.9443">
				<stop  offset="0" style="stop-color:#FF928E"/>
				<stop  offset="1" style="stop-color:#FE7062"/>
			</linearGradient>
			<polygon class="st11" points="2675.8,1419.5 2624.2,1419.5 2543.2,1181 2768.5,1167.3 			"/>
			<linearGradient id="SVGID_10_" gradientUnits="userSpaceOnUse" x1="2650.5798" y1="1211.5168" x2="2647.2539" y2="662.6653">
				<stop  offset="0" style="stop-color:#FF928E"/>
				<stop  offset="1" style="stop-color:#FE7062"/>
			</linearGradient>
			<path class="st12" d="M2406,737.9c-0.3,20.1-0.3,414.3,199.8,478.3c200.1,64,290.4-269.5,283.3-507L2406,737.9z"/>
			<linearGradient id="SVGID_11_" gradientUnits="userSpaceOnUse" x1="2653.0762" y1="1425.1077" x2="2634.1055" y2="1735.7585">
				<stop  offset="0" style="stop-color:#FF928E"/>
				<stop  offset="1" style="stop-color:#FE7062"/>
			</linearGradient>
			<rect x="2490.1" y="1455.7" class="st13" width="319.9" height="38.8"/>
			<linearGradient id="SVGID_12_" gradientUnits="userSpaceOnUse" x1="2672.0693" y1="1032.4071" x2="2655.4373" y2="1351.7408">
				<stop  offset="0" style="stop-color:#FF928E"/>
				<stop  offset="1" style="stop-color:#FE7062"/>
			</linearGradient>
			<polygon class="st14" points="2810,1455.7 2490.1,1455.7 2571,1412.2 2729,1412.2 			"/>
			<linearGradient id="SVGID_13_" gradientUnits="userSpaceOnUse" x1="2989.0413" y1="267.3625" x2="1884.0956" y2="1738.5897">
				<stop  offset="0" style="stop-color:#FF928E"/>
				<stop  offset="1" style="stop-color:#FE7062"/>
			</linearGradient>
			<path class="st15" d="M2382.8,682c-17.6,1.1-31.9,14.1-31.9,28.9v30.3c0,14.8,14.4,26.2,31.9,25.2l548.3-29.5
				c17.6-0.9,31.9-13.8,31.9-28.7v-34.6c0-14.8-14.4-26.1-31.9-25L2382.8,682z"/>
			<linearGradient id="SVGID_14_" gradientUnits="userSpaceOnUse" x1="3101.011" y1="881.2816" x2="2718.4773" y2="1270.4679">
				<stop  offset="0" style="stop-color:#FF928E"/>
				<stop  offset="1" style="stop-color:#FE7062"/>
			</linearGradient>
			<path class="st16" d="M2747.5,1247.5c-12.8,0-23.8-8.1-25.3-19c-1.6-11.8,8.4-22.4,22.4-23.8c2.7-0.3,186.7-19.7,204.1-120.4
				c2.9-17,2.6-39.2-15.6-48.4c-15.1-7.6-39.7-5.2-57.4,5.6c-10,6.2-21,17-16.3,33.5c3.3,11.5-5.2,23.1-18.9,25.9
				c-13.7,2.7-27.4-4.4-30.7-15.9c-8.5-29.9,4.9-59,35.8-78.1c34.3-21.1,81.1-24.3,113.8-7.8c19.1,9.7,49.7,34.4,39.8,91.4
				c-9.8,56.3-56.8,101.4-136,130.4c-56.9,20.8-110.5,26.2-112.8,26.4C2749.4,1247.4,2748.4,1247.5,2747.5,1247.5z"/>
			<linearGradient id="SVGID_15_" gradientUnits="userSpaceOnUse" x1="2214.3362" y1="915.208" x2="2660.0718" y2="1317.701">
				<stop  offset="0" style="stop-color:#FF928E"/>
				<stop  offset="1" style="stop-color:#FE7062"/>
			</linearGradient>
			<path class="st17" d="M2556.6,1247.5c12.8,0,23.8-8.1,25.3-19c1.6-11.8-8.4-22.4-22.4-23.8c-2.7-0.3-186.7-19.7-204.1-120.4
				c-2.9-17-2.6-39.2,15.6-48.4c15.1-7.6,39.7-5.2,57.4,5.6c10,6.2,21,17,16.3,33.5c-3.3,11.5,5.2,23.1,18.9,25.9
				c13.7,2.7,27.4-4.4,30.7-15.9c8.5-29.9-4.9-59-35.8-78.1c-34.3-21.1-81.1-24.3-113.8-7.8c-19.1,9.7-49.7,34.4-39.8,91.4
				c9.8,56.3,56.8,101.4,136,130.4c56.9,20.8,110.5,26.2,112.8,26.4C2554.7,1247.4,2555.7,1247.5,2556.6,1247.5z"/>
			<path class="st18" d="M2780.5,706.9c-2.2,0-4-1.7-4.2-3.9c-0.1-2.3,1.6-4.3,3.9-4.4l49-2.6c2.3-0.1,4.3,1.6,4.4,3.9
				c0.1,2.3-1.6,4.3-3.9,4.4l-49,2.6C2780.7,706.9,2780.6,706.9,2780.5,706.9z"/>
			<path class="st18" d="M2405.9,727.1c-2.2,0-4-1.7-4.2-3.9c-0.1-2.3,1.6-4.3,3.9-4.4l292.5-15.7c2.3-0.1,4.3,1.6,4.4,3.9
				c0.1,2.3-1.6,4.3-3.9,4.4l-292.5,15.7C2406.1,727.1,2406,727.1,2405.9,727.1z"/>
			<path class="st18" d="M2632.5,1171.5c-0.2,0-0.3,0-0.5,0c-53-6.1-95.3-49.2-125.9-128.2c-25.2-65.2-37.1-141.6-42.7-194.1
				c-0.2-2.3,1.4-4.3,3.7-4.6c2.3-0.2,4.3,1.4,4.6,3.7c9.5,90.2,44.3,301.5,161.2,314.9c2.3,0.3,3.9,2.3,3.7,4.6
				C2636.4,1169.9,2634.6,1171.5,2632.5,1171.5z"/>
			<path class="st18" d="M2464.1,811.6c-2.2,0-4-1.7-4.2-3.9c-0.8-12-1-18.9-1-19.2c-0.1-2.3,1.7-4.2,4-4.3c2.5-0.2,4.2,1.7,4.3,4
				c0,0.1,0.2,7.1,1,18.9c0.1,2.3-1.6,4.3-3.9,4.4C2464.2,811.6,2464.1,811.6,2464.1,811.6z"/>
		</g>
		<linearGradient id="SVGID_16_" gradientUnits="userSpaceOnUse" x1="2692.1296" y1="1545.0779" x2="2023.3098" y2="2479.3823">
			<stop  offset="0" style="stop-color:#FEBBBA"/>
			<stop  offset="1" style="stop-color:#FF928E"/>
		</linearGradient>
		<path class="st19" d="M2441.6,3205.2H1532V1868.6c0-22.3,18.1-40.4,40.4-40.4h828.8c22.3,0,40.4,18.1,40.4,40.4V3205.2z"/>
		<linearGradient id="SVGID_17_" gradientUnits="userSpaceOnUse" x1="1012.8083" y1="2706.0674" x2="1812.821" y2="2706.0674">
			<stop  offset="0" style="stop-color:#972735"/>
			<stop  offset="1" style="stop-color:#C1272D;stop-opacity:0.5"/>
		</linearGradient>
		<path class="st20" d="M1812.8,3205.2h-800v-957.8c0-22.3,18.1-40.4,40.4-40.4h719.2c22.3,0,40.4,18.1,40.4,40.4V3205.2z"/>
		<linearGradient id="SVGID_18_" gradientUnits="userSpaceOnUse" x1="1534.4745" y1="2090.2688" x2="823.9671" y2="2873.3823">
			<stop  offset="0" style="stop-color:#FEBBBA"/>
			<stop  offset="1" style="stop-color:#FF928E"/>
		</linearGradient>
		<path class="st21" d="M1214.2,3203.4H482.8v-698.5c0-22.3,18.1-40.4,40.4-40.4h650.6c22.3,0,40.4,18.1,40.4,40.4V3203.4z"/>
		<g>
			<g>
				<path class="st5" d="M765,2460.2c0-0.7,0-1.4-0.2-2.2c-10.8-42.7-64.3-69.3-64.3-69.3l-13.7,1.1c-4.6,0.4-8.5,3.6-9.8,8
					c-10,34.2-8.1,55.2-6.2,64.4c0,0,0,0,0.1,0.1C688.4,2463.8,724.4,2464.9,765,2460.2z"/>
				<path class="st5" d="M670.9,2462.3c0.9,3.4,3.5,6.1,6.7,6.8c24.9,5.2,64.4,1,81-1.1c3.7-0.5,6.3-3.9,6.4-7.7
					C724.4,2464.9,688.4,2463.8,670.9,2462.3z"/>
			</g>
			
				<linearGradient id="SVGID_19_" gradientUnits="userSpaceOnUse" x1="6820.6504" y1="2298.8223" x2="6798.1636" y2="2495.0732" gradientTransform="matrix(1 0 0 1 -6108.8896 0)">
				<stop  offset="0" style="stop-color:#FEBBBA"/>
				<stop  offset="1" style="stop-color:#FF928E"/>
			</linearGradient>
			<path class="st22" d="M690.8,2351l-11,51.1c0.8,3.7,3.7,6.5,7.1,6.9c4.3,0.4,10.3,0.6,16.4-0.3c5.5-0.8,9.3-6.4,8.3-12.3
				l14.2-45.3H690.8z"/>
			<path class="st5" d="M1062.8,2233.9c-20.9-0.6-31.8-3.1-37.4-5.3c0,2.1,0,4.2,0.1,6.4c0.1,2.3,1.8,4.2,3.9,4.2l114.9-0.7
				c3.7,0,5.8-4.3,4.2-7.6C1133.6,2232.1,1095.2,2234.8,1062.8,2233.9z"/>
			<path class="st5" d="M1148.6,2230.8c0-0.1,0-0.1,0.1-0.1c-9.8-13.9-35.6-42.9-87.6-55.4l-19.1-0.6c-3.5-0.1-6.6,1.9-7.9,5.1
				c-3.2,7.9-8.5,24.5-8.6,48.8c5.6,2.3,16.4,4.8,37.4,5.3C1095.2,2234.8,1133.6,2232.1,1148.6,2230.8z"/>
			
				<linearGradient id="SVGID_20_" gradientUnits="userSpaceOnUse" x1="8065.5195" y1="2000.3942" x2="8049.1748" y2="2143.043" gradientTransform="matrix(0.9629 0.2699 -0.2699 0.9629 -6155.21 -1974.7611)">
				<stop  offset="0" style="stop-color:#FEBBBA"/>
				<stop  offset="1" style="stop-color:#FF928E"/>
			</linearGradient>
			<path class="st23" d="M1047.1,2139.7c-0.2,1.8-4.5,29.5-6.1,40.2c-0.4,2.5,0.9,5,3,5.9c3.9,1.6,10.3,3.9,16.3,4.3
				c3.2,0.2,6.3-2.1,7.3-5.5l11.8-42L1047.1,2139.7z"/>
			<path class="st24" d="M810.5,1854.7c0,0-27.4,41.2-36.6,100.6c-8.4,54.7-80.1,361.9-91.5,410.7c-0.9,3.7,1.5,7.4,5.2,8.2
				c7,1.6,18.3,3.7,27.6,3.3c4.9-0.2,9.3-3.2,11.2-7.8l171.1-396.1c0,0,113.8-21.9,155.5,27.4c25.1,29.6,8.6,81.8-13.7,155.5
				c0,0,27.4,13.7,45.7,4.6c0,0,85.3-133.3,50.3-215c-16.2-37.8-86.1-75.1-155.5-82.3L810.5,1854.7z"/>
			<linearGradient id="SVGID_21_" gradientUnits="userSpaceOnUse" x1="376.891" y1="2118.9104" x2="1095.4631" y2="1540.0602">
				<stop  offset="0" style="stop-color:#FF0000"/>
				<stop  offset="1" style="stop-color:#D4145A"/>
			</linearGradient>
			<path class="st25" d="M810.5,1854.7l41.2-365.9c0,0,178.4,0,292.8,64l-148,308.7c-7.9,16.6-24.7,27.2-43,27.1
				C922,1888.5,869.8,1882.9,810.5,1854.7z"/>
			<linearGradient id="SVGID_22_" gradientUnits="userSpaceOnUse" x1="446.4856" y1="2205.3003" x2="1165.0557" y2="1626.4518">
				<stop  offset="0" style="stop-color:#FF0000"/>
				<stop  offset="1" style="stop-color:#D4145A"/>
			</linearGradient>
			<path class="st26" d="M1293.1,1454.4c0,0-11.4,116.6-148.7,98.3c0,0-52.7,58.1-53.8,109.1c0,0,250.5,64.7,227.6-196
				L1293.1,1454.4z"/>
			<linearGradient id="SVGID_23_" gradientUnits="userSpaceOnUse" x1="876.7048" y1="1772.4358" x2="691.4462" y2="1962.2687">
				<stop  offset="0" style="stop-color:#FEBBBA"/>
				<stop  offset="1" style="stop-color:#FF928E"/>
			</linearGradient>
			<path class="st27" d="M792.2,1813.5c0,0,18.3-32,45.7-27.4c27.4,4.6,41.2,32,41.2,32s-27.4,13.7-45.7,22.9
				C815.1,1850.1,783.1,1840.9,792.2,1813.5z"/>
			<linearGradient id="SVGID_24_" gradientUnits="userSpaceOnUse" x1="322.6661" y1="2051.5935" x2="1041.2382" y2="1472.7434">
				<stop  offset="0" style="stop-color:#FF0000"/>
				<stop  offset="1" style="stop-color:#D4145A"/>
			</linearGradient>
			<path class="st28" d="M847.1,1603.1c0,0-233.3,105.2-54.9,210.4l3.9,22.8c0,0-141.9,20.6-148-144
				c-4.6-123.5,203.6-203.6,203.6-203.6L847.1,1603.1z"/>
			
				<linearGradient id="SVGID_25_" gradientUnits="userSpaceOnUse" x1="8076.9224" y1="1236.7626" x2="7995.9058" y2="1586.869" gradientTransform="matrix(0.9428 0.3334 -0.3334 0.9428 -6136.5225 -2456.127)">
				<stop  offset="0" style="stop-color:#FEBBBA"/>
				<stop  offset="1" style="stop-color:#FF928E"/>
			</linearGradient>
			<path class="st29" d="M997.1,1433.8l-33.6,71.9c0,0,37.4,27.4,75.5,16.7l9.8-102L997.1,1433.8z"/>
			<g>
				
					<linearGradient id="SVGID_26_" gradientUnits="userSpaceOnUse" x1="4649.5317" y1="4793.9946" x2="4538.146" y2="4941.3486" gradientTransform="matrix(0.8819 -0.4713 0.4713 0.8819 -5298.8882 -670.0543)">
					<stop  offset="0" style="stop-color:#FEBBBA"/>
					<stop  offset="1" style="stop-color:#FF928E"/>
				</linearGradient>
				<path class="st30" d="M1079.9,1355.6c0.7,1.3,14.8,97.3,14.8,97.3l-55,6.9l-26.9-89C1012.8,1370.8,1068.3,1333.9,1079.9,1355.6z
					"/>
				<path class="st5" d="M1033.1,1379.8c-1.6,1.9-2.2,4.4-1.7,6.8l10.4,47.3c0.2,0.7,0.4,1.4,0.8,2c1.9,3.6,9,14.4,19.9,6.6
					c9.3-6.7,18-12.7,25.4-13.9c4.4-0.7,8.4,2.4,9.1,6.8c1.3,9,3.5,27.3,3.3,43.8c-0.1,4.1-3.3,7.5-7.5,7.7
					c-10.9,0.7-32.2,1.3-49.8-2c-2.9-0.5-5.2-2.6-6.1-5.4c-3.9-12.3-15-46.9-19.6-56.2c-4.3-8.6-17-10.2-22.9-10.5
					c-2.2-0.1-4.3-1.1-5.8-2.8c-4.3-5.1-11.1-16.5,2.3-27.4c3.3-2.7,3.8-7.7,1.1-11c-4.7-6.1-8.8-15.8,1.6-25.8
					c10.5-10.2,22.3-7.5,29.7-3.9c3.3,1.6,7.4,0.9,9.8-1.8c1.1-1.2,2.6-2,4.9-1.8c4.3,0.5,8.3-2.3,8.8-6.6c1-7.4,5.1-16.1,18.3-18.5
					c24.2-4.3,35.9,20,35.3,36.9c-0.7,17-27.2,20.2-42.1,17.2C1047.1,1365,1037.4,1374.6,1033.1,1379.8z"/>
				
					<linearGradient id="SVGID_27_" gradientUnits="userSpaceOnUse" x1="4486.3936" y1="4910.688" x2="4575.7354" y2="4819.0254" gradientTransform="matrix(0.8819 -0.4713 0.4713 0.8819 -5298.8882 -670.0543)">
					<stop  offset="0" style="stop-color:#FEBBBA"/>
					<stop  offset="1" style="stop-color:#FF928E"/>
				</linearGradient>
				<path class="st31" d="M1021.2,1440.7c0,0-0.1-29.6-12.1-32.6c-12-2.9-25,5.6-15,23.4C1006.6,1453.8,1021.2,1440.7,1021.2,1440.7
					z"/>
			</g>
			<linearGradient id="SVGID_28_" gradientUnits="userSpaceOnUse" x1="1520.9856" y1="1032.928" x2="1423.4119" y2="1194.812">
				<stop  offset="0" style="stop-color:#FF928E"/>
				<stop  offset="1" style="stop-color:#FE7062"/>
			</linearGradient>
			<polygon class="st32" points="1105.6,1381.2 1485.3,1321.8 1480.7,1440.7 1105.6,1408.7 			"/>
			<path class="st5" d="M1472.2,1317.6c-2,23.5,0,97.7,1.1,122.1c0.2,4.4,3.8,7.9,8.3,7.9h6.4c5,0,9.3-3.7,10.1-8.6
				c7.1-43.8,10.7-84.9,8.3-121.5c-0.3-4-3.7-7.1-7.7-7.1h-18.5C1476,1310.3,1472.6,1313.5,1472.2,1317.6z"/>
			<path class="st5" d="M1112.8,1374.4h-11.2c-1.8,0-3.3,1.3-3.7,3c-2.4,11.1-0.6,27.9,0.3,34.9c0.3,1.9,1.8,3.3,3.7,3.3h7.1
				c1.9,0,3.5-1.4,3.7-3.3l3.7-33.7C1116.8,1376.3,1115.1,1374.4,1112.8,1374.4z"/>
			<linearGradient id="SVGID_29_" gradientUnits="userSpaceOnUse" x1="1293.1337" y1="1431.907" x2="1347.7017" y2="1431.907">
				<stop  offset="0" style="stop-color:#FEBBBA"/>
				<stop  offset="1" style="stop-color:#FF928E"/>
			</linearGradient>
			<path class="st33" d="M1293.1,1454.4c0,0,2.1-26.5,5.6-29.3c3.5-2.8,31-30.2,35.6-30.2c4.6,0,9.1,9.1,0,13.7
				c-9.1,4.6-11.4,18.5-11.4,18.5l24.8,2.1c0,0-18,34.2-27.1,38.8C1311.4,1472.7,1293.1,1454.4,1293.1,1454.4z"/>
		</g>
		<g>
			<path class="st5" d="M2336.7,2816l9.3,290.4c1.6,50.6,43.2,90.9,94.1,91.2l695.4,4.1c34,0.2,63-24.5,68-58
				c10.9-73.3,24.7-204.5,9.1-327.7H2336.7z"/>
			<path class="st7" d="M3116.5,3184.7C3116.5,3184.7,3116.5,3184.7,3116.5,3184.7l-10-0.1c-0.9,0-1.7-0.8-1.7-1.7
				c0-0.9,0.6-1.7,1.7-1.7l10,0.1c0.9,0,1.7,0.8,1.7,1.7C3118.2,3184,3117.4,3184.7,3116.5,3184.7z M3083.3,3184.5
				C3083.3,3184.5,3083.2,3184.5,3083.3,3184.5l-10-0.1c-0.9,0-1.7-0.8-1.7-1.7c0-0.9,0.8-1.7,1.7-1.7c0,0,0,0,0,0l10,0.1
				c0.9,0,1.7,0.8,1.7,1.7C3084.9,3183.8,3084.2,3184.5,3083.3,3184.5z M3050,3184.3C3050,3184.3,3050,3184.3,3050,3184.3l-10-0.1
				c-0.9,0-1.7-0.8-1.7-1.7c0-0.9,0.8-1.7,1.7-1.7c0,0,0,0,0,0l10,0.1c0.9,0,1.7,0.8,1.7,1.7
				C3051.6,3183.6,3050.9,3184.3,3050,3184.3z M3016.7,3184.1C3016.7,3184.1,3016.7,3184.1,3016.7,3184.1l-10-0.1
				c-0.9,0-1.7-0.8-1.7-1.7c0-0.9,0.8-1.7,1.7-1.7c0,0,0,0,0,0l10,0.1c0.9,0,1.7,0.8,1.7,1.7
				C3018.4,3183.4,3017.6,3184.1,3016.7,3184.1z M2983.5,3183.9C2983.5,3183.9,2983.5,3183.9,2983.5,3183.9l-10-0.1
				c-0.9,0-1.7-0.8-1.7-1.7c0-0.9,0.8-1.8,1.7-1.7l10,0.1c0.9,0,1.7,0.8,1.7,1.7C2985.1,3183.2,2984.4,3183.9,2983.5,3183.9z
				 M2950.2,3183.7C2950.2,3183.7,2950.2,3183.7,2950.2,3183.7l-10-0.1c-0.9,0-1.7-0.8-1.7-1.7c0-0.9,0.8-1.7,1.7-1.7c0,0,0,0,0,0
				l10,0.1c0.9,0,1.7,0.8,1.7,1.7C2951.9,3183,2951.1,3183.7,2950.2,3183.7z M2916.9,3183.5
				C2916.9,3183.5,2916.9,3183.5,2916.9,3183.5l-10-0.1c-0.9,0-1.7-0.8-1.7-1.7c0-0.9,0.8-1.7,1.7-1.7c0,0,0,0,0,0l10,0.1
				c0.9,0,1.7,0.8,1.7,1.7C2918.6,3182.8,2917.9,3183.5,2916.9,3183.5z M2883.7,3183.3C2883.7,3183.3,2883.7,3183.3,2883.7,3183.3
				l-10-0.1c-0.9,0-1.7-0.8-1.7-1.7c0-0.9,0.8-1.7,1.7-1.7c0,0,0,0,0,0l10,0.1c0.9,0,1.7,0.8,1.7,1.7
				C2885.3,3182.6,2884.6,3183.3,2883.7,3183.3z M2850.4,3183.1C2850.4,3183.1,2850.4,3183.1,2850.4,3183.1l-10-0.1
				c-0.9,0-1.7-0.8-1.7-1.7c0-0.9,0.8-1.7,1.7-1.7c0,0,0,0,0,0l10,0.1c0.9,0,1.7,0.8,1.7,1.7
				C2852.1,3182.4,2851.3,3183.1,2850.4,3183.1z M2817.1,3182.9C2817.1,3182.9,2817.1,3182.9,2817.1,3182.9l-10-0.1
				c-0.9,0-1.7-0.8-1.7-1.7c0-0.9,0.8-1.7,1.7-1.7c0,0,0,0,0,0l10,0.1c0.9,0,1.7,0.8,1.7,1.7
				C2818.8,3182.2,2818.1,3182.9,2817.1,3182.9z M2783.9,3182.7C2783.9,3182.7,2783.9,3182.7,2783.9,3182.7l-10-0.1
				c-0.9,0-1.7-0.8-1.7-1.7c0-0.9,0.7-1.5,1.7-1.7l10,0.1c0.9,0,1.7,0.8,1.7,1.7C2785.5,3182,2784.8,3182.7,2783.9,3182.7z
				 M2750.6,3182.5C2750.6,3182.5,2750.6,3182.5,2750.6,3182.5l-10-0.1c-0.9,0-1.7-0.8-1.7-1.7c0-0.9,0.8-1.7,1.7-1.7c0,0,0,0,0,0
				l10,0.1c0.9,0,1.7,0.8,1.7,1.7C2752.3,3181.8,2751.5,3182.5,2750.6,3182.5z M2717.4,3182.3
				C2717.4,3182.3,2717.4,3182.3,2717.4,3182.3l-10-0.1c-0.9,0-1.7-0.8-1.7-1.7c0-0.9,0.8-1.7,1.7-1.7c0,0,0,0,0,0l10,0.1
				c0.9,0,1.7,0.8,1.7,1.7C2719,3181.6,2718.3,3182.3,2717.4,3182.3z M2684.1,3182.1C2684.1,3182.1,2684.1,3182.1,2684.1,3182.1
				l-10-0.1c-0.9,0-1.7-0.8-1.7-1.7c0-0.9,0.8-1.7,1.7-1.7c0,0,0,0,0,0l10,0.1c0.9,0,1.7,0.8,1.7,1.7
				C2685.8,3181.4,2685,3182.1,2684.1,3182.1z M2650.8,3181.9C2650.8,3181.9,2650.8,3181.9,2650.8,3181.9l-10-0.1
				c-0.9,0-1.7-0.8-1.7-1.7c0-0.9,0.8-1.7,1.7-1.7c0,0,0,0,0,0l10,0.1c0.9,0,1.7,0.8,1.7,1.7
				C2652.5,3181.2,2651.7,3181.9,2650.8,3181.9z M2617.6,3181.8C2617.6,3181.8,2617.6,3181.8,2617.6,3181.8l-10-0.1
				c-0.9,0-1.7-0.8-1.7-1.7c0-0.9,0.8-1.7,1.7-1.7c0,0,0,0,0,0l10,0.1c0.9,0,1.7,0.8,1.7,1.7
				C2619.2,3181,2618.5,3181.8,2617.6,3181.8z M2584.3,3181.6C2584.3,3181.6,2584.3,3181.6,2584.3,3181.6l-10-0.1
				c-0.9,0-1.7-0.8-1.7-1.7c0-0.9,0.8-1.7,1.7-1.7c0,0,0,0,0,0l10,0.1c0.9,0,1.7,0.8,1.7,1.7
				C2586,3180.8,2585.2,3181.6,2584.3,3181.6z M2551,3181.4C2551,3181.4,2551,3181.4,2551,3181.4l-10-0.1c-0.9,0-1.7-0.8-1.7-1.7
				c0-0.9,0.8-1.7,1.7-1.7c0,0,0,0,0,0l10,0.1c0.9,0,1.7,0.8,1.7,1.7C2552.7,3180.6,2552,3181.4,2551,3181.4z M3139.4,3181.3
				c-0.7,0-1.3-0.4-1.6-1.1c-0.3-0.9,0.2-1.8,1-2.1c3.1-1,6.1-2.3,8.9-3.8c0.8-0.4,1.8-0.1,2.2,0.7c0.4,0.8,0.1,1.8-0.7,2.2
				c-3,1.6-6.2,2.9-9.4,4C3139.8,3181.3,3139.6,3181.3,3139.4,3181.3z M2517.8,3181.2C2517.8,3181.2,2517.8,3181.2,2517.8,3181.2
				l-10-0.1c-0.9,0-1.7-0.8-1.7-1.7c0-0.9,0.8-1.7,1.7-1.7c0,0,0,0,0,0l10,0.1c0.9,0,1.7,0.8,1.7,1.7
				C2519.4,3180.4,2518.7,3181.2,2517.8,3181.2z M2484.5,3181C2484.5,3181,2484.5,3181,2484.5,3181l-10-0.1c-0.9,0-1.7-0.8-1.7-1.7
				c0-0.9,0.8-1.7,1.7-1.7c0,0,0,0,0,0l10,0.1c0.9,0,1.7,0.8,1.7,1.7C2486.2,3180.2,2485.4,3181,2484.5,3181z M2451.3,3180.6
				c0,0-0.1,0-0.1,0c-3.4-0.2-6.8-0.6-10.1-1.2c-0.9-0.2-1.5-1-1.4-1.9c0.2-0.9,1-1.5,1.9-1.4c3.2,0.6,6.5,0.9,9.7,1.1
				c0.9,0.1,1.6,0.8,1.6,1.8C2452.9,3179.9,2452.1,3180.6,2451.3,3180.6z M2419.2,3172.5c-0.2,0-0.5,0-0.7-0.2c-3.1-1.4-6.1-3-9-4.7
				c-0.8-0.5-1-1.5-0.6-2.3c0.5-0.8,1.5-1,2.3-0.6c2.8,1.7,5.7,3.2,8.6,4.6c0.8,0.4,1.2,1.4,0.8,2.2
				C2420.4,3172.2,2419.8,3172.5,2419.2,3172.5z M3167,3163.3c-0.4,0-0.8-0.1-1.1-0.4c-0.7-0.6-0.7-1.7-0.1-2.4
				c2.2-2.4,4.2-5,5.9-7.7c0.5-0.8,1.5-1,2.3-0.5c0.8,0.5,1,1.5,0.5,2.3c-1.9,2.8-4,5.6-6.3,8.1
				C3167.9,3163.1,3167.4,3163.3,3167,3163.3z M2392.2,3153.4c-0.4,0-0.9-0.2-1.2-0.5c-2.4-2.4-4.6-5-6.7-7.7
				c-0.6-0.7-0.4-1.8,0.3-2.3c0.7-0.6,1.8-0.4,2.3,0.3c2,2.6,4.1,5,6.4,7.4c0.6,0.7,0.6,1.7,0,2.4
				C2393,3153.3,2392.6,3153.4,2392.2,3153.4z M3182.1,3134.1c-0.1,0-0.2,0-0.4,0c-0.9-0.2-1.5-1.1-1.3-2c0.3-1.5,0.6-3,0.8-4.5
				l0.8-5.3c0.1-0.9,1-1.5,1.9-1.4c0.9,0.1,1.5,1,1.4,1.9l-0.8,5.3c-0.2,1.6-0.5,3.2-0.9,4.7
				C3183.5,3133.5,3182.8,3134.1,3182.1,3134.1z M2373.9,3125.9c-0.6,0-1.3-0.4-1.5-1c-1.3-3.1-2.5-6.3-3.4-9.6
				c-0.3-0.9,0.2-1.8,1.1-2.1c0.9-0.3,1.8,0.2,2.1,1.1c0.9,3.1,2,6.2,3.3,9.2c0.4,0.8,0,1.8-0.9,2.2
				C2374.4,3125.9,2374.1,3125.9,2373.9,3125.9z M3186.8,3101.2c-0.1,0-0.1,0-0.2,0c-0.9-0.1-1.6-1-1.4-1.9c0.4-3.2,0.8-6.5,1.2-9.9
				c0.1-0.9,1-1.6,1.9-1.4c0.9,0.1,1.6,0.9,1.4,1.9c-0.4,3.4-0.8,6.7-1.2,9.9C3188.4,3100.5,3187.7,3101.2,3186.8,3101.2z
				 M2366.9,3093.6c-0.9,0-1.6-0.7-1.7-1.6l-0.3-10c0-0.9,0.7-1.7,1.6-1.7c0.9,0,1.7,0.7,1.7,1.6l0.3,10
				C2368.6,3092.8,2367.9,3093.6,2366.9,3093.6C2367,3093.6,2366.9,3093.6,2366.9,3093.6z M3190.7,3068.1c-0.1,0-0.1,0-0.2,0
				c-0.9-0.1-1.6-0.9-1.5-1.8c0.3-3.3,0.7-6.6,1-9.9c0.1-0.9,0.9-1.6,1.8-1.5c0.9,0.1,1.6,0.9,1.5,1.8c-0.3,3.4-0.7,6.7-1,9.9
				C3192.3,3067.5,3191.5,3068.1,3190.7,3068.1z M2365.9,3060.3c-0.9,0-1.6-0.7-1.7-1.6l-0.3-10c0-0.9,0.7-1.7,1.6-1.7
				c1.1-0.1,1.7,0.7,1.7,1.6l0.3,10C2367.5,3059.5,2366.8,3060.3,2365.9,3060.3C2365.9,3060.3,2365.9,3060.3,2365.9,3060.3z
				 M3193.8,3035c0,0-0.1,0-0.1,0c-0.9-0.1-1.6-0.9-1.5-1.8c0.3-3.3,0.5-6.6,0.8-9.9c0.1-0.9,0.8-1.6,1.8-1.5
				c0.9,0.1,1.6,0.9,1.5,1.8c-0.3,3.3-0.5,6.7-0.8,10C3195.4,3034.3,3194.7,3035,3193.8,3035z M2364.8,3027.1
				c-0.9,0-1.6-0.7-1.7-1.6l-0.3-10c0-0.9,0.7-1.7,1.6-1.7c0.8,0.1,1.7,0.7,1.7,1.6l0.3,10
				C2366.5,3026.3,2365.8,3027.1,2364.8,3027.1C2364.8,3027.1,2364.8,3027.1,2364.8,3027.1z M3196.1,3001.8
				C3196.1,3001.8,3196.1,3001.8,3196.1,3001.8c-1-0.1-1.7-0.8-1.7-1.8c0.2-3.3,0.4-6.6,0.5-9.9c0-0.9,0.7-1.6,1.7-1.6
				c0.9,0,1.6,0.8,1.6,1.7c-0.2,3.3-0.4,6.7-0.5,10C3197.7,3001.1,3197,3001.8,3196.1,3001.8z M2363.7,2993.8
				c-0.9,0-1.6-0.7-1.7-1.6l-0.3-10c0-0.9,0.7-1.7,1.6-1.7c0.8,0,1.7,0.7,1.7,1.6l0.3,10C2365.4,2993,2364.7,2993.8,2363.7,2993.8
				C2363.7,2993.8,2363.7,2993.8,2363.7,2993.8z M3197.6,2968.6C3197.6,2968.6,3197.6,2968.6,3197.6,2968.6c-1,0-1.7-0.8-1.7-1.7
				c0.1-3.3,0.2-6.6,0.3-10c0-0.9,0.9-1.7,1.7-1.6c0.9,0,1.6,0.8,1.6,1.7c-0.1,3.3-0.2,6.7-0.3,10
				C3199.3,2967.9,3198.5,2968.6,3197.6,2968.6z M2362.6,2960.6c-0.9,0-1.6-0.7-1.7-1.6l-0.3-10c0-0.9,0.7-1.7,1.6-1.7
				c1,0,1.7,0.7,1.7,1.6l0.3,10C2364.3,2959.8,2363.6,2960.6,2362.6,2960.6C2362.7,2960.6,2362.7,2960.6,2362.6,2960.6z
				 M3198.2,2935.3C3198.2,2935.3,3198.2,2935.3,3198.2,2935.3c-0.9,0-1.7-0.8-1.7-1.7l0-4.2l0-5.8c0-0.9,0.7-1.7,1.7-1.7
				c0,0,0,0,0,0c0.9,0,1.7,0.7,1.7,1.7l0,5.8l0,4.2C3199.9,2934.6,3199.2,2935.3,3198.2,2935.3z M2361.6,2927.3
				c-0.9,0-1.6-0.7-1.7-1.6l-0.3-10c0-0.9,0.7-1.7,1.6-1.7c0,0,0,0,0.1,0c0.9,0,1.6,0.7,1.7,1.6l0.3,10
				C2363.3,2926.5,2362.5,2927.3,2361.6,2927.3C2361.6,2927.3,2361.6,2927.3,2361.6,2927.3z M3197.9,2902.1c-0.9,0-1.6-0.7-1.7-1.6
				c-0.1-3.3-0.2-6.6-0.3-10c0-0.9,0.7-1.7,1.6-1.7c1,0,1.7,0.7,1.7,1.6c0.1,3.3,0.2,6.7,0.3,10
				C3199.5,2901.3,3198.8,2902,3197.9,2902.1C3197.9,2902.1,3197.9,2902.1,3197.9,2902.1z M2360.5,2894.1c-0.9,0-1.6-0.7-1.7-1.6
				l-0.3-10c0-0.9,0.7-1.7,1.6-1.7c0.9,0.1,1.7,0.7,1.7,1.6l0.3,10C2362.2,2893.3,2361.5,2894.1,2360.5,2894.1
				C2360.5,2894.1,2360.5,2894.1,2360.5,2894.1z M3196.4,2868.8c-0.9,0-1.6-0.7-1.7-1.6c-0.2-3.3-0.4-6.6-0.7-9.9
				c-0.1-0.9,0.6-1.7,1.5-1.8c0.9-0.1,1.7,0.6,1.8,1.5c0.2,3.3,0.5,6.6,0.7,10c0.1,0.9-0.6,1.7-1.6,1.8
				C3196.4,2868.8,3196.4,2868.8,3196.4,2868.8z M2359.4,2860.9c-0.9,0-1.6-0.7-1.7-1.6l-0.3-10c0-0.9,0.7-1.7,1.6-1.7
				c0.9,0,1.7,0.7,1.7,1.6l0.3,10C2361.1,2860.1,2360.4,2860.8,2359.4,2860.9C2359.5,2860.9,2359.5,2860.9,2359.4,2860.9z
				 M3193.7,2835.7c-0.8,0-1.6-0.6-1.7-1.5c-0.3-3.3-0.7-6.6-1.1-9.9c-0.1-0.9,0.6-1.7,1.5-1.8c0.8-0.1,1.7,0.5,1.8,1.5
				c0.4,3.3,0.7,6.6,1.1,9.9c0.1,0.9-0.6,1.7-1.5,1.8C3193.8,2835.7,3193.7,2835.7,3193.7,2835.7z M2358.4,2827.6
				c-0.9,0-1.6-0.7-1.7-1.6l-0.3-10c0-0.9,0.7-1.7,1.6-1.7c1.1,0,1.7,0.7,1.7,1.6l0.3,10C2360.1,2826.8,2359.3,2827.6,2358.4,2827.6
				C2358.4,2827.6,2358.4,2827.6,2358.4,2827.6z M3176.5,2817.6h-10c-0.9,0-1.7-0.7-1.7-1.7c0-0.9,0.7-1.7,1.7-1.7h10
				c0.9,0,1.7,0.7,1.7,1.7C3178.2,2816.9,3177.4,2817.6,3176.5,2817.6z M3143.2,2817.6h-10c-0.9,0-1.7-0.7-1.7-1.7
				c0-0.9,0.7-1.7,1.7-1.7h10c0.9,0,1.7,0.7,1.7,1.7C3144.9,2816.9,3144.1,2817.6,3143.2,2817.6z M3110,2817.6h-10
				c-0.9,0-1.7-0.7-1.7-1.7c0-0.9,0.7-1.7,1.7-1.7h10c0.9,0,1.7,0.7,1.7,1.7C3111.6,2816.9,3110.9,2817.6,3110,2817.6z
				 M3076.7,2817.6h-10c-0.9,0-1.7-0.7-1.7-1.7c0-0.9,0.7-1.7,1.7-1.7h10c0.9,0,1.7,0.7,1.7,1.7
				C3078.4,2816.9,3077.6,2817.6,3076.7,2817.6z M3043.4,2817.6h-10c-0.9,0-1.7-0.7-1.7-1.7c0-0.9,0.7-1.7,1.7-1.7h10
				c0.9,0,1.7,0.7,1.7,1.7C3045.1,2816.9,3044.4,2817.6,3043.4,2817.6z M3010.2,2817.6h-10c-0.9,0-1.7-0.7-1.7-1.7
				c0-0.9,0.7-1.7,1.7-1.7h10c0.9,0,1.7,0.7,1.7,1.7C3011.8,2816.9,3011.1,2817.6,3010.2,2817.6z M2976.9,2817.6h-10
				c-0.9,0-1.7-0.7-1.7-1.7c0-0.9,0.7-1.7,1.7-1.7h10c0.9,0,1.7,0.7,1.7,1.7C2978.6,2816.9,2977.8,2817.6,2976.9,2817.6z
				 M2943.6,2817.6h-10c-0.9,0-1.7-0.7-1.7-1.7c0-0.9,0.7-1.7,1.7-1.7h10c0.9,0,1.7,0.7,1.7,1.7
				C2945.3,2816.9,2944.6,2817.6,2943.6,2817.6z M2910.4,2817.6h-10c-0.9,0-1.7-0.7-1.7-1.7c0-0.9,0.7-1.7,1.7-1.7h10
				c0.9,0,1.7,0.7,1.7,1.7C2912,2816.9,2911.3,2817.6,2910.4,2817.6z M2877.1,2817.6h-10c-0.9,0-1.7-0.7-1.7-1.7
				c0-0.9,0.7-1.7,1.7-1.7h10c0.9,0,1.7,0.7,1.7,1.7C2878.8,2816.9,2878,2817.6,2877.1,2817.6z M2843.9,2817.6h-10
				c-0.9,0-1.7-0.7-1.7-1.7c0-0.9,0.7-1.7,1.7-1.7h10c0.9,0,1.7,0.7,1.7,1.7C2845.5,2816.9,2844.8,2817.6,2843.9,2817.6z
				 M2810.6,2817.6h-10c-0.9,0-1.7-0.7-1.7-1.7c0-0.9,0.7-1.7,1.7-1.7h10c0.9,0,1.7,0.7,1.7,1.7
				C2812.2,2816.9,2811.5,2817.6,2810.6,2817.6z M2777.3,2817.6h-10c-0.9,0-1.7-0.7-1.7-1.7c0-0.9,0.7-1.7,1.7-1.7h10
				c0.9,0,1.7,0.7,1.7,1.7C2779,2816.9,2778.2,2817.6,2777.3,2817.6z M2744.1,2817.6h-10c-0.9,0-1.7-0.7-1.7-1.7
				c0-0.9,0.7-1.7,1.7-1.7h10c0.9,0,1.7,0.7,1.7,1.7C2745.7,2816.9,2745,2817.6,2744.1,2817.6z M2710.8,2817.6h-10
				c-0.9,0-1.7-0.7-1.7-1.7c0-0.9,0.7-1.7,1.7-1.7h10c0.9,0,1.7,0.7,1.7,1.7C2712.5,2816.9,2711.7,2817.6,2710.8,2817.6z
				 M2677.5,2817.6h-10c-0.9,0-1.7-0.7-1.7-1.7c0-0.9,0.7-1.7,1.7-1.7h10c0.9,0,1.7,0.7,1.7,1.7
				C2679.2,2816.9,2678.5,2817.6,2677.5,2817.6z M2644.3,2817.6h-10c-0.9,0-1.7-0.7-1.7-1.7c0-0.9,0.7-1.7,1.7-1.7h10
				c0.9,0,1.7,0.7,1.7,1.7C2645.9,2816.9,2645.2,2817.6,2644.3,2817.6z M2611,2817.6h-10c-0.9,0-1.7-0.7-1.7-1.7
				c0-0.9,0.7-1.7,1.7-1.7h10c0.9,0,1.7,0.7,1.7,1.7C2612.7,2816.9,2611.9,2817.6,2611,2817.6z M2577.7,2817.6h-10
				c-0.9,0-1.7-0.7-1.7-1.7c0-0.9,0.7-1.7,1.7-1.7h10c0.9,0,1.7,0.7,1.7,1.7C2579.4,2816.9,2578.7,2817.6,2577.7,2817.6z
				 M2544.5,2817.6h-10c-0.9,0-1.7-0.7-1.7-1.7c0-0.9,0.7-1.7,1.7-1.7h10c0.9,0,1.7,0.7,1.7,1.7
				C2546.1,2816.9,2545.4,2817.6,2544.5,2817.6z M2511.2,2817.6h-10c-0.9,0-1.7-0.7-1.7-1.7c0-0.9,0.7-1.7,1.7-1.7h10
				c0.9,0,1.7,0.7,1.7,1.7C2512.9,2816.9,2512.1,2817.6,2511.2,2817.6z M2477.9,2817.6h-10c-0.9,0-1.7-0.7-1.7-1.7
				c0-0.9,0.7-1.7,1.7-1.7h10c0.9,0,1.7,0.7,1.7,1.7C2479.6,2816.9,2478.9,2817.6,2477.9,2817.6z M2444.7,2817.6h-10
				c-0.9,0-1.7-0.7-1.7-1.7c0-0.9,0.7-1.7,1.7-1.7h10c0.9,0,1.7,0.7,1.7,1.7C2446.3,2816.9,2445.6,2817.6,2444.7,2817.6z
				 M2411.4,2817.6h-10c-0.9,0-1.7-0.7-1.7-1.7c0-0.9,0.7-1.7,1.7-1.7h10c0.9,0,1.7,0.7,1.7,1.7
				C2413.1,2816.9,2412.3,2817.6,2411.4,2817.6z M2378.2,2817.6h-10c-0.9,0-1.7-0.7-1.7-1.7c0-0.9,0.7-1.7,1.7-1.7h10
				c0.9,0,1.7,0.7,1.7,1.7C2379.8,2816.9,2379.1,2817.6,2378.2,2817.6z"/>
			<path class="st5" d="M2540.5,2605.2l2.1-22.4c2.4-5.3,7.3-9.1,13.1-10.1c21.7-3.4,75.4-9.5,101.3,9.8l3.9,26L2540.5,2605.2z"/>
			<path class="st5" d="M2608.2,2583.6c-5,1.2-10,1.2-15,0c-6.1-1.5-10.3-6.9-10.3-13.1l0-70.1h35.7l0,70.1
				C2618.5,2576.7,2614.3,2582.1,2608.2,2583.6z"/>
			<path class="st5" d="M2886.2,2605.2l2.1-22.4c2.4-5.3,7.3-9.1,13.1-10.1c21.7-3.4,75.4-9.5,101.3,9.8l3.9,26L2886.2,2605.2z"/>
			<path class="st5" d="M2953.8,2583.6c-5,1.2-10,1.2-15,0c-6.1-1.5-10.3-6.9-10.3-13.1l0-77.5h35.7l0,77.5
				C2964.2,2576.7,2959.9,2582.1,2953.8,2583.6z"/>
			<path class="st5" d="M2579.2,2517.5l383.8-12.7c8.8-0.3,16.2-6.6,17.7-15.2c2.1-12,4-30,1.2-48.6c-3.1-21.2-21.4-37-42.9-37.5
				c-71.6-1.7-253.9-1.7-354.3,38.1c-10.6,4.2-18.5,13.3-21.2,24.3c-2.6,10.5-4.3,24.6-0.9,39
				C2564.3,2512.6,2571.4,2517.8,2579.2,2517.5z"/>
			<path class="st34" d="M2572.6,2499.2c-1.7,0-3.1-1.3-3.3-3c-0.1-0.6-1.5-15.3,2.3-29.5c3-11.1,11.8-20,22.9-23.3
				c21.5-6.3,62.5-17,96-17.9c1.9,0,3.4,1.4,3.4,3.2c0,1.8-1.4,3.4-3.2,3.4c-32.8,0.9-73.2,11.5-94.4,17.7
				c-8.9,2.6-16,9.8-18.4,18.6c-3.5,13-2.2,27-2.2,27.1c0.2,1.8-1.1,3.5-3,3.6C2572.8,2499.2,2572.7,2499.2,2572.6,2499.2z"/>
			<path class="st5" d="M2362.4,2596.4c124-1.6,660.4-7.2,816.2,11.6c13.4,1.6,24.4,11.4,27.3,24.6c9.2,41.6,27.7,138.3,25.5,234.2
				c-0.3,13-9.9,24-22.7,26.5l-355.7,67.3h-126.3l-379-75.3c-13.4-2.7-23.2-14-23.9-27.5c-2.5-48.2-6.3-161.4,6.7-234.2
				C2333.3,2608,2346.6,2596.6,2362.4,2596.4z"/>
			<path class="st7" d="M2830.2,2931.5h-10c-0.9,0-1.7-0.7-1.7-1.7c0-0.9,0.7-1.7,1.7-1.7h10c0.9,0,1.7,0.7,1.7,1.7
				C2831.8,2930.8,2831.1,2931.5,2830.2,2931.5z M2796.9,2931.5h-10c-0.9,0-1.7-0.7-1.7-1.7c0-0.9,0.7-1.7,1.7-1.7h10
				c0.9,0,1.7,0.7,1.7,1.7C2798.6,2930.8,2797.8,2931.5,2796.9,2931.5z M2763.6,2931.5h-10c-0.9,0-1.7-0.7-1.7-1.7
				c0-0.9,0.7-1.7,1.7-1.7h10c0.9,0,1.7,0.7,1.7,1.7C2765.3,2930.8,2764.5,2931.5,2763.6,2931.5z M2730.4,2931.5h-0.7l-10.1-2
				c-0.9-0.2-1.5-1.1-1.3-2c0.2-0.9,1.1-1.5,2-1.3l9.8,1.9l0.3,0c0.9,0,1.7,0.7,1.7,1.7C2732,2930.8,2731.3,2931.5,2730.4,2931.5z
				 M2853.4,2930.9c-0.8,0-1.5-0.6-1.6-1.4c-0.2-0.9,0.4-1.8,1.3-1.9l9.8-1.9c0.9-0.2,1.8,0.4,1.9,1.3c0.2,0.9-0.4,1.8-1.3,1.9
				l-9.8,1.9C2853.6,2930.9,2853.5,2930.9,2853.4,2930.9z M2697.1,2925c-0.1,0-0.2,0-0.3,0l-9.8-1.9c-0.9-0.2-1.5-1.1-1.3-2
				c0.2-0.9,1.1-1.5,2-1.3l9.8,1.9c0.9,0.2,1.5,1.1,1.3,2C2698.5,2924.5,2697.9,2925,2697.1,2925z M2886.1,2924.7
				c-0.8,0-1.5-0.6-1.6-1.4c-0.2-0.9,0.4-1.8,1.3-1.9l9.8-1.9c0.9-0.2,1.8,0.4,1.9,1.3c0.2,0.9-0.4,1.8-1.3,1.9l-9.8,1.9
				C2886.3,2924.7,2886.2,2924.7,2886.1,2924.7z M2664.5,2918.6c-0.1,0-0.2,0-0.3,0l-9.8-1.9c-0.9-0.2-1.5-1.1-1.3-2
				c0.2-0.9,1.1-1.5,2-1.3l9.8,1.9c0.9,0.2,1.5,1.1,1.3,2C2665.9,2918,2665.2,2918.6,2664.5,2918.6z M2918.7,2918.5
				c-0.8,0-1.5-0.6-1.6-1.4c-0.2-0.9,0.4-1.8,1.3-1.9l9.8-1.9c0.9-0.2,1.8,0.4,1.9,1.3c0.2,0.9-0.4,1.8-1.3,1.9l-9.8,1.9
				C2919,2918.5,2918.8,2918.5,2918.7,2918.5z M2951.4,2912.4c-0.8,0-1.5-0.6-1.6-1.4c-0.2-0.9,0.4-1.8,1.3-1.9l9.8-1.9
				c0.9-0.2,1.8,0.4,1.9,1.3c0.2,0.9-0.4,1.8-1.3,1.9l-9.8,1.9C2951.6,2912.4,2951.5,2912.4,2951.4,2912.4z M2631.8,2912.1
				c-0.1,0-0.2,0-0.3,0l-9.8-1.9c-0.9-0.2-1.5-1.1-1.3-2c0.2-0.9,1.1-1.5,2-1.3l9.8,1.9c0.9,0.2,1.5,1.1,1.3,2
				C2633.3,2911.5,2632.6,2912.1,2631.8,2912.1z M2984.1,2906.2c-0.8,0-1.5-0.6-1.6-1.4c-0.2-0.9,0.4-1.8,1.3-1.9l9.8-1.9
				c0.9-0.2,1.8,0.4,1.9,1.3c0.2,0.9-0.4,1.8-1.3,1.9l-9.8,1.9C2984.3,2906.2,2984.2,2906.2,2984.1,2906.2z M2599.2,2905.6
				c-0.1,0-0.2,0-0.3,0l-9.8-1.9c-0.9-0.2-1.5-1.1-1.3-2c0.2-0.9,1.1-1.5,2-1.3l9.8,1.9c0.9,0.2,1.5,1.1,1.3,2
				C2600.7,2905,2600,2905.6,2599.2,2905.6z M3016.8,2900c-0.8,0-1.5-0.6-1.6-1.4c-0.2-0.9,0.4-1.8,1.3-1.9l9.8-1.9
				c0.9-0.2,1.8,0.4,1.9,1.3c0.2,0.9-0.4,1.8-1.3,1.9l-9.8,1.9C3017,2900,3016.9,2900,3016.8,2900z M2566.6,2899.1
				c-0.1,0-0.2,0-0.3,0l-9.8-1.9c-0.9-0.2-1.5-1.1-1.3-2c0.2-0.9,1.1-1.5,2-1.3l9.8,1.9c0.9,0.2,1.5,1.1,1.3,2
				C2568,2898.5,2567.4,2899.1,2566.6,2899.1z M3049.5,2893.8c-0.8,0-1.5-0.6-1.6-1.4c-0.2-0.9,0.4-1.8,1.3-1.9l9.8-1.9
				c0.9-0.2,1.8,0.4,1.9,1.3c0.2,0.9-0.4,1.8-1.3,1.9l-9.8,1.9C3049.7,2893.8,3049.6,2893.8,3049.5,2893.8z M2534,2892.6
				c-0.1,0-0.2,0-0.3,0l-9.8-1.9c-0.9-0.2-1.5-1.1-1.3-2s1.1-1.5,2-1.3l9.8,1.9c0.9,0.2,1.5,1.1,1.3,2
				C2535.4,2892.1,2534.7,2892.6,2534,2892.6z M3082.2,2887.6c-0.8,0-1.5-0.6-1.6-1.4c-0.2-0.9,0.4-1.8,1.3-1.9l9.8-1.9
				c0.9-0.2,1.8,0.4,1.9,1.3c0.2,0.9-0.4,1.8-1.3,1.9l-9.8,1.9C3082.4,2887.6,3082.3,2887.6,3082.2,2887.6z M2501.3,2886.1
				c-0.1,0-0.2,0-0.3,0l-9.8-1.9c-0.9-0.2-1.5-1.1-1.3-2c0.2-0.9,1.1-1.5,2-1.3l9.8,1.9c0.9,0.2,1.5,1.1,1.3,2
				C2502.8,2885.6,2502.1,2886.1,2501.3,2886.1z M3114.8,2881.4c-0.8,0-1.5-0.6-1.6-1.4c-0.2-0.9,0.4-1.8,1.3-1.9l9.8-1.9
				c0.9-0.2,1.8,0.4,1.9,1.3s-0.4,1.8-1.3,1.9l-9.8,1.9C3115.1,2881.4,3115,2881.4,3114.8,2881.4z M2468.7,2879.6
				c-0.1,0-0.2,0-0.3,0l-9.8-1.9c-0.9-0.2-1.5-1.1-1.3-2c0.2-0.9,1.1-1.5,2-1.3l9.8,1.9c0.9,0.2,1.5,1.1,1.3,2
				C2470.2,2879.1,2469.5,2879.6,2468.7,2879.6z M3147.5,2875.3c-0.8,0-1.5-0.6-1.6-1.4c-0.2-0.9,0.4-1.8,1.3-1.9l9.8-1.9
				c0.9-0.2,1.8,0.4,1.9,1.3c0.2,0.9-0.4,1.8-1.3,1.9l-9.8,1.9C3147.7,2875.3,3147.6,2875.3,3147.5,2875.3z M2436.1,2873.2
				c-0.1,0-0.2,0-0.3,0l-9.8-1.9c-0.9-0.2-1.5-1.1-1.3-2c0.2-0.9,1.1-1.5,2-1.3l9.8,1.9c0.9,0.2,1.5,1.1,1.3,2
				C2437.5,2872.6,2436.8,2873.2,2436.1,2873.2z M3180.2,2869.1c-0.8,0-1.5-0.6-1.6-1.4c-0.2-0.9,0.4-1.8,1.3-1.9l9.8-1.9
				c0.9-0.2,1.8,0.4,1.9,1.3c0.2,0.9-0.4,1.8-1.3,1.9l-9.8,1.9C3180.4,2869.1,3180.3,2869.1,3180.2,2869.1z M2403.4,2866.7
				c-0.1,0-0.2,0-0.3,0l-9.8-1.9c-0.9-0.2-1.5-1.1-1.3-2c0.2-0.9,1.1-1.5,2-1.3l9.8,1.9c0.9,0.2,1.5,1.1,1.3,2
				C2404.9,2866.1,2404.2,2866.7,2403.4,2866.7z M2370.8,2860.2c-0.1,0-0.2,0-0.3,0l-9.8-1.9c-0.9-0.2-1.5-1.1-1.3-2
				c0.2-0.9,1.1-1.5,2-1.3l9.8,1.9c0.9,0.2,1.5,1.1,1.3,2C2372.3,2859.6,2371.6,2860.2,2370.8,2860.2z M3200.9,2852.8
				c-0.9,0-1.7-0.6-1.7-1.6c0-3.5,0-6.7-0.1-10c0-0.9,0.7-1.7,1.6-1.7c0,0,0,0,0,0c0.9,0,1.7,0.7,1.7,1.6c0,3.3,0.1,6.5,0.1,9.8
				C3202.6,2851.9,3201.9,2852.8,3200.9,2852.8z M2353.6,2840.4c-0.9,0-1.6-0.7-1.7-1.6c-0.1-3.2-0.3-6.5-0.4-10
				c0-0.9,0.7-1.7,1.6-1.7c1,0,1.7,0.7,1.7,1.6c0.1,3.5,0.3,6.8,0.4,10C2355.3,2839.6,2354.6,2840.4,2353.6,2840.4
				C2353.7,2840.4,2353.7,2840.4,2353.6,2840.4z M3200.2,2819.6c-0.9,0-1.6-0.7-1.7-1.6c-0.1-3.3-0.3-6.6-0.5-9.9
				c-0.1-0.9,0.6-1.7,1.6-1.8c1-0.1,1.7,0.7,1.8,1.6c0.2,3.3,0.4,6.6,0.5,10C3201.9,2818.8,3201.2,2819.6,3200.2,2819.6
				C3200.2,2819.6,3200.2,2819.6,3200.2,2819.6z M2352.5,2807.2c-0.9,0-1.6-0.7-1.7-1.6c-0.1-3.3-0.2-6.6-0.2-10
				c0-0.9,0.7-1.7,1.6-1.7c0,0,0,0,0,0c0.9,0,1.6,0.7,1.7,1.6c0.1,3.4,0.1,6.7,0.2,10C2354.2,2806.4,2353.5,2807.1,2352.5,2807.2
				C2352.6,2807.2,2352.5,2807.2,2352.5,2807.2z M3198.1,2786.4c-0.9,0-1.6-0.7-1.7-1.5c-0.3-3.3-0.6-6.6-0.9-9.9
				c-0.1-0.9,0.6-1.7,1.5-1.8c0.9,0,1.7,0.6,1.8,1.5c0.3,3.3,0.6,6.6,0.9,10c0.1,0.9-0.6,1.7-1.5,1.8
				C3198.2,2786.4,3198.1,2786.4,3198.1,2786.4z M2352,2773.9c-0.9,0-1.7-0.7-1.7-1.7c0-3.3,0-6.6,0-10l3.3,0c0,3.4,0,6.7,0,10
				C2353.7,2773.1,2352.9,2773.9,2352,2773.9C2352,2773.9,2352,2773.9,2352,2773.9z M3194.8,2753.3c-0.8,0-1.5-0.6-1.7-1.5
				c-0.4-3.3-0.8-6.6-1.2-9.9c-0.1-0.9,0.5-1.7,1.4-1.9c0.9-0.1,1.7,0.5,1.9,1.4c0.4,3.3,0.8,6.6,1.2,9.9c0.1,0.9-0.5,1.7-1.5,1.8
				C3194.9,2753.3,3194.8,2753.3,3194.8,2753.3z M2352.2,2740.6C2352.1,2740.6,2352.1,2740.6,2352.2,2740.6c-0.9,0-1.7-0.8-1.7-1.7
				c0.1-3.3,0.1-6.7,0.2-10c0-0.9,0.8-1.5,1.7-1.6c0.9,0,1.6,0.8,1.6,1.7c-0.1,3.3-0.1,6.7-0.2,10
				C2353.8,2739.9,2353.1,2740.6,2352.2,2740.6z M3190.4,2720.3c-0.8,0-1.5-0.6-1.6-1.4c-0.5-3.3-1-6.6-1.5-9.9
				c-0.1-0.9,0.5-1.8,1.4-1.9c0.9-0.1,1.8,0.5,1.9,1.4c0.5,3.2,1,6.5,1.5,9.9c0.1,0.9-0.5,1.8-1.4,1.9
				C3190.6,2720.3,3190.5,2720.3,3190.4,2720.3z M2353.1,2707.4C2353.1,2707.4,2353.1,2707.4,2353.1,2707.4c-1,0-1.7-0.8-1.7-1.7
				c0.1-3.3,0.3-6.7,0.5-10c0-0.9,0.9-1.7,1.8-1.6c0.9,0,1.6,0.8,1.6,1.8c-0.2,3.3-0.3,6.6-0.5,10
				C2354.8,2706.7,2354,2707.4,2353.1,2707.4z M3185.2,2687.5c-0.8,0-1.5-0.6-1.6-1.4c-0.6-3.4-1.2-6.7-1.8-9.8
				c-0.2-0.9,0.4-1.8,1.3-1.9c0.9-0.2,1.8,0.4,1.9,1.3c0.6,3.2,1.2,6.5,1.8,9.8c0.2,0.9-0.4,1.8-1.3,1.9
				C3185.3,2687.5,3185.3,2687.5,3185.2,2687.5z M2355.3,2674.2c0,0-0.1,0-0.1,0c-0.9-0.1-1.6-0.9-1.5-1.8c0.3-3.4,0.6-6.7,0.9-10
				c0.1-0.9,1-1.6,1.8-1.5c0.9,0.1,1.6,0.9,1.5,1.8c-0.3,3.3-0.6,6.6-0.9,9.9C2356.8,2673.5,2356.1,2674.2,2355.3,2674.2z
				 M3178.9,2654.8c-0.8,0-1.5-0.5-1.6-1.3c-0.7-3.5-1.4-6.8-2.1-9.8c-0.2-0.9,0.4-1.8,1.3-2c0.9-0.2,1.8,0.4,2,1.3
				c0.6,3,1.3,6.2,2.1,9.8c0.2,0.9-0.4,1.8-1.3,2C3179.1,2654.8,3179,2654.8,3178.9,2654.8z M2359,2641.1c-0.1,0-0.2,0-0.2,0
				c-0.9-0.1-1.5-1-1.4-1.9c0.5-3.4,1-6.7,1.6-9.9c0.2-0.9,1.1-1.5,1.9-1.3c0.9,0.2,1.5,1,1.3,1.9c-0.6,3.2-1.1,6.5-1.6,9.8
				C2360.5,2640.5,2359.8,2641.1,2359,2641.1z M3157.3,2638.2c-0.1,0-0.1,0-0.2,0c-3.2-0.3-6.5-0.6-9.9-0.9
				c-0.9-0.1-1.6-0.9-1.5-1.8c0.1-0.9,1-1.6,1.8-1.5c3.4,0.3,6.8,0.6,10,0.9c0.9,0.1,1.6,0.9,1.5,1.8
				C3158.9,2637.6,3158.2,2638.2,3157.3,2638.2z M3124.2,2635.6c0,0-0.1,0-0.1,0c-3.2-0.2-6.6-0.4-10-0.6c-0.9-0.1-1.6-0.8-1.6-1.8
				c0.1-0.9,0.8-1.7,1.8-1.6c3.4,0.2,6.7,0.4,10,0.6c0.9,0.1,1.6,0.9,1.6,1.8C3125.8,2635,3125,2635.6,3124.2,2635.6z M3091,2633.7
				C3090.9,2633.7,3090.9,2633.7,3091,2633.7c-3.3-0.2-6.7-0.3-10-0.5c-0.9,0-1.6-0.8-1.6-1.7c0-0.9,0.9-1.7,1.7-1.6
				c3.4,0.2,6.7,0.3,10,0.5c0.9,0,1.6,0.8,1.6,1.7C3092.6,2633,3091.8,2633.7,3091,2633.7z M3057.7,2632.2
				C3057.7,2632.2,3057.7,2632.2,3057.7,2632.2l-10-0.4c-0.9,0-1.6-0.8-1.6-1.7c0-0.9,0.8-1.6,1.7-1.6l10,0.4c0.9,0,1.6,0.8,1.6,1.7
				C3059.3,2631.5,3058.6,2632.2,3057.7,2632.2z M3024.5,2631C3024.5,2631,3024.4,2631,3024.5,2631l-10-0.3c-0.9,0-1.6-0.8-1.6-1.7
				c0-0.9,0.7-1.6,1.7-1.6l10,0.3c0.9,0,1.6,0.8,1.6,1.7C3026.1,2630.3,3025.4,2631,3024.5,2631z M2991.2,2630.1
				C2991.2,2630.1,2991.2,2630.1,2991.2,2630.1l-10-0.3c-0.9,0-1.6-0.8-1.6-1.7c0-0.9,0.8-1.6,1.7-1.6c0,0,0,0,0,0l10,0.3
				c0.9,0,1.6,0.8,1.6,1.7C2992.9,2629.4,2992.1,2630.1,2991.2,2630.1z M2958,2629.3C2958,2629.3,2957.9,2629.3,2958,2629.3l-10-0.2
				c-0.9,0-1.7-0.8-1.6-1.7c0-0.9,0.8-1.6,1.7-1.6c0,0,0,0,0,0l10,0.2c0.9,0,1.6,0.8,1.6,1.7
				C2959.6,2628.5,2958.9,2629.3,2958,2629.3z M2924.7,2628.6C2924.7,2628.6,2924.7,2628.6,2924.7,2628.6l-10-0.2
				c-0.9,0-1.7-0.8-1.6-1.7c0-0.9,0.8-1.6,1.7-1.6c0,0,0,0,0,0l10,0.2c0.9,0,1.7,0.8,1.6,1.7
				C2926.4,2627.9,2925.6,2628.6,2924.7,2628.6z M2382.4,2628.5c-0.9,0-1.7-0.7-1.7-1.6c0-0.9,0.7-1.7,1.6-1.7l10-0.1c0,0,0,0,0,0
				c0.9,0,1.7,0.7,1.7,1.6c0,0.9-0.7,1.7-1.6,1.7L2382.4,2628.5C2382.4,2628.5,2382.4,2628.5,2382.4,2628.5z M2415.7,2628.1
				c-0.9,0-1.7-0.7-1.7-1.6c0-0.9,0.7-1.7,1.6-1.7l10-0.1c0.8,0,1.7,0.7,1.7,1.6c0,0.9-0.7,1.7-1.6,1.7L2415.7,2628.1
				C2415.7,2628.1,2415.7,2628.1,2415.7,2628.1z M2891.4,2628.1C2891.4,2628.1,2891.4,2628.1,2891.4,2628.1l-10-0.1
				c-0.9,0-1.7-0.8-1.6-1.7c0-0.9,0.6-1.6,1.7-1.6l10,0.1c0.9,0,1.7,0.8,1.6,1.7C2893.1,2627.4,2892.4,2628.1,2891.4,2628.1z
				 M2449,2627.8c-0.9,0-1.7-0.7-1.7-1.6c0-0.9,0.7-1.7,1.6-1.7l10-0.1c0,0,0,0,0,0c0.9,0,1.7,0.7,1.7,1.6c0,0.9-0.7,1.7-1.6,1.7
				L2449,2627.8C2449,2627.8,2449,2627.8,2449,2627.8z M2858.2,2627.7C2858.2,2627.7,2858.2,2627.7,2858.2,2627.7l-10-0.1
				c-0.9,0-1.7-0.8-1.6-1.7c0-0.9,0.9-1.7,1.7-1.6l10,0.1c0.9,0,1.7,0.8,1.6,1.7C2859.8,2626.9,2859.1,2627.7,2858.2,2627.7z
				 M2482.2,2627.5c-0.9,0-1.7-0.7-1.7-1.7c0-0.9,0.7-1.7,1.7-1.7l10-0.1c0,0,0,0,0,0c0.9,0,1.7,0.7,1.7,1.7c0,0.9-0.7,1.7-1.7,1.7
				L2482.2,2627.5C2482.2,2627.5,2482.2,2627.5,2482.2,2627.5z M2824.9,2627.3C2824.9,2627.3,2824.9,2627.3,2824.9,2627.3l-10-0.1
				c-0.9,0-1.7-0.8-1.7-1.7c0-0.9,0.8-1.7,1.7-1.7c0,0,0,0,0,0l10,0.1c0.9,0,1.7,0.8,1.6,1.7
				C2826.6,2626.6,2825.8,2627.3,2824.9,2627.3z M2515.5,2627.3c-0.9,0-1.7-0.7-1.7-1.7c0-0.9,0.7-1.7,1.7-1.7l10-0.1c0,0,0,0,0,0
				c0.9,0,1.7,0.7,1.7,1.7c0,0.9-0.7,1.7-1.7,1.7L2515.5,2627.3C2515.5,2627.3,2515.5,2627.3,2515.5,2627.3z M2548.8,2627.1
				c-0.9,0-1.7-0.7-1.7-1.7c0-0.9,0.7-1.7,1.7-1.7l10-0.1c0,0,0,0,0,0c0.9,0,1.7,0.7,1.7,1.7c0,0.9-0.7,1.7-1.7,1.7L2548.8,2627.1
				C2548.8,2627.1,2548.8,2627.1,2548.8,2627.1z M2791.7,2627.1C2791.6,2627.1,2791.6,2627.1,2791.7,2627.1l-10-0.1
				c-0.9,0-1.7-0.8-1.7-1.7c0-0.9,0.8-1.7,1.7-1.7c0,0,0,0,0,0l10,0.1c0.9,0,1.7,0.8,1.7,1.7
				C2793.3,2626.3,2792.6,2627.1,2791.7,2627.1z M2582.1,2626.9c-0.9,0-1.7-0.7-1.7-1.7c0-0.9,0.7-1.7,1.7-1.7l10,0c0,0,0,0,0,0
				c0.9,0,1.7,0.7,1.7,1.7c0,0.9-0.7,1.7-1.7,1.7L2582.1,2626.9C2582.1,2626.9,2582.1,2626.9,2582.1,2626.9z M2758.4,2626.9
				C2758.4,2626.9,2758.4,2626.9,2758.4,2626.9l-10,0c-0.9,0-1.7-0.8-1.7-1.7c0-0.9,0.7-1.7,1.7-1.7l10,0c0.9,0,1.7,0.8,1.7,1.7
				C2760,2626.2,2759.3,2626.9,2758.4,2626.9z M2615.3,2626.8c-0.9,0-1.7-0.7-1.7-1.7c0-0.9,0.7-1.7,1.7-1.7l10,0c0,0,0,0,0,0
				c0.9,0,1.7,0.7,1.7,1.7c0,0.9-0.7,1.7-1.7,1.7L2615.3,2626.8C2615.3,2626.8,2615.3,2626.8,2615.3,2626.8z M2725.1,2626.8
				C2725.1,2626.8,2725.1,2626.8,2725.1,2626.8l-10,0c-0.9,0-1.7-0.7-1.7-1.7c0-0.9,0.7-1.7,1.7-1.7h0l10,0c0.9,0,1.7,0.8,1.7,1.7
				C2726.8,2626,2726,2626.8,2725.1,2626.8z M2648.6,2626.7c-0.9,0-1.7-0.7-1.7-1.7c0-0.9,0.7-1.7,1.7-1.7l10,0c0,0,0,0,0,0
				c0.9,0,1.7,0.7,1.7,1.7c0,0.9-0.7,1.7-1.7,1.7L2648.6,2626.7C2648.6,2626.7,2648.6,2626.7,2648.6,2626.7z M2691.9,2626.7
				C2691.9,2626.7,2691.9,2626.7,2691.9,2626.7l-10,0c-0.9,0-1.7-0.7-1.7-1.7c0-0.9,0.7-1.7,1.7-1.7l10,0c0.9,0,1.7,0.7,1.7,1.7
				C2693.5,2626,2692.8,2626.7,2691.9,2626.7z"/>
			<path class="st5" d="M2841.1,3013.5h-110.7c-14.5,0-26.7-10.8-28.4-25.1l-12.8-106.5c-2-17,11.3-31.9,28.4-31.9h133
				c16.8,0,30,14.4,28.5,31l-9.5,106.5C2868.3,3002.3,2856,3013.5,2841.1,3013.5z"/>
			<path class="st5" d="M2827.5,2994h-84.2c-11,0-20.3-8.2-21.6-19.1l-9.7-81.1c-1.6-12.9,8.6-24.3,21.6-24.3h101.2
				c12.8,0,22.8,10.9,21.7,23.6l-7.2,81.1C2848.2,2985.4,2838.8,2994,2827.5,2994z"/>
		</g>
	</g>
</g>
</svg>
