<svg xmlns="http://www.w3.org/2000/svg" width="512" height="511.912" viewBox="0 0 1444.9778 1444.7304"><path d="M683.778 1428.958l-667.779-667.759c-21.333-21.333-21.333-56.112 0-77.444l667.779-667.718c21.313-21.373 56.112-21.373 77.424-.057l667.739 667.799c21.353 21.333 21.393 56.071.057 77.404l-667.779 667.759c-21.072 21.032-56.372 21.072-77.424 0" fill="#ffd033"/><path d="M694.374 1418.081l-667.498-667.497c-15.332-15.373-15.292-40.819 0-56.212l667.498-667.458c15.392-15.372 40.799-15.352 56.212 0l667.478 667.498c15.353 15.372 15.393 40.759 0 56.171l-667.478 667.497c-15.412 15.273-40.819 15.353-56.212 0" fill-rule="evenodd"/><path d="M709.266 1402.822l-667.137-667.116c-7.365-7.144-7.365-19.326 0-26.471l667.116-667.076c7.125-7.385 19.326-7.385 26.471 0l667.116 667.076c7.385 7.144 7.385 19.366 0 26.51l-667.116 667.076c-7.144 7.386-19.286 7.386-26.45 0" fill="#ffd033" fill-rule="evenodd"/><path d="M761.464 598.996c7.125 23.641 14.229 47.241 21.333 70.882 3.954 13.205 9.493 26.952 24.865 29.681 14.068 2.489 26.49-5.137 32.671-17.64 19.587-39.755 39.193-79.491 58.801-119.207 30.885-62.694 61.771-125.368 92.696-188.062l-297.917-.057c-20.851 0-66.226-6.984-76.822 16.436-9.814 21.634 15.553 40.438 28.657 54.968 12.362 13.647 24.745 27.313 37.087 40.98-77.204 35.059-146.961 90.067-186.537 166.187-38.592 74.073-30.925 160.086-30.825 240.741.102 52.981.159 105.962.239 158.902 0 3.933-1.084 4.816 2.87 4.816h122.057c1.043 0 15.633.199 15.633-.159v-13.987c.057-25.126.057-50.211.057-75.357.063-55.048.102-110.156.119-165.184 0-33.735 4.455-66.607 21.493-96.329 28.859-50.191 84.067-81.739 133.536-107.627M1053.761 924.942c0-43.87-34.919-76.581-83.284-76.581-13.386 0-23.821 1.465-40.899 5.197l2.228-30.483h104.878l.702-37.187h-141.282l-6.683 99.66 37.91 9.673c15.613-6 26.771-8.208 40.9-8.208 15.654 0 26.772 2.99 34.197 8.93 8.228 6.683 13.406 17.841 13.406 28.999 0 23.801-19.326 37.909-51.315 37.909-21.574 0-43.148-5.94-61.691-17.098l-20.089 31.969c26.771 16.376 52.8 23.941 81.779 23.941 52.057 0 89.244-32.089 89.244-76.721m-200.806 6.723c0-20.109-5.96-31.247-26.771-49.85 12.623-16.356 17.099-26.029 17.099-40.178 0-34.197-31.247-59.483-73.632-59.483-30.504 0-56.513 11.138-77.344 32.712l28.317 26.029c12.603-13.346 28.959-20.831 46.84-20.831 22.296 0 37.167 9.693 37.167 22.356 0 11.86-11.901 20.811-28.277 20.811h-8.89v37.929h10.376c8.168 0 14.891 1.465 20.851 4.475 9.673 5.178 16.376 17.079 16.376 27.494 0 17.841-17.881 29.721-43.93 29.721-24.504 0-43.85-8.168-58.76-27.494l-30.424 23.059c7.406 8.91 11.118 12.623 16.336 17.099 18.563 17.098 44.592 26.149 70.621 26.149 47.602 0 84.047-30.624 84.047-69.998" fill-rule="evenodd"/></svg>