<svg xmlns="http://www.w3.org/2000/svg" width="512" height="511.984" viewBox="0 0 509.99213 509.97608"><path d="M6.805 238.474l231.678-231.664c9.094-9.08 23.948-9.08 33.035 0l231.664 231.664c9.08 9.08 9.08 23.941 0 33.035l-231.664 231.657c-9.087 9.08-23.941 9.08-33.035 0l-231.678-231.657c-9.073-9.095-9.073-23.955 0-33.035" fill="#ffd033"/><path d="M11.218 242.883l231.678-231.657c6.658-6.658 17.559-6.658 24.21 0l231.664 231.657c6.658 6.658 6.658 17.552 0 24.21l-231.664 231.664c-6.651 6.658-17.552 6.658-24.21 0l-231.678-231.664c-6.651-6.658-6.651-17.552 0-24.21" fill-rule="evenodd"/><path d="M17.847 249.499l231.664-231.664c3.017-3.01 7.954-3.01 10.986 0l231.65 231.664c3.017 3.017 3.017 7.961 0 10.972l-231.65 231.657c-3.032 3.025-7.968 3.025-10.986 0l-231.664-231.657c-3.032-3.01-3.032-7.954 0-10.972" fill="#ffd033" fill-rule="evenodd"/><path d="M326.61 189.225v8.797c0 23.48-11.014 46.663-29.798 60.893l-73.337 55.538c-5.893 4.462-9.406 11.283-9.406 18.664v53.739h-54.036v-53.739c0-14.088 3.818-28.141 11.234-40.132 4.569-7.423 10.306-14.414 17.282-19.705l74.605-56.593c3.542-2.692 6.46-6.24 8.053-10.419 1.02-2.684 1.572-5.574 1.572-8.464v-9.413l-35.776 10.299c-.567.149-1.133.213-1.686.291-2.529.34-4.965-.34-7.069-1.785-2.252-1.565-3.846-3.974-4.342-6.658-.553-2.961-.02-5.737 1.714-8.16l73.954-103.964 67.331 104.205c1.084 1.671 1.728 3.782 1.714 5.773 0 5.078-3.789 9.498-8.698 10.532-1.799.382-3.527.106-5.227-.453l-28.084-9.243z" fill-rule="evenodd"/></svg>