<?xml version="1.0" encoding="utf-8"?>
<!-- Generator: Adobe Illustrator 22.0.0, SVG Export Plug-In . SVG Version: 6.00 Build 0)  -->
<svg version="1.1" id="Layer_1" xmlns="http://www.w3.org/2000/svg" xmlns:xlink="http://www.w3.org/1999/xlink" x="0px" y="0px"
	 viewBox="0 0 2001 2001" style="enable-background:new 0 0 2001 2001;" xml:space="preserve">
<style type="text/css">
	.st0{fill:#CF9C2B;}
</style>
<rect x="0.5" y="0.5" width="2000" height="2000"/>
<g>
	<path class="st0" d="M1734.1,827.7c-2.7,5.3-10.8,12.1-15.2,13.7c-8.1,3-14.5,9.4-26,9.4c-12.5,0-21.2-3.4-30.4-6.8
		c-4.7-1.5-7.4-6.8-14.8-6.8c1-0.8,2-1.9,3-1.9c0-4.9,1-7.2,1.7-11.4c-5.4-1.5-11.1,2.3-14.5-1.5c5.1,0,13.8-1.9,17.6-3.4
		c-1-0.8-1.4-1.9-1.4-3c-4,0-16.5-4.2-17.2-8.3c3-1.1,4.7-0.4,6.8,0.7c0-1.1,0-1.9,0-3c2.7,0,3.4-4.2,6.1-4.2c1,0,1.7,0,2.7,0
		c0.3,2.3,1.7,3.4,2,5.7c-0.3,2.6,2.7,7.6,5.1,7.6c2.4,0,4.4-1.9,6.1-2.3c-0.7-2.6-1-3.4,0-4.9c1.3,1.5,2.4,3.4,4.4,3.4l8.1-2.3
		c2.7,0.8,3.4,1.9,4.7,2.7c-0.4-1.1,0-2.7,0-3.8c5,0,7.7,1.1,10.8,1.1c4.4,0,8.4-4.5,11.5-1.1c0-3,0.7-4.2,1.3-5.7
		c2.4,0.7,2.4,1.1,3.7,0c0,4.5,2.7,4.9,6.1,4.9c3,0,5.1-1.9,8.1-1.9c-1,0.8-2,2.3-2,3.4c0,11,12.5,8.3,12.5,18.9L1734.1,827.7z"/>
	<path class="st0" d="M1152.2,1436.9c-2.4,4.5-8.8,4.5-12.8,4.5c-7.8,0-13.2-2.6-19.6-2.6c0-0.7,0-1.5,0-2.3c1.7,0,3-1.5,3.4-3.4
		c-5.1-2.6-10.5-2.3-11.5-8c-2.7,0-2.4-2.6-3.7-3.4c-2.7-1.5-4.4-0.4-7.1-0.4c-4.7,0-7.1-5.7-11.8-5.7h-9.7c-2-1.5-1.7-3-0.7-4.1
		c-1.4-1.5-3-1.2-4.7-1.2c-6.4,0-15.5,5.3-18.9,9.1h-3c5.4-10.2,12.5-16.7,27.7-16.7c14.8,0,21.9,9.5,33,9.5c2.4,0,5.1,3.8,5.8,4.5
		c4.7,5.3,13.1,9.5,20.9,9.5c0,0.8-0.3,1.9,0,2.6l5.1,0.4C1148.1,1430.5,1149.8,1435.8,1152.2,1436.9z"/>
	<path class="st0" d="M1070.5,1417.6c0.3,1.9,0.7,3.8,0,5.7c-0.3,0-4.7,0.7-4.7,0c0-2.7,2-3.4,3-3.4v-2.7h0.7L1070.5,1417.6z"/>
	<path class="st0" d="M1129.5,1457.7c2,0.8,2.7,1.9,3.1,3.4c-4,0.8-7.1,2.3-11.2,2.3c-2.7,0-5.4-2.6-5.4-5.7c0-1.5,2-2.3,3.4-2.3
		c4.1,0,8.8,2.3,10.8,3L1129.5,1457.7z"/>
	<path class="st0" d="M1201.1,1448.3c3.4,3,6.8,4.5,9.1,8.3h-12.5c-2.3,1.5-3.7,3-6.1,3c-2,0-1.7-1.9-3.4-1.9c-4.4,0-4,6.8-7.8,6.8
		c-3,0-2.4-3.8-4.1-4.9c-3-2.3-11.1-1.1-15.2-1.1c-2.3,0-2.3,1.1-4,0c0,1.1-0.3,1.9-0.3,3c-2-0.4-4.1-3.8-4.1-6
		c0.7,0,1.3-1.1,1.7-1.5c7.8,0,11.2,1.9,15.2-0.3c-2-2.3-2.3-4.9-2.3-7.9c-2,0-4.4-1.9-4.4-4.2c0-1.1,1.7-2.6,2.7-2.6
		c3,0,5,2.6,8.1,2.6c4.4,0,6.4-1.5,10.1-1.5c10.8,0,12.8,6.4,18.9,9.9L1201.1,1448.3z"/>
	<path class="st0" d="M1114.4,1382.1c2.7,0.4,3.7,2.7,3.7,5.3c0,0.8-1,1.9-1.7,1.9c-3.4,0-3.4-4.2-3.4-7.2
		C1113,1381.7,1114,1382.1,1114.4,1382.1z"/>
	<path class="st0" d="M1108,1363.6c0.7-1.6,3-3.1,4.7-3.1c2.4,0,3.4,1.9,4.1,3.1C1113.4,1363.9,1110,1363.6,1108,1363.6z"/>
	<path class="st0" d="M1124.8,1368.1c-1,0.4-2-1.9-1.7-3L1124.8,1368.1z"/>
	<path class="st0" d="M881.2,743c-2.7,0-4.4,1.1-4.4,3.8c0,3,3.7,3,5.1,3c0.3,3,2,4.2,3.4,5.3c-3,7.2-10.8,6.8-19.2,6.8
		c-13.1,0-17.9-11.3-27.7-11.3c-6,0-3.7,4.1-8.8,6.8c-8.8,4.9-17.2,1.9-24.3,7.6c-15.2,0-21.3,0-30.4,0c-5.7,0-2-6.1-6-9.5
		c-3.7-3-13.8-1.9-18.6-1.9c-7.4,0-13.5-8.7-15.9-13.2c8.1-6.9,18.6-8.7,32.7-8.7c5.1,0,7.1-0.4,11.1-0.8c-2.4-1.5-5.1-3.8-8.4-3.8
		c-6.4,0-14.5,0-17.9,0c-7.4,0-26,3.8-26-6.8c0-8.3,9.8-5.3,13.5-7.9c-5.4-1.5-7.4-0.4-11.8-0.4c-3.7,0-10.1-5.7-10.1-7.6
		c0-18.5,30.7-32.1,42.9-32.1c4.7,0,4.4,11,5.7,13.2c2.7-1.9,5.1-6.8,10.5-6.8c9.5,0,12.8,4.5,15.2,11.3c3.7-0.8,6.4-1.5,10.1-2.6
		c-0.3-3.4-1-4.6-1.7-6.8h7.4c4.7,1.5,9.4,6.5,11.1,10.6c2,4.5-0.3,14,5.8,14c2.7,0,2.7-1.5,4.4-3c-2.7-5-7.8-22.7-7.8-26.1
		c0-3,3.4-4.9,6.1-4.9c6.1,0,4,3,9.4,0c-0.3-1.2-0.3-2.6-0.3-3.8c0-3.8,4.7-6.5,10.1-6.5c6.1,0,11.8,2.7,11.8,8.3
		c0,5.7-7.4,9.1-7.4,12.5c0,13.6,9.1,22.3,9.1,32.1c0,12.1,28.3,20.4,34.8,26.1C888.7,744.5,887.3,743,881.2,743z"/>
	<path class="st0" d="M673.8,713.8c-1.7,0-4-5.7-5.1-7.6c-2.7-4.1-16.2-3-16.2-7.6c0-12.9,16.9-23.4,16.9-37.1c0-3-4.7-9.1-5.1-13.2
		c8.4-3.8,12.2,0,20.2,0c4,0,7.4-4.5,13.5-2.7c7.4,2.3,10.8,6.8,18.2,7.6c3,3.4,7.1-1.1,11.5-1.1c7.1,0,23.6,7.6,23.6,16.3
		c0,4.1-17.9,7.2-21.3,8.3c-10.5,3.8-25.3,19.6-25.3,28.3c0,3.1-23.3,12.5-26,12.5C676.5,717.6,675.5,713.8,673.8,713.8z"/>
	<path class="st0" d="M771.6,648.4c-4.1,0-9.5-3.4-9.5-5.7c0-5.7,5.1-4.5,9.5-4.5c-2-3-5.1-4.9-5.8-8.7c-2,0.4-3.7,2.6-3.7,4.9
		c-5.7,0.7-10.1,2.6-14.2,2.6c-4.4,0-9.4-2.6-11.8-2.6c-2.7,0-5.1-2.7-5.1-5.7c0-3.8,1.3-3.1,0-5.7c3.4-0.8,5.1-3.8,8.4-3.8
		c6.8,0,10.1,3.4,15.2,3.8c-5.7-0.8-10.8-3-15.2-4.9v-5.6c2.7-0.4,5.7,0,5.7,0c1.3,0,11.8,2.2,15.2,2.7c-6.4-1.5-12.1-0.8-16.9-4.2
		c1.3-2.2,4-4.2,6.7-4.2c4.4,0,5.4,1.6,8.4,1.2c-4.1,0.4-10.1-0.4-10.1-4.9c6.1-1.1,8.1,0,11.1,0c1.3,0,5.4,1.2,5.7,5.7
		c4.1,0,7.1,0,7.8,0c10.1,0,17.2,14.4,32.1,14.4c4.4,0,6.1-1.5,7.4-4.9c-3.7,0-5.4-0.4-6.7-1.1c0.3-0.8,2.3-1.5,3.3-1.5v-4.9
		c-2.4-0.4-8.4-2.2-8.4-5.6c0-6.1,8.8-9.1,12.2-12.1c2,1.5,4,2.6,6.4,2.6c-0.3,3,0,4.2,0,4.9c0,5.6,6.4,13.9,12.8,13.9
		c3,0,4.7-4.5,9.1-4.5c4,0,7.8,4.9,7.8,9.5c0,5.3-8.1,16.6-11.1,17.7c-2,0.7-21.9-1.9-21.9-0.8c0,0.8-21.6,6.1-22.6,6.4
		C786.8,645.8,780,648.4,771.6,648.4z"/>
	<path class="st0" d="M720,625.7c-2.7,0-5.7-1.9-5.7-4.5c0-6,12.5-9.1,15.9-8.7C729.4,617.8,724.4,625.7,720,625.7z"/>
	<path class="st0" d="M761.5,598.5c-1.7,0-4.4-1.5-4.4-4.9h11.8v4.9C767.6,598.5,761.5,598.5,761.5,598.5z"/>
	<path class="st0" d="M748,583c0,2.7-2,5.3-4.4,6.1c0.3,3.8,2.7,4.6,2.7,7.6l-14.5,12.1c-5.8,0-5.4-8.7-8.5-10.6
		c-0.7,6.4-5.7,12.5-11.5,11.7c-0.7,4.1-3.4,8.3-7.1,8.3c-2.7,0-5.1-4.2-5.7-5.6c-4.1,2.2-6.1,0-9.5,0c-2,0-3.1,2.7-5.7,3
		c-0.7-2.7-3.4-4.6-3.4-5.7c0-0.8,6.1-6.1,7.4-6.8c5.4-3,10.5-3.8,16.2-7.5c6.4-4.2,8.1-14,17.5-14c2.7,0,3,0.4,6.1,0.8
		C727.7,582.3,748,576.2,748,583z"/>
	<path class="st0" d="M785.8,562.6c-4,0-5-3-8.4-3c-2.7,0-4.1,2.6-6.7,3c0-4.9,20.2-13.3,24.6-13.3c7.1,0,12.8,4.6,14.2,9.5
		c-2.7,1.5-5.1,3.8-9.1,3.8C791.2,562.6,793.2,562.6,785.8,562.6z"/>
	<path class="st0" d="M800.3,572.8c0.7,7.9-10.5,11.3-17.9,11.3c-5.1,0-10.8-6.8-10.8-10.2c0-8.7,20.6-9.4,27.6-9.4
		c3.7,0,5.1,2.3,6.1,3.8c-3.7,3.4-9.5,4.6-14.5,4.6H800.3z"/>
	<path class="st0" d="M766.9,572c-1.4,2.3-2.4,4.5-4.7,4.5c-3,0-6.7-3.7-6.7-5.6C755.4,561.4,764.9,570.9,766.9,572z"/>
	<path class="st0" d="M930.8,679.8c0,5.3-1,1.9-1,5.7c1.3,0.4,5.7,1.1,7.7,1.9c-1.6,20.6-2.7,15.1-13.5,19.6c-3,1.2-3.7,5.7-6.8,5.7
		c-4.7,0-5.4-4.1-7.4-6.4c-9.4-10.6-19.9-9.1-29.7-20v-6.4c4.4,0,9.4,4.5,15.2,4.5c3.3,0,2.4,0,5.1,0v-10.2
		c-4.4-0.7-10.8,0-10.8-4.9c0-1.1,2-1.9,2.4-3c5.4-6,12.8-4.5,20.2-4.5c6.1,0,13.5,0,13.5,0c1,0,3.4,1.9,3.4,3.8
		c0,7.6-8.4,10.6-10.8,14C921,679.1,930.8,675.7,930.8,679.8z"/>
	<path class="st0" d="M862.7,606.8c-1.4-1.9-3.4-3.8-3.4-7.6c1.4,0,2.7,0,4.1,0c9.8,0,14.8,19.3,25.3,15.9c-2.7-1.9-5.4-4.6-6.8-6.4
		v-4.6c7.4,0,10.1,8.3,18.6,8.3v-8.3c-5.7,0-10.5,0-11.8-5.3c2.3-1.1,3.7-0.4,6.1-0.4c5.4,0,8.7,3.8,15.2,3.8c2.7,0,4.1-3.1,6.7-3.1
		c6.1,0,6.8,3.8,6.8,9.5c0,8.7-4.1,13.2-2.7,23.8c-5,1.9-12.5,1.9-13.5,1.9c-2,0-10.8,1.5-10.8-1.9c0-1.5,1-3,2.4-3.8
		c-0.3-1.1-0.3-2.7,0-3.8c0-3.4,6.4-3.4,8.4-5.6c-1-0.8-2.7-1.2-4-1.2c-6.1,0-17.9,3.8-24.6,3.8c-2.4,0-4-2.3-4-4.5h-5.1l-1-3.7
		c-3.4,1.1-5.7-1.5-8.4-3.8V603L862.7,606.8z"/>
	<path class="st0" d="M937.6,767.5c-4.4,0-29.4-10.2-29.4-11.3c0-3,6.1-1.5,7.5-1.9c4-1.5,2.7-12.1,9.4-12.1
		c5.1,0,18.9,14,20.9,19.3C942.6,763.8,941.3,767.5,937.6,767.5z"/>
	<path class="st0" d="M994.3,662.8c0,0.8-6.1,5.7-6.1,5.7c-4.4,6.8-9.1,15.1-19.2,15.1c-7.4,0-7.4-4.9-9.5,2.6h4.4
		c-1,6.8-3.7,8-7.7,12.5h-6.7c0-4.9,0-9.5,0.3-11.3c-5.4-6.1-3-10.6-5.4-18.2v-6.5c2.7,0,6.4,0,7.7,0c-0.7-0.4,0-2.6,0-3.7
		c0-0.4,2-5.7,9.1-5.7c11.5,0,20.9,4.5,33.1,4.5C993.9,659.8,994.3,660.9,994.3,662.8z"/>
	<path class="st0" d="M859.6,583.4c-0.3,2.6-2.4,4.5-4.7,4.5c-3.7,0-11.8-10.2-11.8-15.1C851.9,572.8,852.6,580.7,859.6,583.4z"/>
	<path class="st0" d="M862.7,623.9c0.7,1.9,2.4,3,2.4,5.7c0,4.5-3.1,4.9-5.1,4.9c-3.4,0-4.1-0.8-6.7-0.4
		C854.6,627.6,858,625.7,862.7,623.9z"/>
	<path class="st0" d="M888.7,562.6c-6.1,0-9.8-2.3-15.9-1.5c-1.7-3.4-6-1.5-11.1-1.5c-4.7,0-6.1,0.4-9.1-3c3-3.4,6.1-3,10.1-4.5
		c-0.7-1.2-0.7-3.4,0-4.5c-7.4,0-9.1,2.3-11.8,0c1-0.8,2-2.2,2.4-3.8c-4.7,0-5.8-1.1-5.8-5.7c4.1-0.7,6.8-3,10.8-3
		c7.1,0,8.8,6.8,12.8,6.8c2.7,0,4.1-3,6.7-3c6.7,0,6.4,8.7,10.1,8.7c2,0,3-3,5.1-3c4.7,0,8.4,6.8,10.1,8.7c-0.7,1.1-2,2.6-2.7,3.8
		c2.7,3,9.4,6,9.4,10.2c0,3.8-3.4,4.9-6.1,4.9C895.7,572,896.4,562.6,888.7,562.6z"/>
	<path class="st0" d="M878.2,572.8c-6,0,1.7-5.7,3.1-5.7c3.7,0,4.7,1.9,7.8,3C887.3,572.8,883.3,572.8,878.2,572.8z"/>
	<path class="st0" d="M1097.8,627.6c-1.4,1.1-2.7,2.7-3.4,5.3c2.4,0.7,4.4,0.4,4.4,0.4c-1,13.3-16.2,13.3-28,13.3
		c-4.4,0-6.1-3-6.8-5.7c-4.7,0.8-5.4,2.6-8.4,4.9h-27c-7.1,1.9-17.6,0.8-16.9-5.7h-4.1c-1.3,1.9-6.4,6.4-9.4,6.4
		c-7.4,0-24.3-9.5-24.3-17c0-2.6,2.7-5.3,4-6c-6.1-6.8-7.8-12.9-13.5-19.3c-2,2.3-4,3.8-6.8,3.8c-3.7,0-24.3-9.8-24.3-13.2
		c0-5.7,6.1-5.7,10.1-5.7c15.2,0,17.9,13.3,29.4,13.3c3.4,0,5.4-0.8,6.7-3.1c2.4,0,6.1,0,6.1,0c-2.7,8.7,12.8,6.5,15.9,11.4h-13.5
		c2,10.2,10.4,4.6,15.2,8.8c-0.7,0.8-2.4,0.8-2.4,1.9c0,5.3,4.1,3,5.4,1.9c8.1,2.3,14.8,4.5,23.3,4.5c18.5,0,24.6-9.5,42.2-9.5
		c13.5,0,22.3,0.8,27,10.6c-0.7,0.4-2.4,0.7-3.4,0.7L1097.8,627.6z"/>
	<path class="st0" d="M940.3,628.8c3.7,0,2.4-8.7,10.1-8.7c6.1,0,14.2,7.5,14.2,12.5c0,6.4-2,12.1-6.8,12.1
		c-2.4,0-21.9-10.2-21.9-10.2C935.9,630.6,939.6,628.8,940.3,628.8z"/>
	<path class="st0" d="M961.2,572.8c3.7,0,1,0.7,4.4,0c0,2.6,0,4.1,0,4.9c0,1.9-2,3.8-5.1,3.8c-1.7,0-21.3-4.2-21.3-4.2
		C942.6,573.5,954.8,572.8,961.2,572.8z"/>
	<path class="st0" d="M926.8,568.2c0-1.9,2.4-3.4,3.4-3.8c-4-4.5-11.1-6.8-11.1-14.4c0-3.8,4.4-5.3,7.8-5.7c1,3,8.1,5.7,11.8,5.7
		c0,9.1,11.8,0.7,11.8,8.7c0,2.7-1,5.3,0,9.5C938.6,571.3,926.8,572.8,926.8,568.2z"/>
	<path class="st0" d="M919,519.1v7.6h-5.7c-2-2.3-6.1-3-6.1-7.6C911.6,518.7,916.7,519.1,919,519.1z"/>
	<path class="st0" d="M1011.1,517.2h4.1v-4.9l-1.7-2.7c1,0,2.4,0,3.4,0c4.7,0,4.4,1.9,4.4,6.4c0,2.7,4.1,3,4.1,5.7
		c0,2.6-2.4,3.4-2.4,5.7c0,3.4,5.1,0,5.7,0c3.4,0,12.2,4.5,16.5,4.9c0,2.7,0.7,4.2-0.3,5.7c-1.4,2.3-5.1,1.5-7.8,1.9
		c-6.7,0.8-11.4,12.1-15.8,12.1c-4.4,0-4.4-3.4-5.4-7.6c-1.7,1.9-2.4,3.8-4,5.7c2,3.8,3.4,4.5,4.4,7.6h-6.1v4.9
		c-3,0.4-9.1-4.5-12.2-6.8c0,6.8-3,8.7-8.1,8.7c-5.4,0-12.8-1.5-13.5-6.8c2.3-0.4,3.4-1.5,4.4-2.6c-5.7,0-15.2-3.8-15.2-9.5
		c0-7.2,20.9-6.4,25.6-7.6c-5.1-1.5-8.8-3-13.8-3c-5.1,0-6.1,3-10.1,3c-3.4,0-3.7-2.6-4.7-4.9c-3.4,1.5-4.4,3-7.1,3
		c-2.4,0-2.7-1.5-2.7-3.8c3.4-1.5,5.8-1.9,7.8-4.9c-11.5,0-18.6-1.1-19.6-12.1h5c1.7,1.5,7.1,3.7,10.1,3.7c1.3,0,3-3,3-3
		c-4.4-1.5-14.8-4.2-14.8-8.3c0-4.2,4.7-3.8,7.7-3.8c4.7,0,6.4,2.7,9.1,2.7c2,0,2.7-2.7,3.7-3.8c-3.4-2.3-7.4,0-9.4,0
		c-1.3,0-4.4-5.7-4.4-6.1c4.1-2.6,6.7-4.9,12.8-3.4h5.7c-4-2.3-9.8-2.7-10.1-7.9c8.5,0.7,15.2,1.5,21.3,4.1
		c6.8,3.1,5.4,14,10.8,16.3c5.1,2.3,8.4-1.5,13.5,0.8C1010.1,508.9,1008.1,513.8,1011.1,517.2z"/>
	<path class="st0" d="M1030.4,848.1c1.7-1.5,3.4-2.7,3.4-4.9c0-3.4,0-2.3,0-5.6c0-6.5,1.7-21.6,11.1-22.7c1.7,5.7,3.4,6.8,5.1,10.6
		c1-1.5,2-2.3,3-3c7.1,9.9,17.9,6.1,24,15.2c1.7,2.6,0.7,5.3,2.4,6.8c5.4,4.5,11.5,2.6,14.5,7.2c-3.7,2.6-6.7,4.1-11.1,4.1
		c-4,0-5.7,0-9.1,0c0,0-10.8-8.7-12.8-9.4c0,8.3-11.1,16.3-15.9,14c-1,1.9-1,3-2.7,3c-4.1,0-3.1-3.8-2.4-7.6
		c-5.4-1.5-11.8-0.4-14.5,0C1025.7,849.2,1029.7,850,1030.4,848.1z"/>
	<path class="st0" d="M1143.4,781.9c0,4.9-8.4,8.3-12.5,8.3c-5.1,0-8.5-3.8-8.5-8.3C1122.5,766.8,1143.4,769.4,1143.4,781.9z"/>
	<path class="st0" d="M1067.5,865.9c6.8-0.4,5.4-0.4,9.5,1.5c-3.1,4.5-11.5,12.1-16.9,12.8v-4.9
		C1062.8,871.5,1067.1,868.1,1067.5,865.9z"/>
	<path class="st0" d="M1103.9,683.6c-6.8,0-12.5-1.9-10.1-8.3c-3-1.9-6.7-3.8-6.7-7.9c0-3.8,3-5.7,5.7-5.7c7.4,0,9.8,3,16.9,3
		c9.1,0,16.9,8.3,22.9,11.7c-1,3.4-3.1,6.1-6.1,6.1c-4.4,0-6.4-2.6-10.1-2.6C1112.7,679.8,1109.7,683.6,1103.9,683.6z"/>
	<path class="st0" d="M1102.2,879.5c-2,3-2.7,8.4-6.1,8.4c-0.7,0-5.1-5.7-5.1-5.7C1091.1,875.3,1098.9,874.9,1102.2,879.5z"/>
	<path class="st0" d="M1151.1,780c-2.4,0-4.4-0.8-4.4-3c0-1.1,3.7-3.8,4.4-3.8c3,0,5.7,4.5,6.7,6
		C1153.5,780.4,1154.5,780,1151.1,780z"/>
	<path class="st0" d="M1102.9,760c-4.1,0,3.7-8.7,7.7-8.7C1109.7,755.8,1106.9,760,1102.9,760z"/>
	<path class="st0" d="M1257.4,818.6c0,4.2-0.7,10.6-4.4,10.6c-16.9,0-17.5-25.7-33.7-25.7c-2,0-6.4,4.2-6.8,4.2
		c3,1.9,3.7,1.5,6.8,0.7v4.6c-2,0.7-3.7,1.2-5.1,0v5.7h4.4c0.7,4.9,4.7,13.3,7.5,14.4c6.4,2.7,8.7-1.9,9.4,4.6c3.4,0,3.4,0,5.7,0
		c-0.3,6-0.3,6,0,7.6c0,2.6,6.1,4.5,6.1,8.7c0,3.8-3.7,11-5.1,15.2c-6.1-0.8-27.7-9.9-31.4-15.2h-5c5.7,8,24.6,15.9,24.6,26.5
		c0,2.7-2,4.5-3.4,4.5c-1.7,0-2.4-4.2-3.4-4.5c-9.8-5.3-16.2-3-24.6-8.7c-8.1-5.3-28.3-4.9-22.6-17c-11.1-5.3-16.5-12.5-26.3-18.9
		c-1.7,2.6-3.7,5.7-6.8,5.7c-3.4,0-2.7-2.7-5.7-2.7c-4,0-6.1,5.7-10.1,5.7c-3.7,0-14.5-5.3-14.5-10.6c0-3.8,8.8-10.2,13.5-10.2
		c6.1,0,11.5,0,14.5,0c3,0,11.1-2.2,15.2-5.3c-1.7-1.1-6.1-4.9-6.1-7.9c0-6.4,6.1-3,8.4-5.7c3-3.4,10.1-11.7,10.1-17
		c0-9.8-21.6-28.4-28.7-28.4c-4.4,0-6.4,4.5-10.8,4.5c-1.3,0-2.7-3.8-2.7-4.5c0-3.8,6.1-4.5,8.1-4.9c-3-3.4-21.2-20.8-24.9-20.8
		c-4.4,0-9.8,14.4-15.9,14.4c-4.4,0-3-6.1-2.7-8.7c-10.5-1.1-36.1,0-51.3,0c-2.7,0-8.1-4.6-10.1-7.6h-16.2
		c-1.7-5.3-6.7-6.1-7.4-11.4c4.4-1.9,9.5,0.4,15.2,1.1v-4.9c-3-2.2-18.5-3.8-18.5-3.8s-5.1-6.8-5.1-10.2c0-10.6,1.7-12.8,6.8-17
		c2.7-2.3,1-9.1,2.4-10.6c6.7-7.6,15.5-14,27-14c0,0,10.8,3.8,11.1,3.8c-3.4,7.9-14.5,8.7-14.5,19.7c0,2.3,1,3.8,2.7,3.8
		c-0.7,2.6,0,6.8,0,6.8c0,3-0.7,6.4,3.4,6.4c2,0,6.7-4.6,6.7-7.6c0-3.8-3.4-6.4-3.4-10.2c0-14.4,22.6-18.9,36.1-18.9
		c8.8,0,13.5,13.2,13.5,21.6c0,1.5-1.7,7.6,0,7.6c2,0,3.4-3.8,6.8-3.8c3.7,0,4.7,3.8,7.7,3.8c5.7,0,7.4-9.5,13.5-9.5
		c6.4,0,20.9,2.3,25.3,5.7c7.4,6,9.8,18.9,20.9,18.9c5.1,0,6.1,0,8.5,0c3.7,0,12.1,1.1,11.1,7.6c9.1,3.4,14.2,9.5,23.6,10.6v6.4
		c2,0,5.7,0,5.7,0c4.7,0,7.4,3.8,9.5,9.1c-4.7,1.1-9.1,0.8-11.8,5.3c5.7,0.8,7.1,0.8,10.1,0.8c1.7,0,4,1.2,5.1,3.4
		c-5.4,3-8.1,3-11.1,8.7c3,1.9,5.1,3,9.4,3c0.7,8.7,9.8,12.5,16.9,13.3c0.6,6.8,2.4,13.2,7.4,13.2c7.4,0,9.1-5.3,11.8,1.9
		c1.7,1.9,4.4,1.9,6.1,1.9c6.4,0,9.1,2.6,9.1,8.7c0,4.9-5.7,6.4-10.1,6.4c0.4,4.2,0,3,0,5C1264.8,815.2,1263.8,818.6,1257.4,818.6z"
		/>
	<path class="st0" d="M1119.1,859.1c-3.4,3-4.4,3-7.8,0C1114.7,854.1,1115,856.8,1119.1,859.1z"/>
	<path class="st0" d="M1055,812.9c4.4-2.3,4.4,2.6,6.8,6.1C1057.3,818.6,1054.7,815.6,1055,812.9z"/>
	<path class="st0" d="M1222,444.9c-2.4,2.7-3.4,3.4-6.1,4.2l27-8.7c2.4,1.5,3.7,2.2,6.1,3c3.7,1.1,3.7,4.2,5.7,6.4
		c4.1,4.6,21.9,2.7,21.9,9.5c0,4.9-6.1,3.8-8.4,5.7c-13.5,11.4-30,4.5-47.9,14.4c3.4,3.8,16.9,0.8,25.3,1.1
		c-7.8,8.7-26.7,14-38.8,18.5c-13.5,4.9-21.3,20-31.4,28.4c-4.7,3.8-12.1-0.8-17.6,1.1c-7.4,2.6-15.8,3.4-21.2,8.3h9.4
		c0.7,8.4-3.3,7.6-9.8,6.8c4,2.3,7.7,3.8,9.8,9.1c-7.1,3.8-9.4,12.9-15.2,17.4c-14.5,0-14.2,0-16.9,0c0.7,2.7,2.4,3.4,2.4,5.7
		c0,12.1-14.1,4.9-14.1,17.8c5.1,0,6.1,0,8.4,0c1,0,5-0.4,5,3c0,6.4-19.2,13.2-27,13.2c-7.7,0-4.4-5.7-11.1-5.7
		c-9.8,0-16.9,0-25.3,0c-3,0-5.1,3.8-10.1,3.8c-11.2,0-20.2-3.4-32.1-7.5c-1,1.9-2.4,3.8-4,3.8c-2.4,0-3.4-1.9-3.4-3
		c0-15.1,17.6-9.5,24.6-15.1c-4-3.4-11.1-4.6-11.1-11.4c0-5.3,5.1-3.8,8.4-3.8c10.8,0,14.5,6.4,20.9,10.6h6.1
		c-4.7-5.3-15.2-9.8-15.2-18.9h-5.1c-2,1.1-2,1.1-3.4,2.6h-5.1v-4.5c2.7-6.4,5.1-10.6,10.1-12.5c8.4-3,18.6,0.4,18.6-10.2
		c0-12.1-23-12.1-23-18.9c0-3.7,5.1-3,8.4-3c-3.7,0-4.4-1.5-5.1-4.5c1.7-0.8,3.4,0,5.1,0c3.7,0,11.1-1.5,17.9,0.7
		c8.4,3.1,11.5,14,20.9,12.9c-1.7-1.9-12.5-9.4-12.5-11.7c0-1.5,1.7-2.6,2.4-3.8h16.9c6.4-3,12.1-4.9,16.2-10.6h-5.1
		c-6.7,6-14.5,8.7-25.3,8.7c-6.4,0-8.4-3-11.8-3c-2.7,0-4.1,3.8-6.8,3.8c-6.7,0-15.5-2.6-13.5-7.6h-4.4c-2.4,1.9-4.4,3.8-7.4,3.8
		c-6.7,0-16.2-4.5-18.6-8c2.4-1.9,4.7-3.7,9.1-4.1c-6.4,0-13.2-0.4-15.9,0c3.7-9.8,12.2-8.7,20.9-11.7c-3-0.8-4.1-0.8-6.8-0.8
		c-6.7,0-7.1,6.8-13.5,6.8c-1.7,0-5.4-2.6-6.1-3c3.4-3.8,5.4-4.9,9.4-6.4h-10.1c-2,0.7-4.1,1.9-5,2.6c-1.4,0-5.4,0-7.4,0
		c2-9.4,24-14,33.7-14c4.1,0,6.7,0,7.4,0c1.3,0,2.7-1.5,2.7-3.1c10.8,0,6.4-8.3,13.5-8.3c6.4,0,19.6,7.2,22.6,8.3
		c3-9.1,7.1-17,16.9-17c5.8,0,2.4,3.4,6.8-0.8c1.7-3.8,4.4-4.9,7.7-4.9c17.6,0,21.3,0,38.8,0c0.7-1.5,2.4-2.7,4-2.7
		c6.1,0,7.8,4.5,12.8,4.5c4.7,0,6.1-6.4,10.8-6.4c5.1,0,7.1,2.7,10.1,2.7c4.1,0,6.1,0,9.4,0C1186.2,438.5,1215.2,437.4,1222,444.9z"
		/>
	<path class="st0" d="M1361,764.9c4.7-2.7,4.7-3,9.5-0.8c2-11.3,7.1-15.1,10.1-25.7c-10.5-3.8-35.1-5.7-36.4-16.3c3.4-1.5,3,0,6.1,0
		c7.1,0,12.1,5.7,20.3,5.7c3.4,0,3-3.4,3.4-5.7c-10.5-3.8-13.5-21.6-24.6-21.6c-3,0-4.1,6.4-8.4,6.4c-6.1,0-9.1-0.7-9.1-6.4
		c0-8.3,7.4-7.6,7.4-16.2c0-5.7-5.4-6.1-8.4-6.5v-5.7c-9.4-32.5-33-65.4-70.8-65.4c-5.8,0-7.1,0-10.1,0c-4.4,0-6.4,5-10.8,5
		c-3,0-6.1-3-10.1-3c-3.7,0-5,0.7-6.7,1.5c1,1.2,2.4,2.7,3.4,3.1c-2,2.3-1.7,1.1-4.4,1.1c-7.1,0-17.8-3.4-21.9-9
		c3-2.3,5.4-2.7,6.8-6.1c-5.4-2.3-9.4-6.4-13.5-6.4c-7.4,0-5.4,2.6-11.8,0c0.7-5.3,7.4-7.6,10.1-7.6c3.7,0,6.1,0,8.4,0
		c3.4,0,4.4-0.4,6.1-3h19.2c3.4-2.7,3.4-4.2,4.4-8.3h-13.5c-0.7,1.9-1.7,3.8-3.4,3.8c-5.4,0-7.4,0-11.8,0
		c-1.4,0-33.7-10.2-33.7-16.2c0-11.7,11.8-7.6,19.2-10.2c6.1-2.2,9.8-6.4,16.2-8.7c9.1-3.4,21.2,2.3,28.7-2.7
		c5.4-3.8,9.1-10.6,9.1-20c-6.1-0.8-25.3-0.4-25.3-7.6c0-3.4,5.1-5.3,6.7-5.7c11.5-4.2,26.7-13.2,33.4-20.8c2.7,2.3,5.4,3,8.8,3
		c11.8,0,2.7-17.4,13.5-18.9c13.5-1.9,18.6-5.7,31.4-5.7c9.5-2.6,16.2-8.7,25.3-8.7c6.1,0,7.8,11.4,14.2,11.4c0-2.7-1.7-4.9-1.7-7.6
		l3.4-3.8c3.7,7.2,9.5,6.4,16.2,9.5c1.7,0,5.1,0,5.1,0c-1-3-2.7-5.3-2.7-8.3c0-4.5,5.1-4.9,8.4-4.9c13.8,0,21.9,8.7,30.4,13.2h15.2
		c-5.4-3-19.2-7.9-19.2-15.1c0-5.6,10.5-3.8,13.5-4.5c-2.4-2.6-5.1-3-6.8-5.7c9.1-4.9,17.6-7.5,28.7-7.5c8.1,0,13.5-0.4,20.9,2.6
		h6.7v-4.5c5.1-0.8,8.4,0,13.5,0c16.2,0,29.4-10.6,46.6-10.6c18.9,0,32.1,0,48.9,0c19.9,0,34.8,14.4,50.6,21.9
		c9.1,4.1,20.9,1.5,29.3,3.8c-1.7,13.3-24.6,11.3-33.7,15.1l-74.1,4.6c5.8,4.9,62.3-2.6,68.4,0c-0.7,3-15.4,18.9-12.7,18.9
		c8.4,0,28.6-21.5,39.7-21.5c6.1,0,8.4,5.6,8.4,11.3c0,3.4-21.8,29.1-22.8,32.9c8.8-2.7,25.9-27.6,31.3-32.1c8.8,0,22.6,0,22.6,0
		s6.4,1.5,7.8,1.1c6.1-2.6,7.1-4.5,12.5-7.6h16.2c1-4.5,3.4-4.9,6.8-4.9c4.4,0,20.2,8.3,20.2,13.3c0,4.5-6.4,7.9-8.4,8.7
		c-11.1,4.2-18.2,15.1-33.4,15.1c4,2.3,4.4,2.3,7.1,0c0,10.6-9.1,10.6-15.2,12.1c2.4,5.3,0,1.1,0,4.9c0,6.1-8.8,7.6-15.2,9.5
		c0.3,4.2,0,4.2,0,5.7c0,8-7.1,10.6-13.5,15.9c-4,3.4-3.7,12.5-5.8,16.3c3.7,1.9,6.4,0,10.1,0c5.4,0,10.1,4.2,13.5,7.2
		c-1.7,1.2-4,2.3-6.1,2.3c1.3,6.1,14.5,4.2,14.5,13.2c0,9.1-17.6,5.7-23.6,5.7c-3.7,0-6.7,3-6.7,5.7c0,6.5,6.1,6.5,10.8,6.5
		c0,8.3,5.1,10.6,5.1,16.3c0,3-1.7,6.1,0,8.3c-5.4,0-10.8,0-10.8,4.9c0,6.4,9.4,6,13.5,7.6c-2,6-8.8,9.4-15.2,10.2
		c0,2.6,1.7,4.9,3.4,5.7c-2.3,11.3-15.8,6.4-18.6,14.4c-3.7-2.6-7.4-4.6-10.1-8.7h-5c3.4,10.2,18.6,6.8,18.6,17
		c0,4.5-1,10.6-5.1,10.6c-6.1,0-16.5-9.8-18.6-17c-2.7,0.4-3.7,0-4.4,0v5.7c12.1,13.6,33.7,20,33.7,41.6c0,4.2-5.4,4.5-9.1,4.5
		c-15.8,0-12.5-18.9-26.3-18.9c-1.7,0-3.4,1.2-5.1,0c0,5.3,3.4,6.5,3.4,9.5c0,3.4-5.7,4.5-7.4,4.9c0,11.4,30,9.8,37.1,12.5
		c-5,4.5-8.4,4.9-14.5,7.2c-11.1,4.2-14.5,14.8-24.3,18.2c-12.2,4.5-22,3.4-34.8,9.5h-15.9c-3.4,2.3-6.7,3.4-6.7,6.4l-8.5,6.8
		c-6.4,5.7-6.7,13.2-11.8,18.9c-6.7,7.6-18.2,5.7-25.3,11.4h-5.1v-7.6c-5.1,2.3-3.7,6.1-6.7,9.5c-7.1,7.9-25.3,4.5-25.3,17
		c0,1.2,0.7,2.7,0.7,3.8c-1,1.5-2.4,2.7-2.4,4.5c0,2.6,4,4.6,4,8.7c0,12.8-15.8,8.7-15.8,19.7c0,6.8-0.7,16.7,0,20.8
		c-7.7,4.1-3.7,23.8-12.8,23.8c-2.4,0-3.4-1.5-4.1-3.8c-4.1,0.4-4.7,2.6-6.7,2.6c-8.4,0-7.7-17-16.2-17c-4.7,0-10.1,4.6-14.2,4.9
		c-2.4-8.7-5.7-6-11.1-10.6c-2-1.6-1.3-6.8-2.4-7.6c-6.8-6.1-19.6-23.1-19.6-34.1c0-4.9,2.7-4.5,5.1-7.2c-5.1-7.2-6.8,2.3-12.5-1.1
		c-1.4-1.5-2.4-8.7-3.4-12.5c-2-7.2-11.1-11.4-11.1-21.6c0-3.8,2.4-5.7,3.4-9.4c-2.4-1.5-4.7-1.9-6.8,0v-8.7
		c4.7-7.2,6.8-14.7,13.5-20.8V764.9z"/>
	<path class="st0" d="M1345.1,750.5c-3.1-0.4-6.7-8.7-6.7-13.3c0-5.7,4.4-7.6,7.4-7.6c8.8,0,11.5,10.2,20.2,13.2
		c-0.7,6.4-7.8,7.6-13.5,7.6H1345.1z"/>
	<path class="st0" d="M1687.6,634.4c-2.4,0-4.4-3.8-4.4-5.7c0-2.3,2.4-3.8,3.4-4.9h6.1c0,2.6,0,3.4,0,4.9h5.7
		C1696.7,629.9,1690.9,634.4,1687.6,634.4z"/>
	<path class="st0" d="M1300.3,1099.9c-1.7,0-3.4-2.6-3.4-3.8c0-1.5,6-6.8,6-7.2v-2.3c-1,0-2.3-0.8-2.7-1.9
		c9.4-5.3,13.1-22.3,18.2-31c2.7-4.9,4.7-11.4,10.1-11.4c1.3,0,2.4,2.3,2.4,3.8c0,8.3-7.1,12.5-9.1,19.3v3.4c2.7-0.7,2.7-3,5.1-3
		c2,0,4,0.4,5.4,1.9l-1.7,1.8v3.4h6.1c0,0.4,0,1.9,0,1.9l4-1.5c3.7,1.2,8.1,1.2,9.8,0c0,3.4-0.3,6.8-0.3,12.5
		c0.7-0.7,2.4-1.1,3.7-1.1c-0.4,3.4-3.4,4.2-3.4,5.7c0,1.9,2.4,3.4,2.4,6c3.4,0,2.4-0.8,4.4-2.3c0,4.5,2.4,4.2,2.4,8
		c0,4.5-2,9-5.4,9c-2.4,0-3-3-3-4.5c-1,0-1.7-0.7-2.7-0.7c-2.7,0-0.7-7.2-3.4-10.2c-2.7,4.6-5.7,10.2-9.8,10.2c-0.7,0-2,0.7-2,0
		c0-3.8,2.7-3.8,3.7-6.1c-3.4,0-7.7,2.3-9.4-1.5c-2.4,1.1-4.4,1.9-6.7,1.9c-4.4,0-6.4-2.6-10.1-2.6
		C1305.7,1097.7,1304.3,1099.9,1300.3,1099.9z"/>
	<path class="st0" d="M1077.9,1020.9c5.7,0,11.5,1.1,11.5,6.4c0,0.3-1.3,0-1.7,0c-3,0-7.8-1.5-9.8-3.8
		C1078.3,1022.8,1078.3,1021.7,1077.9,1020.9z"/>
	<g>
		<path class="st0" d="M1324.9,1013.4c-2.7,0,1.2-3.7-2.7-5.7v-4.6c-7.7,4.9-24,11.4-32.1,11.4c-1,0-3-0.8-3.3-1.5
			c6.7-4.2,25.5-7.1,27.5-14.2c0.3-1.9-2.6-2.4-2.9-4.3c-8.1,1.1-25.3-3.1-25.3-15.9v-1.2c-7.4,0-11.8-5.3-16.2-9.1
			c1.7-1.1,5.1-2.3,5.1-6.8c0-3.8-3-6.8-2.4-10.6c-3.1-1.1-14-8.9-11.1-15.9c3.5-8.6-10.8-10.6-11.8-20.8c-1,0-4.4-3.4-5.8-4.9
			c-2.4,1.9-7.7,5.3-7.7,10.6c0,5.7-10.8,19.7-19.2,19.7c-6.1,0-7.1-8.3-11.1-8.3c-5.8,0-8.1-18.5-9.1-26.5
			c-1.3-10.6-19.6-3-19.6-17c-9.5-1.5-11.4-14.4-20.9-14.4c-4.4,0-4.4,3.8-9.5,3.8c-9.8,0-15.8-6.4-25.3-6.4
			c-5.1,0-10.1,2.7-10.1,9.4c0,3.8,11.9,9.3,1,17c-4.3,3,6.2,11.4,6.8,17c1.2,11.2-8.3,14-12.7,15.9c7.8,14.8,19.5,19.6,19.5,44.6
			c0,6.8-20.2,23.8-27,25.3c11.7,6.7,7.1,27.3,11.8,33.7c-1.3,2.3-5.7,4.9-6.1,9.1c-4,0-7,7.4-10.1,4.5
			c-8.4-7.5-20.2-19.3-20.2-30.2c0-12.1,2-21.6-7.4-28.4h-21.9c-12.5-10.2-26.7-16.3-41.5-22.7c-2.7-1.1-10.5-7.5-15.2-7.5
			c-5.1,0-7.4,5.7-12.5,5.7c0-9.1-5.4-30.3-12.8-30.3c-3.4,0-5.1,3-8.4,3.8c1.4-4.6,0-6.1,0-17c0-15.1,4.1-24.2,11.8-32.9
			c2.7-3.1,8.4-17.8,11.1-18.9c5.7-2.3,15.9,1.5,15.9-7.6c0-5.7-12.9-6.1-17.7-9.1c3,1.1-7.2-6.6,20.3,2.8c7.1,2.4,2.8-8.1,6.8-8.1
			c0.7,0,3.4,0,7.4,0c8.1,0,12.5-9.4,17.9-14v-5.7c-11.4-3-22.9-1.1-28-12.5c0,0,3.7,0,6.1,0c4.4,3,8.8,8.7,15.2,8.7
			c5.4,0,15.2-7.9,15.2-12.5c0-1.5-5.1-8.3-2.4-8.3c7.4,0,10.2,7.6,14.8,7.6c3.1,0,5.1-3,11.2-3c-1.7-2.3-0.1-9,4-1.9
			c2.2,3.8,19.6-12.9,19.6-17.8c0-3.4-7.8-7.2-7.8-9.5c0-2.6-4.6-8.7,6.1-14.4c1.3-3.4,0-3,0-9.4c-10.8,0-8.1-9.5-21.9-9.5
			c-3.1-0.4-5.4-2.7-8.4-2.7c-4.1,0-8.4,3-8.4,7.6c0,4.9,5.1,6.8,5.1,10.2c0,3.8-7.8,3.8-9.5,7.5c-2.7,6.4-1.8,11.5-6.7,18.5
			c-7.6,10.9-17.6-6.7-17.6-10.9c0-4.9,5.8-3.8,5.8-9.4c0-2.6-9.8-13.2-12.5-13.2c-9.8,0-3,16.3-13.5,16.3c0-6.4-0.7-11-7.8-14.7
			c1-1.9,1.7-3,3.4-4.5c-5.4-3.8-12.8,0-16.9-5.7c2.4-1.5,8.4-4.1,8.4-9.1c0-7.2-9.9-6.9-10.1-12.5c-0.3-11.8-7.7-19.3-20.9-19.7
			c-6.4-0.1-3.7,4.6-3.3,8.4c-4.1,1.1-9.4,0-9.4,5.7c0,3.8,2.7,5.7,2.7,9.5c0,3.8-4.4,3.4-4.4,8.7c0,12.5,22.9,4.9,22.9,17.8
			c0,2.3-2.7,11.3-2.7,11.3c2.4-1.5,4.4-2.2,7.1-3.8c4.4,15.5-17.9,7.9-17.9,26.5c-11,3.3-2.4-9.1-5-13.2c-1-1.9-10.1-4.5-15.2-4.5
			c-6.1,0-8.4,4.2-8.4,12.1c-5.7-0.8-9.4,0-28.7,0c-18.2,0-39.5-7.2-43.8-22.7c-6.1,1.9-26.3,2.2-26.3,10.6c0,2.6,1.5,4.1,4.3,4.1
			c5.4,0,14.3-3,18.3-6c1.4,12.5-15.8,2.3-15.8,15.1c0,2.6,3.7,11.3,2,11.3c-6.7,0-8.1-9.4-13.8-12.4l-5.1-2.7c-8.1,0-13.5,0-21.6,0
			c-6.8,0-11.1,3.1-18.6,3.4c-13.4,0.7-13.4-4.8-13.4-5.9c0-3.4,10.3-2,12.3-4.3c-9.4-14.6-7.7-12.3-27-10.6
			c-20.5,1.8-30.7-17-51.3-17c-6.4,0-9.1,4.9-14.5,4.9c-3.7,0-7.4-7.2-8.1-10.2c-6.4,1.5-6.4,9.8-13.1,9.8c-6.4,0-15.5-17-17.5-17
			c-6.8,0-4.4,10.9-11.5,10.9c-2.7,0-5.1-2.3-6.1-5.3c-10.4,2.6-14.1,3.4-23.6,7.5c-3.7,0.8-12.5,8-15.5,4.9
			c-8.8-9.3-7.3,2.5-10.5,2.6c-22,0.9-6.7,9.8-9.8,9.8c-8.4,0-23.6-1.9-37.5-11.3c-0.6-0.4-4.7-3.8-4.7-4.9c-2.4,1.6-0.7,0.8-4,0
			v0.4c-8.4-3-11.5-7.6-21.3-7.6c-6.1,0-9.8,2.6-15.9,2.6c-10.4,0-31.3-1.9-38.1-9.4h-26c-4.7-2.7-6.1-4.5-10.1-7.6h-16.9
			c-3.1-1.2-4.1-2.3-7.8-3.8c-1.7,3-5,5.7-8.4,4.9c1-1.9,1.4-2.6,3-4.9c-4.4-1.5-6.1-5.7-10.4-5.7c-5.7,0-9.1,8.3-14.5,10.6
			c-4.7,1.9-7.8-0.8-12.5,0.8c-17.9,6.4-33.1,20.8-43.2,35.9h-18.6c-0.3,1.2-5,10.6-5,10.6c0,2.6,13.8,5.7,17.9,8.3
			c3.4,2.2,7.4,13.6,10.1,15.1c9.8,5.3,16.9,6.1,20.3,18.2c-4,1.1-4.7,0-9.4,0c-7.1,0-12.5,3.4-12.5-8.7h-6.1
			c-8.1,6-21.9,10.9-30.4,16.6c1.7,3.8,4.7,6.1,10.1,6.1c-0.3,1.1-1,2.6-1,3.8c0,3.4,4,4.9,4.4,10.6c2.7,0,10.8,0,17.9,0
			c5-1.1,7.4,2.6,14.2,2.6c7.1,0,9.1-6.4,14.5-6.4c2,0,2-0.4,5.1,0v5.7c-2.3-1.5-1.7-1.9-5.1,0.4c0.3,1.1,5.7,6.4,5.7,9
			c0,4.9-22.9,15.2-26,15.2c-7.1,0-25.3,9.4-25.3,20.8c0,6.1,10.8,7.9,13.5,16.3c-1.7,0-3.4,1.2-5.1,1.2
			c2.4,3.4,18.2,17.4,22.6,17.4c1.3,0,4-6.4,6.7-6.4c3,0,2.7,4.5,2.7,5.7c0,3,0,3,0,7.5c0,3,1.4,9.5,3.4,9.5c1.3,0,3-3,5.1-3
			c1.7,0,1,0,4.1,0c0-1.5-0.3-3.4,0.3-5.7c5.7,4.9,8.1,7.2,16.2,10.6c0.3-2.7,1.4-3.8,2.4-6.8c3.4,1.1,5,3,9.1,3
			c5.1,0,7.4-2.6,12.5-4.9h5.1c-8.1,5.7-8.1,17-15.9,22.7c-8.1,6.1-21.3,12.5-27,20.8c-4.1,5.7-10.5,1.9-16.2,5.7
			c-3.7,2.3-6.8,9.8-10.8,12.5c-5.7,3.8-12.1,0.7-16.2,7.9c14.2,4.5,20.9-11.3,33.1-13.6c9.8-1.5,21.9-5.7,27-11.3
			c5.4-6.1,16.9-9.8,21.9-17c2.7-3.8,4.1-7.6,8.4-9.5c7.7-3.4,15.2-6.4,15.2-15.1c0-1.9,0-3.8,0-5.7c0-12.5,22.3-33.3,30.4-33.3
			c1.7,0,1,0,4.1,0c0,1.1-0.3,2.7-0.3,3.8c-9.8,3.4-14.9,9.9-14.9,18.2c0,1.9-1.3,1.9,0.4,4.5c-0.7,0.4-2.7,0.8-2.7,3
			c0,1.5,2,2.7,3.4,2.7c7.8,0,29.4-13.7,33.7-21.2c-1.7-1.5-2.4-2.7-3.4-5.3c3.1-1.9,9.8-3.8,13.8-5.7c5.7,13.2,20.6,14.8,31.7,18.9
			h18.6c10.1,6.4,21.6,6,30.4,13.3c4,3.4,8.8,14.3,15.9,14.3c2.7,0,4-3.8,5-6.8c2.7,3,5.1,5.6,10.1,5.6c1.3-2.6,4.4,0.8,6.1,2.7
			c-1,1.9-3.4,3.4-3.4,7.9c0,2.3,3.7,5.7,5.1,5.7c4.4,0,2.7-4.5,9.1-4.9c0,0.8,0,2.3,0,4.9c0,3-5.1,3.4-5.1,6.4
			c0,2.3,1.4,5.7,6.1,5.7c6.1,0,10.1,0,10.1,5.7c0,3.4,0,2.3,0,5.7c0,4.2,8.4,11.4,14.2,11.4c1.7,0,1.7-0.4,3.4-0.4c0,1.9,2,3,2,5.3
			c0,4.9-1.4,15.1,3.4,16.6c2.7,0.7,5.4,0.7,7.4,3c3,3.4-0.7,8.4,3.4,11.4c0,0,8.8,6,9.1,7.2c2.4,8.7,3.1,18.9,14.5,18.9
			c1.7,7.6,13.5,2.6,16.2,12.5c1,3.8,9.5,4.5,12.8,8.3c0.7,0.8,2.4,1.6,3.7,2.3c1.3,3.8,4.4,4.9,4.4,8.7c0,3.4-3,8-4.7,10.2
			c-1.7-3.4-4.8-6.4-9.8-6.4c-1.3,0-5.1,0.4-5.1,2.6c0,8.3,8.4,11.7,8.4,20c0,11.7-8.9,33.2-5.7,42.4c3.2,9.5-0.3,23.4,3.4,31.8
			c-2,1.5-5.1,3.9-3.4,7.2c5.8,11.2,13.2,28,20.2,29.1c-1.7,15.5,7.8,20.1,12.5,33.3c1,3,0,7.2,2.7,8.3
			c12.1,5.3,29.4,13.2,34.4,24.5h-0.7v2.7c2.4,8.7,5.4,11,8.4,17.8c2,4.6,1.8,15.1,5.8,18c5.9,4.3,11.4,12.3,16.4,20.4
			c2.9,4.7-5,3.3-6.7,3.3c3.4,5.7,10.8,4.5,15.5,9.8c3.4,3.8,6.1,7.9,9.8,12.1v9.9c1,1.9,1.3,1.9,3.4,3.4c3.7,2.7,7,11.6,13,11.6
			c0.4,1.5,4.8,8.1,5.5,8.1c1,0,2.4-3.8,2.4-5.7c0-3-4.1-9.4-6.8-6.4c-6.1-4.5-8.1-14.4-10.8-23.5c-2.4-7.9-9.1-12.1-11.5-20.8
			c-1.7-6.4-2.4-10.2-7.1-15.5c-3.4-3.8-7.8-3.8-10.1-9.5c-2.7-6.4-6-11.3-6-19.3c0-1.1-0.3-3.4,0.7-4.9c4.4,4.9,9.8,4.5,15.5,7.6
			c2.7,1.5,2,9.9,5.1,13.3c3,3.4,2,9.8,5.1,13.2c3.7,4.1,7.1,8.3,11.5,13.2c1-1.1,0.7-0.7,3.7,0c0,9.1,10.5,9.9,13.5,16.6
			c1.7,4.2-0.7,8,2,11c3.4,3.8,8.8,5.3,12.1,9.1c7.4,8.3,18.9,19.3,22.9,32.9c0.7,2.6,3.4,3.8,3.4,8.7c0,4.1-3.4,6.4-3.4,10.6
			c0,3.4,2,7.6,5,7.6c1,4.9,11.5,7.5,15.5,12.1c1,1.1,1.7,1.5,3.7,2.6c4.4,2.3,6.7,1.5,11.1,3.8c4.7,2.7,5.7,7.2,10.4,8.7
			c3.7,1.1,6.1-1.1,9.8,0.8c3.4,1.9,14.8,10.9,18.9,10.9c2.7,0,5.1-0.8,7.8,0.8c1.3,0.8,4.1,3.4,6.7,3.4c5.7,0,6.7-7.5,12.8-7.5
			c2.7,0,4.7,1.2,7.4,3h2c9.1,4.9,10.5,13.6,20.9,19.3c6.8,3.8,11.5,1.9,17.9,5.3c4.4,2.3,7.8,6.4,14.2,6.4c2.3,0,4-1.9,6.4-1.9
			c0.7,0,1.3,0,2,0c2,9.1,7.7,12.5,13.1,18.6c1.7,1.9,3.4,2.7,4.4,6.4c1.7,5.7-1.7,11,3.4,14.8h3.4c-0.7-0.8-0.7-2.3,0-3.4
			c0.3,0,11.8,7.9,12.8,10.2c1.3,3,1.3,6.8,6,8c0,0.8,1,2.3,1.7,2.3c2.4,0,7.8-2.3,10.1,0.4c2.7,3,6.1,10.2,11.5,10.2
			c2.7,0,4.4-1.9,5.1-5.7c-0.7-0.4-2.7-1.9-2.7-3.4c0-2.3,9.5-9.8,11.8-9.8c3.7,0,4.7,4.9,8.4,6.8c-0.7,1.5-2,2.3-2,3.8
			c0,1.1,3.1,2.1,3.8,2.9c0.8,0.5,8-8,8.4-9c-5.4-4.5-9.5-12.1-19-12.1c-8.1,0-12.5,7.6-21.2,7.6c-5.7,0-5.7-7.2-9.5-9.1
			c-5.4-3-12.5-6.4-12.5-14.8c0-6,0-14.3,0-23.1c2-3.8,2.4-13.2,2.4-16.6c0-1.9,0-3.8,0-5.7c-6.1-1.5-8.1-7.9-16.2-7.9
			c-11.8,0-20.9,2.2-32,2.2c-2,0-4-1.5-4-4.1c0-0.8,0-1.1,0-1.9c2-2.3,6.1-3.8,6.1-7.6c0-5.3,0-14,0-18.2c1,0,1.7,0,2.7,0
			c0,0.8,0,1.9,0,2.7c2-3.8,4-6.4,4-12.5c0-7.2,5.7-14,5.7-19.3c0-1.2,0-2.3,0-3.4c-2,0-6.4-0.4-7.7-0.8c-1.4-0.7-3.7-1.1-6.7-1.1
			c-9.1,0-20.2,3.7-20.2,14.7c0,5.7-5.7,10.6-7.1,15.1c-0.3,1.5-2,6.1-4.7,6.1c-1.3,0-2.7-2.3-6.4-2.3c-6.8,0-12.2,5.3-18.6,5.3
			c-2.7,0-2.7-3.4-5.7-4.5c-8.8-3-8.8-9.4-14.8-16.3c-2.4-2.7-6.7-7.9-8.1-11c-1.3-3.4,0.3-5.6-1-9c-0.7-1.5-3.4-4.6-2.7-7.6v-21.2
			c1-5.7,3.4-8.3,3.4-15.1c0-2.3-0.7-3.8-1.3-6.1l-0.2-0.9c0.3,0,0.6,0.1,0.9,0.1c0-1.1-1.7-2.6-1.7-3.8c0-11.4,4.4-21.6,11.8-24.6
			c3.4-1.5,6.4,1.1,9.1-1.9c4-4.5,8.8-14,18.5-14c3.7,0,5.7,3.8,9.4,3.8c2,0,3-3,5.1-3c6.7,0,14.9,12.8,24.3,7.6
			c-4.1-3-1-6.4-0.7-12.1c-2,1.1-1.3,1.1-4.7,0c5.7-2.3,12.8-1.5,18.2-3c0,1.1,1.4,3,2.4,3c2.7,0,3.7-3,8.4-3
			c8.1,0,11.8,8.7,17.9,8.7c3,0,4.4-4.9,7.4-4.9c14.8,0,10.8,23.1,16.2,35.2c2.7,6,6.1,7.9,10.1,14c2,3.4,1.7,9.4,6.7,9.4
			c5.7,0,7.4-7.2,7.4-15.1c0-6.8-3-10.6-4.1-15.1v-1.9c0-12.1-9.4-15.9-9.4-28.4c0-27.5,20.2-34.7,36-44.7l-0.9-0.7
			c2-2.3,1.7-3.4,5.7-4.9c2.7-0.8,4.4-3.7,8.4-4.5c1.9-0.4,3-2.7,4-4.2l-4-2.6v-3c3,0,4.6,0.3,5.2-3.8c-1.7-0.4-3.3-0.7-4.6-3.3
			c1.7,0,4.5-1.6,4.5-4.6c0-1.1,0-2.7,0-3.8c-0.7,0-1.7,0-2.4,0c-2-2.3,0-1.9,0-5.7c0-3.8-1.7-10.6-1.7-13.2c0,0-0.3-3,0.4-4.9
			c0.7,3.8,3.7,9.9,3.7,12.5c0,1.5,0,2.6,0,4.1c0,0.8,0.7,2.3,1.4,2.3c1,0,7.7-13.2,7.7-15.5c0-3-2.3-4.2-3-7.2l1.7-1.9
			c0.7,0.7,1.3,3,2.3,3c2.4,0,8.8-13.2,9.4-16.2c0,0-3-2.6-3-4.6c0-1.1,1-2.2,2-2.6c1,0,2,0.4,3,0.4c4.7,0,8.1,0,12.8-1.9
			c-2.4-1.9-5.4,0-8.4,0h-3.4c6.7-4.9,18.2-2.7,25-8.3c1.3,1.5,7.1,0,11.1-1.2v-2.6c0,0-3,2.6-3.7,2.6c-2,0-3.4-4.9-3.4-6.8
			c-1-0.4-1.4-2.3-1.4-3.4c0-14.3,11.5-18.5,16.9-24.6c3.4-1.9,3.7,0,7.8,0c4.7,0,8.4-2.3,10.8-6.4c-0.6-0.9-1.1-1.9-1.5-2.9
			l-0.2-0.9v-1.1c0.7,0.4,2.4,0,3.4,0c2,0,10.5,1.5,13.5-0.8c3-2.3,3-7.2,8.1-7.6c0,5.3-0.3,5.7,5.1,5.7
			c-7.7,0.8-19.9,6.8-19.9,15.2c0,3.4,4.7,9.5,6.7,9.5c2.7,0,8.9-10.2,15.7-12.4c1.7-0.4,24.8-10.3,24.8-13.3
			c0-4.2-8.8-4.5-10.8-4.5c-9.8,0-25.3-10.6-25.3-20.1c0-2.2,2.7-5.3,3.4-9.1c-1.7,0-5.4-1.1-8.5-1.1c2-3,14.2-4.9,14.2-12.5
			c0-7.2-10.4-5.7-17.5-5.7c-14.8,0-21.6,11.7-31.7,13.2c4.4-10.2,11.5-6.8,18.9-15.1c4.7-5.3,1.4-8.7,8.4-11.4
			c12.8-4.5,20.3-1.9,33.1-1.9c16.9,0,26.1,6.2,36.1-8.3c4.9-7.1,32-8.7,32-20.8C1330.6,1022.8,1327.9,1019,1324.9,1013.4z
			 M1062.1,1149.5c1-5.3,3.7-8.7,3.7-14c0-4.5-12.5-11.4-15.2-11.4c-5.5,0,0.1,9.2-12.2,10c-3.7,0.2-3.6,11.7-3.6,16.5
			c0,0,0,7.5,0,12.1c0,4.9-1.7,16.3-6.8,16.3c-3.7,0-7.7-3.4-7.7-7.6c0-9.8,2.7-29.1,8.4-37.5c-3.4,0-4.7,3-8.1,5.3
			c0.7-7.6,14.2-18.2,21.6-18.2c2.7,0,10.1,1.9,15.2,0v-4.5c-7.1,0-11.1-4.9-19.2-4.9c-3.7,0-5.1,3.8-9.5,3.8
			c-2.3,0-5.4-1.9-5.7-4.6h-6.7c1.3-3,3.7-4.1,3.7-9.4c-5.1,1.1-11.1,8.3-14.8,8.3c-3,0-3.4,4.9-9.1,4.9c-2.7,0-3.7-0.4-5.1-3.8
			c-2.4,0.4-3.7,1.5-6.1,2.7h-5.1c7.8-10.9,17.2-14.7,26.3-21.5c4.4-1.5,5,0,8.8-1.9c3.4-1.9,2-7.9,5.4-7.9c4,0,6.7,6.8,8.1,8.3
			c0.7-1.5,0.3-4.6,0.3-5.3c1,0,1.7,0,2.7,0c2,0,16.2,12.9,16.9,14.4c2,4.6,0,8.4,2.7,11.3c7.7,8.7,18.2,6.8,26.6,12.9h8.8
			c4,3,9.1,6.8,9.1,12.5c0,2.6-1.3,4.5-3.4,4.5c-4,0-8.1-4.9-9.4-6.4c-1.4,6.1-4.4,24.2-9.1,24.2c-3.4-3-3.4-5.7-4.7-11.7
			C1065.5,1148,1066.1,1149.5,1062.1,1149.5z M1070.8,1180.9c-3.4,0-4.7-5.7-4.7-9.4c1,1.9,3,4.5,5.1,4.5c3.1,0,3.4-2.3,4.7-3.8
			c3-3.4,8.1-3,12.8-3c4.3,0,6.3,2.6,8,1.6C1089,1175.1,1077.8,1180.9,1070.8,1180.9z M1098.6,1169.7c1.3-0.8,2.6-1.5,3.7-2.1
			c-0.3-1-0.6-2-0.9-3c0.3,1,0.6,2,0.9,3C1101.2,1168.2,1099.9,1168.9,1098.6,1169.7z M1102.9,1158.2c-1.7,0-1.7,0.4-4.1,0.4
			c0.4,0.7,0.8,1.7,1.2,2.7c-0.5-1.3-1.9-2.1-1.9-3.5c0-1.9,3.4-2.7,4.4-3c7.4-2.7,23.3-7.2,31.7-7.2
			C1134.2,1161.8,1112.7,1158.2,1102.9,1158.2z M1101,1163.8c-0.2-0.7-0.5-1.4-0.7-2C1100.6,1162.4,1100.8,1163.1,1101,1163.8z
			 M1220.4,1132.6c0.2,0.5,0.3,1,0.6,1.6C1220.7,1133.6,1220.6,1133.1,1220.4,1132.6z M1216.7,1106.3c-0.4-1.4-0.9-2.7-1.6-4
			C1215.8,1103.6,1216.3,1104.9,1216.7,1106.3z M1219.7,1130.2c-0.1-0.6-0.3-1.2-0.4-1.8C1219.5,1129,1219.6,1129.6,1219.7,1130.2z
			 M1219,1125.9c-0.1-0.7-0.1-1.3-0.2-2C1218.9,1124.5,1218.9,1125.2,1219,1125.9z M1218.6,1121.1c-0.1-1.2-0.2-2.4-0.3-3.6
			C1218.4,1118.8,1218.5,1119.9,1218.6,1121.1z M1218.2,1115.3c-0.1-0.9-0.2-1.8-0.3-2.7C1218,1113.4,1218.1,1114.4,1218.2,1115.3z
			 M1217.7,1110.7c-0.2-1-0.4-1.9-0.6-2.8C1217.3,1108.8,1217.5,1109.7,1217.7,1110.7z"/>
		<path class="st0" d="M593.4,998.2c1.7,0,2.7-1.1,2.7-3.8c0-8.3-9.1-9.5-8.1-19.7c-7.1-1.5-8.8-1.5-8.8,7.6c4.1-3,2-1.1,7.4,0
			c-1,1.9,0,4.9,0,7.6C586.7,990.3,590.4,998.2,593.4,998.2z"/>
		<path class="st0" d="M569.2,960.4c-0.7,0.4-3.4,1.1-3.4,0c-1.7-6.1,0-6.1,0-15.9c-4.7,3-1.7,0-7.7,0c-1.3,0-4,0.7-4,3.8
			c0,5.7,4,10.6,9.1,11.3c0,6.1,1.4,10.6,5.4,15.1C571.9,971,568.5,965.7,569.2,960.4z"/>
		<path class="st0" d="M649.5,1075.8c5.4,3.8,17.2,14,24.9,14c1,0,2,0,3,0v-3.4c-8.8-9.8-16.9-18.9-31.4-24.2
			c-2.4-0.8-5.4-5.3-9.1-5.3c-1.7,0-3.3,1.1-4.7,1.9h1.4c0,0,3.3,1.1,5,1.5c-0.4,1.1-1.7,2.6-3.4,3.4c1.3,4.5,10.8,8.3,17.5,8.3
			C651.8,1073.1,650.2,1073.1,649.5,1075.8z"/>
		<path class="st0" d="M598.9,1024.3c0-1.9-1.7-2.6-1.7-4.5c0-3.8,0.7-6.1,0-8.3c-0.7,1.9-2,4.9-4.4,4.9c-2,0,2-4.1,2-4.5
			c-3-0.4-4.7-2.6-7.8-2.6v3c1.4,2.2,2.7,6.8,4.1,6.8c2,0,2.7,4.2,5.4,4.9c0,0.8-1.4,1.9-1.4,4.2c0,3,2,7.2,4.7,7.2
			c3.4,0-2.7-5.6-2.7-7.2C597.2,1026.6,598.9,1025.9,598.9,1024.3z"/>
	</g>
	<path class="st0" d="M397.1,952.1c2.4,0,2.4,0,4.1,0v4.5c-6.1,3.4-8.1,6.1-13.2,10.6c-3-2.7-4.7-3-7.1-5v-4.5
		C386.7,955.9,391,952.1,397.1,952.1z"/>
	<path class="st0" d="M1266.9,1079.1c2.7,0,3.7-0.4,4.7-2.2c-7.1-4.5-13.5-11.7-24-9.1C1251.7,1071.2,1261.5,1079.1,1266.9,1079.1z"
		/>
	<path class="st0" d="M265.5,915c1.4-3.4,2.4-2.6,5.1-2.6c4.1,0,4.4,2.6,5.1,6.4h-11.2c-1.3-1.1-3.4-2.3-4-3.8H265.5z"/>
</g>
</svg>
