<?xml version="1.0" encoding="utf-8"?>
<!-- Generator: Adobe Illustrator 22.0.0, SVG Export Plug-In . SVG Version: 6.00 Build 0)  -->
<svg version="1.1" id="Capa_1" xmlns="http://www.w3.org/2000/svg" xmlns:xlink="http://www.w3.org/1999/xlink" x="0px" y="0px"
	 viewBox="0 0 425.2 425.2" style="enable-background:new 0 0 425.2 425.2;" xml:space="preserve">
<style type="text/css">
	.st0{fill:#1E1E1E;}
	.st1{fill:#E76114;stroke:#FFFFFF;stroke-miterlimit:10;}
</style>
<rect class="st0" width="425.2" height="425.2"/>
<g id="Paquete_de_vectores:_motivo_de_puntos_15">
</g>
<g id="Paquete_de_vectores:_motivo_de_puntos_15_1_">
</g>
<g id="Paquete_de_vectores:_motivo_de_puntos_03">
</g>
<g>
	<g>
		<path class="st1" d="M267.3,85.7c0.1,0.1,0.1,0.1,0.2,0.1C267.5,85.8,267.4,85.8,267.3,85.7z"/>
		<path class="st1" d="M267.3,85.7c-0.1-0.1-0.2-0.1-0.2-0.2C267.1,85.6,267.2,85.6,267.3,85.7z"/>
		<path class="st1" d="M275.7,281.1L275.7,281.1L275.7,281.1z"/>
		<path class="st1" d="M267.1,85.5c-0.1-0.1-0.2-0.2-0.3-0.3l0,0C266.9,85.3,267,85.4,267.1,85.5z"/>
		<path class="st1" d="M192.2,96c0-0.1,0-0.2,0-0.2C192.2,95.9,192.2,95.9,192.2,96z"/>
		<path class="st1" d="M192.2,95.7c0-0.1,0-0.1,0-0.2C192.3,95.6,192.3,95.6,192.2,95.7z"/>
		<path class="st1" d="M267.7,86c0.1,0,0.2,0,0.3,0.1C267.9,86,267.8,86,267.7,86z"/>
		<path class="st1" d="M268.1,86.1c0.1,0,0.2,0.1,0.3,0.2C268.3,86.2,268.2,86.1,268.1,86.1z"/>
		<path class="st1" d="M269.2,87.1c-0.3-0.3-0.5-0.6-0.8-0.8C268.6,86.5,268.9,86.8,269.2,87.1z"/>
		<path class="st1" d="M267.7,86c0,0-0.1,0-0.2-0.1C267.6,85.9,267.7,86,267.7,86z"/>
		<path class="st1" d="M277.3,279.1c0,0.1-0.1,0.2-0.1,0.3C277.2,279.2,277.3,279.2,277.3,279.1z"/>
		<path class="st1" d="M276.1,280.8c0,0-0.1,0.1-0.2,0.1C276,280.9,276.1,280.9,276.1,280.8z"/>
		<path class="st1" d="M277.8,278c-0.1,0.1-0.1,0.2-0.2,0.3C277.7,278.3,277.8,278.1,277.8,278z"/>
		<path class="st1" d="M277.1,279.5c0,0.1-0.1,0.1-0.1,0.2C277,279.7,277.1,279.6,277.1,279.5z"/>
		<path class="st1" d="M254.9,261.6c-0.1,0.4-0.2,0.7-0.2,1.1C254.7,262.4,254.8,262,254.9,261.6z"/>
		<path class="st1" d="M278.1,277.4c-0.1,0.1-0.1,0.3-0.2,0.4C278,277.7,278,277.6,278.1,277.4z"/>
		<path class="st1" d="M277.6,278.6c0,0.1-0.1,0.2-0.1,0.3C277.5,278.8,277.5,278.7,277.6,278.6z"/>
		<path class="st1" d="M276.6,280.4c-0.1,0.1-0.2,0.2-0.3,0.3C276.4,280.6,276.5,280.5,276.6,280.4z"/>
		<path class="st1" d="M276.6,280.4c0-0.1,0.1-0.1,0.1-0.2C276.7,280.3,276.6,280.4,276.6,280.4z"/>
		<path class="st1" d="M354.4,141c0.2-1-2-4.7-2-4.7L350,134l-4.2-0.4h-5.1l-3.8-2.1l-1.3-1.6l-2.4-2.5l-2.2-2.3
			c-1.5-1-3.3-1.9-3.3-1.9s-1.8-0.2-2.4-0.2c-0.7,0-2.2,0-2.2,0s-1.8,0.2-2.4-0.8c-0.7-1-3.3-3.1-4-2.9s-1.3,0.8-4,0.6
			c-2.7-0.2-4.6-0.4-5.1,0.2c-0.4,0.6-1.8,1.9-2.7,2.9c-0.9,1-0.9,2.5-2.4,2.3s0.9-4.5,0.9-4.5c0.2-1.6-3.5-5.3-3.8-6
			c-0.2-0.6-5.7-2.5-5.7-2.5s-1.5-0.8-2.2-1s-1.5-1.6-2.7,0c-1.1,1.6-2.4,4.9-4.2,6.8c-1.8,1.9-2.9,3.1-2.9,3.1
			c-2.2-0.4-3.1-1.4-3.8-2.3c-0.7-0.8-0.7-1.6-2.2-1.9c-1.5-0.2-4.2-0.8-4.2-0.8s-1.9-0.5-2.6-0.2c-3.1,1-5.8,0-5.3-1
			c0.4-1,4.4-2.9,6.6-3.7c2.2-0.8,3.5-2.9,3.5-2.9l2.4-2.5l2.2-4.3l-1.5-4.5l-4.6-3.5l-2-4.5c-0.2-0.7-0.7-1.5-1.2-2.1
			c-0.8,0.7-1.6,1.6-1.7,2.1c-0.1,1.2,1,0.8,0,2.9s-2.1,2.6-2.7,3s-1.2,0.7-2.9,1.2c-1.7,0.5-2.4,0.9-3.4,0.7c-1-0.2-3.1,0.9-3.5-1
			c0-0.3-0.1-0.5-0.2-0.7c-1,0-2.4-0.3-3.3-0.1c-1.1,0.3-2.9,0.4-3.6,0.9c-0.8,0.5-5.3,3.8-6.1,2.6c-0.4,0.4-1,0.9-1.9,1.4
			c-1.9,1-2.8,0.8-4.3,0.7c-1.5-0.1-2.8-0.4-3.9-1.8c-1.1-1.4-1.5-2.6-1.5-4.6c0-2.1,0.7-2.3,1.5-3.5c0.9-1.2,0.2-2.5,0-3.6
			s-1.8-1.5-1.8-1.7s0.4-1.6,0.4-2.1s-0.1-1.7-1.9-2.8c-0.7-0.4-1.5-0.2-2.3,0.3c0.2,0.2,0.3,0.3,0.3,0.3s0.4,0.7-0.8,1.9
			c-1.2,1.1-7.6,2.9-8,3c-0.3,0.1,0.6,1-1.5,1.1s-4.4-0.4-5.3-0.6c-0.9-0.2-1.6-0.5-2.1-0.5c-0.6,0-1.7-1.5-2-0.5s0.8,0.9,1.1,1.6
			s-0.1,1.6,1,2.8c1.1,1.1,1.2,2.4,1.5,3.1s1.5,3,1.5,3s0.7,0.8,0.1,1.4c-0.6,0.6-1.8,1.8-2.7,2.1c-0.9,0.3-4.4,0.7-5.2,1
			s-1.5,0.7-2.3,1.1s-2.8,1.1-3.6,0c-0.9-1.1-1.6-1.8-2-2.4c-0.4-0.5-2.9-1.4-3.3-2.1c-0.3-0.3-0.6-0.6-0.9-1.2c0,0.1,0,0.3,0,0.4
			c0,1-0.1,1.8-2.1,2.1c-1.9,0.3-2.7-0.4-3.2,0c-0.6,0.4-2.1,1-2.6,1c-0.6,0-0.6-1-1.5,0s-1.5,1.9-1.5,1.9s0.9,0.7,1.6,1
			c0.7,0.3,0.9,1.4,0.9,1.8s-1.9,1.2-1.9,1.2s-0.8,0.4-0.6,0.8s0.9,2.7,0.9,2.7s0.2,1.4,0.7,2.3c0.6,1,0.6,1.4,0.6,2.5
			s-0.9,2.6-0.9,4.9s0,3.6,0,4.4s0.1,0.1,0,1.5s0.4,3.3-1.3,3.3c-0.6,0-1,0-1.4-0.1c-1.2,1.6-3.4,3.1-4.3,3.5
			c-1.3,0.5-0.8,0.6-0.8,0.6s-3.6,2.2-5.7,3.3c-2.1,1.1-3.1,3.8-4.4,4.6c-1.3,0.8-1.5,1.8-2.2,2.9c-0.7,1.1,0.7,2.8,0.9,4.4
			c0.2,1.6,3.3,4.2,6.4,8.3c3.1,4.1,2.4,2.2,3.9,3.1c1.4,0.9,7.6,3.1,7.6,3.1s1.1,1.3,2.3,3l0,0c0,0,3.1-1.9,4.2-1.3
			c1,0.5,0.3,1.7,2.5,0.6c2.2-1,5.3-3.4,6.6-4.2s0.4-0.7,3.5-1.6c3.1-1,4-1,4-1s0.3,2,0.6,3.8c0.3,1.7-1.3,2.4,1.2,4.5
			s3.8,4,6.3,4.7s3.2,1.4,4.3,1.8c1,0.4,0-1.4,4.6,2.1c4.6,3.4,6.9,4.9,8.1,5.5c1.2,0.5,1.3,0.3,2.5,0.7s3.1,2.2,3.4,4.1
			c0.3,1.9-1.8,5.1-1.8,5.1s2.1,2.1,3.4,2.3c1.3,0.3,4.6,0,4.7,1.5c0.1,1.5,0.3,3.5,1,4.6s3.2,2.4,2.7,4.3c-0.6,1.9-1,4.1-1,5.2
			c0,0.3,0.1,0.6,0.1,0.9c1.2,0.9,2.3,2.2,2.1,3.9c-0.4,3.7,1.3,6.6,1.3,7.1s0.6,1.5,1,1.6s1.6,0.1,2.7,0c1-0.1,1-0.2,2.5,0
			s4-0.5,4.3,1c0.3,1.5-0.3,2.3,0,2.9c0.3,0.5,0.6,5.3,2.5,5.2s2.1-1.1,3-0.7c0.9,0.4,1.3,2.5,1.3,2.5s0.6,0.7,1,1.4
			c0.2,0.4-0.2,2.2-0.7,4l0,0c1.4,1.2,3.4,3.5,5,5.7c2.1,2.9-5.6,8.3-9,10.2c-3.3,1.9-2.9,3.1-4.9,4.9c-1,1-1.5,2.4-1.8,3.9l4.8,2.2
			c0,0,1.8,1.4,2.5,1.5s3.7,1.2,4,1.2c0.4,0,3,1,3,1s4.3,1.6,4.7,1.9c0.4,0.3,1.6,1.9,1.6,1.9s-0.7,1.1,0,1.5s1.8,1.8,2.1,2.3
			c0.1,0.2,0.4,0.9,0.7,1.7c-0.1,0.2-0.2,0.3-0.2,0.5c0.7-1.5,1.3-2.9,1.3-2.9c-0.2-2.1,0.2-4.1,0.2-4.1l3.3-5.8
			c0,0,0.8-2.9,1.5-2.1c1.8,2.3,1.1,4.1,0.2,5.6c-0.9,1.4-2.9,3.1-1.8,3.1c2,0,2.9-1,2.9-1l1.1-2.3c0,0,0.4-1.4,0.4-2.3
			c0-0.8,0-2.3,0.2-3.1c0.2-0.8,0.2-1.9,1.1-2.7c0.9-0.8,2.2-1.2,2.9-1.6c0.7-0.4,4.6-7,4.6-7l1.3-3.9l-4.9-4.5l0.7-6.8
			c0,0,3.3-0.6,4.2-2.1c0.9-1.4,1.1-2.5,2.7-3.9c1.5-1.4,2.6-2.3,3.8-3.3c1.1-1,2.4-1.4,3.1-1.9c0.7-0.4,2.2-0.6,3.1-1.4
			c0.9-0.8,2.7-2.1,3.5-1.4c0.9,0.6,1.5,0.8,2.7,0.6c1.1-0.2,2.9-0.2,3.8-1s3.3-2.1,3.3-2.1l1.3-2.9l2.7-3.3c0,0,2.2-0.6,2.9-2.7
			c0.7-2.1,0-7.8,0-7.8s1.3-6.4,1.5-7.2s1.8-9.9,1.5-10.7c-0.2-0.8-1.3-2.3-1.3-2.9c0-0.6-2-4.3-1.8-5.8c0.2-1.4,1.5-5.8,1.5-5.8
			s2.6,0.8,4.2-0.2c1.5-1,2.4-0.8,3.3-3.1s1.3-5.8,2-6s2.4-1.7,3.3-2.3s3.5-3.9,3.5-3.9s1.3-2.5,2.2-3.3c0.9-0.8,3.8-5.1,4-5.8
			C354.6,145.6,354.1,142.1,354.4,141z"/>
		<path class="st1" d="M276.9,279.9c0,0.1-0.1,0.1-0.1,0.2C276.8,280,276.9,280,276.9,279.9z"/>
	</g>
	<path class="st1" d="M191.2,191.5c0.6-4.5,0.7-7.3,0.6-10.3c-0.1-3-1.2-4.2-2.1-6.3c-0.9-2.1-2.1-3.4-3.6-6.6
		c-1.5-3.2-4.6-6.8-4.6-6.8s-6.2-2.2-7.6-3.1c-1.4-0.9-0.8,1-3.9-3.1c-3.1-4.1-6.2-6.7-6.4-8.3s-1.5-3.3-0.9-4.4
		c0.7-1.1,0.9-2.1,2.2-2.9c1.3-0.8,2.3-3.5,4.4-4.6c2.1-1.1,5.7-3.3,5.7-3.3s-0.6-0.1,0.8-0.6c0.9-0.3,3-1.9,4.3-3.5
		c-0.7-0.1-1-0.3-1-0.6c0-0.4,0.4-2.9,0.3-4c-0.1-1.1-1.2-1.5-2.2-2.3s-1.2-1.4-2.4-1.4s-3.1-1.6-4.6-1.1s-3.5,3.7-5.3,0.8
		c-1.8-2.9-4.4-4.4-4.4-5.5s-4-4.1-4.9-4.9c-0.3-0.3-0.9-0.7-1.6-1.1c0,0,0.5,0.4,0.7,2.7c0.2,2.3,0.9,2.3,0,4
		c-0.9,1.6-0.1,2.3-3.6,4.7c-3.5,2.5-5.2,2.2-6.8,3.8c-1.6,1.6-2.7,1.3-3.2,2.6c-0.6,1.3-0.9,1.9-1.2,3.1c-0.3,1.2,0.2,0.9-0.8,2.6
		c-1,1.7-0.7,2.6-1.8,2.4c-1.1-0.2-0.7,0.8-2.4-0.9c-1.7-1.6-3.2-2.5-3.6-3c-0.4-0.5-0.5-0.1-0.7-0.7c-0.2-0.6,0.2-0.3-1.6-2.4
		c-0.6,0.5-1.1,0.8-1.1,0.8s-1.5,2.1-1.1,3.5c0.4,1.4,3.5,8.8,4.2,9.3c0.7,0.4,5.1,5.5,5.1,5.5l2.2,5.3c2,2.1,2.4,3.7,2.9,4.5
		c0.4,0.8,1.8,3.1,2.4,3.9c0.7,0.8,3.5,2.9,3.5,2.9s0.9,2.7,2,3.7s2.9,3.9,2.9,3.9l0.9,5.1c0,0,0.4,1.4,1.8,2.9
		c1.3,1.4,3.1,3.1,3.8,3.5s2.7,2.1,2.7,2.9c0,0.8,0.2,2.3,0.2,2.3s0.9,0,2.4,1.4s7.5,5.1,7.5,5.1s3.3,1,3.5,1.8s4.4,2.9,5.3,3.3
		c0.9,0.4,2.9,0.4,4,1.4c0.3,0.3,0.6,0.6,0.8,1c1.8-1.3,3.9-3,4.6-3.7C190.7,195.9,190.6,196,191.2,191.5z"/>
	<path class="st1" d="M194,90.9c-0.9-1.7-0.4-1.5-1.6-3.6c-1.2-2.1-0.1-3.6-0.1-4.9c0-1.4,0.6-2.6,0.7-3.7c0.1-1.1,0-1-1-1.9
		c-1-1-1.6-0.4-2.7-0.4c-1,0-1.9,1.5-3.1,1.5c-1.2,0-2.5-0.8-4.6-2.7c-2.1-1.9-1.3-2.5-1.9-2.7c-0.6-0.3-1.3,0.1-3.7,0
		s-3.1-0.8-4.9-1.5c-1.8-0.7-0.2-1.6,0-3.4s-0.5-1.9-1.4-3.7s-2.5-1.1-1.9-3.7c0.6-2.6-1.5-1.9,0-3.8c0.9-1.2,3.4-3,5.2-4.3
		c0-0.6,0-1.2,0-1.5c0-0.6,0.9-1.6,1.5-2.1c0.7-0.4,1.6-0.8,2.2-1.2c0.7-0.4,4-1.2,1.5-2.5c-2.4-1.2-3.3-2.1-4-0.6
		c-0.7,1.4-4.2,6-4.2,6h-4.6l-4.2,2.5l-5.1,3.1c0,0,0.2,3.7,0,4.3s-3.8,2.3-3.8,2.3s-1.7,1.6-2.2,2.3c-0.5,0.8-1.2,1.1-1.8,1.1l0,0
		c-0.3,0.2-0.5,0.4-0.5,0.7c0,1.1-0.6,1.4-1,1.9c-0.2,0.2-1,0.9-2,1.6c-0.1-0.2-0.2-0.4-0.4-0.6c0.7,1.1,1.3,2,1.3,2
		s0.9,4.1,1.3,4.9c0.4,0.8,0.2,4.5,0.2,4.5s-1.3,2.5-1.3,3.5s-1.1,2.5-0.7,4.7c0.4,2.3,0.4,4.7,0.2,5.6c-0.2,0.8-2,2.7-3.3,3.1
		c-1.2,0.4-4,1-5.4,1.9c0.4,0.4,0.7,0.7,0.7,0.7s1.8,0.7,3.1,1.6c1.3,1,1.8,0.8,1.8,0.8s2.5,1.4,3.2,1.9s2.8,0.7,2.9,0.8
		c0.1,0.1,2.7,1,2.7,1s3.5,1.8,4.4,2.6c0.9,0.8,4.9,3.8,4.9,4.9s2.7,2.6,4.4,5.5c1.8,2.9,3.8-0.3,5.3-0.8s3.4,1.1,4.6,1.1
		c1.2,0,1.3,0.6,2.4,1.4c1,0.8,2.1,1.2,2.2,2.3c0.1,1.1-0.3,3.6-0.3,4s0.6,0.7,2.3,0.7s1.2-1.9,1.3-3.3s0-0.7,0-1.5s0-2.1,0-4.4
		s0.9-3.8,0.9-4.9s0-1.5-0.6-2.5s-0.7-2.3-0.7-2.3s-0.7-2.3-0.9-2.7c-0.2-0.4,0.6-0.8,0.6-0.8s1.9-0.8,1.9-1.2
		c0-0.4-0.2-1.5-0.9-1.8s-1.6-1-1.6-1s0.6-1,1.5-1.9c0.9-1,0.9,0,1.5,0s2.1-0.5,2.6-1c0.6-0.4,1.3,0.3,3.2,0s2.1-1.1,2.1-2.1
		s0-1,0.3-1.4s1.2-0.5,2.4-1.8C196.1,92.1,194.9,92.5,194,90.9z"/>
	<path class="st1" d="M241.5,88.1c-1.7-2.4-2.8-3.6-3-4.8c-0.2-1.2-2-1.7-0.3-2.4c1.7-0.6,2.4,1.7,3.5,1.1c0.8-0.5,2.5-3.2,3.5-5
		l-0.5-0.2c-2.2-1.4-4-3.3-4-3.3s-2.4-3.3-3.1-3.3c-0.7,0-2.9-1.1-2.9-1.1s-1.8-0.7-2.4-2.4c-0.1-0.3-0.3-0.7-0.6-0.9
		c-0.1,0.2-0.3,0.4-0.5,0.4c-1.5,0.5-2.8,1.1-3.2,1.4s-1.4,2.6-1.4,2.6v1.2c0,0-1.5,0.3-2.2,0.9s-0.8,2.7-0.8,2.7s-0.7,1.9,0,3.1
		c0.5,0.9,2.1,2.3,2.7,2.9c0.7-0.4,1.6-0.7,2.3-0.3c1.8,1,1.9,2.3,1.9,2.8s-0.4,1.9-0.4,2.1s1.5,0.6,1.8,1.7c0.2,1.1,0.9,2.4,0,3.6
		s-1.5,1.4-1.5,3.5s0.4,3.2,1.5,4.6s2.3,1.7,3.9,1.8c1.5,0.1,2.4,0.3,4.3-0.7c1.9-1,2.3-2,2.8-2c0.4,0,1.4,0.5,1.4-1.1
		s-0.2-4.9-1-6.2C242.4,89.6,243.2,90.5,241.5,88.1z"/>
	<path class="st1" d="M258.4,88.5c0.2-0.4-0.5-0.9-0.6-1.4s-0.8-1-1.1-2c-0.3-0.9-0.6-1.8-0.6-2.4c0-0.5,1-1.7,1.1-2.1
		c0-0.1,0.7-0.8,1.4-1.5L256,78c0,0-2.4,0.2-3.1,0.4c-0.7,0.2-5.5-0.6-5.5-0.6l-2.1-1c-1,1.8-2.8,4.6-3.5,5
		c-1.1,0.7-1.9-1.7-3.5-1.1c-1.7,0.6,0.1,1.1,0.3,2.4c0.2,1.2,1.3,2.5,3,4.8c1.7,2.4,0.9,1.5,1.7,2.8c0.8,1.2,1,4.5,1,6.2
		c0,1.6-1,1.1-1.4,1.1c-0.2,0-0.4,0.2-0.8,0.6c0.8,1.2,5.4-2.1,6.1-2.6c0.8-0.5,2.5-0.6,3.6-0.9s2.9,0.3,3.9,0
		c1-0.3,2.3-0.7,2.8-1.2C258.9,93.4,258.2,88.9,258.4,88.5z"/>
	<path class="st1" d="M218,349.9c-1.1-2.9-3.1-5.1-3.8-7.6s-1.3-5.3-1.8-6.2c-0.4-0.8-3.5-12.1-4-13.6c-0.4-1.4-2.7-2.7-2.7-2.7
		s-1.3-8-1.5-10.3s-1.1-2.3-2-5.8s0.9-11.1,0.9-12.9s-0.5-5.1,0-5.8c0.4-0.6-3.1-3.9-3.5-6s-3.8-11.7-4.1-13.2
		c-0.3-1.4,1.2-10.7,2.8-16s0.9-2.9,0.9-4.9c0-2.1-0.2-2.1-0.2-3.5s0-3.9,0.4-7.4s1.1-1.8,1.5-2.9c0.4-1,2.2-3.3,2.2-4.5
		s-0.7-1.2-1.5-3.1c-0.9-1.9-2.4-1.6-4-3.1c-1.6-1.4-1.1-2.3-1.1-3.7s0-4.1,0-5.6c0-1.4-2.7-4.7-3.8-5.8c-1.1-1-1.1-1.6-1.1-1.6
		l-2.9-6.3c-1,0.8-2.6,2.1-4.1,3.2l0,0c0.7,1.1,1.3,2.6,1.8,3.3c0.7,1,0.9,3.9,0.9,3.9s-0.4,2.5-0.7,3.1c-0.2,0.6,2.2,8.8,2.2,8.8
		s0.9,6.2,1.3,6.8c0.4,0.6-0.2,2.1-0.2,4.1c0,2.1-0.2,5.1-0.2,5.1s-0.4,3.1-0.4,3.7c0,0.6-0.7,2.9-0.2,5.3c0.4,2.5,0.4,4.3,0.7,6.6
		c0.2,2.3-0.7,3.9-0.9,5.8c-0.2,1.8-2,2.3-1.3,4.3c0.7,2.1,0.4,4.3,1.8,6.4c1.3,2,2.4,4.3,2.4,4.9s0,1.8,0,3.9c0,2,0,2.9,0,4.9
		c0,2.1-0.2,3.3,0.2,5.1c0.4,1.8,1.8,4.5,1.8,5.8c0,1.2,0.2,2.5-0.4,4.9c-0.7,2.5-1.8,2.5-1.6,4.1s-0.2,3.5,0.7,5.6s1.8,4.9,3.1,6.8
		c1.3,1.8,1.5,3.5,1.5,4.7s-0.2,2.3-0.4,2.9s3.3,1.4,4.2,1.8c2.6,1.2,3.8,1,4,2.3c0.2,1.2,1.1,0.8,0.9,2.5c-0.2,1.6-0.2,2.7-0.2,4.1
		s0.7,1.6,0.7,2.9c0,1.2,1.8,4.3,1.8,4.3l-0.7,4.9c0,0-1.8,2.1-2.9,1c-1.1-1-4.2,0.3-4.2,0.3s-1.8,1.1-1.1,2.2c0.7,1,1.3,1.6,4,2.3
		c2.7,0.6,4.1,2.4,4.4,3.1c1.5,3.3,0.9,1.6,1.5,3.3c0.7,1.6,0.7,3.3,2.9,3.7c0.9,0.2,1.8,0.6,2.5,1c1.9-0.4,4.5-1.1,5.6-1.8
		C221.8,358.5,219.1,352.8,218,349.9z"/>
	<path class="st1" d="M266.2,232.9c-0.4-0.7-1-1.4-1-1.4s-0.4-2.1-1.3-2.5s-1,0.5-3,0.7c-1.9,0.1-2.2-4.7-2.5-5.2s0.3-1.4,0-2.9
		s-2.8-0.8-4.3-1s-1.5-0.1-2.5,0s-2.2,0.1-2.7,0c-0.4-0.1-1-1-1-1.6s-1.8-3.4-1.3-7.1c0.2-1.8-0.9-3.1-2.1-3.9
		c0.1,0.7-0.1,1.2-3.2,0.5c-4.3-1-4.9-1.8-6.8-1.8c-1.9,0-3.5-1.1-5,0.7s-5.5,6.3-5.7,7.5c-0.3,1.2,0,2.1-0.3,3.4
		c-0.2,1.1,0.3,2.4-1.1,3.1l0,0c1.2,0.6,3.9,2.5,4.6,3.5c0.7,1,1,0.8,4.3,2.4c3.2,1.6,1.3,0.7,1.3,0.7s6.5,3.7,7.2,4.4s1.9,0,1.9,0
		s4.3,1,5.6,2.7c1.3,1.8,2.8,5.2,2.1,5.3s-2.8,6-2.7,6.4s2.8,1.5,5.2,1.1s5.2,0.3,9.9,0c4.7-0.3,1.5-2.9,1.5-4s0.9-3,1.2-3.7
		C264.7,239.7,266.6,233.5,266.2,232.9z"/>
	<path class="st1" d="M269.2,87.1c-0.5-0.7-1.1-1.2-1.4-1.2c-0.7,0-4-4.5-4-4.5l-5.2-2.2c-0.7,0.7-1.3,1.3-1.4,1.5
		c-0.1,0.3-1.1,1.5-1.1,2.1c0,0.5,0.2,1.4,0.6,2.4c0.3,0.9,1,1.4,1.1,2c0.1,0.5,0.8,1,0.6,1.4c-0.2,0.4,0.5,4.9,0,5.4
		s-1.8,0.9-2.8,1.2c-0.2,0.1-0.4,0.1-0.6,0.1c0.1,0.2,0.1,0.5,0.2,0.7c0.3,2,2.4,0.8,3.5,1c1,0.2,1.7-0.2,3.4-0.7
		c1.7-0.5,2.3-0.8,2.9-1.2c0.6-0.4,1.7-0.9,2.7-3s-0.1-1.6,0-2.9C267.6,88.7,268.3,87.8,269.2,87.1z"/>
	<g>
		<path class="st1" d="M186.6,199.5L186.6,199.5C186.6,199.5,186.6,199.4,186.6,199.5C186.6,199.4,186.6,199.5,186.6,199.5z"/>
		<path class="st1" d="M187.2,198.9C187.2,199,187.2,199,187.2,198.9C187.2,199,187.2,199,187.2,198.9z"/>
		<path class="st1" d="M242.8,197.6c-0.7-1.1-0.9-3.1-1-4.6s-3.4-1.2-4.7-1.5s-3.4-2.3-3.4-2.3s2.1-3.2,1.8-5.1
			c-0.3-1.9-2.2-3.7-3.4-4.1c-1.2-0.4-1.3-0.1-2.5-0.7c-1.2-0.5-3.5-2.1-8.1-5.5s-3.5-1.6-4.6-2.1c-1-0.4-1.8-1.1-4.3-1.8
			s-3.8-2.6-6.3-4.7c-2.5-2.1-0.9-2.7-1.2-4.5c-0.3-1.7-0.6-3.8-0.6-3.8s-0.9,0-4,1s-2.2,0.8-3.5,1.6s-4.4,3.2-6.6,4.2
			c-2.2,1-1.5-0.1-2.5-0.6s-4.2,1.3-4.2,1.3l0,0c0.8,1.2,1.7,2.5,2.3,3.8c1.5,3.2,2.8,4.5,3.6,6.6c0.9,2.1,2,3.3,2.1,6.3
			s0,5.8-0.6,10.3s-0.4,4.4-1.8,5.6c-0.1,0.1-0.3,0.3-0.5,0.4l2.9,6.3c0,0,0,0.6,1.1,1.6s3.8,4.3,3.8,5.8c0,1.4,0,4.1,0,5.6
			c0,1.4-0.4,2.3,1.1,3.7s3,1.3,3.9,2.9c1-1.2,2-2.5,2.2-3.1c0.4-1.1,3.8,0.1,8.1,0.8s5.4,0.7,8.9,0.5c3.4-0.1,2.5-2.1,2.8-3.4
			c0.3-1.4,0-2.2,0.3-3.4s4.3-5.8,5.7-7.5c1.5-1.8,3.1-0.7,5-0.7s2.5,0.8,6.8,1.8s3.1-0.3,3.1-1.4c0-1.1,0.4-3.3,1-5.2
			C246,200,243.5,198.7,242.8,197.6z"/>
	</g>
	<path class="st1" d="M277.7,275.2c-0.3-0.5-1.3-1.9-2.1-2.3c-0.7-0.4,0-1.5,0-1.5s-1.2-1.6-1.6-1.9s-4.7-1.9-4.7-1.9s-2.6-1-3-1
		s-3.3-1.1-4-1.2s-2.5-1.5-2.5-1.5l-4.8-2.2c-0.3,1.3-0.4,2.6-0.9,3.5c-0.9,1.8-0.2,6.8-0.8,10.2c-0.3,1.7,0.7,4,1.8,5.8
		c1.3,0.3,3.1,0.8,3.4,1.2c0.4,0.6,3.3,2.3,4.4,2.3s1.8,0.6,4-0.2c2.2-0.8,6.2-1.6,6.9-2.1c0.7-0.4,2.2-1,2.9-1.8
		c0.4-0.4,1.1-2.1,1.8-3.6C278.1,276.1,277.8,275.4,277.7,275.2z"/>
	<path class="st1" d="M154,107.8c-1.3-0.8-2.8-1.5-2.8-1.5s-2.7-0.8-2.7-1c-0.1-0.1-2.1-0.3-2.9-0.8c-0.7-0.5-3.2-1.9-3.2-1.9
		s-0.4,0.1-1.8-0.8c-1.3-1-3.1-1.6-3.1-1.6s-0.3-0.3-0.7-0.7c0.4-0.2,0.8-0.4,1.3-0.6l0,0c-0.6,0.3-1.2,0.5-1.6,0.8
		c-1.3,1-2.2,0.6-2.9,1.6s0.7,3.5-0.9,4.3c-1.5,0.8-7.1,7-6.4,7.6s4,2.5,4,2.5s2,0.8,2.4,2.1c0.4,1.2-0.9,3.5-0.9,3.5
		s0.2,2.7-0.7,3.7c-0.5,0.6-1.4,1.3-2.2,1.9c1.8,2.1,1.4,1.9,1.6,2.4c0.2,0.6,0.4,0.2,0.7,0.7c0.4,0.5,1.9,1.4,3.6,3
		c1.7,1.6,1.3,0.7,2.4,0.9c1.1,0.2,0.7-0.7,1.8-2.4c1-1.7,0.5-1.4,0.8-2.6c0.3-1.2,0.6-1.8,1.2-3.1c0.6-1.3,1.7-1,3.2-2.6
		s3.2-1.4,6.8-3.8c3.5-2.5,2.7-3.1,3.6-4.7c0.9-1.6,0.2-1.6,0-4C154.4,108.1,154,107.8,154,107.8z"/>
	<path class="st1" d="M229.5,63.7c-2.4-0.4-5.1-0.8-6.2-1.6c-1.1-0.8-1.3-2.3-1.3-2.3c-0.9-2.1-3.3-4.3-3.3-4.3s-1.1-1.2-2-1.4
		s-4.2-0.6-4.2-0.6c-2.4-0.8-4,1.5-4,1.5l-4.1,1l-3.2-3.1c0,0-2.9-2.4-3.1-1.7c-0.2,0.6-0.7,2.3-2.2,1c-1.5-1.2-3.8-1-4.4-1.4
		c-0.7-0.4-1.5-0.6-2.4-0.8s-0.9-0.4-2.2-0.2s-6.9,0.6-6.9,0.6s-2.4,0-2.6,1.2c-0.2,1.2-0.7,2.5,0,3.9s0.7,3.7,0.7,3.7
		s0.4,2.1-0.7,2.5c-1.1,0.4-2.7,0.6-3.8,0.2c-1.1-0.4-2.7-4.7-2.2-5.3c0.4-0.6,1.6-1.6,1.6-2.9c0-0.6,0-1.2,0-1.8
		c-1.8,1.3-4.3,3.2-5.2,4.3c-1.5,1.9,0.6,1.2,0,3.8s1,1.9,1.9,3.7c0.9,1.8,1.7,1.9,1.4,3.7c-0.2,1.8-1.8,2.7,0,3.4
		c1.8,0.7,2.6,1.4,4.9,1.5c2.4,0.1,3.1-0.3,3.7,0c0.6,0.3-0.2,0.8,1.9,2.7c2.1,1.9,3.4,2.7,4.6,2.7c1.2,0,2.1-1.5,3.1-1.5
		s1.6-0.5,2.7,0.4c1,1,1.2,0.8,1,1.9c-0.1,1.1-0.7,2.3-0.7,3.7c0,1.4-1,2.9,0.1,4.9c1.2,2.1,0.7,1.9,1.6,3.6
		c0.9,1.6,2.1,1.2,0.9,2.5c-1.2,1.2-2.1,1.4-2.4,1.8c-0.2,0.3-0.3,0.4-0.3,0.9c0.4,0.6,0.7,0.9,0.9,1.2c0.4,0.6,2.9,1.5,3.3,2.1
		c0.4,0.5,1.1,1.2,2,2.4c0.9,1.1,2.9,0.4,3.6,0c0.8-0.4,1.5-0.8,2.3-1.1c0.8-0.3,4.3-0.7,5.2-1s2.1-1.4,2.7-2.1
		c0.6-0.6-0.1-1.4-0.1-1.4s-1.2-2.3-1.5-3s-0.4-2-1.5-3.1s-0.7-2.1-1-2.8c-0.3-0.7-1.4-0.6-1.1-1.6c0.3-1,1.4,0.5,2,0.5
		c0.5,0,1.2,0.3,2.1,0.5c0.9,0.2,3.2,0.7,5.3,0.6s1.2-1,1.5-1.1s6.7-1.8,8-3c1.2-1.1,0.8-1.9,0.8-1.9s-2.3-2.1-3-3.2s0-3.1,0-3.1
		s0.1-2.1,0.8-2.7s2.2-0.9,2.2-0.9V70c0,0,1-2.3,1.4-2.6c0.4-0.3,1.7-0.9,3.2-1.4c0.2-0.1,0.4-0.2,0.5-0.4
		C230.9,64.5,229.5,63.7,229.5,63.7z"/>
	<path class="st1" d="M254,265.1c0.9-1.9,0.7-5.6,2.6-7.4c2-1.8,1.5-3.1,4.9-4.9c3.3-1.8,11-7.3,9-10.2c-1.6-2.2-3.6-4.5-5-5.7
		c-0.4,1.6-0.9,3.2-1.1,3.5c-0.3,0.7-1.2,2.6-1.2,3.7c0,1.1,3.2,3.7-1.5,4s-7.5-0.4-9.9,0s-5-0.7-5.2-1.1c-0.1-0.4,1.9-6.3,2.7-6.4
		c0.7-0.1-0.7-3.6-2.1-5.3c-1.3-1.8-5.6-2.7-5.6-2.7s-1.2,0.7-1.9,0s-7.2-4.4-7.2-4.4s1.9,0.9-1.3-0.7c-3.2-1.6-3.5-1.5-4.3-2.4
		c-0.7-1-3.4-2.9-4.6-3.5l0,0l0,0c-0.4,0.2-0.9,0.3-1.7,0.3c-3.4,0.1-4.6,0.1-8.9-0.5c-4.3-0.7-7.7-1.9-8.1-0.8
		c-0.2,0.6-1.2,1.9-2.2,3.1l0,0c0,0.1,0.1,0.1,0.1,0.2c0.9,1.9,1.5,1.9,1.5,3.1c0,1.2-1.8,3.5-2.2,4.5s-1.1-0.6-1.5,2.9
		s-0.4,6-0.4,7.4s0.2,1.4,0.2,3.5s0.7-0.4-0.9,4.9c-1.5,5.3-3.1,14.6-2.8,16s3.6,11.1,4.1,13.2c0.4,2.1,4,5.3,3.5,6
		c-0.4,0.6,0.1,3.9,0,5.8c0,1.9-1.8,9.5-0.9,12.9c0.9,3.5,1.8,3.5,2,5.8s1.5,10.3,1.5,10.3s2.2,1.2,2.7,2.7c0.4,1.4,3.5,12.7,4,13.6
		c0.4,0.8,1.1,3.7,1.8,6.2s2.7,4.7,3.8,7.6s3.8,8.6,2.2,9.7c-1.1,0.8-3.8,1.4-5.6,1.8c1,0.6,1.8,1.4,2.3,1.9
		c2.2,2.3,3.1,2.1,3.8,3.3c0.7,1.2,2.9,5.1,2.9,5.1s1.5,1.2,2.7,1.6c1.1,0.4,2.9-1,3.5,0c0.7,1,3.3,0.8,4.4,2.9
		c1.1,2.1,1.5,3.1,1.5,3.9s1.3,1.9,1.3,1.9s-0.9-4.5-0.9-5.1s-0.4-2.9-0.4-2.9l2.9-0.8c0,0,2-2.1,1.8-2.9s-4.6-5.5-4.6-5.5l0.9-3.5
		c0,0,1.8-1,2.2-1.7c0.4-0.6,1.3-2.5,1.3-2.5l-0.2-3.1l5.3-5.8l-12.6-4.7l0.2-2.3c0,0,3.8-5.8,4-6.4s1.3-1.4,1.8-2.5
		c0.4-1,1.8-1.6,1.8-1.6s-0.9-3.7-1.1-4.3c-0.2-0.6-2.4-4.3-2.4-4.3s-0.2,0.2-0.9-1.6c-0.7-1.8-0.7-1.8-0.7-1.8s-2.4-1.6-0.9-2.5
		c1.5-0.8,3.8,0.4,4.6,0.8c0.9,0.4,2.7,0.4,3.3,0.2c0.7-0.2,4.6-5.6,4.4-6.4c-0.2-0.8-2.2-3.9-2.2-3.9s1.5,0.4,2.2,0.2
		c0.7-0.2,2,0.2,5.5-0.4s5.1-1.6,6.2-2.3c1.1-0.6,3.5-2.5,3.5-2.5s4-2.3,4.6-2.7c0.7-0.4,1.3-3.5,1.3-3.5l-2-2.3l-2.9-3.9
		c0,0-2.9-2.1-4-2.1s-6.2-6.8-5.5-6.8c0.2,0,0.8,0.1,1.4,0.2c-1.1-1.8-2.1-4.1-1.8-5.8C253.8,271.9,253.1,266.9,254,265.1z"/>
</g>
</svg>
