<svg width="17" height="20" viewBox="0 0 17 20" fill="none" xmlns="http://www.w3.org/2000/svg">
<path d="M9 20L8.75 17H8.5C6.13333 17 4.125 16.175 2.475 14.525C0.825 12.875 0 10.8667 0 8.5C0 6.13333 0.825 4.125 2.475 2.475C4.125 0.825 6.13333 0 8.5 0C9.68333 0 10.7877 0.220667 11.813 0.662C12.8383 1.10333 13.7383 1.71167 14.513 2.487C15.2877 3.26233 15.8957 4.16233 16.337 5.187C16.7783 6.21167 16.9993 7.316 17 8.5C17 9.75 16.7957 10.95 16.387 12.1C15.9783 13.25 15.42 14.3167 14.712 15.3C14.004 16.2833 13.1623 17.175 12.187 17.975C11.2117 18.775 10.1493 19.45 9 20ZM8.475 13.975C8.75833 13.975 9 13.875 9.2 13.675C9.4 13.475 9.5 13.2333 9.5 12.95C9.5 12.6667 9.4 12.425 9.2 12.225C9 12.025 8.75833 11.925 8.475 11.925C8.19167 11.925 7.95 12.025 7.75 12.225C7.55 12.425 7.45 12.6667 7.45 12.95C7.45 13.2333 7.55 13.475 7.75 13.675C7.95 13.875 8.19167 13.975 8.475 13.975ZM7.75 10.8H9.25C9.25 10.3 9.3 9.95 9.4 9.75C9.5 9.55 9.81667 9.18333 10.35 8.65C10.65 8.35 10.9 8.025 11.1 7.675C11.3 7.325 11.4 6.95 11.4 6.55C11.4 5.7 11.1123 5.06233 10.537 4.637C9.96167 4.21167 9.28267 3.99933 8.5 4C7.76667 4 7.15 4.20433 6.65 4.613C6.15 5.02167 5.8 5.51733 5.6 6.1L7 6.65C7.08333 6.36667 7.24167 6.08733 7.475 5.812C7.70833 5.53667 8.05 5.39933 8.5 5.4C8.95 5.4 9.28733 5.525 9.512 5.775C9.73667 6.025 9.84933 6.3 9.85 6.6C9.85 6.88333 9.76667 7.13767 9.6 7.363C9.43333 7.58833 9.23333 7.81733 9 8.05C8.41667 8.55 8.06233 8.946 7.937 9.238C7.81167 9.53 7.74933 10.0507 7.75 10.8Z" fill="#A8171A"/>
</svg>
