<?xml version="1.0" encoding="utf-8"?>
<!-- Generator: Adobe Illustrator 23.0.1, SVG Export Plug-In . SVG Version: 6.00 Build 0)  -->
<svg version="1.1" id="Layer_1" xmlns="http://www.w3.org/2000/svg" xmlns:xlink="http://www.w3.org/1999/xlink" x="0px" y="0px"
	 viewBox="0 0 409.9 234.1" style="enable-background:new 0 0 409.9 234.1;" xml:space="preserve">
<style type="text/css">
	.st0{fill:#606060;}
	.st1{clip-path:url(#SVGID_2_);fill:none;stroke:#606060;stroke-width:4.003;stroke-miterlimit:10;}
	.st2{clip-path:url(#SVGID_4_);fill:url(#SVGID_5_);}
	.st3{clip-path:url(#SVGID_7_);fill:url(#SVGID_8_);}
	.st4{clip-path:url(#SVGID_10_);fill:url(#SVGID_11_);}
	.st5{fill:#FFFFFF;}
	.st6{fill:none;stroke:#FFFFFF;stroke-width:2;stroke-miterlimit:10;}
	.st7{fill:#FE0100;stroke:#FFFFFF;stroke-width:2;stroke-miterlimit:10;}
	.st8{fill:#FFC0CB;stroke:#FFFFFF;stroke-width:2;stroke-miterlimit:10;}
	.st9{fill:#008000;stroke:#FFFFFF;stroke-width:2;stroke-miterlimit:10;}
	.st10{fill:#FFFF01;stroke:#FFFFFF;stroke-width:2;stroke-miterlimit:10;}
	.st11{fill:#FFFFFF;stroke:#FFFFFF;stroke-width:2;stroke-miterlimit:10;}
	.st12{stroke:#FFFFFF;stroke-width:2;stroke-miterlimit:10;}
	.st13{fill:none;stroke:url(#SVGID_12_);stroke-width:16;stroke-linecap:round;stroke-miterlimit:10;}
	.st14{fill:#079300;}
	.st15{fill:none;stroke:#000000;stroke-width:9.8281;stroke-miterlimit:10;}
	.st16{fill:none;stroke:#000000;stroke-width:9.8765;stroke-miterlimit:10;}
</style>
<g>
	
		<image style="overflow:visible;enable-background:new    ;" width="1358" height="625" xlink:href="885316CD.jpeg"  transform="matrix(0.9709 0 0 0.9709 3912.166 334.1093)">
	</image>
</g>
<g id="Layer_3">
	<rect x="3911.4" y="-318.9" width="1365.5" height="619"/>
</g>
<path class="st0" d="M4180.2,109h-134.2c-6.6,0-12-5.4-12-12v-298.7c0-6.6,5.4-12,12-12h134.1c6.6,0,12,5.4,12,12V97
	C4192.2,103.6,4186.8,109,4180.2,109z"/>
<g>
	<g>
		<g>
			<defs>
				<rect id="SVGID_1_" x="3936.1" y="-258" width="1366" height="619"/>
			</defs>
			<clipPath id="SVGID_2_">
				<use xlink:href="#SVGID_1_"  style="overflow:visible;"/>
			</clipPath>
			
				<ellipse transform="matrix(0.1602 -0.9871 0.9871 0.1602 4286.9517 4748.2061)" class="st1" cx="4933.9" cy="-145.3" rx="65.3" ry="65.3"/>
		</g>
		<g>
			<defs>
				<rect id="SVGID_3_" x="3936.1" y="-258" width="1366" height="619"/>
			</defs>
			<clipPath id="SVGID_4_">
				<use xlink:href="#SVGID_3_"  style="overflow:visible;"/>
			</clipPath>
			
				<linearGradient id="SVGID_5_" gradientUnits="userSpaceOnUse" x1="4440.5044" y1="-377.8845" x2="4441.5044" y2="-377.8845" gradientTransform="matrix(140.908 0 0 140.908 -620839.1875 53101.6914)">
				<stop  offset="0" style="stop-color:#D83521"/>
				<stop  offset="5.434350e-07" style="stop-color:#D83521"/>
				<stop  offset="1" style="stop-color:#E22138"/>
			</linearGradient>
			<path class="st2" d="M4991.3-184.9c7.8,11.2,12.3,24.9,12.3,39.6c0,38.5-31.2,69.8-69.8,69.8s-69.8-31.2-69.8-69.8
				s31.2-69.8,69.8-69.8c2.5,0,4.5,2,4.5,4.5c0,2.5-2,4.5-4.5,4.5c-33.5,0.1-60.7,27.2-60.8,60.8c0.1,33.6,27.2,60.7,60.8,60.8
				c33.6-0.1,60.7-27.2,60.8-60.8c0-12.8-4-24.7-10.7-34.5c-1.4-2-0.9-4.9,1.1-6.3C4987.1-187.4,4989.9-186.9,4991.3-184.9
				L4991.3-184.9z"/>
		</g>
	</g>
	<text transform="matrix(1 0 0 1 4896.105 -136.8129)" class="st5" style="font-family:'Roboto-Black'; font-size:28.8851px;">09:45</text>
	<g>
		<g>
			<defs>
				<path id="SVGID_6_" d="M4870.6-31.5c-6.6,0-12,5.4-12,12v73c0,6.6,5.4,12,12,12h125.6c6.6,0,12-5.4,12-12v-73
					c0-6.6-5.4-12-12-12H4870.6z"/>
			</defs>
			<clipPath id="SVGID_7_">
				<use xlink:href="#SVGID_6_"  style="overflow:visible;"/>
			</clipPath>
			
				<linearGradient id="SVGID_8_" gradientUnits="userSpaceOnUse" x1="4440.7148" y1="-377.8847" x2="4441.7148" y2="-377.8847" gradientTransform="matrix(149.6357 0 0 149.6357 -659630.8125 56562.0352)">
				<stop  offset="0" style="stop-color:#D83521"/>
				<stop  offset="5.434350e-07" style="stop-color:#D83521"/>
				<stop  offset="1" style="stop-color:#E22138"/>
			</linearGradient>
			<rect x="4858.6" y="-31.5" class="st3" width="149.6" height="97"/>
		</g>
	</g>
	<g>
		<g>
			<defs>
				<rect id="SVGID_9_" x="3936.1" y="-258" width="1366" height="619"/>
			</defs>
			<clipPath id="SVGID_10_">
				<use xlink:href="#SVGID_9_"  style="overflow:visible;"/>
			</clipPath>
			
				<linearGradient id="SVGID_11_" gradientUnits="userSpaceOnUse" x1="4444.1006" y1="-383.0477" x2="4445.1006" y2="-383.0477" gradientTransform="matrix(6.031390e-15 -98.5 98.5 6.031390e-15 42663.6641 437810.125)">
				<stop  offset="0" style="stop-color:#980021"/>
				<stop  offset="6.126960e-07" style="stop-color:#980021"/>
				<stop  offset="0.1339" style="stop-color:#9A0424"/>
				<stop  offset="0.278" style="stop-color:#9F112E"/>
				<stop  offset="0.427" style="stop-color:#A7273E"/>
				<stop  offset="0.5793" style="stop-color:#B34555"/>
				<stop  offset="0.7341" style="stop-color:#C26C73"/>
				<stop  offset="0.8888" style="stop-color:#D49B96"/>
				<stop  offset="1" style="stop-color:#E3C1B3"/>
				<stop  offset="1" style="stop-color:#E3C1B3"/>
			</linearGradient>
			<path class="st4" d="M4996.3,65.5V66h-125.6c-6.9,0-12.5-5.6-12.5-12.5v-73c0-6.9,5.6-12.5,12.5-12.5h125.6
				c6.9,0,12.5,5.6,12.5,12.5v73c0,6.9-5.6,12.5-12.5,12.5L4996.3,65.5l0-0.5c6.3,0,11.5-5.2,11.5-11.5v-73
				c0-6.3-5.2-11.5-11.5-11.5h-125.6c-6.3,0-11.5,5.2-11.5,11.5v73c0,6.3,5.2,11.5,11.5,11.5h125.6L4996.3,65.5L4996.3,65.5z"/>
		</g>
	</g>
	<text transform="matrix(1 0 0 1 4881.4009 32.383)" class="st5" style="font-family:'Roboto-Black'; font-size:40.1114px;">3 / 10</text>
	<text transform="matrix(1 0 0 1 4858.4868 105.816)" class="st5" style="font-family:'Roboto-Black'; font-size:30.1794px;">Y</text>
	<text transform="matrix(1 0 0 1 4876.4966 105.816)" class="st5" style="font-family:'Roboto-Black'; font-size:30.1794px;">our Sco</text>
	<text transform="matrix(1 0 0 1 4980.9365 105.816)" class="st5" style="font-family:'Roboto-Black'; font-size:30.1794px;">r</text>
	<text transform="matrix(1 0 0 1 4992.0967 105.816)" class="st5" style="font-family:'Roboto-Black'; font-size:30.1794px;">e</text>
</g>
<text transform="matrix(1 0 0 1 4309.3203 -264.0793)" class="st5" style="font-family:'Roboto-Black'; font-size:30.5545px;">2/</text>
<text transform="matrix(1 0 0 1 4337.7402 -264.0793)" class="st5" style="font-family:'Roboto-Black'; font-size:20px;">10</text>
<text transform="matrix(1 0 0 1 4360.8999 -264.0793)" class="st5" style="font-family:'Roboto-Black'; font-size:30.5545px;"> Can you paint flag of italy</text>
<rect x="4257.2" y="-212.4" class="st5" width="545.1" height="322.7"/>
<g>
	<g>
		<rect x="4071.9" y="-179.1" class="st6" width="81" height="45.9"/>
		<line class="st6" x1="4152.9" y1="-163.3" x2="4071.9" y2="-163.3"/>
		<line class="st6" x1="4071.9" y1="-147.6" x2="4152.9" y2="-147.6"/>
	</g>
	<g>
		<rect x="4071.9" y="-109.9" class="st6" width="81" height="45.9"/>
		<line class="st6" x1="4071.9" y1="-86.4" x2="4152.9" y2="-86.4"/>
	</g>
	<g>
		<rect x="4073.4" y="-40.7" class="st6" width="81" height="45.9"/>
		<line class="st6" x1="4101.3" y1="-40.7" x2="4101.3" y2="5.2"/>
		<line class="st6" x1="4128.4" y1="-40.7" x2="4128.4" y2="5.2"/>
	</g>
	<g>
		<rect x="4073.4" y="28.6" class="st6" width="81" height="45.9"/>
		<line class="st6" x1="4115.3" y1="28.6" x2="4115.3" y2="74.4"/>
	</g>
</g>
<g>
	<circle class="st7" cx="4292.9" cy="222.2" r="35.5"/>
	<circle class="st8" cx="4387" cy="222.2" r="35.5"/>
	<circle class="st9" cx="4481.1" cy="222.2" r="35.5"/>
	<circle class="st10" cx="4577.2" cy="222.2" r="35.5"/>
	<circle class="st11" cx="4670.5" cy="222.2" r="35.5"/>
	<circle class="st12" cx="4766.8" cy="222.2" r="35.5"/>
</g>
<linearGradient id="SVGID_12_" gradientUnits="userSpaceOnUse" x1="4530.4692" y1="-159.6908" x2="4530.4692" y2="-143.6908" gradientTransform="matrix(1 0 0 -1 0 -17.7815)">
	<stop  offset="0" style="stop-color:#FFFFFF"/>
	<stop  offset="2.190000e-02" style="stop-color:#DAEFD9"/>
	<stop  offset="5.200000e-02" style="stop-color:#AEDCAC"/>
	<stop  offset="8.500000e-02" style="stop-color:#86CA83"/>
	<stop  offset="0.1202" style="stop-color:#64BB5F"/>
	<stop  offset="0.1584" style="stop-color:#47AF42"/>
	<stop  offset="0.2002" style="stop-color:#2FA529"/>
	<stop  offset="0.2474" style="stop-color:#1D9D17"/>
	<stop  offset="0.3029" style="stop-color:#11970A"/>
	<stop  offset="0.3748" style="stop-color:#099402"/>
	<stop  offset="0.5223" style="stop-color:#079300"/>
	<stop  offset="0.6534" style="stop-color:#099402"/>
	<stop  offset="0.7191" style="stop-color:#11970A"/>
	<stop  offset="0.7704" style="stop-color:#1E9D17"/>
	<stop  offset="0.8141" style="stop-color:#30A52A"/>
	<stop  offset="0.853" style="stop-color:#48AF42"/>
	<stop  offset="0.8886" style="stop-color:#65BC60"/>
	<stop  offset="0.9216" style="stop-color:#88CB84"/>
	<stop  offset="0.9525" style="stop-color:#B0DDAE"/>
	<stop  offset="0.9808" style="stop-color:#DCF0DB"/>
	<stop  offset="1" style="stop-color:#FFFFFF"/>
</linearGradient>
<line class="st13" x1="4264.7" y1="133.9" x2="4796.2" y2="133.9"/>
<path class="st14" d="M2943.4-17.7h-87.9c-6.6,0-12-5.4-12-12v-68.1c0-6.6,5.4-12,12-12h87.9c6.6,0,12,5.4,12,12v68.1
	C2955.4-23.1,2950-17.7,2943.4-17.7z"/>
<rect x="4.9" y="4.9" class="st15" width="400" height="224.2"/>
<line class="st15" x1="212.2" y1="8.5" x2="212.2" y2="225.7"/>
<g>
	<rect x="381.8" y="850" class="st16" width="400" height="226.5"/>
	<line class="st16" x1="381.8" y1="966.1" x2="781.8" y2="966.1"/>
</g>
<g>
	<rect x="-544.5" y="256.7" class="st16" width="400" height="226.5"/>
	<line class="st16" x1="-406.4" y1="256.7" x2="-406.4" y2="483.2"/>
	<line class="st16" x1="-273" y1="256.7" x2="-273" y2="483.2"/>
</g>
<g>
	<rect x="4.9" y="267.2" class="st16" width="400" height="226.5"/>
	<line class="st16" x1="212.2" y1="267.2" x2="212.2" y2="493.7"/>
</g>
</svg>
