<?xml version="1.0" encoding="utf-8"?>
<!-- Generator: Adobe Illustrator 22.0.0, SVG Export Plug-In . SVG Version: 6.00 Build 0)  -->
<svg version="1.1" id="Layer_1" xmlns="http://www.w3.org/2000/svg" xmlns:xlink="http://www.w3.org/1999/xlink" x="0px" y="0px"
	 viewBox="0 0 2023 518" style="enable-background:new 0 0 2023 518;" xml:space="preserve">
<style type="text/css">
	.st0{display:none;fill:#CECECE;}
	.st1{fill:#A8171A;}
	.st2{display:none;}
	.st3{display:inline;fill:none;stroke:#E01616;stroke-width:120;stroke-miterlimit:10;}
</style>
<g id="Background">
	<path class="st0" d="M-153.5-159.1h2330v836.3h-2330V-159.1z"/>
</g>
<g id="Words">
	<g id="Letters">
		<path id="Letter7" class="st1" d="M1931.3,129.6c12.4,5.1,13.3-3.7,13.5-11.9c0.7-23.6,1.2-49.3,1.5-72.9
			c0.8-65.2,77.9-54.9,76.7,2.8c-1.3,61.8-3.7,123.6-2.7,185.3c0.7,47.6-8.6,87.2-40.2,125.4c-43.3,46.1-98.2,55.8-154.4,39.5
			c-84.2-24.3-127-106.8-94-191.6c14.9-38.3,38.7-58.8,42.5-61.8c26.5-21.5,64.1-37.9,100.7-33.7
			C1895,112.8,1910.2,116.1,1931.3,129.6z M1931.4,300.7c18.1-30.6,14.9-61.3-2.9-86.6c-22.1-31.4-74.9-39.4-103.4-13.1
			c-37.3,30.5-30.7,94.5,1,115.6C1860.4,342.3,1905.4,339.3,1931.4,300.7z"/>
		<path id="Letter6" class="st1" d="M1651.5,350.1c-11,14.3-27.2,26.6-44.6,36.5c-42.3,23.9-88.7,25.7-125.6,11.5
			c-12.6-4.8-30.5-13.1-41.4-21.2c-11.4-8.5-23.1-18.7-31.5-32.6c-10.8-18-19.6-35.1-23.6-53.4c-9-41.2-1.9-87.8,24-119.6
			c15.7-19.3,36.2-38.5,61-48.6c22.5-9.2,48.9-12.2,70.5-11.6c22.2,0.5,51.7,5.6,71.3,17.8c18.3,11.4,24.7,14.7,38.6,29.9
			c3,3.3,13.9,19,16.2,25c1.8,4.9,9.6,26.9,10.4,29.9c8.6,33.6,10.9,53-3.6,96.4C1668.1,325.3,1661.4,337.2,1651.5,350.1z
			 M1586.3,311.2c22.5-24.7,24.8-73.6,1.3-103.1c-17.6-22-55.2-30.7-83.1-20.3c-28.1,10.4-47.7,39.7-46,72.5
			c1.7,32.9,20.4,58.3,48.2,68.7C1533.7,339,1564.6,335,1586.3,311.2z"/>
		<path id="Letter5" class="st1" d="M1041.1,254.1c0.7-60.3,30.7-102.8,71.8-126c72.2-40.6,168.9-20.4,209.6,54.9
			c30.8,57,14.5,164-46.1,201.8c-41.1,25.6-88.7,29.6-132.4,10.9c-16.5-7.1-23,2.7-23,10.2c-0.3,23.8,0.4,47.7-0.6,71.5
			c-0.9,21.8-9.6,40.8-37.8,40.6c-30.3-0.1-42.1-23.6-42.1-39.6C1040.5,404.8,1040.3,329.2,1041.1,254.1z M1131.6,306.6
			c14.8,19.5,56.5,34.6,79.6,26.4c50.2-17.7,69.4-71.2,38.1-121.1c-22.1-35.1-78-38.9-107.3-12.4
			C1108.3,230.1,1109,276.9,1131.6,306.6z"/>
		<path id="Letter4" d="M938.9,389c-42.8-6.3-65.9-47.2-65.9-98.9c0-30.2-0.7-60.4,0.3-90.6c0.6-16-2.7-22.8-21-22.9
			c-33.7-0.2-36.9-42.1,0.1-42.8c18.4-0.4,21-7.8,20.7-23.2c-0.4-15-0.5-26.8-0.4-47.1c0.1-14.9,13.4-25.5,26-25.6
			c13.7-0.1,24.4,11.9,25,26c0.7,17.5,0.7,35,0.5,52.4c-0.2,12.1,4.8,16.8,17.1,16.8c27.4-0.1,45.6,0.5,46,19.4
			c0.5,25.3-24.5,25.2-49,24.9c-9.9-0.1-14.4,4.3-14.4,14.4c0.2,35-0.6,69.9,0.4,104.9c0.8,28.4,15.4,42,44,43.3
			c24.3,1.2,32.6,11.3,26.6,36C979.9,395.4,957.6,391.8,938.9,389z"/>
		<path id="Letter3" d="M622.3,251.1c-16.5-9.3-25.9-26.6-27.7-46.4c-2.4-26.6,7.4-47,29.7-62.3c44.4-30.5,120.8-26.1,160,10.1
			c3.6,3.3,20.7,21.2,10.7,35.3c-12.4,17.4-34.1,7.8-42.5,0.5c-25.1-21.9-55.2-25.1-85-19.7c-12.4,2.2-26.9,12.2-28.1,24.9
			c-1.3,13.7,16.5,22.6,24.9,27c13.7,7.2,31.1,8.3,46.2,12.9c16.2,4.9,31.3,10.9,47.2,16.3c44.6,15.2,62.2,74.5,15.9,118.6
			c-6.9,6.6-15.2,12-22.7,14.4c-53,17.2-106.1,9.9-154.5-17.3c-22.1-12.4-20.1-29.3-13.8-41.4c6.7-12.9,26.4-14.3,49.6,0.4
			c26.5,16.8,54,22.7,88.7,17.2c18.4-2.9,34.8-28,21.2-44c-6.7-8-18.7-11.8-26.6-14.4C684.4,272.9,650.7,267.1,622.3,251.1z"/>
		<path id="Letter2" d="M508.3,331.1c12.3,18.1,6.5,29.1-12.1,39.8c-95.8,55.5-167.7-3.6-172.6-7.7c-22.5-18.5-53.5-63.5-47.6-120.3
			c3.3-31.8,15.2-62.4,28.6-76.6c12.3-13.1,59.3-59.9,132.8-45.2c67.8,13.6,88.3,67.9,97.5,109c7.5,33.2-2.2,47.9-35.5,48
			c-51.6,0.2-162.2-1-174.4-0.3c0,0,4.9,18.8,17.8,35.9c2.1,2.8,47.9,62.8,119.9,23C480.1,327.1,498.9,317.2,508.3,331.1z
			 M478.8,207.5c-18.5-25.7-33.7-41.4-71.8-41.4c-27.3,0-57.9,11.9-75.2,38.8c-13.7,21.3-12,29.9,16.2,29.1
			c41.1-1.1,78.3,0.3,119.4,0C487.4,234,488.1,220.5,478.8,207.5z"/>
		<path id="Letter1" d="M287.8,62.6c-31.9,0.4-58.4-0.4-78.7-0.2c-18.3,0.1-20.3,3-20.7,34.5c-1.2,91-0.3,163-1,253.9
			c-0.5,57.8-57.5,57.3-56.2,0.9c2-90,0.3-162.9,0.6-255.2c0.1-24.4,3.2-34.4-21.3-34.6c-24.3-0.2-48.7-0.3-73-0.3
			c-51.3,0-48.6-54.1-0.7-54.1c82.5,0,169.6,0.4,252,0.6C326.5,8.2,326.6,62.1,287.8,62.6z"/>
	</g>
</g>
<g id="Shadow" xmlns:vectornator="http://vectornator.io" class="st2">
	<path id="Shadow5" class="st3" d="M1057,652.2c0-40.6,2.3-187.5,1-217.2c-2.3-52.5-0.8,5.8-0.8-79.1c0,0,6.2-60.7,70.8-100
		c69.3-42.1,157.5,39.4,163.5,78c3.2,20.4-3.7,43.9-7.7,64.2c-2.6,13.4-10.8,39.3-20,49.4c-9.6,10.5-37.3,28.4-52,32.6
		c-35.1,10-55.9-24.6-110.2-22.3"/>
	<path id="Shadow6" class="st3" d="M1529.9,259.1c82.5,0,110,67.4,113.7,112.4c3.8,45.7-5.9,102.1-57.5,119.7
		c-40.8,13.9-92.7,8.7-129.7-18.8c-30.1-22.4-52.4-83.7-41.5-119.6C1425.6,317.1,1461.6,259.1,1529.9,259.1z"/>
	<path id="Shadow7" class="st3" d="M2001.8,93.7c0,40.6-2.3,187.5-1,217.2c2.3,52.5,0.8-5.8,0.8,79.1c0,0-6.2,60.7-70.8,100
		c-69.3,42.1-157.5-39.4-163.5-78c-3.2-20.4,3.7-43.9,7.7-64.2c2.6-13.4,10.8-39.3,20-49.4c9.6-10.5,37.3-28.4,52-32.6
		c35.1-10,40.9,40.6,95.2,38.3"/>
</g>
<g id="Guides" class="st2">
</g>
</svg>
