<svg width="50" height="50" viewBox="0 0 50 50" fill="none" xmlns="http://www.w3.org/2000/svg">
<path d="M10.5 29.8333H15.3333C15.3333 27.457 16.1993 25.4527 17.9312 23.8207C19.6632 22.1886 21.7375 21.3734 24.1542 21.375C25.6042 21.375 26.9535 21.7077 28.2021 22.3731C29.4507 23.0385 30.4778 23.9141 31.2833 25H27.4167V29.8333H39.5V17.75H34.6667V21.4958C33.3778 19.9653 31.8367 18.757 30.0436 17.8708C28.2504 16.9847 26.2873 16.5417 24.1542 16.5417C20.3278 16.5417 17.0951 17.8306 14.4561 20.4083C11.8171 22.9861 10.4984 26.1278 10.5 29.8333ZM25 49.1667C21.6569 49.1667 18.5153 48.5319 15.575 47.2623C12.6347 45.9928 10.0771 44.2713 7.90208 42.0979C5.72708 39.9229 4.00561 37.3653 2.73766 34.425C1.46972 31.4847 0.834939 28.3431 0.833328 25C0.833328 21.657 1.46811 18.5153 2.73766 15.575C4.00722 12.6347 5.72869 10.0771 7.90208 7.90209C10.0771 5.72709 12.6347 4.00562 15.575 2.73768C18.5153 1.46973 21.6569 0.834955 25 0.833344C28.343 0.833344 31.4847 1.46812 34.425 2.73768C37.3653 4.00723 39.9229 5.7287 42.0979 7.90209C44.2729 10.0771 45.9952 12.6347 47.2647 15.575C48.5343 18.5153 49.1683 21.657 49.1667 25C49.1667 28.3431 48.5319 31.4847 47.2623 34.425C45.9928 37.3653 44.2713 39.9229 42.0979 42.0979C39.9229 44.2729 37.3653 45.9952 34.425 47.2648C31.4847 48.5343 28.343 49.1683 25 49.1667Z" fill="#05C223"/>
</svg>
