<svg width="44" height="44" viewBox="0 0 44 44" fill="none" xmlns="http://www.w3.org/2000/svg">
<path d="M30.9204 36.8929L22 34.3148L13.0796 36.8929C13.0023 37.0476 12.9766 37.2023 12.9766 37.3828V42.7109H31.0234V37.3828C31.0234 37.2023 30.9977 37.0476 30.9204 36.8929Z" fill="white"/>
<path d="M31.0234 42.7109V37.3828C31.0234 37.2023 30.9977 37.0476 30.9204 36.8929L22 34.3148V42.7109H31.0234Z" fill="white"/>
<path d="M42.7109 2.57812H36.1243C36.1356 2.14268 36.1797 1.7325 36.1797 1.28906C36.1797 0.567102 35.6126 0 34.8906 0H9.10938C8.38741 0 7.82031 0.567102 7.82031 1.28906C7.82031 1.7325 7.8644 2.14268 7.87557 2.57812H1.28906C0.576555 2.57812 0 3.15468 0 3.86719V7.13264C0 14.3302 5.76572 20.1772 12.8711 20.5536C14.3514 22.5917 16.1082 24.1042 18.107 24.9562C17.7977 31.2211 14.2141 35.5781 13.3634 36.4806C13.2344 36.5836 13.1312 36.7383 13.0797 36.893H30.9204C30.8687 36.7383 30.7657 36.5836 30.6367 36.4806C29.7602 35.5781 26.2023 31.2469 25.893 24.9562C27.8922 24.104 29.6596 22.5912 31.1411 20.5523C38.2404 20.1698 44 14.3262 44 7.13264V3.86719C44 3.15468 43.4234 2.57812 42.7109 2.57812ZM2.57812 7.13264V5.15625H7.98617C8.32073 9.41686 9.24464 13.9293 11.1865 17.764C6.31898 16.6678 2.57812 12.3271 2.57812 7.13264ZM41.4219 7.13264C41.4219 12.3245 37.6844 16.6631 32.8205 17.7617C34.7469 13.9271 35.676 9.45837 36.0138 5.15625H41.4219V7.13264Z" fill="#088E0E"/>
<path d="M42.7109 2.57812H36.1243C36.1356 2.14268 36.1797 1.7325 36.1797 1.28906C36.1797 0.567102 35.6126 0 34.8906 0H22V36.893H30.9204C30.8687 36.7383 30.7657 36.5836 30.6367 36.4806C29.7602 35.5781 26.2023 31.2469 25.893 24.9562C27.8922 24.104 29.6596 22.5912 31.1411 20.5523C38.2404 20.1698 44 14.3262 44 7.13264V3.86719C44 3.15468 43.4234 2.57812 42.7109 2.57812ZM41.4219 7.13264C41.4219 12.3245 37.6844 16.6631 32.8205 17.7617C34.7471 13.9271 35.6762 9.45837 36.0138 5.15625H41.4219V7.13264Z" fill="#2CFA34"/>
<path d="M24.0571 16.3965L22.0001 15.3277L19.9431 16.3965C19.5125 16.6181 18.9863 16.5815 18.5911 16.2958C18.1958 16.0088 17.9969 15.5229 18.0775 15.042L18.4552 12.7521L16.8061 11.1244C16.4471 10.7745 16.3374 10.2557 16.4838 9.80768C16.6349 9.34439 17.0352 9.0045 17.5186 8.93154L19.8097 8.58659L20.847 6.51326C21.2851 5.63962 22.7151 5.63962 23.1532 6.51326L24.1905 8.58659L26.4816 8.93154C26.965 9.00459 27.3652 9.34447 27.5163 9.80768C27.6674 10.2722 27.544 10.782 27.1941 11.1244L25.545 12.7521L25.9227 15.042C26.0033 15.5229 25.8044 16.0088 25.4091 16.2958C25.0164 16.5803 24.4912 16.6223 24.0571 16.3965Z" fill="#2CFA34"/>
<path d="M24.057 16.3965C24.4912 16.6224 25.0164 16.5804 25.409 16.2958C25.8043 16.0088 26.0031 15.5229 25.9226 15.042L25.5449 12.7521L27.194 11.1245C27.5439 10.7821 27.6673 10.2722 27.5162 9.80772C27.3652 9.34443 26.9649 9.00455 26.4815 8.93159L24.1904 8.58663L23.1531 6.51331C22.9341 6.07649 22.4671 5.85803 22 5.85803V15.3277L24.057 16.3965Z" fill="#088E0E"/>
<path d="M32.3125 44H11.6875C10.975 44 10.3984 43.4234 10.3984 42.7109C10.3984 41.9984 10.975 41.4219 11.6875 41.4219H32.3125C33.025 41.4219 33.6016 41.9984 33.6016 42.7109C33.6016 43.4234 33.025 44 32.3125 44Z" fill="white"/>
<path d="M32.3125 41.4219H22V44H32.3125C33.025 44 33.6016 43.4234 33.6016 42.7109C33.6016 41.9984 33.025 41.4219 32.3125 41.4219Z" fill="white"/>
</svg>
