<?xml version="1.0" encoding="utf-8"?>
<!-- Generator: Adobe Illustrator 22.0.0, SVG Export Plug-In . SVG Version: 6.00 Build 0)  -->
<svg version="1.1" id="Layer_1" xmlns="http://www.w3.org/2000/svg" xmlns:xlink="http://www.w3.org/1999/xlink" x="0px" y="0px"
	 viewBox="0 0 22 25" style="enable-background:new 0 0 22 25;" xml:space="preserve">
<g>
	<path d="M11,13.1c0.4,0,0.8-0.3,0.8-0.8V8.9c0-0.4-0.3-0.8-0.8-0.8c-0.4,0-0.8,0.3-0.8,0.8v3.5C10.2,12.8,10.6,13.1,11,13.1z"/>
	<path d="M11.8,14.7c0,0.5-0.4,0.8-0.8,0.8s-0.8-0.4-0.8-0.8c0-0.5,0.4-0.8,0.8-0.8S11.8,14.2,11.8,14.7"/>
	<path d="M11.3,4.5c-1.8-0.1-3.6,0.6-5,1.8s-2.1,3-2.1,4.9c0,1.5,0.5,3,1.4,4.2c0.8,1.1,1.4,2.1,1.7,3.1l0,0.1v2.7
		c0,0.3,0.3,0.6,0.6,0.7c0.1,1.5,1.4,2.7,2.9,2.7s2.8-1.2,2.9-2.7c0.3-0.1,0.6-0.3,0.6-0.7v-2.7l0-0.1c0.4-1.1,0.9-2.1,1.7-3.1
		c1-1.3,1.5-2.9,1.4-4.4C17.6,7.5,14.8,4.7,11.3,4.5L11.3,4.5z M11,23.2c-0.8,0-1.4-0.6-1.5-1.3h3C12.4,22.7,11.8,23.2,11,23.2z
		 M13.1,20.5H8.9v-1.7h4.2L13.1,20.5z M15.2,14.5c-0.8,1-1.3,1.9-1.7,2.9H8.6c-0.4-1-1-2-1.7-2.9c-0.7-0.9-1.1-2.1-1.1-3.3
		c0-1.5,0.6-2.8,1.6-3.9c1.1-1,2.4-1.5,3.9-1.5C14,6,16.2,8.3,16.3,11C16.4,12.3,16,13.5,15.2,14.5L15.2,14.5z"/>
	<path d="M11,2.9c0.4,0,0.7-0.3,0.7-0.7V0.9c0-0.4-0.3-0.7-0.7-0.7s-0.7,0.3-0.7,0.7v1.3C10.3,2.6,10.6,2.9,11,2.9z"/>
	<path d="M5.9,3.8C6,4,6.2,4.1,6.5,4.1c0.1,0,0.2,0,0.4-0.1c0.3-0.2,0.5-0.6,0.3-0.9L6.5,2C6.3,1.6,5.9,1.5,5.5,1.7
		C5.2,1.9,5.1,2.3,5.3,2.7L5.9,3.8z"/>
	<path d="M3.5,6.1L2.4,5.5C2.1,5.2,1.6,5.4,1.5,5.7C1.3,6,1.4,6.5,1.7,6.7l1.1,0.6C3,7.4,3.1,7.4,3.2,7.4c0.2,0,0.5-0.1,0.6-0.4
		C4,6.7,3.9,6.3,3.5,6.1L3.5,6.1z"/>
	<path d="M2.7,11.2c0-0.4-0.3-0.7-0.7-0.7H0.7c-0.4,0-0.7,0.3-0.7,0.7c0,0.4,0.3,0.7,0.7,0.7H2C2.4,11.9,2.7,11.6,2.7,11.2z"/>
	<path d="M2.9,15.1l-1.1,0.6c-0.3,0.2-0.5,0.6-0.3,0.9c0.1,0.2,0.4,0.4,0.6,0.4c0.1,0,0.2,0,0.4-0.1l1.1-0.6
		c0.3-0.2,0.5-0.6,0.3-0.9C3.6,15,3.2,14.9,2.9,15.1L2.9,15.1z"/>
	<path d="M20.3,15.8l-1.1-0.6c-0.3-0.2-0.8-0.1-0.9,0.3c-0.2,0.3-0.1,0.8,0.3,0.9l1.1,0.6c0.1,0.1,0.2,0.1,0.4,0.1
		c0.2,0,0.5-0.1,0.6-0.4C20.7,16.4,20.6,16,20.3,15.8L20.3,15.8z"/>
	<path d="M21.3,10.5H20c-0.4,0-0.7,0.3-0.7,0.7s0.3,0.7,0.7,0.7h1.3c0.4,0,0.7-0.3,0.7-0.7C22,10.8,21.7,10.5,21.3,10.5z"/>
	<path d="M18.8,7.4c0.1,0,0.2,0,0.4-0.1l1.1-0.6c0.3-0.2,0.5-0.6,0.3-0.9c-0.2-0.3-0.6-0.5-0.9-0.3l-1.1,0.6
		c-0.3,0.2-0.5,0.6-0.3,0.9C18.3,7.3,18.6,7.4,18.8,7.4L18.8,7.4z"/>
	<path d="M15.1,4c0.1,0.1,0.2,0.1,0.4,0.1c0.2,0,0.5-0.1,0.6-0.4l0.6-1.1c0.2-0.3,0.1-0.8-0.3-0.9c-0.3-0.2-0.8-0.1-0.9,0.3
		l-0.6,1.1C14.7,3.4,14.8,3.8,15.1,4L15.1,4z"/>
</g>
</svg>
