<svg width="258" height="76" viewBox="0 0 258 76" fill="none" xmlns="http://www.w3.org/2000/svg">
<path d="M29.6053 51.175L39.8438 57.45C41.7188 58.6 44.0132 56.9 43.5198 54.75L40.806 42.95L49.8602 35C51.5132 33.55 50.625 30.8 48.454 30.625L36.5379 29.6L31.875 18.45C31.0362 16.425 28.1744 16.425 27.3356 18.45L22.6727 29.575L10.7566 30.6C8.58556 30.775 7.6974 33.525 9.35037 34.975L18.4046 42.925L15.6908 54.725C15.1974 56.875 17.4918 58.575 19.3668 57.425L29.6053 51.175Z" fill="#FFC700"/>
<path d="M75.0724 51.7729L86.1641 58.5709C88.1954 59.8167 90.681 57.975 90.1464 55.6459L87.2065 42.8625L97.0153 34.25C98.806 32.6792 97.8438 29.7 95.4918 29.5104L82.5827 28.4L77.5313 16.3208C76.6226 14.1271 73.5223 14.1271 72.6135 16.3208L67.5621 28.3729L54.653 29.4834C52.301 29.6729 51.3389 32.6521 53.1296 34.2229L62.9384 42.8354L59.9984 55.6188C59.4639 57.9479 61.9495 59.7896 63.9807 58.5438L75.0724 51.7729Z" fill="#FFC700"/>
<path d="M128.5 54.6883L141.469 62.6366C143.844 64.0933 146.75 61.94 146.125 59.2166L142.688 44.2699L154.156 34.2C156.25 32.3633 155.125 28.88 152.375 28.6583L137.281 27.36L131.375 13.2366C130.313 10.6716 126.688 10.6716 125.625 13.2366L119.719 27.3283L104.625 28.6266C101.875 28.8483 100.75 32.3316 102.844 34.1683L114.313 44.2383L110.875 59.185C110.25 61.9083 113.156 64.0616 115.531 62.6049L128.5 54.6883Z" fill="#FFC700"/>
<path d="M182.072 51.7729L193.164 58.5709C195.195 59.8167 197.681 57.975 197.146 55.6459L194.206 42.8625L204.015 34.25C205.806 32.6792 204.844 29.7 202.492 29.5104L189.583 28.4L184.531 16.3208C183.623 14.1271 180.522 14.1271 179.614 16.3208L174.562 28.3729L161.653 29.4834C159.301 29.6729 158.339 32.6521 160.13 34.2229L169.938 42.8354L166.998 55.6188C166.464 57.9479 168.949 59.7896 170.981 58.5438L182.072 51.7729Z" fill="#FFC700"/>
<path d="M227.605 51.175L237.844 57.45C239.719 58.6 242.013 56.9 241.52 54.75L238.806 42.95L247.86 35C249.513 33.55 248.625 30.8 246.454 30.625L234.538 29.6L229.875 18.45C229.036 16.425 226.174 16.425 225.336 18.45L220.673 29.575L208.757 30.6C206.586 30.775 205.697 33.525 207.35 34.975L216.405 42.925L213.691 54.725C213.197 56.875 215.492 58.575 217.367 57.425L227.605 51.175Z" fill="#FFC700"/>
</svg>
