<svg width="249" height="61" viewBox="0 0 249 61" fill="none" xmlns="http://www.w3.org/2000/svg">
<g filter="url(#filter0_d_173_2)">
<path d="M25.6053 40.175L35.8438 46.45C37.7188 47.6 40.0132 45.9 39.5198 43.75L36.806 31.95L45.8602 24C47.5132 22.55 46.625 19.8 44.454 19.625L32.5379 18.6L27.875 7.45002C27.0362 5.42502 24.1744 5.42502 23.3356 7.45002L18.6727 18.575L6.75662 19.6C4.58556 19.775 3.6974 22.525 5.35037 23.975L14.4046 31.925L11.6908 43.725C11.1974 45.875 13.4918 47.575 15.3668 46.425L25.6053 40.175Z" fill="#FFC700"/>
</g>
<g filter="url(#filter1_d_173_2)">
<path d="M71.0723 40.7729L82.164 47.5709C84.1952 48.8167 86.6809 46.975 86.1463 44.6459L83.2064 31.8625L93.0151 23.25C94.8059 21.6792 93.8437 18.7 91.4917 18.5104L78.5826 17.4L73.5312 5.32085C72.6225 3.1271 69.5221 3.1271 68.6134 5.32085L63.562 17.3729L50.6529 18.4834C48.3009 18.6729 47.3388 21.6521 49.1295 23.2229L58.9383 31.8354L55.9983 44.6188C55.4638 46.9479 57.9494 48.7896 59.9806 47.5438L71.0723 40.7729Z" fill="#FFC700"/>
</g>
<g filter="url(#filter2_d_173_2)">
<path d="M124.5 43.6884L137.469 51.6367C139.844 53.0934 142.75 50.9401 142.125 48.2167L138.688 33.2701L150.156 23.2001C152.25 21.3634 151.125 17.8801 148.375 17.6584L133.281 16.3601L127.375 2.23674C126.313 -0.328262 122.688 -0.328262 121.625 2.23674L115.719 16.3284L100.625 17.6267C97.875 17.8484 96.75 21.3317 98.8438 23.1684L110.313 33.2384L106.875 48.1851C106.25 50.9084 109.156 53.0617 111.531 51.6051L124.5 43.6884Z" fill="#FFC700"/>
</g>
<g filter="url(#filter3_d_173_2)">
<path d="M178.072 40.7729L189.164 47.5709C191.195 48.8167 193.681 46.975 193.146 44.6459L190.206 31.8625L200.015 23.25C201.806 21.6792 200.844 18.7 198.492 18.5104L185.583 17.4L180.531 5.32085C179.622 3.1271 176.522 3.1271 175.613 5.32085L170.562 17.3729L157.653 18.4834C155.301 18.6729 154.339 21.6521 156.129 23.2229L165.938 31.8354L162.998 44.6188C162.464 46.9479 164.949 48.7896 166.981 47.5438L178.072 40.7729Z" fill="#FFC700"/>
</g>
<g filter="url(#filter4_d_173_2)">
<path d="M223.605 40.175L233.844 46.45C235.719 47.6 238.013 45.9 237.52 43.75L234.806 31.95L243.86 24C245.513 22.55 244.625 19.8 242.454 19.625L230.538 18.6L225.875 7.45002C225.036 5.42502 222.174 5.42502 221.336 7.45002L216.673 18.575L204.757 19.6C202.586 19.775 201.697 22.525 203.35 23.975L212.405 31.925L209.691 43.725C209.197 45.875 211.492 47.575 213.367 46.425L223.605 40.175Z" fill="#FFC700"/>
</g>
<defs>
<filter id="filter0_d_173_2" x="0.494385" y="5.93127" width="50.2218" height="48.8895" filterUnits="userSpaceOnUse" color-interpolation-filters="sRGB">
<feFlood flood-opacity="0" result="BackgroundImageFix"/>
<feColorMatrix in="SourceAlpha" type="matrix" values="0 0 0 0 0 0 0 0 0 0 0 0 0 0 0 0 0 0 127 0" result="hardAlpha"/>
<feOffset dy="4"/>
<feGaussianBlur stdDeviation="2"/>
<feComposite in2="hardAlpha" operator="out"/>
<feColorMatrix type="matrix" values="0 0 0 0 0 0 0 0 0 0 0 0 0 0 0 0 0 0 0.25 0"/>
<feBlend mode="normal" in2="BackgroundImageFix" result="effect1_dropShadow_173_2"/>
<feBlend mode="normal" in="SourceGraphic" in2="effect1_dropShadow_173_2" result="shape"/>
</filter>
<filter id="filter1_d_173_2" x="44.2021" y="3.67554" width="53.7404" height="52.297" filterUnits="userSpaceOnUse" color-interpolation-filters="sRGB">
<feFlood flood-opacity="0" result="BackgroundImageFix"/>
<feColorMatrix in="SourceAlpha" type="matrix" values="0 0 0 0 0 0 0 0 0 0 0 0 0 0 0 0 0 0 127 0" result="hardAlpha"/>
<feOffset dy="4"/>
<feGaussianBlur stdDeviation="2"/>
<feComposite in2="hardAlpha" operator="out"/>
<feColorMatrix type="matrix" values="0 0 0 0 0 0 0 0 0 0 0 0 0 0 0 0 0 0 0.25 0"/>
<feBlend mode="normal" in2="BackgroundImageFix" result="effect1_dropShadow_173_2"/>
<feBlend mode="normal" in="SourceGraphic" in2="effect1_dropShadow_173_2" result="shape"/>
</filter>
<filter id="filter2_d_173_2" x="93.7595" y="0.312988" width="61.481" height="59.7935" filterUnits="userSpaceOnUse" color-interpolation-filters="sRGB">
<feFlood flood-opacity="0" result="BackgroundImageFix"/>
<feColorMatrix in="SourceAlpha" type="matrix" values="0 0 0 0 0 0 0 0 0 0 0 0 0 0 0 0 0 0 127 0" result="hardAlpha"/>
<feOffset dy="4"/>
<feGaussianBlur stdDeviation="2"/>
<feComposite in2="hardAlpha" operator="out"/>
<feColorMatrix type="matrix" values="0 0 0 0 0 0 0 0 0 0 0 0 0 0 0 0 0 0 0.25 0"/>
<feBlend mode="normal" in2="BackgroundImageFix" result="effect1_dropShadow_173_2"/>
<feBlend mode="normal" in="SourceGraphic" in2="effect1_dropShadow_173_2" result="shape"/>
</filter>
<filter id="filter3_d_173_2" x="151.202" y="3.67554" width="53.7404" height="52.297" filterUnits="userSpaceOnUse" color-interpolation-filters="sRGB">
<feFlood flood-opacity="0" result="BackgroundImageFix"/>
<feColorMatrix in="SourceAlpha" type="matrix" values="0 0 0 0 0 0 0 0 0 0 0 0 0 0 0 0 0 0 127 0" result="hardAlpha"/>
<feOffset dy="4"/>
<feGaussianBlur stdDeviation="2"/>
<feComposite in2="hardAlpha" operator="out"/>
<feColorMatrix type="matrix" values="0 0 0 0 0 0 0 0 0 0 0 0 0 0 0 0 0 0 0.25 0"/>
<feBlend mode="normal" in2="BackgroundImageFix" result="effect1_dropShadow_173_2"/>
<feBlend mode="normal" in="SourceGraphic" in2="effect1_dropShadow_173_2" result="shape"/>
</filter>
<filter id="filter4_d_173_2" x="198.494" y="5.93127" width="50.2218" height="48.8895" filterUnits="userSpaceOnUse" color-interpolation-filters="sRGB">
<feFlood flood-opacity="0" result="BackgroundImageFix"/>
<feColorMatrix in="SourceAlpha" type="matrix" values="0 0 0 0 0 0 0 0 0 0 0 0 0 0 0 0 0 0 127 0" result="hardAlpha"/>
<feOffset dy="4"/>
<feGaussianBlur stdDeviation="2"/>
<feComposite in2="hardAlpha" operator="out"/>
<feColorMatrix type="matrix" values="0 0 0 0 0 0 0 0 0 0 0 0 0 0 0 0 0 0 0.25 0"/>
<feBlend mode="normal" in2="BackgroundImageFix" result="effect1_dropShadow_173_2"/>
<feBlend mode="normal" in="SourceGraphic" in2="effect1_dropShadow_173_2" result="shape"/>
</filter>
</defs>
</svg>
