<svg width="263" height="55" viewBox="0 0 263 55" fill="none" xmlns="http://www.w3.org/2000/svg">
<path d="M148.624 53.22L131.5 36.0956L114.376 53.22C112.002 55.5933 108.154 55.5933 105.78 53.22C103.407 50.8461 103.407 46.9978 105.78 44.624L122.904 27.5L105.78 10.376C103.407 8.00221 103.407 4.15385 105.78 1.78004C108.154 -0.593347 112.002 -0.593347 114.376 1.78004L131.5 18.9044L148.624 1.78004C150.998 -0.593347 154.846 -0.593347 157.22 1.78004C159.593 4.15385 159.593 8.00221 157.22 10.376L140.096 27.5L157.22 44.624C159.593 46.9978 159.593 50.8461 157.22 53.22C154.846 55.5933 150.998 55.5933 148.624 53.22Z" fill="#A8171A"/>
<path d="M205.945 50.4465L191 35.5016L176.055 50.4465C173.984 52.5178 170.625 52.5178 168.553 50.4465C166.482 48.3748 166.482 45.0163 168.553 42.9446L183.498 28L168.553 13.0554C166.482 10.9837 166.482 7.62518 168.553 5.55349C170.625 3.48217 173.984 3.48217 176.055 5.55349L191 20.4984L205.945 5.55349C208.016 3.48217 211.375 3.48217 213.447 5.55349C215.518 7.62518 215.518 10.9837 213.447 13.0554L198.502 28L213.447 42.9446C215.518 45.0163 215.518 48.3748 213.447 50.4465C211.375 52.5178 208.016 52.5178 205.945 50.4465Z" fill="#A8171A"/>
<path d="M255.454 46.7054L243 34.2513L230.546 46.7054C228.82 48.4315 226.021 48.4315 224.295 46.7054C222.568 44.979 222.568 42.1802 224.295 40.4538L236.749 28L224.295 15.5462C222.568 13.8198 222.568 11.021 224.295 9.29458C226.021 7.56847 228.82 7.56847 230.546 9.29458L243 21.7487L255.454 9.29458C257.18 7.56847 259.979 7.56847 261.705 9.29458C263.432 11.021 263.432 13.8198 261.705 15.5462L249.251 28L261.705 40.4538C263.432 42.1802 263.432 44.979 261.705 46.7054C259.979 48.4315 257.18 48.4315 255.454 46.7054Z" fill="#A8171A"/>
<path d="M86.9446 50.4465L72 35.5016L57.0554 50.4465C54.9837 52.5178 51.6252 52.5178 49.5535 50.4465C47.4822 48.3748 47.4822 45.0163 49.5535 42.9446L64.4984 28L49.5535 13.0554C47.4822 10.9837 47.4822 7.62518 49.5535 5.55349C51.6252 3.48217 54.9837 3.48217 57.0554 5.55349L72 20.4984L86.9446 5.55349C89.0163 3.48217 92.3748 3.48217 94.4465 5.55349C96.5178 7.62518 96.5178 10.9837 94.4465 13.0554L79.5016 28L94.4465 42.9446C96.5178 45.0163 96.5178 48.3748 94.4465 50.4465C92.3748 52.5178 89.0163 52.5178 86.9446 50.4465Z" fill="#A8171A"/>
<path d="M32.4538 46.7054L20 34.2513L7.5462 46.7054C5.81979 48.4315 3.02098 48.4315 1.29458 46.7054C-0.431525 44.979 -0.431525 42.1802 1.29458 40.4538L13.7487 28L1.29458 15.5462C-0.431525 13.8198 -0.431525 11.021 1.29458 9.29458C3.02098 7.56847 5.81979 7.56847 7.5462 9.29458L20 21.7487L32.4538 9.29458C34.1802 7.56847 36.979 7.56847 38.7054 9.29458C40.4315 11.021 40.4315 13.8198 38.7054 15.5462L26.2513 28L38.7054 40.4538C40.4315 42.1802 40.4315 44.979 38.7054 46.7054C36.979 48.4315 34.1802 48.4315 32.4538 46.7054Z" fill="#A8171A"/>
</svg>
