<?xml version="1.0" encoding="utf-8"?>
<!-- Generator: Adobe Illustrator 22.0.0, SVG Export Plug-In . SVG Version: 6.00 Build 0)  -->
<svg version="1.1" id="Layer_1" xmlns="http://www.w3.org/2000/svg" xmlns:xlink="http://www.w3.org/1999/xlink" x="0px" y="0px"
	 viewBox="0 0 1000 700" style="enable-background:new 0 0 1000 700;" xml:space="preserve">
<style type="text/css">
	.st0{fill:#FF0000;}
</style>
<g>
	<path class="st0" d="M1000,0H0v700h1000V0z"/>
	<path d="M527,528.9c-6.2-5.3-13.9-16.1-13.8-26.5c0.5-7.8,6-12.3,9.5-2.8c5,10.5,15.6,27.7,30.3,17.6c6.4-4.6,6.3-11.4-2.4-10.6
		c-10.8-0.7-17.6-6.6-22.3-21.6c-0.9-8.3,2.7-8.1,7.6-2.7c6.3,7.1,18.9,17.8,32.7,12.1c7.7-3.2,9.9-9.7-1.7-11.3
		c-11,0.2-20-6.8-28.9-17.5c-4.9-5.9,2.3-11.9,6.6-6.8c3.9,3.3,9.3,9.3,14,10.1c5.4,1,12,0.5,19.4-3.3c8-6.5,5.4-11.2-4.3-12.3
		c-7.4,0.4-11.5,3.2-21.2-3.2c-17.3-11.5-31.1-26.9-33.4-45.3c-1.4-12.2,5.2-15.8,10.8-14.4c15.1,3.8,24.9,31.4,35.4,46.6
		c3.4,4.4,6.5,4.4,8.8,3.1c4.2-3.5,7.6-6.4,11.7-10.3c0,0,30.7,5.4,47.4,10.7l-18.6,6.5c-7-3.8-15.5,0.3-15.5,6.9
		c-6.6,4.5-6.1,9.8-3.3,14.9c0.9-3.6,1.6-8.2,6.9-8.8c7.6,3,16.3-1.3,16.3-7.1l21.9-8.5l22.1,12.3c0,8.3,8.1,11,16.4,8.7
		c4,2.4,6.4,6.6,7.9,11c2.4-6.4,1.9-11-1.9-14.1c2.2-8.3-9.7-16.3-18.9-11l-15.9-9l27.3-0.8c3.2,5.5,14.6,5.8,18,0
		c2.9-0.8,5.3-1.3,10.8,2.8c-1.7-6.6-5.2-9.4-10.3-9.4c-3.9-6.8-18-6.7-20,0.9l-28.5,0.8l16.8-11.8c6.3,3.6,15.1-0.4,16.9-7
		c2.6-2.9,5.6-4.3,11.7-2.3c-3.2-5.5-7.6-7.1-15.6-3.4c-7.3-5.4-16.9,1.2-15.4,6.6l-22.4,15c-16.3-4.8-45.8-12.2-45.8-12.2
		c3.5-3.6,7-7,10.6-10.7c1.2-2.2-0.7-4.7-3.4-5.2c-26.3-5.3-41.4-15.7-50.6-42.2c-3.8-11.1,4.5-14.4,7.2-7.6
		c3.9,9.4,8.3,19.7,20.1,27.7c4.1,2.8,16.2,0.5,9.1-6.2c-7.4-6-10.6-8.6-14.3-23.2c0-7.4,7.7-10.7,11.9-3.6
		c4.6,14.5,5.1,20.8,13.4,30.2c6.3,7.1,14.5,11.9,18.6,11.8c7.3-0.1,14.7-7.9,4.9-13.5c-14.4-5.6-19.7-13.4-21.8-20.7
		c-2.3-12.8,0.2-19,8.2-12.7c11.2,12.5,32.6,35.7,43.8,46.5c12.6,9.4,26.9,9.7,38.5,0.2c6.5-7.4,4.3-15.4-6-13.7
		c-23.2,1.9-40.7-9.4-60-39.9c-3.8-6.9-4.8-16.8,3.5-9.4c9.6,12.7,23.6,23.6,36.6,28.2c13.1,4.6,23.9,2.1,28.1-2
		c5-4.9,3.7-17.4-5-14.4c-7.1,2.5-17.3,3.1-27.9-0.9s-21.5-12.7-33.2-27.5c-4-8.3-2.7-15.4,5.4-11.1c19.1,15.8,43.7,28.7,56.2,21
		c9.3-5.6,9.4-20.1-2.3-19.2c-23.6,3.2-32.6-2-55.2-21.6c-5.2-3.8-4.8-13.4,3.4-7.2c19.1,12.1,45.1,16.8,55.3,10.5
		c9.2-5.6,7.9-22.9-7.7-16.8c-12.4,7.4-26.1,7.2-53.5-12c-6.9-5.6-1.7-13,3.9-9.8c22,12.3,54.2,17.6,62.6-7.5
		c3.3-9.6-2.7-15.2-11.2-8.5c-19,17.2-40.4,8.7-52.4,0.1c-3.5-2-9.8-12.1,1.3-10.2c28.7,6.4,57.1,0.8,62.2-19.1
		c3-6.5-2.9-17.9-13.4-8.3c-13.8,13.4-28.4,13.8-46.8,13.7c-9.4-1.9-9.5-12-1.6-13.5c14.5,0.3,28.8-5.9,40.3-12.2
		c11.2-6.3,20.5-15.2,23.5-27.4c1.8-11-9-22.6-15.5-11c-9.6,17-30.9,33.1-54.6,36c-1.2-2-4.3-7.2-8.2-5.7
		c-6.9,2.6-15.2,6.2-23.8,10.1c-18.4,8.5-26,12.7-23.8,27.4c2.3,15.4-9.8,25.2-19.8,22.5c-8.8-2.3-13.6-10-11.9-23.4
		c1.2-10.7,12.2-23.6,24.5-30.4c8-4.4,20-6.8,34.6-9.9c8.9-1.7,13.4-5.1,13.9-8.6c0,0-6,4.3-15.7,3.7c-4.6-0.3-7.7-2.3-8.8-4.3
		c3.4-0.7,9.5,0.1,14.9,0.1c7.2-0.1,24.2-1.7,28.7-11.7c1.4-6.6-3.1-7.8-7.1-3.6c-4.5,4.6-6.2,8.7-15.2,10.3
		c-5.4,0.9-10.8,2-17.9,0.4c3.9-4.6,10.2-9.3,15.5-8.4c1.7,0.3,4.1,1.9,5.9,4.7c1.1-7.2-0.9-15.4-20.7-12c0.3-5.5-11.4-7.9-18.6-7.8
		c-4,0.1-12.2,2.4-18.2,5.2c-9.4,2.9-18.7,4.9-29.7,5.7c6.3,5.3,7.6,5.6,13.9,10.1c-9.6,3.5-17,10.8-20.4,15.5
		c0,0,11.2-0.3,14.1,0.9c-11.7,3.4-17,5.4-23.2,11.6c2.1,0.4,5.4,1,6.8,1.5s1.1,1.4-0.1,2.3c-2.6,1.9-13,13.8-16,16.6
		c-3.1-2.8-13.5-14.7-16-16.6c-1.2-0.9-1.5-1.8-0.1-2.3c1.4-0.5,4.7-1.1,6.8-1.5c-6.2-6.2-11.4-8.2-23.2-11.6
		c2.9-1.2,14.1-0.9,14.1-0.9c-3.4-4.8-10.8-12-20.4-15.5c6.3-4.5,7.6-4.8,13.9-10.1c-10.9-0.8-20.2-2.8-29.7-5.7
		c-5.9-2.8-14.2-5.1-18.2-5.2c-7-0.1-18.9,2.3-18.6,7.8c-19.8-3.4-21.8,4.8-20.7,12c1.8-2.8,4.2-4.4,5.9-4.7
		c5.3-0.9,11.5,3.8,15.5,8.4c-6.9,1.7-12.4,0.6-17.9-0.4c-8.9-1.5-10.7-5.7-15.2-10.3c-4.2-4.2-8.6-3.1-7.1,3.6
		c4.5,10,21.4,11.6,28.7,11.7c5.5,0,11.5-0.8,14.9-0.1c-1.1,2-4.2,4-8.8,4.3c-9.7,0.6-15.7-3.7-15.7-3.7c0.5,3.5,5,6.9,13.9,8.6
		c14.5,3.2,26.5,5.6,34.6,9.9c12.3,6.8,23.3,19.7,24.5,30.4c1.5,13.4-3.3,21.1-11.9,23.4c-10,2.7-22.1-7.1-19.8-22.5
		c2.2-14.8-5.4-18.9-23.8-27.4c-8.6-4-16.8-7.5-23.8-10.1c-3.8-1.5-6.9,3.7-8.2,5.7c-23.7-2.9-44.9-18.9-54.6-36
		c-6.5-11.6-17.3,0-15.5,11c3,12.3,12.2,21.1,23.5,27.4c11.4,6.3,25.8,12.5,40.3,12.2c7.9,1.5,7.8,11.6-1.6,13.5
		c-18.4,0.1-33-0.4-46.8-13.7c-10.5-9.6-16.3,1.9-13.4,8.3c5.2,19.9,33.6,25.5,62.2,19.1c11.1-1.9,4.8,8.2,1.3,10.2
		c-12,8.6-33.5,17.1-52.4-0.1c-8.7-6.6-14.5-1-11.2,8.5c8.4,25.1,40.5,19.8,62.6,7.5c5.7-3.2,10.8,4.2,3.9,9.8
		c-27.4,19.2-41.1,19.4-53.5,12c-15.5-6.1-16.8,11.1-7.7,16.8c10.2,6.3,36.2,1.6,55.3-10.5c8.2-6.1,8.6,3.5,3.4,7.2
		c-22.7,19.6-31.6,24.7-55.2,21.6c-11.7-0.9-11.5,13.6-2.3,19.2c12.6,7.7,37.1-5.1,56.2-21c8.1-4.3,9.4,2.7,5.4,11.1
		c-11.6,14.8-22.6,23.4-33.2,27.5c-10.5,4-20.6,3.4-27.9,0.9c-8.8-3-10.1,9.4-5,14.4c4.2,4,15,6.6,28.1,2
		c13.1-4.7,27-15.5,36.6-28.2c8.4-7.4,7.2,2.5,3.5,9.4c-19.3,30.5-36.8,41.8-60,39.9c-10.3-1.7-12.7,6.3-6,13.7
		c11.4,9.6,25.9,9.3,38.5-0.2c11.2-10.8,32.6-34.1,43.8-46.5c7.9-6.3,10.4-0.1,8.2,12.7c-2.1,7.4-7.3,15.1-21.8,20.7
		c-9.8,5.6-2.4,13.4,4.9,13.5c4.1,0.1,12.2-4.7,18.6-11.7c8.3-9.4,8.8-15.6,13.4-30.2c4.3-7.1,11.9-3.8,11.9,3.6
		c-3.7,14.6-6.8,17.2-14.3,23.2c-7.1,6.7,5,9,9.1,6.2c11.8-8,16.1-18.3,20.1-27.7c2.9-6.8,11.1-3.5,7.2,7.6
		c-9.2,26.5-24.2,36.9-50.6,42.2c-2.7,0.5-4.6,3-3.4,5.2c3.5,3.7,7,7,10.6,10.7c0,0-29.5,7.4-45.8,12.2l-22.4-15
		c1.4-5.5-8.2-12-15.4-6.6c-8-3.7-12.4-2.1-15.6,3.4c6.1-2,9.2-0.6,11.7,2.3c1.7,6.6,10.6,10.7,16.9,7l16.8,11.8l-28.5-0.8
		c-2-7.6-16.1-7.6-20-0.9c-5.1,0-8.6,2.8-10.3,9.4c5.6-4.1,8-3.6,10.8-2.8c3.4,5.8,14.8,5.5,18,0l27.3,0.8l-15.9,9
		c-9.2-5.3-21,2.7-18.9,11c-3.9,3.1-4.4,7.7-1.9,14.1c1.3-4.5,3.9-8.6,7.9-11c8.4,2.2,16.4-0.4,16.4-8.7l22.1-12.3l21.9,8.5
		c0,5.8,8.8,10.1,16.3,7.1c5.3,0.6,6,5.2,6.9,8.8c2.9-5.1,3.4-10.4-3.3-14.9c0-6.6-8.5-10.7-15.5-6.9l-18.6-6.5
		c16.7-5.3,47.4-10.7,47.4-10.7c4.2,3.9,7.6,6.8,11.7,10.3c2.2,1.3,5.4,1.3,8.8-3.1c10.4-15.2,20.3-42.8,35.4-46.6
		c5.5-1.4,12.2,2.3,10.8,14.4c-2.1,18.5-15.9,33.8-33.4,45.3c-9.7,6.3-13.8,3.5-21.2,3.2c-9.7,1.1-12.2,5.8-4.3,12.3
		c7.3,3.8,14.1,4.3,19.4,3.3c4.7-0.8,10.1-6.8,14-10.1c4.4-5,11.5,0.9,6.6,6.8c-9,10.7-18,17.7-29,17.5c-11.6,1.6-9.5,8.1-1.7,11.3
		c13.9,5.7,26.4-5,32.7-12.1c4.9-5.3,8.5-5.5,7.6,2.7c-4.9,15.1-11.5,20.9-22.3,21.6c-8.8-0.8-8.9,6-2.4,10.6
		c14.7,10.1,25.3-7.1,30.3-17.6c3.5-9.5,9-5,9.5,2.8c0.1,10.4-7.6,21.2-13.8,26.5c-6.2,5.3,27,39.2,27,39.2S533.4,534.3,527,528.9
		L527,528.9z M571.7,145c-5.2,0-8.4,1.8-8.4,3.9c0,2.2,3.2,4,8.4,4c5.2,0,8.5-1.9,8.5-4.1C580.1,146.6,576.8,145,571.7,145
		L571.7,145z M428.3,145c5.2,0,8.4,1.8,8.4,3.9c0,2.2-3.2,4-8.4,4s-8.5-1.9-8.5-4.1C419.9,146.6,423.2,145,428.3,145L428.3,145z"/>
</g>
</svg>
