<?xml version="1.0" encoding="utf-8"?>
<!-- Generator: Adobe Illustrator 22.0.0, SVG Export Plug-In . SVG Version: 6.00 Build 0)  -->
<svg version="1.1" id="Layer_1" xmlns="http://www.w3.org/2000/svg" xmlns:xlink="http://www.w3.org/1999/xlink" x="0px" y="0px"
	 viewBox="0 0 1000 1000" style="enable-background:new 0 0 1000 1000;" xml:space="preserve">
<style type="text/css">
	.st0{fill:#873030;}
</style>
<g>
	<path class="st0" d="M543.4,208.4h6.8c0,4.4,3.4,5.3,4.7,7.2c2.8,3.8,10,1.3,15,3.1c10,3.7,24,8.4,34.9,8.4c10,0,13.1-4.7,22.7-4.7
		c5.9,0,9.4,4,16.2,4c4.7,0,4.7-1.6,8.7-2.5c2.2,5.6,6.2,9.7,6.2,15.6c0,2.8-5,14.4-6.2,18.1c-6.6-0.9-11.8-15-17.1-20.3v5.3
		l29.6,52.4c-1.5,6.5,7.8,20.3,12.5,24v16.5c3.1,8.4,9.3,8.4,14,14.7c5.6,7.5,2.2,15.6,7.8,21.2c5,5,8.4,5.3,14,9.3
		c5,3.8,7.7,16.7,18,16.7c0,5.3,2.9,6.1-0.2,9.8c4,3.1,8.1,13.1,13.4,13.1c5,0,5.3-4.1,9.4-5.3c4.6-1.6,7.8,0.6,12.4,0
		c11.9-1.9,23.1-6.5,34.3-9.4c0.9,1.9,2.2,2.8,2.2,4.7c0,17.8-14,40.9-21.8,51.4c-9.4,12.5-13.4,23.7-25,32.8
		c-20.5,16.2-42.7,21.2-50.5,49c-2.2,7.8-10.3,10-10.3,18.7c0,9.6,2.5,14,2.5,23.3c0,10.6,11.6,15.9,11.6,21.8
		c0,1.9-1.9,4.1-2.2,4.7v7.8c0,5-0.9,10.9-0.9,19.7c1.9,1.8,2.5,3.7,2.5,6.2c0,24.3-41.2,21.5-44.6,42.1c-4.4,0.6-9.4,5.9-9.4,9.4
		c0,6.9,8.8,11.5,8.8,20.9c0,5-0.6,15.3-2.5,18.1c-1.9,2.5-7.2,1.2-9.3,2.2c-7.5,3.7-11.9,6.8-15.6,14.7c2.8,1.5,4.7,3.7,4.7,6.6
		c0,8.7-8.7,15.6-12.5,19.3c-6.9,6.8-7.5,14-12.5,20.3c-7.8,10-11.2,18.7-24,24.9c-5.3,2.5-13.1,0-14,5.6c-4.1,0.3-6.6,2.2-9.4,2.2
		c-3.4,0-5.3-3.1-8.7-3.1c-13.1,0-20.9,9.3-32.7,9.3c-5.3,0-8.1-2.8-10-6.2c-1.9,0.3-2.5,1.3-3.1,1.6c0-6.2-3.1-13.1-5.6-15.6
		c2.5-2.5,4.1-5,4.1-8.4c0-5-8.7-14.4-10.3-17.2c-11.2-19-25.6-37.4-25.6-64.9c0-5,0-5.9,0-8.4c0-4.4-3.7-5.9-6.3-10.3
		c-8.7-14.6-18.1-26.5-18.1-46.8c0-21.8,19.6-27.1,19.6-43.7c0-7.8-3.1-10.9-4.1-17.8c-2.2-13.4-4.7-18.1-7.8-25.8
		c-2.5-6.3-1.3-13.4-5.3-18.7c-8.1-10.3-25.9-21.2-25.9-35.8c0-3.4,5-11.2,7.2-12.5c-1.3-2.8,0-3.4,0-4.7c0-3.7,0-13.1,3.1-15.6
		c-3.4-6.9-9-13.1-19.6-13.1c-5.6,0-10.3,0-13.1,0c-9.4,0-11.5-18.1-24.3-18.1c-15.6,0-27.1,7.2-39,10.9c-4.7,1.6-6.2,5.6-10.9,5.6
		c-4.7,0-12.5-4.7-18.7-4.7c-12.2,0-17.5,6.3-29.7,6.3c-3.7,0-8.1-1.6-9.4-2.5c-8.7-6.6-26.8-17.2-33.4-27.1
		c-5.9-9.1-7.8-16.6-15.6-22.8c-2.2-1.5-18.7-16.2-18.7-17.4c-1.5-1.9-2.5-2.5-4.1-4.4h0.9c0-4.7-1.6-7.2-1.6-10
		c0-4.4-2.5-5.9-4.7-10.3c6.9-3.4,13.1-20.3,13.1-28.1c0-13.7-6.2-22.5-6.2-34.9c0-6.3,7.2-10,8.7-15c4-12.2,13.4-28.7,20.9-39
		c4.4-5.9,12.5-5.3,18.1-8.4c4.7-2.8,12.5-9,14-14c3.7-11.5-0.9-16.5,5.3-24.3c8.1-10.3,18.7-20,26.5-29.6H297
		c2.5-3.1,3.1-5.9,6.3-8.4c7.8,5.6,15.9,7.8,26.5,7.8c6.5,0,7.8-3.7,11.5-5.6c12.2-5.9,35.2-14.7,49.3-14.7c4.4,0,8.4,3.1,10.9,3.1
		c3.4,0,8.4-4.7,13.1-4.7c4.1,0,5.9,2.2,9.4,2.2c6.2,0,6.5-4.6,12.5-4.6c5.9,0,4.3,5.6,9.4,5.6c1.9,0,2.8-1.6,4.7-1.9
		c-0.3,4.7-4.7,4-4.7,8.1c0,2.8,4,4,4,6.8c0,4.7-4,7.2-4,11.8c0,7.8,8.1,14.7,14,14.7c3.7,0,6.2,0,8.7,0c20.3,0,27.5,24.9,50.5,24.9
		c2.8,0,6.2-3.1,6.2-4.7c0-2.2,0-4.1,0-6.2c0-10,7.5-10,17.2-13.1L543.4,208.4z"/>
</g>
</svg>
