<?xml version="1.0" encoding="utf-8"?>
<!-- Generator: Adobe Illustrator 22.0.0, SVG Export Plug-In . SVG Version: 6.00 Build 0)  -->
<svg version="1.1" id="Layer_1" xmlns="http://www.w3.org/2000/svg" xmlns:xlink="http://www.w3.org/1999/xlink" x="0px" y="0px"
	 viewBox="0 0 1000 1000" style="enable-background:new 0 0 1000 1000;" xml:space="preserve">
<style type="text/css">
	.st0{fill:#873030;}
</style>
<path class="st0" d="M420.1,269.5l6-8c0,0-1-8,2-9c3-1,10-4,10-4l15-7c0,0,0-1,4-2c4-1,10-2,10-2s4-5,8-6c4-1,17-3,17-3
	c12,2,17,2,20.1,2c3,0,15,1,18,2c3,1,14,1,17,0c3-1,6-3,10,0c4,3-2-3,4,3c6,6,9,0,9,0s0,0,5,3c5,3,15,12,18,13c3,1,8-1,10,2
	c2,3,0,5,8,5c8,0,17,1,17,1l23.1,1c6,14,11,15,11,15l15,13c0,0,7-7,15-7c8,0,8-2,14,1c6,3,4,8,9,8c5,0,6,0,9,0c3,0,4,1,12,4
	c8,3,8,0,14,3c6,3,8,4,8,7c0,3,5,25,5,32.1c0,7,2,19.1,2,19.1s-1,2,2,7c3,5,3,18,3,18s-1,2-1,7c0,5,2,16,2,16s2,3-1,9
	c-3,6-9,11-9,11s-4,2,0,8c4,6,2,3,8,9c6,6,6,6,6,6l8,5c0,0,3-2,11,1c8,3,10,7,10,7s20,1,14,8c-6,7-5,31.1-5,31.1s-1,6-1,9
	c0,3-4,10-3,14c1,4-5-3,1,4c6,7,21,16,21,16s2,2-2,4c-4,2-8,6-8,6l-1,26.1l-9.1,18c0,0-5,0-9,6c-4,6-10,17-10,17s-6-5-2,6
	c4,11,7,19,1,25.1c-6,6-11,7-11,7l-8,6l-1,7c0,0-9,19-12,27.1c-3,8-11,18.1-11,18.1s1-1-5,2c-6,3-11,7-11,7s-1,14-5,16c-4,2-4,2-4,2
	s-9,11-15,11c-6,0-6-2-10,0c-4,2-21.1,9-21.1,9s-7,1-13,3c-6,2,0,2-10,4c-10,2-12,2-18,2s-7-7-16-5c-9,2-7,2-16,1c-9-1-15-1-18-1
	c-3,0-4-3-14-3c-10,0-16,2-20,1c-4-1-1-2-7-6c-6-4-2-3-10-7c-8-4-9,7-8-4c1-11,1-11,1-11s4-5,6-11c2-6-2-1,2-6c4-5,4,0,4-9
	c0-9,5-7,1-13c-4-6-2-8-6-10c-4-2-8-6-8-6s3,2-7-2c-10-4-7-2-15-4c-8-2-12-2-16-5c-4-3,1,3-4-3c-5-6-11-11-11-11s-1,0-4-1
	c-3-1-8-7-11-5c-3,2-6,0-12,2c-6,2-11,4-11,4l-16,1l-3,12c0,0,0,3-6,3c-6,0,0-2-14,0c-14,2-19,2-23,2c-4,0-4-2-16.1-3
	c-12-1-1,8-12-1c-11-9-12-6-14-13c-2-7,2-6-6-12c-8-6-7-4-12-8c-5-4-9-6-9-6s-6,6-9-6c-3-12-4-10-5-16c-1-6,0-7-1-10c-1-3-3-4-3-13
	c0-9,1-27-13-28.1c-14-1-15,4-21-1c-6-5-8-2-11-9c-3-7-4-7-4-11c0-4,20-25.1,16-28.1c-4-3-11,4-7-7c4-11,4-11,4-11l4-7c0,0,8,0,3-8
	c-5-8-10-6-9-11c1-5-3-1,1-5c4-4,8-5,9-9c1-4,3-7,0-10c-3-3-3-4-7-4c-4,0-7,0-12,0c-5,0-3,3-11,0c-8-3-8,1-8-3c0-4-1-3-6-9
	c-5-6-1-8,3-17c4-9,7-7,1-13c-6-6-11-8-11-8s-8,1-10-2c-2-3,13,11-2-3c-15-14-16-4-16-18c0-14,0-14,0-14l-12-9c0,0,11,7,4-10
	c-7-17-2-14-1-22.1c1-8,12-19,12-19l2,6c0,0,6-4,6,3c0,7-4,9-3,12c1,3-5-2,1,3c6,5,0,11,0,11l-3,4c2,5,2,5,2,5s4,5,10,5c6,0,8,1,9,4
	c1,3,3,7,3,7s1-1,4,1c3,2,13,4,13,4s2-1,5-1c3,0,7,6,7,6s-3,0,1,4c4,4,5,11,5,11h9l33.1,11c1,7,7,14,10,14c3,0-4-1,3,0
	c7,1,14,3,14,3l9-4v-4h5c0,0,11-3,14-4c3-1-15,0,3-1c18-1,18-1,18-1s3-2,8-6c5-4,17-11,17-11v-6c0,0,0-3,0-7c0-4-1-6,0-9
	c1-3,2-8,3-11c1-3,5-9,4-12c-1-3-4-5-5-8c-1-3,5-17,5-17s3-2,6-3c3-1,3.7-13,7.7-16.7c4-3.7,4-3.7,5-6c1-2.4,0.7-0.3,1-2.4
	C415.1,271.5,414.4,269.2,420.1,269.5z"/>
</svg>
