<?xml version="1.0" encoding="utf-8"?>
<!-- Generator: Adobe Illustrator 22.0.0, SVG Export Plug-In . SVG Version: 6.00 Build 0)  -->
<svg version="1.1" id="Layer_1" xmlns="http://www.w3.org/2000/svg" xmlns:xlink="http://www.w3.org/1999/xlink" x="0px" y="0px"
	 viewBox="0 0 1000 1000" style="enable-background:new 0 0 1000 1000;" xml:space="preserve">
<style type="text/css">
	.st0{fill:#873030;}
</style>
<g>
	<path class="st0" d="M151.2,582.6l-3.9-9.3c0-1.2,1.2-1.2,1.4-1.9c1.2-3.8,1.8-5.8,2.8-9.3c1-3.5,4.5-4.4,4.5-8.4
		c0-3-0.9-5.4-0.9-7.5c0-1,0.9-1.4,1.2-1.7v-1.7c-1.4,0.5-1.9,1.6-3.3,1.6c-1.8,0-2.8-0.7-3.5-1.4c-2.8,2.1-3.7,4.4-8.8,4.4
		c-3.7,0-5.1-4.4-8.7-4.4c-3.7,0-3,4-6.1,4c-3.3,0-5.1-4.7-8.4-3.2h-1.9c0.5-0.2,1.2-0.7,1.4-1c-1.1-1.1-6.1-3.7-4.4-5.4
		c-1.6-2.3-3.5-2.1-5.9-3.3c1.7-1.8,3.7-1.4,3.7-4.7c0-1.2-0.4-1.2,0-2.1c-1.2,0-3,0.2-3-0.9c0-5.4,12.6-4.4,15.8-5.9
		c-0.3-1.4-1.4-0.9-1.4-2.1c0-1.6,3.3-0.9,4.2-0.9c2.1,0,5.4,0,5.4,0c2.1,0,5.3-2.3,7.2-3.5c2.3-1.4,7.2-1.6,10.1-1.6
		c4.7,0,4.6,2.6,8.6,2.6c0,2.1,6.8,3.3,8.8,3.5c5.1,0,8.2,0,10,0c4.7,0,6.8-4.7,12.1-4.7c5.8,0,5.4,3.3,7.2,7
		c0.3,0.7,3.8,2.8,4.2,2.8c3.2,1.1,3.9,6.3,8.8,6.3c3.9,0,3.7-3.1,6.3-4c1.4-0.5,1.2-0.3,2.4-0.5c0.5,1,0.5,2.5,1.2,3.2
		c-0.2,0.3,0,0.7,0,1.1c0,1.7,1.4,1.6,2.3,3c1.4,2.1-0.2,3.5,0.9,5.6c0.9,1.9,3.2,0.9,5.1,1.2c1.6,0.4,1.9,2.1,3,3.1
		c1.4,1.4,5.8,1,8,1c3,0,6.1-0.5,8.2-1c0-1.6,0-1.7,0-3.1c0-1.6,2.1-1.6,3.7-2.1c2.1-0.7,1.6-1.4,3.3-2.1c3.3-1.2,5.3-0.4,7.9-2.4
		c3.9,2.2,6.1,2.4,9.8,3.6c4.2,1.4,5.6,5.3,10.7,5.3c0.2,1.1,1.2,1.4,1.4,2.1c0.9,2.6-0.2,5.2,0.9,6.8c-1.2,0.7-4,7-4,7.3
		c0,0.5,0.5,1.4,0,1.8c0.5,0.9,0.3,1.2,0.7,2.1v5.4c0.7,1.6,0.2,2.6,0.9,4.2c0.7,1.6,4.2,0,4.2,3c0,3.7-3.9,3-3.9,6.1
		c0,2.1,1.6,2.1,2.1,3.2c2.8,5.8,8.9,6.7,8.9,14.2c-4.6,1-7.5,1.9-7.5,6.8c0,1.2,0.7,2.1,0.7,3c0,0.2-0.7,0-0.9,0
		c-3.3,0-11-2.1-15.8-2.1c-0.9,0-6-1.4-6.1-1.6c-1.7-1.8-1.7-7-5.4-7c-1.9,0-2.6,1.6-3.7,2.6h-8.8c-2.8-0.9-4.2-3.2-6-4.9
		c-2.1-2.1-4.9-1.1-6.8-3c-1-1.1-0.5-2.4-0.9-3.2c-1.9-3.8-5.8-9.3-10.7-9.3c-2.5,0-3.5,3.1-3.5,5.6c0,1.7,0,2.6,0.4,4
		c1,4.2,6,11.7,10,12.6c0,1.9,1,2.5,1.2,4c2.1-0.5,1.8-2.8,3.5-3.1c0.2,0.7,0.2,1.2,0.2,1.9c0,2.1-1.2,3.5-1.2,5.6
		c0,2.4,4.5,3.7,7.2,3.7c11.7,0,12.6-7.2,18.9-11.9v6.5c2.5,5.1,5.8,6,10.9,7.5c1.9,0.5,2.1,3.5,3.3,4.2v-0.2
		c0.9,1.6,3.3,1.2,3.3,2.8c0,4-5.1,5.4-5.1,9.6c-2.6,0-4.4,0.7-5.1,2.8c-0.7,2.1-0.5,5.1-2.6,5.1c-2.6,0-2.4,5.1-5.1,5.1
		c-1.6,0-4.9,3-4.9,5.1c-4.7,0.9-15.4,2.8-15.4,6.6c0,0.5,0.3,1.2,0.7,1.6c-4,1.9-9.5,3.1-13.7,4.2c-2.1,0.5-9.1,5.4-11.4,6.5h-5.4
		c-3,2.1-3.5,3.5-7.1,3.5l-1.1,0.7c-0.5,0-5-2.2-5.5-2.4c-0.4-0.2,0.9-0.2-0.2-2c-1.8-2.7-3.1-5.6-3.1-8.9c-1.9-0.2-0.6-3.5-0.2-5.1
		c0.9-3.9-2-5.4-4-7.4c-2.1-2.1-6.9-8.1-6.9-12.3c-6.1-1.4-7.6-5-7.6-11.6c0-4-2.3-4.9-3-8.2l0,0c-0.8-0.7-1.7-1.7-2.3-2.3
		c-0.7-0.7-3-0.3-3.5-0.9c-1.1-1-0.7-3.7-1.1-4.7c-0.5-1.8-1.8-3.2-2.4-4.2c-2.1-3.1-3.9-5.8-5.8-8.7c-0.5-0.9-3-3.7-3-4.2
		c0-1.8,1.2-5.8,1.2-8.4V582.6z"/>
	<path class="st0" d="M338.7,637.8l-0.8-0.8c0,0.5,0.3,2,0.3,2.5c0,3.3,1.9,6.6,3,10.2c1.2,3.9,4.4,9.6,5.2,12.3
		c0.7,2.3,0.7,3.3,2.1,5.6c1.4,2.1,0.5,4.4,1.9,7.2c0.7,1.4,3.2,3.2,3.9,5.6c1.2,3.7,3.1,7.2,4.5,11.4c0.2,0.5,0.7,1.8,1.6,1.8
		c0.2,1.2,1.2,1.9,2.6,1.7c1.4,0,1.6-2.1,2.3-3.5c0.9-1.8,1.2-1.1,3.3-2.1c1.4-0.7,0.9-5.3,3.3-5.9c0.5-0.2,1.8-0.2,1.8-0.7l0.9-0.2
		l-0.9-4.6c0-3.3,2.1-6.1,2.1-10.5c0-2.8-1.2-4.6-1.2-7.7c0-3.7,3.7-4.2,6.8-5.2c1.2-0.4,3.1-2.4,4.5-3.9c3.3-3.3,6.5-6.8,10-10.3
		c2.8-2.8,7.9-3.7,11-6.8c1.6-1.6,1.4-3.5,2.1-5.9c0.5-1.6,4.2-1.7,5.4-4.4c1.4,0.9,1.4,1.7,4.2,1.7c4.6,0,9.4-1.1,9.4-6.3
		c2.6,0.5,5.6,1.6,6.3,4c0.7,2.1,0.4,4.9,1.8,7c1.4,2.3,3.3,3.7,5.8,5.6c1.8,2.8,3.9,5.6,5.1,9.3c0.2,0.9,1,1.4,1,2.3
		c0,1.9-0.9,3-0.9,5.3c0,2.3,0.2,4.4,2.8,4.4c4.9,0,6.1-5.1,9.1-8.1c1,1.1,0.5,1.8,1.6,2.8c0.4,0.3,1.7,0,2.3,0.9
		c1.7,2.6-1.2,7.9,1,7.9c0,5.6,4.6,10.1,4.6,17.9c0,1.9-1.4,5.9,0,6.6c1.4-3,1.9-4.9,3.5-8.2c0.2-0.5,1.4-1,1.4-1.9
		c0-1.4-2.4-9.6-3.7-10.9c-1.2-1.2-3.2-2.1-3.2-4c0-0.5,0.2-1,0.2-1.6v0.2c0.4-0.4,1.8-2.3,1.8-3.7c0-2.1-0.2-5.8-1.4-7.7
		c-1-1.6-3.3-1.6-3.3-4.7c0-3.2,1.1-5.6,2.8-7.3c0.9-0.9,3-0.5,4.4-1.4c4.2-2.8,6.8-4.2,10.3-9.5c-1,0-1.6,0.4-2.8,0.4
		c-3.5,0-5.6-3.9-5.6-7.4c-1.9-0.4-2.3-5.2-3.7-5.2c-1.4,0-2.3,0.9-3.7,0.9c-0.5,0-0.7-1.2-0.7-1.7c0-6.5,4.5-6.7,4.5-13.7
		c0-3.7-2.4-4.9-4-7.5c-4.4-2.1-8.1-1.8-9.5-7.4h-1l-1.6,1.6c-2.1,0.7-4.4-1.2-5.8,0.2c-0.7,0.7-1.1,1.4-2.1,2.1
		c-1.2,0.7-7,5.6-9.4,5.6c-3,0-4.7-2.1-8.6-2.1c-4.4,0-5.1,3.1-7.5,4.4c-0.2-1.2-0.9-3.8-1.7-3.8c-1.1,0-1.6,0.9-3.1,0.9
		c-2.6,0-4.9,0-7.4,0c-4,0-5.6-2.6-8.2-4.4c-0.9-0.5-2.3,0.9-2.8-0.4c-0.7-1.4-0.7-2.6-2.1-3.3c-2.6-1.2-4.4-0.5-6.5-2.6
		c-2.1-2.1-4-1-7.9-1.9c-3.2-0.7-4-3-7.2-4c-0.7-0.2-2.5,0-2.8-1.1c-0.7-2.1-0.5-3.5-1.1-5.6v-1.6c1.9,0,4,0.4,4-1.9
		c0-1.9-2.6-2.4-2.6-4.4c0-4.6,6.5-3.9,6.5-8.6c0-1.7-4-4.9-5.6-4.9c-3,0-4.2,2.6-7.2,3.2c-3.3-1-5.3-1-7.9-3.7
		c-1.1-1-0.2-3.3-2.1-3.9c-2.6-0.9-4.2,0-4.2-3c-2.3-0.5-3.7-0.5-5.9-0.5c-3.5,0-4.9,3-8.9,3c-4,0-0.2-9.1-3.7-9.1
		c-3.7,0-4.4,4.2-6,4.2c-0.3,0-0.7,0.2-1,0c-1.4,2.3-4.2,4.4-7.5,4.4c-1.4,0-1.9-1.9-3.3-1.9c-1,0-5.3,1.4-5.6-0.7
		c-1.6,0-1-0.7-2.8-0.7c-4.4,0-4.7,4.5-7.7,7.5c-1.4,1.4-3.5,1.4-4.9,2.8c-1,1-1.9,2.8-4,2.8c-1.7,0-2.6-1.4-4.4-1.4
		c-0.5,0-0.5,0.9-0.9,1c-1.2,0.7-4,7-4,7.3c0,0.5,0.5,1.4,0,1.8c0.5,0.9,0.3,1.2,0.7,2.1v5.4c0.7,1.6,0.2,2.6,0.9,4.2
		c0.7,1.6,4.2,0,4.2,3c0,3.7-3.9,3-3.9,6.1c0,2.1,1.6,2.1,2.1,3.2c2.8,5.8,8.9,6.7,8.9,14.2c-4.6,1-7.5,1.9-7.5,6.8
		c0,1.2,0.7,2.1,0.7,3l6.1-0.4c0.3-0.3,0.8-0.9,1.6-1.2l4.6,1.2c1.7,0,2.3-1.4,4.4-1.4c1.9,0,3.3-0.4,5.2,0.2c2.1,0.7,3.2,4.7,4.6,7
		c1.7,2.6,6.8,6.1,10.3,6.1c1.4,0,2.6,0,4,0.3c-0.7,0.7-0.9,2.3-2.3,2.6c-1.6,0.5-2.8-0.4-4.4,0.7c2.6,2.6,4.7,8,10.2,8
		c4.5,0,4.7-5.9,7-8.2h1.4c0,0.7-1,1.9-1,2.4c0,2.3,1.7,4.4,1.7,7.2c0,2.3-0.9,2.6-0.9,5.2L338.7,637.8z"/>
	<path class="st0" d="M475.2,737.1c-0.5,0-0.2-1-0.5-1.6c-0.2-0.4-2.3-0.5-2.8-0.9c-0.9-0.5-2.1-4.7-2.5-6.1c-1.2-4-5.2-3.3-6.5-5.8
		c-1-2.1-1.6-3.2-2.6-5.3c-0.7-1.6-2.4-1.2-4-1.6c-1.4-0.3-4.2-5.2-4.7-7v-1.4c0.3,0,0.7,0,1.1,0c1.7,0,2.1,0.9,3.5,1.6h5.8
		c3.8,1.2,5.1,3.8,6.5,6.6c0.3,0.9,1.2,0.7,1.9,0.9c2.6,0.9,3.9,3,5.6,4.7c3.4,3.3,5.3,5.6,10.2,7.2c2.6,0.9,5.6,1.8,5.6,4.4
		c0,0.2-0.3,0.7-0.3,0.9c0.5,0,0.9,0,1.4,0c0.7,0,1.2,0.9,1.6,1.6l-0.7,1.7c0,2.3,1.4,2.8,3.3,2.8c0,3.7,2.1,4.7,4,6.6
		c1,1.1,3.5,1.6,3.5,3.3c0,2.3,0,3.7,0,7.5c-1.7,0.7-0.9,3.1-0.9,4.9c0,1.9-3.5,2.4-4.7,2.4c-0.9,0-4-4.6-4.2-4.7
		c-3.3-3.3-6.5-4.7-9.6-7.9c-3.5-3.5-4.9-6.6-6.8-10.7C477.9,740.6,475.8,737.1,475.2,737.1z"/>
	<path class="st0" d="M518,637.4c1.4,0,7.4-4.4,9.6-4.4c0.9,0,2.1,1.6,2.1,2.6c0,2.5-5.3,7.9-7.9,7.9c-2.6,0-3.9-1.2-3.9-3.5
		C518,639,517.1,637.4,518,637.4z"/>
	<path class="st0" d="M468.6,684.7c1.4-3,1.9-4.9,3.5-8.2c0.2-0.5,1.4-1,1.4-1.9c0-1.4-2.4-9.6-3.7-10.9c-1.2-1.2-3.2-2.1-3.2-4
		c0-0.5,0.2-1,0.2-1.6v0.2c0.4-0.4,1.8-2.3,1.8-3.7c0-2.1-0.2-5.8-1.4-7.7c-1-1.6-3.3-1.6-3.3-4.7c0-3.2,1.1-5.6,2.8-7.3
		c0.9-0.9,3-0.5,4.4-1.4c4.2-2.8,6.8-4.2,10.3-9.5h1c0,1.4,0.7,1.9,1.1,1.9c0.5,0,0.9-1,0.9-1.6c0-1.8,0-2.8,0-4.6c0,0,4-1.2,4.7-1
		h5.6c2.4,1.2,4.4-2.5,7-2.5c2.8,0,4.6,1.9,7.5,1.9c0,4.6,3.5,6,6.1,6.8c-3.5,5.4-12.1,6.7-12.1,14.2c0,1.6,0.9,1.9,1.6,2.6
		c4,4,5.8,8.6,10.2,11.4c4.2,2.8,7,10.5,7,16.3c0,4-2.1,5.6-2.1,8.8c-5.6,1.4-6.1,3.3-10.7,5.6c-2.1,1.1-1.7,3.9-3.9,3.9
		c-0.5,0-0.5-1-0.5-1.6c0,1,0,1.7,0,1.9c0,1.7-3.5,4.4-4.2,4.4c-0.7,0-1.4-2.5-1.4-3.5c0-1.4,0-2.1,0.7-2.4
		c-0.7-0.4-1.1-1.8-1.2-2.6c-2.6,0-6.1-0.9-6.1-3.5c-3.8,0-1.9-2.6-4-4.7c-2.4-2.5-4.9-2.6-7.7-3.5c-0.4,0-0.9-2.3-0.9-2.3
		c-0.5-1.9-2.6-2.3-4.5-2.3c-1.4,0-1.1,1.1-1.1,1.9c0,1.6,0.7,1.9,0.7,3.3c0,5.2-5.1,6.7-5.1,11.4c0,5.4,5.9,3.3,5.9,8.4h-0.3
		c0.7,1.2,0.9,4.4,2.1,5.6c4.7,4.7,15.1,5.8,15.1,14.5c0,1.8-0.7,1.8-0.7,3.3c0,3.2,2.6,4.2,3.3,6.3c0.7,2.3,0.7,3.2,1.6,5.1
		c-1.4,0.2-1.6,0.2-2.3,0.2c-0.5,0-0.7,0.7-1.2,0.7c-1.7,0-1.9-1.2-3-1.6c-5.4-1.7-10.3-7-12.3-12.8c-1.6-5.1-1.9-8.8-3.9-12.8
		c-1.2-2.4-2.4-8.7-5.3-8.7c-1.7,0-0.7,1.1-2.3,0c-0.3,0,0-0.7,0-1.1c0-2.4,0.4-4.2,0.9-6.6h0.4H468.6z"/>
	<path class="st0" d="M630.4,506.7c0,0,6.8,1.8,12.2,1.8c10,0,19.4-21.1,26.4-28.1c2.8-2.8,6.7-8.5,7.7-13.1
		c1.2-5.1-0.8-8.3,1.9-13.2c1-1.8,3.1-5.8,3.1-9.6c0-4.7-7.6-14-11.1-11.3c-10.4,7.8-15.8-4.2-15.8-5.2c0-4.9,9.5-10.3,13.1-14
		c5.4-5.4,12.6-14.5,20.2-16.6c6.6-1.7,27.5-3.5,33.3-3.5c7.2,0,10.5,3.5,14.9,3.5c2.4,0,4,0,9.6,0c2.8-11.6,8.1-18.4,20.1-18.4
		c3.2,0,4.6-0.9,10.5,0c-3,2.3-4.2,17.4,14.9-6.1c1.9-0.4,11.1,3.4-2.6,12.3c-4.8,3.1-9.1,1.6-12.2,6.1c-3.7,5.2-7,11.9-12.3,14.9
		c-4.4,2.4-10.5,6.5-10.5,14c0,6.5,2.1,27.7,7,31.5c3.5-5.3,5.9-14.9,13.1-16.6c-0.9-4.9,7-5.9,7-9.6c0-5.8,6.1-7.4,6.1-10.5
		c0-2.1-1.7-4.2,0-7.9c14.2-30.3,27.1-14,32.4-14c15.6,0,26.6-19.9,40.2-20.1c26-0.5,5.3-10.3,5.3-13.1c0-7.6,10.2-6.3,12.3-10.5
		c0.9-1.7-0.9-6.1,2.6-6.1c11,0,20.1,14.9,28,14.9c3.5,0,4.2-6.5,6.1-8.8c3-3.5,5.8-3.2,10.5-4.7c-6.3-8.4-26.8-13.1-36.8-18.9
		c-13.8-8.1-32.2-16.6-52.5-16.6c-5.6,0-9.5,1.2-8.8,3.5c5.4,17-8-0.2-11.4,0l-40.2-0.9c-2.3-9.1-8.2-12.3-20.1-12.3
		c-6.5,0-16.3,2.5-20.1-0.9c-3.5-3-3.7-7.2-8.8-8.7c-10.7-3.5-22.2-6.1-35.9-6.1c-13.7,0-15.6,7.2-16.6,14c-12.9,0-19.3,0-28,0
		c-4.9,0-5.6-4-11.4-4.4c-0.5,2.5-1.6,7.9-4.4,7.9c-7.3,0-10.5-9.1-10.5-14c0-1.2,14.1-10.1-21.9-13.1c-4.5-0.4-7,1.6-7,7h-19.3
		c-5.8-1.6-36.1-5.1-39.9-11.4c-23,18.7-17.9,7-17.9,7c5.4-6.8,58.3-21.1,14.9-31.5h-18.4c-1.7-4.9-5.6-9.6-13.1-9.6
		c-9.1,0-12.8,6.8-17.5,10.5c-3.5,2.6-26.1,11.7-24.2,3.5c-5.8,1.7-30.4,3.4-43.2,14.9c-2.7,2.4-3.5,9.6-7.5,9.6
		c-5.8,0-27.5-2.1-27.5,7.9c0,2.1,1.9,4.2,2.6,7c-3.9,2.4-5.3,0-17.5,0c-10.4,13.9-9.5-2.1-11.9-5.3c-0.9,5.6-4.6,8-9.1,10.5
		c1.4,4.9,8.9,10,3.5,15.8c-3.7,4,7.1,17,1.4,17c-7.3,0-9.3-26.5-9.3-31.9c0-6,9.7-8.4-5.3-11.4c-7.6-1.5-21.9,10.8-21.9,17.5
		c0,8,3.7,13.3,7.9,17.5c9.7,15.2-13.5-1.8-22.2-4c-24-6.2-16.2,1.9-16.3,3.1c-0.8,13.5-6.5,2.6-9.6,2.6c-5.4,0-16.5,7.4-24.5,3.5
		c-4-10.3-30.3,13.1-36.8,13.1c-2.1,0-5.1-1.5-4.4-3.5c2.7-7.1-1.2-22.4-8.8,0.9c-0.5,1.5,2.6,2.1,2.6,5.3c0,6.1-9.1,1.9-14,3.5
		c-4.9,1.6-2.5,18.3-22.8,9.6v7c-10-0.9-8.8-11.6-12.3-16.7c7.5,0,11.6-0.2,18.9,1.7c9.7,2.6,29.3-9.6-0.5-19.2
		c-8.5-2.7-27.5-12.3-33.2-12.3c-0.5,0-0.7-0.7-4.7-0.2c-2.4,1.7-8.8,4.9-8.8,8.9c0,3.3,6.1,3.2,6.1,7c0,3-3.2,4.4-3.2,7.4
		c0,3.3,3.5,5.2,3.5,8.7c0,2.1-1.7,3.2-1.7,5.3c0,3.8,5.3,4.9,5.3,8.8c0,1.1-1.6,1.9-2.1,2.3c1.6,2.8,5.6,3.5,5.6,7.4
		c0,5.8-12.1,12.3-15.8,17.1c1.4,1.9,3.2,2.8,4.4,6.1c-2.1,1.4-7.3,3.9-9.6,3.9c-3,0-4.9-1.2-8.8-1.2c-3.8,0-12.7,3.6-10,6.1
		c8.9,8.3,4.2,11.5,2.1,11.5c-3.5,0-4-4.4-7-4.4c-3.1,0-7,8-7,12.3c0,6.8-5.6,5.9-6,12c2.3-0.2,4.5-0.5,6.3-0.5c3.3,0,5.5-0.2,9-0.2
		c3.7,0,5.4,6.6,5.4,10.4c0,2.3-2.5,3.5-2.5,5.8c0,3.7,3.3,6,3.3,9.3c0,2.1-3.3,2.8-4,3.8c-2.1,3.2-2.8,6-2.8,10.2
		c0,4.9,3.5,3.8,7.5,3.8c5.6,0,8.2-2.3,12.4-2.3c4.7,0,3.7,9.1,8,9.1v7.2c0,0.5,0.5,0.9,0.9,1.2l0.9,1c0.9,0,3-0.9,4.2-1
		c3.8-1.1,4.2-5.6,8.1-5.6c3.1,0,11.2,13.1,13.7,13.1s10.8-3.7,12.3-5.4c-0.4,0-4.9-0.7-4.9-0.7c-0.7,0-3-0.5-3-2.6
		c0-1.4,12.8-6.1,17.5-7.9c0,0-2.3,2.6-3.2,3c0.3,1,4.9,5.8-5.3,8.4c4.4,10.3,24.5,8.6,24.5,22.4l0.7-0.1c1-0.5,2.2-0.8,3.5-0.8
		c5.8,0,5.4,3.3,7.2,7c0.3,0.7,3.8,2.8,4.2,2.8c3.2,1.1,3.9,6.3,8.8,6.3c3.9,0,3.7-3.1,6.3-4c1.4-0.5,1.2-0.3,2.4-0.5
		c0.5,1,0.5,2.5,1.2,3.2c-0.2,0.3,0,0.7,0,1.1l2.5,0.3c2.1-2.8,2.1-7,4.9-8.4c-4.7-2.6-11.9-13.1-11.9-19.1c0-1.8-3.9-4.4-3.9-7
		c0-0.9,3.3-7.4,4.2-8.4c0.9,0.5,6.1-2.4,6.7-2.6c4.5-1.7,7.4-3,13.1-3c9.5,0,11,4.6,14.5,9.8c-2.6,2.1-6.1,0.2-9.3,0.2
		c-4.7,0-11.7,4.6-12.3,4.4c0.2,3.5,3,3.3,4,5.2c3.3,5.8,8,8.1,8,14.9c1.4-0.7,4.8-2.4,6-2.6c0.2,2.6,3,4,3,6.7h-5.2
		c-1.6,0-3.2,1.7-3.5,4.4c3.7,0.5,6.1,4,6.1,7.4c0,1.9-1.2,2.5-1.2,4c0,1.6,1.6,3.5,1.7,3.7c0-1.6,2.1-1.6,3.7-2.1
		c2.1-0.7,1.6-1.4,3.3-2.1c3.3-1.2,5.3-0.4,7.9-2.4c3.9,2.2,6.1,2.4,9.8,3.6c4.2,1.4,5.6,5.3,10.7,5.3c0.2,1.1,1.2,1.4,1.4,2.1
		c0.6,1.8,0,3.9,0.9,6.3c1.9-2.2,3.5,0.8,5.2,0.8c2.1,0,3-1.7,4-2.8c1.4-1.4,3.5-1.4,4.9-2.8c3-3,3.3-7.5,7.7-7.5
		c1.7,0,1.2,0.7,2.8,0.7c0.3,2.1,4.6,0.7,5.6,0.7c1.4,0,1.9,1.9,3.3,1.9c3.3,0,6.1-2.1,7.5-4.4c0.4,0.2,0.7,0,1,0
		c1.6,0,2.3-4.2,6-4.2c3.5,0-0.3,9.1,3.7,9.1c4,0,5.4-3,8.9-3c2.3,0,3.7,0,5.9,0.5l0.2-0.9c-0.7-4.2-1.8-5.1-6.1-6.2
		c0.5-3.5,4.2-11.4,7-11.4c16.1,0,27.1-8.4,27.1-28c8.9-1.2,9.5-12,14.9-11.4c14.1,1.7,8.6-8,11.4-10.5c7-6.1,17.7-6.3,26.3-11.4
		c1.2-0.7,4.2-4.4,7-4.4c4.6,0,11.9,5.3,19.3,5.3c9.6,0,7.7-13.1,13.1-13.1c3.2,0,13.9,1.7,14.9,4.4c4.1,11.3,11.4,5.3,15.7,5.3
		c10.9,0,14,8.7,25.4,8.7c9.7,0,22.5-9.2,35-4.4c16.8,6.5,8.6-22.8,30.6-22.8c15.6,0,15,12.4,21,21.9c2.3,3.7,10.2,4,13.1,7
		c2.3,2.3,4.4,8.8,9.6,8.8c5.8,0,6.8-5.3,14-5.3v4.4c-3.9,3.8-5.3,13.1-9.6,15.8c-4,2.3-11.1,2.8-8.8,4.4
		C637,499.2,630.4,506.7,630.4,506.7z"/>
	<path class="st0" d="M577,560.2h-0.4c0,0-0.2-2.8-0.2-3.3c-1.4-0.2-4.7-1.9-4.7-4.4c0-2.1,3-2.3,3.7-4.4c1.6-4.7,9.1-4.7,12.6-8.2
		c-1.4-1.9-4,0-6.5-1.6c-1.2-0.7-1.9-2.1-3.8-2.1c-1.4,0-1.4,3.9-2.4,3.9c-1.4,0-3.2,0.5-4.6-0.4c-2.1-1.4-1.4-3.2-3.5-4.7
		c-0.7-0.5-3.7-1.2-3.7-3c0-3.7,5.1-2.4,7.5-4.2c2.1-1.6,6.1-4.2,7.5-6.5c0.4-0.5,1.1-2.3,2.8-2.3c1.4,0,3.3,2.3,3.3,3.3
		c0,2.8-3.3,4-3.3,7.2c4.9,0,8.9-5.2,14.5-5.2c2.1,0,3,1.9,5.6,1.9c-0.9,1.8,0,1.8,0,3.9c0,1.8-1.9,1.6-1.9,3.7c0,0.9,0.5,3,1.8,3
		c0.5,0,1.2-0.9,2.4-0.9c2.1,0,4.7,1.4,4.7,3.5c0,1.2-1.4,2.3-2.8,2.3v1.7c0.3,0.3,0.7,1.1,1.7,1.2c0,1,0.9,1.9,0.9,3
		c0,0.5-1.6,2.8-1.6,4.1c0,0.7,0,1.6,0.9,1.7c-0.2,0.9-1,1.4-1,2.3h2.6c1.1-1.1,1.4-1.1,3.5-1.6c0-1.6,4.4-1.8,5.4-2.1
		c2.4-0.7,3.5-2.6,3.5-6.7c0-6.8-2.6-10.8-6.5-14.7c-1.6-1.6-3.3-3.1-3-6.1c2.1,0,3.9-1.2,5.3-2.6c1.2-1.2,4.4-3,5.1-4.4
		c2.3-4.7,3.7-7.5,7.9-10.9c0,0,6.7-7.5,0.9-11.4c-2.3-1.6,4.7-2.1,8.8-4.4c4.4-2.6,5.8-11.9,9.6-15.8v-4.4c-7.2,0-8.2,5.3-14,5.3
		c-5.2,0-7.4-6.5-9.6-8.8c-3-3-10.8-3.3-13.1-7c-5.9-9.4-5.4-21.9-21-21.9c-22.1,0-13.9,29.3-30.6,22.8c-12.5-4.8-25.4,4.4-35,4.4
		c-11.4,0-14.5-8.7-25.4-8.7c-4.4,0-11.7,6.1-15.7-5.3c-1-2.7-11.7-4.4-14.9-4.4c-5.4,0-3.5,13.1-13.1,13.1
		c-7.4,0-14.7-5.3-19.3-5.3c-2.8,0-5.7,3.7-7,4.4c-8.6,5.1-19.3,5.3-26.3,11.4c-2.8,2.5,2.7,12.2-11.4,10.5
		c-5.4-0.6-6,10.2-14.9,11.4c0,19.6-11,28-27.1,28c-2.8,0-6.5,7.9-7,11.4c4.4,1.1,5.4,1.9,6.1,6.2l-0.2,0.9c0,3,1.6,2.1,4.2,3
		c1.9,0.5,1,2.8,2.1,3.9c2.6,2.6,4.6,2.6,7.9,3.7c3-0.5,4.2-3.2,7.2-3.2c1.6,0,5.6,3.2,5.6,4.9c0,4.7-6.5,4-6.5,8.6
		c0,1.9,2.6,2.4,2.6,4.4c0,2.3-2.1,1.9-4,1.9v1.6c0.5,2.1,0.3,3.5,1.1,5.6c0.3,1.1,2.1,0.9,2.8,1.1c3.2,1,4,3.3,7.2,4
		c3.8,0.9,5.8-0.2,7.9,1.9c2.1,2.1,3.9,1.4,6.5,2.6c1.4,0.7,1.4,1.9,2.1,3.3c0.5,1.2,1.9-0.2,2.8,0.4c2.6,1.8,4.2,4.4,8.2,4.4
		c2.5,0,4.7,0,7.4,0c1.6,0,2.1-0.9,3.1-0.9c0.9,0,1.6,2.6,1.7,3.8c2.4-1.2,3.2-4.4,7.5-4.4c3.9,0,5.6,2.1,8.6,2.1
		c2.4,0,8.2-4.9,9.4-5.6c1-0.7,1.4-1.4,2.1-2.1c1.4-1.4,3.7,0.5,5.8-0.2l1.6-1.6h1c1.4,5.6,5.1,5.2,9.5,7.4c1.6,2.6,4,3.8,4,7.5
		c0,7-4.5,7.2-4.5,13.7c0,0.5,0.2,1.7,0.7,1.7c1.4,0,2.3-0.9,3.7-0.9c1.4,0,1.7,4.9,3.7,5.2c0,3.5,2.1,7.4,5.6,7.4
		c1.2,0,1.8-0.4,2.8-0.4h1c0,1.4,0.7,1.9,1.1,1.9c0.5,0,0.9-1,0.9-1.6c0-1.8,0-2.8,0-4.6c0,0,4-1.2,4.7-1h5.6c2.4,1.2,4.4-2.5,7-2.5
		c2.8,0,4.6,1.9,7.5,1.9c0,4.6,3.5,6,6.1,6.8l0,0c3,1.4,5.1,0.4,8.4,1.9c-0.2,0.9-0.7,4.4,0.9,4.4c1.9,0,0.9-2.3,2.3-3.7
		c1.2-1.2,4.7-1.8,6.1-2.5c3.3-1.6,6.7-0.9,8.8-3c0,0,1.7-3.3,2.1-3.3c1.7,0,2.6,1.4,4.4,1.4c8.1,0,10-4.9,14.9-7.7
		c1.4-0.7,2.3-1.4,2.6-3.2c4.2,0,5.4-6.5,7-9.8c1-2.1,5.8-9.1,8.4-9.6c0-3.9,2.6-5.6,2.6-10.7c0-7.5-1.7-10.3-4.9-15.1
		c-0.5-0.9-0.5-3-2.1-3.8L577,560.2z"/>
</g>
</svg>
