<?xml version="1.0" encoding="utf-8"?>
<!-- Generator: Adobe Illustrator 22.0.0, SVG Export Plug-In . SVG Version: 6.00 Build 0)  -->
<svg version="1.1" id="Layer_1" xmlns="http://www.w3.org/2000/svg" xmlns:xlink="http://www.w3.org/1999/xlink" x="0px" y="0px"
	 viewBox="0 0 1000 1000" style="enable-background:new 0 0 1000 1000;" xml:space="preserve">
<style type="text/css">
	.st0{fill:#873030;}
</style>
<g>
	<path class="st0" d="M793.9,721.5c-2.1,9.3-1.9,4.6-3.6,8.1v14.8c-5.7,5.7-16,17.1-16,25.1c0,11.4,15.4,19.4,18.8,24.5
		c-2.3,2.3-4.6,1.7-7.4,2.3c-5.1,1.7-9.1-0.6-14.3,1.7c-7.4,3.4-9.2,10.9-16.6,10.9c-8.5,0-13.7-11.4-23.9-11.4
		c-9.2,0-11.4,5.1-18.8,7.4c1.1,4.6,1.1,8,0,12.5c-8.6,0-9.7-8.5-14.8-8.5c-2.9,0-6.3,3.4-6.3,6.3l10.8,12.6
		c-0.6,3.5-2.3,5.2-2.3,6.8c0,1.8,15.4,16,20,16c0,1.7,1.1,4,2.3,5.1c-2.8,1.7-8.5-0.6-9.7,3.4h-1.2c-6.2-1.2-11.9-5.7-14.8-8.6v4.6
		c1.7,3.4,3.4,5.1,3.4,9.7c0,3.4-5.7,10.2,0,13.1c-2.8,0-7.4,0-8,0c-9.2,0-17.1-9.1-17.1-18.8c0-4,5.7-5.7,7.4-8.6
		c-3.4,0-6.3,0-9.7,0c-2.3,0-3.4-5.1-3.4-6.3c-2.3-8-6.9-13.1-12-18.2c-6.9-6.9-15.9-12-15.9-24c0-6.9,0-10.3,0-14.8
		c0-8-12.6-20-20.6-24c-8-4-17.1-4.6-17.1-12.6c-3.4,0-5.2,0-8,0c-12.6,0-26.8-19.4-26.8-32.5c-6.3,0-10.9,0-17.1,0
		c-7.4,0-4-12-7.4-15.4c-6.3,4-18.9,4-18.9,10.3c0,1.1,1.7,3.4,2.8,3.4c-1.2,3.4-2.3,6.9-2.3,10.2c0,8.6,5.1,12,12,14.4
		c8.6,2.8,13.1,12.5,14.9,17.6c2.3,8,6.3,17.1,10.8,19.4c8.6,4,14.3,1.2,22.9,1.2c0,1.7,0,3.4-1.1,4.6c-2.3,6.9,11.4,9.7,14.8,11.4
		c11.4,5.7,25.1,10.3,23.4,22.3c-5.7-1.1-9.2-8.5-18.3-8.5c-6.9,0-12.6,3.4-12.6,9.1c0,7.4,10.3,9.1,10.3,16.5
		c0,2.9-7.4,2.9-7.4,2.9c-5.1,5.1-4,17.1-12,17.1c-4,0-6.3-1.7-6.3-4c6.9,0,9.7-8.5,9.7-15.4c0-8.6-4.6-10.8-5.7-16
		c-1.6,0-15.4-13.6-16-17c-2.3,0-10.8-2.4-10.8-5.8c-17.7-4-21.7-9.2-31.4-18.9c-4-4-12.5-6.3-13.7-10.2
		c-10.3-13.1-13.7-36.5-35.4-36.5c-10.3,0-10.8,7.4-16,9.7c-10.9,5.1-18.3,15.4-30.8,15.4c-12.6,0-20.6-6.3-32-6.3
		c-8.6,0-17.7,5.7-17.7,14.3l3.4,12.5c-3.4,11.4-16,15.4-28,18.3c-10.3,2.3-26.8,25.7-26.8,38.3c0,4.5,2.9,6.2,5.7,7.4
		c-7.4,11.4-10.9,18.3-22.8,24c-6.8,3.4-8,17.7-19.4,14.3v0.5c-5.1-1.7-14.8,1.2-17.7,1.2c-13.7,0-21.1,11.4-33.7,11.4
		c-8.6,0-9.1-21.1-22.3-21.1c-9.7,0-16,4-24.6,4c-3.4,0-4.5-2.8-4.5-4.6c0-12,0-16,0-22.8c-4.6,0-9.1-3.4-9.1-8
		c0-7.4,6.3-9.1,6.3-13.1c0-14.3,5.1-29.1,5.1-44c0-8.6-6.3-16.6-6.3-21.7c0-3.4,19.4-15.4,22.8-15.4c2.3,0,5.1,3.4,8.6,2.3h25.7
		c2.3,2.3,6.9,2.9,9.7,3.4h27.4c6.8-1.7,10.3,2.3,16,2.3c4,0,12.5-2.8,14.3-2.8c0-11.4,7.4-14.8,7.4-25.7c0-2.3-0.6-12.3-0.6-15.8
		l-1.1,0.9c1.1-2.3,2.3-6.3,2.3-8.5c0-5.1-3.4-4-3.4-8.6c-11.4,0-14.9-10.3-14.9-19.4c-3.4-0.6-4-3.5-6.8-4
		c-9.1-2.9-34.3-7.4-34.3-16c-0.6,0-0.6-1.7-0.6-2.2c0-5.2,16-8.6,21.7-10.3c1.7,3.4,10.9,5.7,15.4,5.7c4.6,0,10.9-2.3,13.1-2.8v-4
		c-4-1.2-2.3-9.7-2.8-11.4v-4.6h5.7c4.5,4.6,10.3,7.4,17.1,7.4c4.6,0,8.6-4,9.7-8.6c17.1,0,21.7-12.6,25.1-26.3c3.4,0,5.2-0.6,8-1.2
		c3.4-1.1,26.3-10.2,28.5-12.5c4.6-4.6,2.9-11.4,2.9-18.3c0-2.3,5.1-5.7,5.7-6.3c8-8,16-17.1,29.1-17.1c7.4,0,4,1.7,8,0
		c1.7,1.7,3.4-2.8,4.5-4c4-4,9.1-0.6,14.3-0.6c3.4,0,12.6-5.1,12.6-9.7c0-2.9-4-13.7-4-14.3c-2.3-15.4-11.4-20-11.4-33.7
		c0-24,22.3-25.7,36.5-36v6.8c-2.8,5.7-3.4,9.2-3.4,14.9c0,5.7,6.3,6.3,10.8,6.3c0,1.7,0,2.8,0,4.6c0,2.8-5.1,4-6.8,5.7
		c-5.7,5.7-12.6,10.8-12.6,21.1c0,5.7,2.8,9.7,6.3,10.3c0,3.4,0.6,4.6,0,6.3c6.3,0,8.6,2.3,13.7,2.3c1.1,2.9,2.3,6.9,4,6.9
		c15.4,0,26.3-13.1,39.4-11.4c-0.6,2.8-3.4,4.6-3.4,6.3c0,1.1,9.7,8,9.7,8c6.3,0,6.8-4,9.7-5.1c9.7-4.6,17.1-2.9,25.6-6.9
		c5.2-2.3,14.3-10.8,21.1-10.8c7.4,0,15.4,0.6,19.4,2.3c-1.1,2.3-2.3,5.1-2.3,6.3c14.9,0,30.1-2.9,41-2.9c10.9,0,17.8-0.7,29.3-0.7
		c12,0,17.7,21.3,17.7,33.9c0,7.4-8,11.4-8,18.8c0,12,10.9,19.4,10.9,30.3c0,6.8-10.9,9.1-13.1,12.5c-6.8,10.3-9.2,19.4-9.2,33.1
		c0,16,11.4,12.5,24.6,12.5c18.2,0,26.8-7.4,40.5-7.4c15.4,0,12,29.7,26.2,29.7v23.4c0,1.7,1.7,2.8,2.8,4l2.9,3.4
		c2.9,0,9.7-2.9,13.7-3.4c0.6,2.9,0,5.7,0.6,8.6C800,713,793.9,715.8,793.9,721.5z"/>
	<path class="st0" d="M508.8,405.3c-7.4-3.4-8.6-8.5-12.5-14.3c-12,17.1-30.3,38.8-54.2,38.8c-3.4,0-25.7-13.7-25.7-16
		c0-4.6,7.5-7.4,9.7-8.6v-8.5c-8,0-8,0-14.8,2.8c0-4,6.3-10.8,9.1-14.8c-8.6-10.2-9.7-24.6-9.7-40.5c0-8.6,9.2-8,12.6-13.1
		c6.8-9.7,13.1-16.6,25.7-20c10.3-2.8,12.6-16.6,33.1-14.3c-6.3-1.7-8.6-2.8-13.7-4c25.1-6.3,34.8-26.2,52-40
		c6.8-5.1,5.7-22.8,10.3-22.8c0,0,5.7-12.5,5.7-13.1c6.9-11.4,14.8-19.4,26.8-24c12-4.5,28-24,30.8-36c-14.3,2.9-20,10.3-33.7,10.3
		c2.8-4,9.1-6.9,11.4-8c-2.9,0-8.6-1.8-8.6-1.8c1.1-5.7,4-9.1,8.6-9.1c1.7,0,2.8,1.7,4.5,1.7c1.8-3.4,3.4-5.7,5.1-7.4
		c2.9,3.4,3.5,6.3,1.7,10.3c9.1,0,11.4,5.7,18.8,5.7c2.9,0,9.1-13.7,10.3-14.3c-4-1.1-4-1.7-9.1-1.1c2.9-4.6,7.4-9.1,13.1-9.1
		c4,0,7.4,1.1,11.4-1.1c-2.9-2.9-2.3-2.3-4.5-4.6c5.7-5.7,16-5.1,24.5-6.8v6.8c7.4-1.7,9.1-14.8,21.1-15.4v9.7
		c7.4-13.7,17.1-10.3,27.4-16c-4.6-1.7-8.6-2.8-8.6-6.8c0-2.8,10.2-5.1,11.9-8.5c3.5,4,6.9,8.5,12,8.5c8.6,0,30.3-14.3,30.3-6.9
		c0,8-9.7,10.3-12,18.3c11.4,1.1,14.8-12,24.5-17.1c2.3,4,2.3,6.8,2.8,10.3c8-8,12.6-10.3,21.7-16c0.6,7.4-0.6,12.5,5.7,13.1
		c1.7-4.5,4-8.6,8.6-8.6c2.8,0,15.4,6.9,20,9.2c-5.2,13.7-9.7,9.1-22.9,13.7c5.7,4.6,9.7,5.1,9.7,8.6c5.1,0.6,17.1,2.3,18.8,2.3
		c-8,5.7-28.5,16-28.5,29.1c0,10.8,20,10.3,20,22.8c0,9.7-10.3,14.3-10.3,24c0,10.8,11.4,17.2,11.4,28.5c0,6.9-5.7,10.3-5.7,17.1
		c0,12.6,17.1,16,17.1,28.5c0,3.4-5.2,6.3-6.8,7.4c5.1,9.1,18.2,11.4,18.2,24c0,18.8-39.4,39.9-51.4,55.9
		c-5.7,11.4-32,13.1-42.8,11.4c-11.4,3.4-24.5,8.6-34.3,8.6c-7.4,0-12.5-1.1-12.5-7.5c-12,0-24.6-8-24.6-19.9c0-5.7,6.3-9.7,8-12.6
		c-5.7-2.3-10.9-15.4-10.9-21.7c0-4,1.2-7.4,0-11.4c24,0,36.6-31.4,51.4-39.9c8-4.6,21.7-7.4,21.7-17.1c0-14.3-18.8-17.1-33.1-17.1
		c-18.8,0-34.3,6.9-34.3,22.8c0,6.9,1.7,9.7,0,13.1c0,13.1-26.3,24.5-38.2,31.4c-9.7,5.7-20,8-25.7,18.3c-4.6,8,1.1,18.8-7.4,22.8
		v11.4c2.9,2.3,4.6,6.3,4.6,10.3c10.3,1.7,25.7,12,25.7,22.9c0,8.6-17.1,22.9-22.8,22.9c-11.4,0-16,16.5-16,28.5
		c0,6.8,5.1,9.1,8.5,9.7c-1.7,15.4-15.4,16.6-17.1,27.4c-8,0-10.8,0-15.4,0c-9.7,0-13.2,18.3-27.4,18.3c-4.6,0-12.5-24-12.5-26.8
		c0-1.8,1.1-4,1.1-5.7c-9.7-9.7-8.6-17.7-12.6-30.3c-2.8-8.5-11.4-10.8-11.4-21.1c0-4,3.4-9.2,4-10.3V405.3z"/>
	<path class="st0" d="M177.8,523.5c3.4,0,13.1-2.9,16.6-6.3c-2.3-3.4-3.4-4.5-3.4-7.4c0-4,11.4-10.9,17.1-10.9c3.4,0,6.3,0,9.7,0
		c13.1,0,19.4,13.7,19.4,23.4c0,4.6-10.3,4-10.3,8.6c0,4,0,18.8,0,19.4c0,4.6,4,11.4-0.6,16c-3.4,3.4-9.1,2.8-14.8,2.8
		c-9.1,0-16,9.7-20.6,12.6c-2.8,1.7-7.4,2.3-10.8,2.3c-6.9,0-14.3-6.3-14.3-13.1c0-14.3,14.3-15.4,16.6-29.1
		c-5.7-2.8-10.9-6.3-10.9-12C171.5,522.3,176,523.5,177.8,523.5z"/>
	<path class="st0" d="M338.2,553.2c4-2.9,2.8-2.3,7.4-2.3c6.8,0,12,5.1,12,10.8c0,10.3-13.7,15.4-18.3,22.8c5.7,1.7,8,2.3,11.4,2.3
		v4c-5.1,5.1-9.1,8.6-16,8.6c-6.9,0-19.4,0-22.8,0c-5.7,0-21.1,5.1-29.7,5.1c-4,0-6.3-3.4-10.3-3.4c-5.7,0-9.1,5.1-9.1,9.7h-8
		c-4,0-5.7,2.3-8,4.6h-4V612c1.1-2.3,18.3-20.6,20-21.1c8-2.2,19.4,0.6,19.4-7.4c0-1.1-1.1-2.9-1.1-4c-2.3,3.4-6.3,5.7-10.3,5.7
		c-7.4,0-9.7-6.8-16-6.8c-3.4,0-2.9,2.9-5.7,2.9c-1.1,0-2.8-1.7-2.8-2.9c0-8.6,16-9.1,16-17.7c0-7.4-4.6-10.3-4.6-16.6
		c10.3,0,22.9-5.1,25.7-10.8v-8.6c-5.7,0.6-13.7-0.6-13.7-6.3c0-4.5,2.9-5.7,4-8c-1.7,0-3.4-0.5-5.2-0.5c-5.7,0-8.6,2.8-13.1,2.8
		c-5.1,0-9.1,0-9.1-4.6c0-4.6,5.7-7.5,5.7-12c0-5.1-1.7-6.3,0-10.8c-4.6,0-8-1.7-9.7-2.8c-2.9,4.6-1.1,6.3,0,8.6h-4.6
		c0-4.6,0-6.3,0-9.1c0-1.7,0.6-2.9,2.3-4.1v-5.1c-3.4-0.5-8.6-2.3-8.6-4.6c0-2.8,4-6.9,4-7.4v-4.6c-8.6-1.7-13.1-3.4-13.1-10.9h9.1
		c0,3.5,2.9,5.1,4,5.1c1.1,0,2.3-2.3,2.3-3.4c-1.1-0.6-2.8-2.3-2.8-3.4c0-4.6,4-6.8,8-6.8c0-4.6,2.3-6.9,2.3-9.8
		c0-2.8,5.7-7.4,9.1-7.4c6.3,0,12.5,0,16.5,0c2.3,0,5.7,4,5.7,5.1c0,8-12.6,6.8-14.3,14.8c0,1.7,0.6,2.9,1.7,4.5h33.7
		c2.3,16-15.4,22.8-15.4,34.8c-2.3,0.6-4,2.3-4.6,4.6c5.7,1.7,8.6-0.6,13.1,0.6c10.9,3.4,9.1,17.1,16,24c9.1,9.1,24,13.1,24,26.8
		c0,4.6,6.3,7.4,6.3,12c0,1.7-1.1,3.4-2.9,4v4c4-1.1,4.6-2.9,6.8-4L338.2,553.2z"/>
	<path class="st0" d="M528.8,856.3v4c1.7,2.8,6.3,2.3,8,2.8c9.1,2.9,16.5,12.6,26.2,14.8c0,1.7,2.9,2.3,4.6,2.3c1.7,0,3.4-2.3,3.4-4
		c0-4.6-2.9-5.1-2.9-9.1c0-2.3,2.9-6.3,2.9-6.3l2.3-6.6c-8.6-1.7-12,3.7-19.4,3.7C545.9,858,540.8,850.6,528.8,856.3z"/>
	<path class="st0" d="M470.6,767.2c4,0,6.3-5.2,9.1-5.7c0,2.9,0.6,5.7,2.3,6.3c-1.7,6.8-3.4,19.4-5.1,22.8
		c-5.7-1.1-7.4-17.7-10.3-22.3C467.7,768.4,469.5,767.2,470.6,767.2z"/>
	<path class="st0" d="M468.3,814.1c0-4.6-5.1-7.5-5.7-12c6.3-1.7,6.9-7.4,12-7.4c4,0,5.7,3.4,7.4,3.4c5,9.1,3.6,14.2,3.6,23.4
		c0,8-10.4,16-15,16c-5.7,0-5.7-7.4-5.7-12C465.5,820.9,468.3,818,468.3,814.1z"/>
	<path class="st0" d="M750.3,909.4c-7.4,4-10.2,1.2-14.2,1.2c-4.6,0-15.4-1.2-21.7-4.6C726.9,903.7,740.6,906.5,750.3,909.4z"/>
</g>
</svg>
