<?xml version="1.0" encoding="utf-8"?>
<!-- Generator: Adobe Illustrator 22.0.0, SVG Export Plug-In . SVG Version: 6.00 Build 0)  -->
<svg version="1.1" id="Layer_1" xmlns="http://www.w3.org/2000/svg" xmlns:xlink="http://www.w3.org/1999/xlink" x="0px" y="0px"
	 viewBox="0 0 1000 1000" style="enable-background:new 0 0 1000 1000;" xml:space="preserve">
<style type="text/css">
	.st0{fill:#873030;}
</style>
<path class="st0" d="M275.9,160.6c0-0.8,0-1.6,0-2.4c0-3.2-2.4-5.7-2.4-8.9c0-4.9,2-6.5,2-10.5c0-8.5-7.3-7.3-7.3-14.6
	c0-5.7,8.1-8.1,10.1-11.4c3.2,0.8,2,0.8,4.8,0c0-0.8,0-1.6,0-2.4c0-0.8,1.6-2.1,2.4-2.1c0-4,4-5.3,6.5-6.9c2.4-1.6,2.8-6.9,3.6-10.1
	c2-6.5,5.7-7.7,10.9-9.3c9.7-3.2,16.2-4.9,26.3-8.1c5.3-1.6,6.5-7.7,11.7-7.7c2,0,3.7,4.5,3.7,4.9c0,3.2-2.4,4.8-4,4.8
	c-1.2,6.1-3.7,13-3.7,16.6c0,4.5,2.2,12.3,6.7,12.3c1.6,0,3.8-5,3.8-6.6c0-4.9-4.9-7.7-4.9-12.6c0-6.1,6.5-5.3,10.1-7.7h9.7
	c-1.6-4.8-7.7-2.8-7.7-7.7l7.1,0.1c1.6,6.5,10.7,8.8,16.8,10c0,4,2.4,6.9,4.9,7.3c6.5,0,18.2,0,21.9,0c0,3.6,4.9,4.5,8.1,4.5
	c6.1-0.8,10.1-0.8,12.5-5.7c0.4-1.2,8.9-1.2,10.1-2.1c4,0,11.3,1.2,11.3,1.2c-1.6,1.2-4.8,1.6-6.1,0.8v3.3
	c2.8,5.6,11.3,6.8,17.4,8.9c5.3,1.6,4,7.7,5.7,12.9h11.3c7.7,7.7,11.3,6.5,16.2,16.6c0.8,1.6,4,2.5,6.1,2.5
	c2.8,11.3,19.8,10.1,30.8,12.2h10.5c2.8,1.2,9.3,4.4,13.4,4.4v0.8c0.8,0,1.6,0,2.4,0c6.5,0,15,13.3,21.9,15c0,4.9,5.3,17.8,7.3,22.3
	c2,4,7.3,4,7.3,8.1c-6.5,8.1-18.2,12.2-18.2,24.3c0,4.1,3.6,3.6,5.6,4.4c4.1,2.1,6.1,5.3,6.9,9.3h9.7c0,1.2,0.8,4.5,2,4.5
	c1.6,0,3.2-2.8,4.5-4.8c4-6.5,8.9-15,15.4-15c7.3,0,21.9,7.7,27.1,10.9c3.2,2,6.9,1.2,7.7,4.4c1.2,3.7,0.8,6.5,0.8,10.1h2.8
	c3.7-1.6,5.3-4.5,8.9-4.5c8.5,0,10.1,6.5,18.2,6.5l15.4-2c7.7,1.6,14.6,4.5,19,6.5c3.6,6.1,16.2,17.4,22.7,19.4
	c5.7,1.6,9.3-0.8,15,0.8c8.1,2.5,10.1,11,10.1,19.4c0,30-16.5,37.9-27.4,54.5c-2.4,3.6-4.2,4.7-6.6,8.3c-4,6.1-8.5,6.8-12.6,10.9
	c-6.1,6.1-0.1,19.2-0.1,28.9c0,7.3-2.8,14-2.8,19.3c0,2-1.6,3.6-2,4.9c-1.6,2-5.3,6-5.3,9.3c0,4.1-1.2,12.2-2,13.8
	c-6.1,9.3-8.1,13.4-14.2,21.5c-1.6,2.4-1.2,7.3-2,8.9c-2.4,4.9-10.9,10.5-17.8,10.5c-7.7,0-13.8-0.4-19.8,2.4
	c-2.4,1.2-2.8,3.3-4.1,4.4c-9.7,9.8-19.8,4.1-27.1,15.4c-3.3,5.3-8.5,5.3-11.7,8.5c-5.3,5.3-4.5,10.9-4.5,18.6v19
	c-8.1,4.1-12.2,10.9-16.2,19.4V566c-2.8,5.3-2.4,8.1-5.7,13.4c-7.3,10.9-15.4,12.1-22.3,22.6c-8.1,12.2-11.2,32.4-29.8,32.4
	c-6.5,0-15.5-4.4-18.4-4.4c-5.6,0-10.9-4.8-17-4.8c-1.2,0-3.2,0.8-3.2,2c0,3.6,6.1,5.6,7.3,6.9c3.2,3.2,3.2,7.7,4.9,12.5
	c1.2,4.5,7.7,4.5,7.7,8.9c0,4.9,0,7.6-2,10.8c-3.6,5.7-6.5,8.2-10.6,12.3c-6.9,6.9-15.4,4.9-25.1,8.1c-6.5,2-19.8-2.4-23.5,1.2
	c-5.3,5.2-1.2,17.4-4,23.1v-0.8c0,1.2,0,3.7,0,4.9c0,2-6.5,4.8-9.3,4.8c-8.5,0-10.1-5.7-18.2-5.7c-2.9,0-4.1,2.8-4.1,4.9
	c0,5.6,4.9,16.2,8.5,16.2c2,0,4.4-2.5,5.7-2.9c1.6,1.6,3.7,2,3.7,4.1c0,2.4-3.2,5.2-4,5.2c-4.9,0-6.5-3.6-10.5-3.6
	c0,4.5,2.4,5.3,4.4,6.1c-7.3,7.3-7.3,14.6-9.7,24.7c-0.8,4.5-8.1,4.9-10.9,5.3c-6.5,1.6-12.1,7.3-12.1,14.2
	c0,15.8,18.2,10.2,18.2,22.7c0,11.3-10.1,12.6-15.8,18.2c-3.3,3.2-2,8.5-4.5,13.8c-2.8,5.6-9.3,3.2-13,6.8
	c-4.9,4.9-6.9,10.6-6.9,18.3c0,4,3.7,8.9,6.1,9.3c7.3,4.1,6.9,22.7,12.2,27.9c8.9,8.9,19.8,12.6,30.8,17.8c-1.6,2.4-4,1.2-6.5,1.2
	c-6.1,0-16.2,7.7-19.8,7.7c-2.8,0-2.4,0-4.5,0c-1.2,0-2.8,1.6-4.1,1.6c-4,0-7.3,0-11.3,0c-9.3,0-6.1-10.9-12.6-13
	c-6.1-2-15-2-15-9.3c-3.3,0-4.8,0-7.7,0c-3.2,0-4-3.2-4.4-5.3c-11.3,0-14.6-5.7-19.9-10.9c-1.2-1.3-3.6-3.3-3.6-4.1
	c0-3.6,7.3-3.3,7.7-6.9c-1.2-0.4-2-1.2-3.3-2c1.2-2,2.8-4.5,2.8-6.9c0-9.7-10.9-8.1-10.9-16.6c0-2.8,0-4,0-5.7
	c0-8.9-6.1-23.1-6.1-29.9c0-7.3,9.3-10.1,9.3-16.6c0-3.2-4.9-9.7-5.7-14.2v-4.1h0.4c0-2.4,1.6-4.4,3.7-4.4c7.3,0,4.4,7.3,10.5,7.3
	l13.4-59.9v-6.1c-1.2,0-2.4-0.4-3.6,0c-2.8,1.2-3.2,4.5-6.1,4.5c-3.2,0-5.7-9.3-5.7-13.8c0-7.7,2.8-11,4.1-18.2c2.8,0,4-1.2,4-2.4
	c0-2.5-2.4-4.5-2.4-4.5c-1.6,0-2-11.3-2-14.2c0-9.3,5.7-18.6,9.3-24.3c1.6-2.8,2.4-8.5,4.5-11.3c1.2-1.6,3.2-1.2,3.6-2.8
	c2.8-9.4,2.8-16.2,5.3-25.9l-0.4-30.3c-2.4-7.3,2-13,2-19.5c0-15.4,9.3-25.5,9.3-39.3c0-1.2,0-2.5,0-3.6c0-2.8,2-10.1,2.8-14.2
	c0-12.6,0-12.6,0-17.8c0-5.7,3.7-16.6,3.7-23.1c0-4.1-2.1-28-3.3-32.4c-3.6-9.7-10.1-15.8-17.4-19.4c-6.1-2.8-10.5-2-15-6.5
	c-4.9-4.9-7.3-6.5-13-8.1c-11.3-3.6-17-9.3-24.3-16.6c-3.2-3.2-1.6-7.7-1.6-12.6c0-6.5-6.1-9.7-7.7-15.4c-3.2-9.7-11.3-17-14.2-25.9
	c-2.8-9.3-5.3-14.6-8.9-22.3c-1.2-2.4-4.1-1.6-5.3-2.8c-2.8-2.8-3.7-8.5-4.9-11.3c-1.2-2.4-4.5-1.6-6.1-3.3
	c-4.4-4.5-10.1-12.5-10.1-19.8c0-4.8,2.8-10.5,4.5-12.2c3.6-6.1,10.9-7.7,12.5-14.2c-3.6-2.4-3.2-0.4-6.1-0.4
	c-5.7,0-6.5-8.1-6.5-13.8c0-9.3,10.2-7.6,8.5-25.5c10.9,0,13.8-10.9,17-17.4c4.5-8.9,15-6.1,17.4-17c-2-0.8-4.1-2.9-4.1-4.1l1.6-3.2
	V160.6z"/>
</svg>
