<svg width="170" height="45" viewBox="0 0 170 45" fill="none" xmlns="http://www.w3.org/2000/svg">
<path d="M162.22 11.8073C163.257 12.2341 163.333 11.4976 163.349 10.8112C163.408 8.83583 163.45 6.68469 163.475 4.70932C163.542 -0.748046 169.994 0.114083 169.894 4.94369C169.785 10.1165 169.584 15.2893 169.668 20.4537C169.727 24.4379 168.948 27.7525 166.304 30.9499C162.68 34.8086 158.085 35.6205 153.382 34.2561C146.335 32.2222 142.753 25.3168 145.515 18.2188C146.762 15.013 148.754 13.2972 149.072 13.046C151.29 11.2465 154.436 9.87374 157.499 10.2253C159.182 10.4011 160.454 10.6773 162.22 11.8073ZM162.228 26.1287C163.743 23.5674 163.475 20.9977 161.985 18.8801C160.136 16.2518 155.717 15.5822 153.332 17.7836C150.21 20.3365 150.762 25.6934 153.415 27.4595C156.286 29.6107 160.052 29.3596 162.228 26.1287Z" fill="#A8171A"/>
<path d="M138.795 30.2636C137.874 31.4605 136.518 32.49 135.062 33.3187C131.522 35.3192 127.638 35.4698 124.55 34.2813C123.496 33.8795 121.998 33.1848 121.085 32.5068C120.131 31.7953 119.152 30.9415 118.449 29.7781C117.545 28.2715 116.809 26.8402 116.474 25.3084C115.721 21.8599 116.315 17.9594 118.483 15.2976C119.797 13.6822 121.512 12.0751 123.588 11.2297C125.471 10.4597 127.68 10.2086 129.488 10.2588C131.346 10.3006 133.815 10.7275 135.455 11.7487C136.987 12.7029 137.522 12.9791 138.686 14.2514C138.937 14.5276 139.849 15.8417 140.041 16.3439C140.192 16.7541 140.845 18.5955 140.912 18.8466C141.632 21.659 141.824 23.2828 140.611 26.9155C140.184 28.1878 139.623 29.1838 138.795 30.2636ZM133.338 27.0076C135.221 24.9401 135.413 20.8471 133.447 18.3779C131.974 16.5364 128.827 15.8082 126.492 16.6787C124.14 17.5492 122.5 20.0017 122.642 22.7471C122.784 25.5009 124.349 27.627 126.676 28.4975C128.936 29.3345 131.522 28.9997 133.338 27.0076Z" fill="#A8171A"/>
<path d="M87.7011 22.2282C87.7597 17.1809 90.2704 13.6236 93.7101 11.6817C99.7526 8.28341 107.846 9.97419 111.252 16.277C113.829 21.048 112.465 30.0041 107.394 33.168C103.954 35.3108 99.9702 35.6456 96.3129 34.0804C94.932 33.4861 94.388 34.3064 94.388 34.9341C94.3629 36.9262 94.4215 38.9267 94.3378 40.9188C94.2625 42.7435 93.5344 44.3339 91.1743 44.3171C88.6385 44.3088 87.6509 42.3418 87.6509 41.0025C87.6509 34.8421 87.6342 28.5142 87.7011 22.2282ZM95.2752 26.6225C96.5138 28.2547 100.004 29.5186 101.937 28.8323C106.138 27.3507 107.745 22.8727 105.126 18.6959C103.276 15.758 98.5977 15.4399 96.1455 17.658C93.3252 20.2193 93.3837 24.1366 95.2752 26.6225Z" fill="#A8171A"/>
<path d="M79.1479 33.5195C75.566 32.9922 73.6327 29.5688 73.6327 25.2414C73.6327 22.7136 73.5741 20.1858 73.6578 17.658C73.708 16.3188 73.4319 15.7496 71.9003 15.7412C69.0799 15.7245 68.8121 12.2174 71.9087 12.1588C73.4486 12.1253 73.6662 11.5059 73.6411 10.2169C73.6076 8.96137 73.5992 7.97369 73.6076 6.27454C73.616 5.02738 74.7291 4.14014 75.7836 4.13177C76.9301 4.1234 77.8256 5.12782 77.8758 6.30802C77.9344 7.7728 77.9344 9.23759 77.9177 10.694C77.901 11.7068 78.3194 12.1002 79.3488 12.1002C81.6419 12.0918 83.1651 12.142 83.1986 13.724C83.2404 15.8417 81.1482 15.8333 79.0977 15.8082C78.2692 15.7998 77.8926 16.1681 77.8926 17.0135C77.9093 19.9431 77.8424 22.8643 77.9261 25.7938C77.993 28.171 79.2149 29.3093 81.6085 29.4181C83.6422 29.5186 84.3368 30.364 83.8346 32.4314C82.5793 34.0552 80.713 33.7539 79.1479 33.5195Z" fill="black"/>
<path d="M52.643 21.9771C51.2621 21.1986 50.4754 19.7506 50.3248 18.0933C50.1239 15.8668 50.9441 14.1593 52.8104 12.8786C56.5263 10.3257 62.9203 10.694 66.2009 13.724C66.5022 14.0002 67.9333 15.4985 67.0964 16.6787C66.0587 18.1351 64.2426 17.3316 63.5396 16.7206C61.4389 14.8875 58.9198 14.6196 56.4258 15.0716C55.3881 15.2558 54.1745 16.0928 54.0741 17.1558C53.9653 18.3025 55.455 19.0475 56.158 19.4158C57.3046 20.0184 58.7608 20.1105 60.0245 20.4955C61.3803 20.9057 62.6441 21.4079 63.9748 21.8599C67.7074 23.1321 69.1803 28.0957 65.3054 31.7869C64.728 32.3394 64.0333 32.7914 63.4057 32.9922C58.97 34.4319 54.526 33.8209 50.4754 31.5442C48.6258 30.5063 48.7932 29.0917 49.3205 28.0789C49.8812 26.9992 51.5299 26.882 53.4715 28.1124C55.6893 29.5186 57.9909 30.0124 60.8949 29.5521C62.4348 29.3093 63.8074 27.2084 62.6692 25.8692C62.1085 25.1996 61.1042 24.8815 60.443 24.6639C57.8402 23.8018 55.0198 23.3163 52.643 21.9771Z" fill="black"/>
<path d="M43.1022 28.6732C44.1316 30.1882 43.6462 31.109 42.0896 32.0046C34.072 36.65 28.0546 31.7032 27.6445 31.3601C25.7614 29.8116 23.167 26.045 23.6608 21.2907C23.937 18.629 24.9329 16.0677 26.0544 14.8791C27.0838 13.7826 31.0172 9.86538 37.1685 11.0958C42.8428 12.2341 44.5584 16.7792 45.3284 20.2193C45.9561 22.9982 45.1443 24.2286 42.3574 24.237C38.0389 24.2538 28.7827 24.1533 27.7617 24.2119C27.7617 24.2119 28.1717 25.7855 29.2514 27.2168C29.4271 27.4512 33.2602 32.4733 39.2859 29.142C40.7421 28.3384 42.3155 27.5098 43.1022 28.6732ZM40.6333 18.3277C39.0851 16.1765 37.8129 14.8624 34.6243 14.8624C32.3396 14.8624 29.7786 15.8584 28.3308 18.11C27.1842 19.8929 27.3265 20.6127 29.6866 20.5458C33.1263 20.4537 36.2396 20.5709 39.6793 20.5458C41.3531 20.5458 41.4117 19.4158 40.6333 18.3277Z" fill="black"/>
<path d="M24.64 6.19923C21.9702 6.23271 19.7524 6.16575 18.0535 6.18249C16.5219 6.19086 16.3546 6.4336 16.3211 9.07021C16.2206 16.6871 16.296 22.7136 16.2374 30.3222C16.1955 35.1601 11.4252 35.1183 11.534 30.3975C11.7013 22.8643 11.5591 16.7624 11.5842 9.03673C11.5925 6.9944 11.852 6.15738 9.80155 6.14064C7.76786 6.1239 5.7258 6.11553 3.69211 6.11553C-0.60124 6.11553 -0.375275 1.58725 3.63352 1.58725C10.538 1.58725 17.8275 1.62073 24.732 1.63747C27.8788 1.64584 27.8872 6.15738 24.64 6.19923Z" fill="black"/>
</svg>
