<?xml version="1.0" encoding="utf-8"?>
<!-- Generator: Adobe Illustrator 22.0.0, SVG Export Plug-In . SVG Version: 6.00 Build 0)  -->
<svg version="1.1" id="Layer_1" xmlns="http://www.w3.org/2000/svg" xmlns:xlink="http://www.w3.org/1999/xlink" x="0px" y="0px"
	 viewBox="0 0 900 600" style="enable-background:new 0 0 900 600;" xml:space="preserve">
<style type="text/css">
	.st0{fill:#CC092F;}
	.st1{fill:#FFCB00;}
</style>
<g>
	<path d="M0,0h900v600H0V0z"/>
	<path class="st0" d="M0,0h900v300H0V0z"/>
	<path class="st1" d="M390.9,205.8h36.6l11.1-34.5l11.4,34.5h36.6l-29.4,21.9l11.4,35.1l-30-21.3l-29.7,21.3l11.4-35.1L390.9,205.8z
		"/>
	<path class="st1" d="M524.8,394.7L496,372.2c29.1-23.7,48.1-60.1,48.1-100.6c0-61.9-44.1-113.8-102.4-126.1l4.5-21
		c8.1,1.8,17.6,5.2,25.4,7.9l7.5-12.6c8.1,3.9,17.1,7.8,24.6,12.6l-5.7,13.5c7.5,4.8,16.6,12.3,21.6,18.1l11.3-8.8
		c6,6.6,13.2,13.5,18.3,20.7L539,186.4c6.6,9.7,9.1,14.1,14,25.3l14.3-3.4c2.7,8.4,6.8,18.7,8.3,27.4l-13.6,5.3
		c1.6,6.8,3.7,18.6,3.6,28.5c0,0.6-0.1,1.3-0.1,1.9l14.2,2c-0.6,8.7-0.9,18.6-2.7,27.3h-14.7c-2.1,9-4.8,20-8.1,28.4l12.3,7.2
		c-3.9,7.8-7.8,17.1-12.9,24.6l-13.5-5.7c-5.1,7.5-10.8,14.7-17.1,21.3l8.7,11.4C529.3,390.2,527.2,392.3,524.8,394.7 M461.4,392
		l21.8,13.1c-2,1.9-8.1,5-9.7,5.6l3.6,13.7c-8.4,2.7-17.4,6.6-26.7,8.4l-5.4-13.5c-8.7,1.8-17.4,3-26.4,3l-1.8,14.1
		c-8.4-0.6-18.6,0-27.9-2.1v-14.1c-8.4-1.5-16.5-3.6-24.3-6.3l-6.9,12.3c-7.2-3-16.8-6.6-24.6-11.4l5.1-13.5
		c-6.3-3.3-12-7.5-17.4-11.7l13.5-17.1c22.2,17.7,50.2,28.2,80.8,28.2C431.1,400.7,447,398,461.4,392 M0,0"/>
</g>
</svg>
