<svg width="123" height="72" viewBox="0 0 123 72" fill="none" xmlns="http://www.w3.org/2000/svg">
<circle cx="102" cy="21" r="1" fill="white" fill-opacity="0.7"/>
<circle cx="92" cy="21" r="1" fill="white" fill-opacity="0.7"/>
<circle cx="82" cy="21" r="1" fill="white" fill-opacity="0.7"/>
<circle cx="72" cy="21" r="1" fill="white" fill-opacity="0.7"/>
<circle cx="62" cy="21" r="1" fill="white" fill-opacity="0.7"/>
<circle cx="122" cy="11" r="1" fill="white" fill-opacity="0.7"/>
<circle cx="112" cy="11" r="1" fill="white" fill-opacity="0.7"/>
<circle cx="102" cy="11" r="1" fill="white" fill-opacity="0.7"/>
<circle cx="92" cy="11" r="1" fill="white" fill-opacity="0.7"/>
<circle cx="72" cy="11" r="1" fill="white" fill-opacity="0.7"/>
<circle cx="82" cy="11" r="1" fill="white" fill-opacity="0.7"/>
<circle cx="112" cy="21" r="1" fill="white" fill-opacity="0.7"/>
<circle cx="62" cy="11" r="1" fill="white" fill-opacity="0.7"/>
<circle cx="122" cy="21" r="1" fill="white" fill-opacity="0.7"/>
<circle cx="102" cy="41" r="1" fill="white" fill-opacity="0.8"/>
<circle cx="92" cy="41" r="1" fill="white" fill-opacity="0.8"/>
<circle cx="82" cy="41" r="1" fill="white" fill-opacity="0.8"/>
<circle cx="72" cy="41" r="1" fill="white" fill-opacity="0.8"/>
<circle cx="62" cy="41" r="1" fill="white" fill-opacity="0.8"/>
<circle cx="122" cy="31" r="1" fill="white" fill-opacity="0.8"/>
<circle cx="112" cy="31" r="1" fill="white" fill-opacity="0.8"/>
<circle cx="102" cy="31" r="1" fill="white" fill-opacity="0.8"/>
<circle cx="92" cy="31" r="1" fill="white" fill-opacity="0.8"/>
<circle cx="72" cy="31" r="1" fill="white" fill-opacity="0.8"/>
<circle cx="82" cy="31" r="1" fill="white" fill-opacity="0.8"/>
<circle cx="112" cy="41" r="1" fill="white" fill-opacity="0.8"/>
<circle cx="62" cy="31" r="1" fill="white" fill-opacity="0.8"/>
<circle cx="122" cy="41" r="1" fill="white" fill-opacity="0.8"/>
<circle cx="102" cy="61" r="1" fill="white"/>
<circle cx="92" cy="61" r="1" fill="white"/>
<circle cx="82" cy="61" r="1" fill="white"/>
<circle cx="72" cy="61" r="1" fill="white"/>
<circle cx="62" cy="61" r="1" fill="white"/>
<circle cx="122" cy="51" r="1" fill="white"/>
<circle cx="112" cy="51" r="1" fill="white"/>
<circle cx="102" cy="51" r="1" fill="white"/>
<circle cx="92" cy="51" r="1" fill="white"/>
<circle cx="72" cy="51" r="1" fill="white"/>
<circle cx="82" cy="51" r="1" fill="white"/>
<circle cx="112" cy="61" r="1" fill="white"/>
<circle cx="62" cy="51" r="1" fill="white"/>
<circle cx="122" cy="61" r="1" fill="white"/>
<circle cx="102" cy="71" r="1" fill="white"/>
<circle cx="92" cy="71" r="1" fill="white"/>
<circle cx="82" cy="71" r="1" fill="white"/>
<circle cx="72" cy="71" r="1" fill="white"/>
<circle cx="62" cy="71" r="1" fill="white"/>
<circle cx="122" cy="61" r="1" fill="white"/>
<circle cx="112" cy="61" r="1" fill="white"/>
<circle cx="102" cy="61" r="1" fill="white"/>
<circle cx="92" cy="61" r="1" fill="white"/>
<circle cx="72" cy="61" r="1" fill="white"/>
<circle cx="82" cy="61" r="1" fill="white"/>
<circle cx="112" cy="71" r="1" fill="white"/>
<circle cx="62" cy="61" r="1" fill="white"/>
<circle cx="122" cy="71" r="1" fill="white"/>
<circle cx="42" cy="21" r="1" fill="white" fill-opacity="0.7"/>
<circle cx="32" cy="21" r="1" fill="white" fill-opacity="0.7"/>
<circle cx="22" cy="21" r="1" fill="white" fill-opacity="0.7"/>
<circle cx="12" cy="21" r="1" fill="white" fill-opacity="0.7"/>
<circle cx="2" cy="21" r="1" fill="white" fill-opacity="0.7"/>
<circle cx="62" cy="11" r="1" fill="white" fill-opacity="0.7"/>
<circle cx="52" cy="11" r="1" fill="white" fill-opacity="0.7"/>
<circle cx="42" cy="11" r="1" fill="white" fill-opacity="0.7"/>
<circle cx="32" cy="11" r="1" fill="white" fill-opacity="0.7"/>
<circle cx="12" cy="11" r="1" fill="white" fill-opacity="0.7"/>
<circle cx="22" cy="11" r="1" fill="white" fill-opacity="0.7"/>
<circle cx="52" cy="21" r="1" fill="white" fill-opacity="0.7"/>
<circle cx="2" cy="11" r="1" fill="white" fill-opacity="0.7"/>
<circle cx="62" cy="21" r="1" fill="white" fill-opacity="0.7"/>
<circle cx="42" cy="41" r="1" fill="white" fill-opacity="0.8"/>
<circle cx="32" cy="41" r="1" fill="white" fill-opacity="0.8"/>
<circle cx="22" cy="41" r="1" fill="white" fill-opacity="0.8"/>
<circle cx="12" cy="41" r="1" fill="white" fill-opacity="0.8"/>
<circle cx="2" cy="41" r="1" fill="white" fill-opacity="0.8"/>
<circle cx="62" cy="31" r="1" fill="white" fill-opacity="0.8"/>
<circle cx="52" cy="31" r="1" fill="white" fill-opacity="0.8"/>
<circle cx="42" cy="31" r="1" fill="white" fill-opacity="0.8"/>
<circle cx="32" cy="31" r="1" fill="white" fill-opacity="0.8"/>
<circle cx="12" cy="31" r="1" fill="white" fill-opacity="0.8"/>
<circle cx="22" cy="31" r="1" fill="white" fill-opacity="0.8"/>
<circle cx="52" cy="41" r="1" fill="white" fill-opacity="0.8"/>
<circle cx="2" cy="31" r="1" fill="white" fill-opacity="0.8"/>
<circle cx="62" cy="41" r="1" fill="white" fill-opacity="0.8"/>
<circle cx="42" cy="61" r="1" fill="white"/>
<circle cx="32" cy="61" r="1" fill="white"/>
<circle cx="22" cy="61" r="1" fill="white"/>
<circle cx="12" cy="61" r="1" fill="white"/>
<circle cx="2" cy="61" r="1" fill="white"/>
<circle cx="62" cy="51" r="1" fill="white"/>
<circle cx="52" cy="51" r="1" fill="white"/>
<circle cx="42" cy="51" r="1" fill="white"/>
<circle cx="32" cy="51" r="1" fill="white"/>
<circle cx="12" cy="51" r="1" fill="white"/>
<circle cx="22" cy="51" r="1" fill="white"/>
<circle cx="52" cy="61" r="1" fill="white"/>
<circle cx="2" cy="51" r="1" fill="white"/>
<circle cx="62" cy="61" r="1" fill="white"/>
<circle cx="42" cy="71" r="1" fill="white"/>
<circle cx="32" cy="71" r="1" fill="white"/>
<circle cx="22" cy="71" r="1" fill="white"/>
<circle cx="12" cy="71" r="1" fill="white"/>
<circle cx="2" cy="71" r="1" fill="white"/>
<circle cx="62" cy="61" r="1" fill="white"/>
<circle cx="52" cy="61" r="1" fill="white"/>
<circle cx="42" cy="61" r="1" fill="white"/>
<circle cx="32" cy="61" r="1" fill="white"/>
<circle cx="12" cy="61" r="1" fill="white"/>
<circle cx="22" cy="61" r="1" fill="white"/>
<circle cx="52" cy="71" r="1" fill="white"/>
<circle cx="2" cy="61" r="1" fill="white"/>
<circle cx="62" cy="71" r="1" fill="white"/>
<ellipse cx="14.7556" cy="7.23927" rx="0.355051" ry="0.574629" transform="rotate(0.822098 14.7556 7.23927)" fill="white" fill-opacity="0.2"/>
<ellipse cx="11.2055" cy="7.18832" rx="0.355051" ry="0.574629" transform="rotate(0.822098 11.2055 7.18832)" fill="white" fill-opacity="0.2"/>
<ellipse cx="7.65533" cy="7.13739" rx="0.355051" ry="0.574629" transform="rotate(0.822098 7.65533 7.13739)" fill="white" fill-opacity="0.2"/>
<ellipse cx="4.10518" cy="7.08644" rx="0.355051" ry="0.574629" transform="rotate(0.822098 4.10518 7.08644)" fill="white" fill-opacity="0.2"/>
<ellipse cx="0.555032" cy="7.0355" rx="0.355051" ry="0.574629" transform="rotate(0.822098 0.555032 7.0355)" fill="white" fill-opacity="0.2"/>
<ellipse cx="21.9384" cy="1.59546" rx="0.355051" ry="0.574629" transform="rotate(0.822098 21.9384 1.59546)" fill="white" fill-opacity="0.2"/>
<ellipse cx="18.3882" cy="1.54452" rx="0.355051" ry="0.574629" transform="rotate(0.822098 18.3882 1.54452)" fill="white" fill-opacity="0.2"/>
<ellipse cx="14.8381" cy="1.49357" rx="0.355051" ry="0.574629" transform="rotate(0.822098 14.8381 1.49357)" fill="white" fill-opacity="0.2"/>
<ellipse cx="11.2879" cy="1.44263" rx="0.355051" ry="0.574629" transform="rotate(0.822098 11.2879 1.44263)" fill="white" fill-opacity="0.2"/>
<ellipse cx="4.18763" cy="1.34075" rx="0.355051" ry="0.574629" transform="rotate(0.822098 4.18763 1.34075)" fill="white" fill-opacity="0.2"/>
<ellipse cx="7.73778" cy="1.39169" rx="0.355051" ry="0.574629" transform="rotate(0.822098 7.73778 1.39169)" fill="white" fill-opacity="0.2"/>
<ellipse cx="18.3058" cy="7.29022" rx="0.355051" ry="0.574629" transform="rotate(0.822098 18.3058 7.29022)" fill="white" fill-opacity="0.2"/>
<ellipse cx="0.637479" cy="1.28981" rx="0.355051" ry="0.574629" transform="rotate(0.822098 0.637479 1.28981)" fill="white" fill-opacity="0.2"/>
<ellipse cx="21.8559" cy="7.34115" rx="0.355051" ry="0.574629" transform="rotate(0.822098 21.8559 7.34115)" fill="white" fill-opacity="0.2"/>
<ellipse cx="54.7556" cy="7.23927" rx="0.355051" ry="0.574629" transform="rotate(0.822098 54.7556 7.23927)" fill="white" fill-opacity="0.2"/>
<ellipse cx="51.2055" cy="7.18832" rx="0.355051" ry="0.574629" transform="rotate(0.822098 51.2055 7.18832)" fill="white" fill-opacity="0.2"/>
<ellipse cx="47.6553" cy="7.13739" rx="0.355051" ry="0.574629" transform="rotate(0.822098 47.6553 7.13739)" fill="white" fill-opacity="0.2"/>
<ellipse cx="44.1052" cy="7.08644" rx="0.355051" ry="0.574629" transform="rotate(0.822098 44.1052 7.08644)" fill="white" fill-opacity="0.2"/>
<ellipse cx="40.555" cy="7.0355" rx="0.355051" ry="0.574629" transform="rotate(0.822098 40.555 7.0355)" fill="white" fill-opacity="0.2"/>
<ellipse cx="61.9384" cy="1.59546" rx="0.355051" ry="0.574629" transform="rotate(0.822098 61.9384 1.59546)" fill="white" fill-opacity="0.2"/>
<ellipse cx="58.3882" cy="1.54452" rx="0.355051" ry="0.574629" transform="rotate(0.822098 58.3882 1.54452)" fill="white" fill-opacity="0.2"/>
<ellipse cx="54.8381" cy="1.49357" rx="0.355051" ry="0.574629" transform="rotate(0.822098 54.8381 1.49357)" fill="white" fill-opacity="0.2"/>
<ellipse cx="51.2879" cy="1.44263" rx="0.355051" ry="0.574629" transform="rotate(0.822098 51.2879 1.44263)" fill="white" fill-opacity="0.2"/>
<ellipse cx="44.1876" cy="1.34075" rx="0.355051" ry="0.574629" transform="rotate(0.822098 44.1876 1.34075)" fill="white" fill-opacity="0.2"/>
<ellipse cx="47.7378" cy="1.39169" rx="0.355051" ry="0.574629" transform="rotate(0.822098 47.7378 1.39169)" fill="white" fill-opacity="0.2"/>
<ellipse cx="58.3058" cy="7.29022" rx="0.355051" ry="0.574629" transform="rotate(0.822098 58.3058 7.29022)" fill="white" fill-opacity="0.2"/>
<ellipse cx="40.6375" cy="1.28981" rx="0.355051" ry="0.574629" transform="rotate(0.822098 40.6375 1.28981)" fill="white" fill-opacity="0.2"/>
<ellipse cx="61.8559" cy="7.34115" rx="0.355051" ry="0.574629" transform="rotate(0.822098 61.8559 7.34115)" fill="white" fill-opacity="0.2"/>
</svg>
