<svg width="1401" height="408" viewBox="0 0 1401 408" fill="none" xmlns="http://www.w3.org/2000/svg">
<circle cx="820" cy="347" r="1" fill="white" fill-opacity="0.7"/>
<circle cx="810" cy="347" r="1" fill="white" fill-opacity="0.7"/>
<circle cx="800" cy="347" r="1" fill="white" fill-opacity="0.7"/>
<circle cx="790" cy="347" r="1" fill="white" fill-opacity="0.7"/>
<circle cx="780" cy="347" r="1" fill="white" fill-opacity="0.7"/>
<circle cx="840" cy="337" r="1" fill="white" fill-opacity="0.7"/>
<circle cx="830" cy="337" r="1" fill="white" fill-opacity="0.7"/>
<circle cx="820" cy="337" r="1" fill="white" fill-opacity="0.7"/>
<circle cx="810" cy="337" r="1" fill="white" fill-opacity="0.7"/>
<circle cx="790" cy="337" r="1" fill="white" fill-opacity="0.7"/>
<circle cx="800" cy="337" r="1" fill="white" fill-opacity="0.7"/>
<circle cx="830" cy="347" r="1" fill="white" fill-opacity="0.7"/>
<circle cx="780" cy="337" r="1" fill="white" fill-opacity="0.7"/>
<circle cx="840" cy="347" r="1" fill="white" fill-opacity="0.7"/>
<circle cx="820" cy="367" r="1" fill="white" fill-opacity="0.8"/>
<circle cx="810" cy="367" r="1" fill="white" fill-opacity="0.8"/>
<circle cx="800" cy="367" r="1" fill="white" fill-opacity="0.8"/>
<circle cx="790" cy="367" r="1" fill="white" fill-opacity="0.8"/>
<circle cx="780" cy="367" r="1" fill="white" fill-opacity="0.8"/>
<circle cx="840" cy="357" r="1" fill="white" fill-opacity="0.8"/>
<circle cx="830" cy="357" r="1" fill="white" fill-opacity="0.8"/>
<circle cx="820" cy="357" r="1" fill="white" fill-opacity="0.8"/>
<circle cx="810" cy="357" r="1" fill="white" fill-opacity="0.8"/>
<circle cx="790" cy="357" r="1" fill="white" fill-opacity="0.8"/>
<circle cx="800" cy="357" r="1" fill="white" fill-opacity="0.8"/>
<circle cx="830" cy="367" r="1" fill="white" fill-opacity="0.8"/>
<circle cx="780" cy="357" r="1" fill="white" fill-opacity="0.8"/>
<circle cx="840" cy="367" r="1" fill="white" fill-opacity="0.8"/>
<circle cx="820" cy="387" r="1" fill="white"/>
<circle cx="810" cy="387" r="1" fill="white"/>
<circle cx="800" cy="387" r="1" fill="white"/>
<circle cx="790" cy="387" r="1" fill="white"/>
<circle cx="780" cy="387" r="1" fill="white"/>
<circle cx="840" cy="377" r="1" fill="white"/>
<circle cx="830" cy="377" r="1" fill="white"/>
<circle cx="820" cy="377" r="1" fill="white"/>
<circle cx="810" cy="377" r="1" fill="white"/>
<circle cx="790" cy="377" r="1" fill="white"/>
<circle cx="800" cy="377" r="1" fill="white"/>
<circle cx="830" cy="387" r="1" fill="white"/>
<circle cx="780" cy="377" r="1" fill="white"/>
<circle cx="840" cy="387" r="1" fill="white"/>
<circle cx="820" cy="397" r="1" fill="white"/>
<circle cx="810" cy="397" r="1" fill="white"/>
<circle cx="800" cy="397" r="1" fill="white"/>
<circle cx="790" cy="397" r="1" fill="white"/>
<circle cx="780" cy="397" r="1" fill="white"/>
<circle cx="840" cy="387" r="1" fill="white"/>
<circle cx="830" cy="387" r="1" fill="white"/>
<circle cx="820" cy="387" r="1" fill="white"/>
<circle cx="810" cy="387" r="1" fill="white"/>
<circle cx="790" cy="387" r="1" fill="white"/>
<circle cx="800" cy="387" r="1" fill="white"/>
<circle cx="830" cy="397" r="1" fill="white"/>
<circle cx="780" cy="387" r="1" fill="white"/>
<circle cx="840" cy="397" r="1" fill="white"/>
<circle cx="760" cy="347" r="1" fill="white" fill-opacity="0.7"/>
<circle cx="750" cy="347" r="1" fill="white" fill-opacity="0.7"/>
<circle cx="740" cy="347" r="1" fill="white" fill-opacity="0.7"/>
<circle cx="730" cy="347" r="1" fill="white" fill-opacity="0.7"/>
<circle cx="720" cy="347" r="1" fill="white" fill-opacity="0.7"/>
<circle cx="780" cy="337" r="1" fill="white" fill-opacity="0.7"/>
<circle cx="770" cy="337" r="1" fill="white" fill-opacity="0.7"/>
<circle cx="760" cy="337" r="1" fill="white" fill-opacity="0.7"/>
<circle cx="750" cy="337" r="1" fill="white" fill-opacity="0.7"/>
<circle cx="730" cy="337" r="1" fill="white" fill-opacity="0.7"/>
<circle cx="740" cy="337" r="1" fill="white" fill-opacity="0.7"/>
<circle cx="770" cy="347" r="1" fill="white" fill-opacity="0.7"/>
<circle cx="720" cy="337" r="1" fill="white" fill-opacity="0.7"/>
<circle cx="780" cy="347" r="1" fill="white" fill-opacity="0.7"/>
<circle cx="760" cy="367" r="1" fill="white" fill-opacity="0.8"/>
<circle cx="750" cy="367" r="1" fill="white" fill-opacity="0.8"/>
<circle cx="740" cy="367" r="1" fill="white" fill-opacity="0.8"/>
<circle cx="730" cy="367" r="1" fill="white" fill-opacity="0.8"/>
<circle cx="720" cy="367" r="1" fill="white" fill-opacity="0.8"/>
<circle cx="780" cy="357" r="1" fill="white" fill-opacity="0.8"/>
<circle cx="770" cy="357" r="1" fill="white" fill-opacity="0.8"/>
<circle cx="760" cy="357" r="1" fill="white" fill-opacity="0.8"/>
<circle cx="750" cy="357" r="1" fill="white" fill-opacity="0.8"/>
<circle cx="730" cy="357" r="1" fill="white" fill-opacity="0.8"/>
<circle cx="740" cy="357" r="1" fill="white" fill-opacity="0.8"/>
<circle cx="770" cy="367" r="1" fill="white" fill-opacity="0.8"/>
<circle cx="720" cy="357" r="1" fill="white" fill-opacity="0.8"/>
<circle cx="780" cy="367" r="1" fill="white" fill-opacity="0.8"/>
<circle cx="760" cy="387" r="1" fill="white"/>
<circle cx="750" cy="387" r="1" fill="white"/>
<circle cx="740" cy="387" r="1" fill="white"/>
<circle cx="730" cy="387" r="1" fill="white"/>
<circle cx="720" cy="387" r="1" fill="white"/>
<circle cx="780" cy="377" r="1" fill="white"/>
<circle cx="770" cy="377" r="1" fill="white"/>
<circle cx="760" cy="377" r="1" fill="white"/>
<circle cx="750" cy="377" r="1" fill="white"/>
<circle cx="730" cy="377" r="1" fill="white"/>
<circle cx="740" cy="377" r="1" fill="white"/>
<circle cx="770" cy="387" r="1" fill="white"/>
<circle cx="720" cy="377" r="1" fill="white"/>
<circle cx="780" cy="387" r="1" fill="white"/>
<circle cx="760" cy="397" r="1" fill="white"/>
<circle cx="750" cy="397" r="1" fill="white"/>
<circle cx="740" cy="397" r="1" fill="white"/>
<circle cx="730" cy="397" r="1" fill="white"/>
<circle cx="720" cy="397" r="1" fill="white"/>
<circle cx="780" cy="387" r="1" fill="white"/>
<circle cx="770" cy="387" r="1" fill="white"/>
<circle cx="760" cy="387" r="1" fill="white"/>
<circle cx="750" cy="387" r="1" fill="white"/>
<circle cx="730" cy="387" r="1" fill="white"/>
<circle cx="740" cy="387" r="1" fill="white"/>
<circle cx="770" cy="397" r="1" fill="white"/>
<circle cx="720" cy="387" r="1" fill="white"/>
<circle cx="780" cy="397" r="1" fill="white"/>
<ellipse cx="732.756" cy="333.239" rx="0.355051" ry="0.574629" transform="rotate(0.822098 732.756 333.239)" fill="white" fill-opacity="0.2"/>
<ellipse cx="729.206" cy="333.188" rx="0.355051" ry="0.574629" transform="rotate(0.822098 729.206 333.188)" fill="white" fill-opacity="0.2"/>
<ellipse cx="725.655" cy="333.137" rx="0.355051" ry="0.574629" transform="rotate(0.822098 725.655 333.137)" fill="white" fill-opacity="0.2"/>
<ellipse cx="722.105" cy="333.086" rx="0.355051" ry="0.574629" transform="rotate(0.822098 722.105 333.086)" fill="white" fill-opacity="0.2"/>
<ellipse cx="718.555" cy="333.035" rx="0.355051" ry="0.574629" transform="rotate(0.822098 718.555 333.035)" fill="white" fill-opacity="0.2"/>
<ellipse cx="739.938" cy="327.595" rx="0.355051" ry="0.574629" transform="rotate(0.822098 739.938 327.595)" fill="white" fill-opacity="0.2"/>
<ellipse cx="736.388" cy="327.545" rx="0.355051" ry="0.574629" transform="rotate(0.822098 736.388 327.545)" fill="white" fill-opacity="0.2"/>
<ellipse cx="732.838" cy="327.494" rx="0.355051" ry="0.574629" transform="rotate(0.822098 732.838 327.494)" fill="white" fill-opacity="0.2"/>
<ellipse cx="729.288" cy="327.443" rx="0.355051" ry="0.574629" transform="rotate(0.822098 729.288 327.443)" fill="white" fill-opacity="0.2"/>
<ellipse cx="722.188" cy="327.341" rx="0.355051" ry="0.574629" transform="rotate(0.822098 722.188 327.341)" fill="white" fill-opacity="0.2"/>
<ellipse cx="725.738" cy="327.392" rx="0.355051" ry="0.574629" transform="rotate(0.822098 725.738 327.392)" fill="white" fill-opacity="0.2"/>
<ellipse cx="736.306" cy="333.29" rx="0.355051" ry="0.574629" transform="rotate(0.822098 736.306 333.29)" fill="white" fill-opacity="0.2"/>
<ellipse cx="718.637" cy="327.29" rx="0.355051" ry="0.574629" transform="rotate(0.822098 718.637 327.29)" fill="white" fill-opacity="0.2"/>
<ellipse cx="739.856" cy="333.341" rx="0.355051" ry="0.574629" transform="rotate(0.822098 739.856 333.341)" fill="white" fill-opacity="0.2"/>
<ellipse cx="772.756" cy="333.239" rx="0.355051" ry="0.574629" transform="rotate(0.822098 772.756 333.239)" fill="white" fill-opacity="0.2"/>
<ellipse cx="769.205" cy="333.188" rx="0.355051" ry="0.574629" transform="rotate(0.822098 769.205 333.188)" fill="white" fill-opacity="0.2"/>
<ellipse cx="765.655" cy="333.137" rx="0.355051" ry="0.574629" transform="rotate(0.822098 765.655 333.137)" fill="white" fill-opacity="0.2"/>
<ellipse cx="762.105" cy="333.086" rx="0.355051" ry="0.574629" transform="rotate(0.822098 762.105 333.086)" fill="white" fill-opacity="0.2"/>
<ellipse cx="758.555" cy="333.035" rx="0.355051" ry="0.574629" transform="rotate(0.822098 758.555 333.035)" fill="white" fill-opacity="0.2"/>
<ellipse cx="779.938" cy="327.595" rx="0.355051" ry="0.574629" transform="rotate(0.822098 779.938 327.595)" fill="white" fill-opacity="0.2"/>
<ellipse cx="776.388" cy="327.545" rx="0.355051" ry="0.574629" transform="rotate(0.822098 776.388 327.545)" fill="white" fill-opacity="0.2"/>
<ellipse cx="772.838" cy="327.494" rx="0.355051" ry="0.574629" transform="rotate(0.822098 772.838 327.494)" fill="white" fill-opacity="0.2"/>
<ellipse cx="769.288" cy="327.443" rx="0.355051" ry="0.574629" transform="rotate(0.822098 769.288 327.443)" fill="white" fill-opacity="0.2"/>
<ellipse cx="762.188" cy="327.341" rx="0.355051" ry="0.574629" transform="rotate(0.822098 762.188 327.341)" fill="white" fill-opacity="0.2"/>
<ellipse cx="765.738" cy="327.392" rx="0.355051" ry="0.574629" transform="rotate(0.822098 765.738 327.392)" fill="white" fill-opacity="0.2"/>
<ellipse cx="776.306" cy="333.29" rx="0.355051" ry="0.574629" transform="rotate(0.822098 776.306 333.29)" fill="white" fill-opacity="0.2"/>
<ellipse cx="758.637" cy="327.29" rx="0.355051" ry="0.574629" transform="rotate(0.822098 758.637 327.29)" fill="white" fill-opacity="0.2"/>
<ellipse cx="779.856" cy="333.341" rx="0.355051" ry="0.574629" transform="rotate(0.822098 779.856 333.341)" fill="white" fill-opacity="0.2"/>
<mask id="mask0_3_19" style="mask-type:alpha" maskUnits="userSpaceOnUse" x="0" y="0" width="1401" height="400">
<rect width="1401" height="400" fill="#D9D9D9"/>
</mask>
<g mask="url(#mask0_3_19)">
<path d="M952 -24L735.725 148.888C706.629 172.147 705.537 216.02 733.44 240.698L952 434" stroke="#FF8D8D" stroke-width="50"/>
<path d="M952 -24L735.725 148.888C706.629 172.147 705.537 216.02 733.44 240.698L952 434" stroke="white" stroke-width="10"/>
</g>
</svg>
